<svg version="1.0" preserveAspectRatio="xMidYMid meet" height="1980" viewBox="0 0 1485 1484.999939" zoomAndPan="magnify" width="1980" xmlns:xlink="http://www.w3.org/1999/xlink" xmlns="http://www.w3.org/2000/svg"><defs><g></g><clipPath id="f7dc23595a"><path clip-rule="nonzero" d="M 156.847656 156.847656 L 1328.347656 156.847656 L 1328.347656 1328.347656 L 156.847656 1328.347656 Z M 156.847656 156.847656"></path></clipPath><clipPath id="8cdd2fa71e"><path clip-rule="nonzero" d="M 178.960938 178.960938 L 1306.210938 178.960938 L 1306.210938 1306.210938 L 178.960938 1306.210938 Z M 178.960938 178.960938"></path></clipPath><clipPath id="181e1b90d8"><path clip-rule="nonzero" d="M 227.242188 1057.296875 L 1257.742188 1057.296875 L 1257.742188 1252.296875 L 227.242188 1252.296875 Z M 227.242188 1057.296875"></path></clipPath><clipPath id="0cf99e27c5"><path clip-rule="nonzero" d="M 247.167969 1076.175781 L 1237.917969 1076.175781 L 1237.917969 1233.675781 L 247.167969 1233.675781 Z M 247.167969 1076.175781"></path></clipPath><clipPath id="42e48c7d61"><path clip-rule="nonzero" d="M 398.78125 365.132812 L 1143 365.132812 L 1143 1007.882812 L 398.78125 1007.882812 Z M 398.78125 365.132812"></path></clipPath></defs><g clip-path="url(#f7dc23595a)"><path fill-rule="nonzero" fill-opacity="1" d="M 1328.148438 742.5 C 1328.148438 752.082031 1327.914062 761.664062 1327.445312 771.234375 C 1326.972656 780.808594 1326.269531 790.363281 1325.328125 799.902344 C 1324.390625 809.441406 1323.214844 818.949219 1321.808594 828.429688 C 1320.402344 837.914062 1318.765625 847.351562 1316.894531 856.753906 C 1315.027344 866.152344 1312.925781 875.503906 1310.597656 884.800781 C 1308.269531 894.097656 1305.714844 903.332031 1302.929688 912.503906 C 1300.148438 921.675781 1297.144531 930.773438 1293.914062 939.796875 C 1290.683594 948.824219 1287.238281 957.761719 1283.570312 966.617188 C 1279.902344 975.472656 1276.019531 984.230469 1271.921875 992.898438 C 1267.824219 1001.5625 1263.515625 1010.121094 1258.996094 1018.574219 C 1254.476562 1027.023438 1249.753906 1035.363281 1244.828125 1043.582031 C 1239.898438 1051.804688 1234.773438 1059.898438 1229.449219 1067.867188 C 1224.125 1075.839844 1218.605469 1083.671875 1212.898438 1091.371094 C 1207.1875 1099.070312 1201.292969 1106.621094 1195.210938 1114.03125 C 1189.132812 1121.441406 1182.875 1128.695312 1176.4375 1135.796875 C 1170 1142.898438 1163.394531 1149.839844 1156.617188 1156.617188 C 1149.839844 1163.394531 1142.898438 1170 1135.796875 1176.4375 C 1128.695312 1182.875 1121.441406 1189.132812 1114.03125 1195.210938 C 1106.621094 1201.292969 1099.070312 1207.1875 1091.371094 1212.898438 C 1083.671875 1218.605469 1075.835938 1224.125 1067.867188 1229.449219 C 1059.898438 1234.773438 1051.804688 1239.898438 1043.582031 1244.828125 C 1035.363281 1249.753906 1027.023438 1254.476562 1018.574219 1258.996094 C 1010.121094 1263.515625 1001.5625 1267.824219 992.894531 1271.921875 C 984.230469 1276.019531 975.472656 1279.902344 966.617188 1283.570312 C 957.761719 1287.238281 948.824219 1290.683594 939.796875 1293.914062 C 930.773438 1297.144531 921.675781 1300.148438 912.503906 1302.929688 C 903.332031 1305.714844 894.097656 1308.269531 884.800781 1310.597656 C 875.503906 1312.925781 866.152344 1315.027344 856.753906 1316.894531 C 847.351562 1318.765625 837.914062 1320.402344 828.429688 1321.808594 C 818.949219 1323.214844 809.441406 1324.390625 799.902344 1325.328125 C 790.363281 1326.269531 780.808594 1326.972656 771.234375 1327.445312 C 761.664062 1327.914062 752.082031 1328.148438 742.5 1328.148438 C 732.914062 1328.148438 723.335938 1327.914062 713.761719 1327.445312 C 704.1875 1326.972656 694.632812 1326.269531 685.09375 1325.328125 C 675.554688 1324.390625 666.046875 1323.214844 656.566406 1321.808594 C 647.085938 1320.402344 637.644531 1318.765625 628.242188 1316.894531 C 618.84375 1315.027344 609.496094 1312.925781 600.199219 1310.597656 C 590.898438 1308.269531 581.664062 1305.714844 572.492188 1302.929688 C 563.320312 1300.148438 554.222656 1297.144531 545.199219 1293.914062 C 536.175781 1290.683594 527.234375 1287.238281 518.378906 1283.570312 C 509.523438 1279.902344 500.765625 1276.019531 492.101562 1271.921875 C 483.4375 1267.824219 474.878906 1263.515625 466.425781 1258.996094 C 457.972656 1254.476562 449.636719 1249.753906 441.414062 1244.828125 C 433.191406 1239.898438 425.097656 1234.773438 417.128906 1229.449219 C 409.160156 1224.125 401.324219 1218.605469 393.628906 1212.898438 C 385.929688 1207.1875 378.375 1201.292969 370.964844 1195.210938 C 363.558594 1189.132812 356.300781 1182.875 349.199219 1176.4375 C 342.097656 1170 335.160156 1163.394531 328.382812 1156.617188 C 321.605469 1149.839844 314.996094 1142.898438 308.558594 1135.796875 C 302.125 1128.695312 295.867188 1121.441406 289.785156 1114.03125 C 283.703125 1106.621094 277.808594 1099.070312 272.101562 1091.371094 C 266.390625 1083.671875 260.875 1075.839844 255.546875 1067.867188 C 250.222656 1059.898438 245.097656 1051.804688 240.167969 1043.582031 C 235.242188 1035.363281 230.519531 1027.023438 226 1018.574219 C 221.484375 1010.121094 217.175781 1001.5625 213.078125 992.894531 C 208.980469 984.230469 205.097656 975.472656 201.429688 966.617188 C 197.761719 957.761719 194.3125 948.824219 191.082031 939.796875 C 187.855469 930.773438 184.847656 921.675781 182.066406 912.503906 C 179.285156 903.332031 176.730469 894.097656 174.398438 884.800781 C 172.070312 875.503906 169.972656 866.152344 168.101562 856.753906 C 166.230469 847.351562 164.59375 837.914062 163.1875 828.429688 C 161.78125 818.949219 160.609375 809.441406 159.667969 799.902344 C 158.730469 790.363281 158.023438 780.808594 157.554688 771.234375 C 157.082031 761.664062 156.847656 752.082031 156.847656 742.5 C 156.847656 732.914062 157.082031 723.335938 157.554688 713.761719 C 158.023438 704.1875 158.730469 694.632812 159.667969 685.09375 C 160.609375 675.554688 161.78125 666.046875 163.1875 656.566406 C 164.59375 647.085938 166.230469 637.644531 168.101562 628.242188 C 169.972656 618.84375 172.070312 609.496094 174.398438 600.199219 C 176.730469 590.898438 179.285156 581.664062 182.066406 572.492188 C 184.847656 563.320312 187.855469 554.222656 191.082031 545.199219 C 194.3125 536.175781 197.761719 527.234375 201.429688 518.378906 C 205.097656 509.523438 208.980469 500.765625 213.078125 492.101562 C 217.175781 483.4375 221.484375 474.878906 226 466.425781 C 230.519531 457.972656 235.242188 449.636719 240.167969 441.414062 C 245.097656 433.195312 250.222656 425.097656 255.546875 417.128906 C 260.875 409.160156 266.390625 401.324219 272.101562 393.628906 C 277.808594 385.929688 283.703125 378.375 289.785156 370.964844 C 295.867188 363.558594 302.125 356.300781 308.5625 349.199219 C 314.996094 342.097656 321.605469 335.160156 328.382812 328.382812 C 335.160156 321.605469 342.097656 314.996094 349.199219 308.5625 C 356.300781 302.125 363.558594 295.867188 370.964844 289.785156 C 378.375 283.703125 385.929688 277.808594 393.628906 272.101562 C 401.324219 266.390625 409.160156 260.875 417.128906 255.546875 C 425.097656 250.222656 433.191406 245.097656 441.414062 240.167969 C 449.636719 235.242188 457.972656 230.519531 466.425781 226 C 474.878906 221.484375 483.4375 217.175781 492.101562 213.078125 C 500.765625 208.980469 509.523438 205.097656 518.378906 201.429688 C 527.234375 197.761719 536.175781 194.3125 545.199219 191.082031 C 554.222656 187.855469 563.320312 184.847656 572.492188 182.066406 C 581.664062 179.285156 590.898438 176.730469 600.199219 174.398438 C 609.496094 172.070312 618.84375 169.972656 628.242188 168.101562 C 637.644531 166.230469 647.085938 164.59375 656.566406 163.1875 C 666.046875 161.78125 675.554688 160.609375 685.09375 159.667969 C 694.632812 158.730469 704.1875 158.023438 713.761719 157.554688 C 723.335938 157.082031 732.914062 156.847656 742.5 156.847656 C 752.082031 156.847656 761.664062 157.082031 771.234375 157.554688 C 780.808594 158.023438 790.363281 158.730469 799.902344 159.667969 C 809.441406 160.609375 818.949219 161.78125 828.429688 163.1875 C 837.914062 164.59375 847.351562 166.230469 856.753906 168.101562 C 866.152344 169.972656 875.503906 172.070312 884.800781 174.398438 C 894.097656 176.730469 903.332031 179.285156 912.503906 182.066406 C 921.675781 184.847656 930.773438 187.855469 939.796875 191.082031 C 948.824219 194.3125 957.761719 197.761719 966.617188 201.429688 C 975.472656 205.097656 984.230469 208.980469 992.898438 213.078125 C 1001.5625 217.175781 1010.121094 221.484375 1018.574219 226 C 1027.023438 230.519531 1035.363281 235.242188 1043.582031 240.167969 C 1051.804688 245.097656 1059.898438 250.222656 1067.867188 255.546875 C 1075.835938 260.875 1083.671875 266.390625 1091.371094 272.101562 C 1099.070312 277.808594 1106.621094 283.703125 1114.03125 289.785156 C 1121.441406 295.867188 1128.695312 302.125 1135.796875 308.5625 C 1142.898438 314.996094 1149.839844 321.605469 1156.617188 328.382812 C 1163.394531 335.160156 1170 342.097656 1176.4375 349.199219 C 1182.875 356.300781 1189.132812 363.558594 1195.210938 370.964844 C 1201.292969 378.375 1207.1875 385.929688 1212.898438 393.628906 C 1218.605469 401.324219 1224.125 409.160156 1229.449219 417.128906 C 1234.773438 425.097656 1239.898438 433.195312 1244.828125 441.414062 C 1249.753906 449.636719 1254.476562 457.972656 1258.996094 466.425781 C 1263.515625 474.878906 1267.824219 483.4375 1271.921875 492.101562 C 1276.019531 500.765625 1279.902344 509.523438 1283.570312 518.378906 C 1287.238281 527.234375 1290.683594 536.175781 1293.914062 545.199219 C 1297.144531 554.222656 1300.148438 563.320312 1302.929688 572.492188 C 1305.714844 581.664062 1308.269531 590.898438 1310.597656 600.199219 C 1312.925781 609.496094 1315.027344 618.84375 1316.894531 628.242188 C 1318.765625 637.644531 1320.402344 647.085938 1321.808594 656.566406 C 1323.214844 666.046875 1324.390625 675.554688 1325.328125 685.09375 C 1326.269531 694.632812 1326.972656 704.1875 1327.445312 713.761719 C 1327.914062 723.335938 1328.148438 732.914062 1328.148438 742.5 Z M 1328.148438 742.5" fill="#f1d9a0"></path></g><g clip-path="url(#8cdd2fa71e)"><path fill-rule="nonzero" fill-opacity="1" d="M 1306.035156 742.5 C 1306.035156 751.722656 1305.808594 760.9375 1305.355469 770.152344 C 1304.90625 779.363281 1304.226562 788.558594 1303.324219 797.734375 C 1302.417969 806.914062 1301.289062 816.0625 1299.9375 825.1875 C 1298.582031 834.308594 1297.007812 843.394531 1295.207031 852.441406 C 1293.410156 861.484375 1291.386719 870.480469 1289.148438 879.425781 C 1286.90625 888.375 1284.449219 897.257812 1281.769531 906.085938 C 1279.09375 914.910156 1276.199219 923.664062 1273.09375 932.347656 C 1269.988281 941.03125 1266.667969 949.632812 1263.140625 958.15625 C 1259.609375 966.675781 1255.875 975.105469 1251.929688 983.441406 C 1247.988281 991.777344 1243.839844 1000.015625 1239.496094 1008.148438 C 1235.148438 1016.28125 1230.601562 1024.304688 1225.859375 1032.214844 C 1221.121094 1040.125 1216.1875 1047.914062 1211.0625 1055.582031 C 1205.9375 1063.25 1200.628906 1070.789062 1195.136719 1078.199219 C 1189.640625 1085.605469 1183.96875 1092.875 1178.117188 1100.003906 C 1172.269531 1107.132812 1166.246094 1114.113281 1160.050781 1120.949219 C 1153.859375 1127.78125 1147.5 1134.457031 1140.980469 1140.980469 C 1134.457031 1147.5 1127.78125 1153.859375 1120.949219 1160.050781 C 1114.113281 1166.246094 1107.132812 1172.269531 1100.003906 1178.117188 C 1092.875 1183.96875 1085.605469 1189.640625 1078.199219 1195.136719 C 1070.789062 1200.628906 1063.25 1205.9375 1055.582031 1211.0625 C 1047.914062 1216.1875 1040.125 1221.121094 1032.214844 1225.859375 C 1024.304688 1230.601562 1016.28125 1235.144531 1008.148438 1239.492188 C 1000.015625 1243.839844 991.78125 1247.988281 983.441406 1251.929688 C 975.105469 1255.875 966.675781 1259.609375 958.15625 1263.140625 C 949.632812 1266.667969 941.03125 1269.988281 932.347656 1273.09375 C 923.664062 1276.199219 914.910156 1279.09375 906.085938 1281.769531 C 897.257812 1284.445312 888.375 1286.90625 879.425781 1289.148438 C 870.480469 1291.386719 861.484375 1293.410156 852.441406 1295.207031 C 843.394531 1297.007812 834.308594 1298.582031 825.1875 1299.9375 C 816.0625 1301.289062 806.914062 1302.417969 797.734375 1303.324219 C 788.558594 1304.226562 779.363281 1304.90625 770.152344 1305.355469 C 760.9375 1305.808594 751.722656 1306.035156 742.5 1306.035156 C 733.277344 1306.035156 724.058594 1305.808594 714.847656 1305.355469 C 705.636719 1304.90625 696.441406 1304.226562 687.261719 1303.324219 C 678.085938 1302.417969 668.933594 1301.289062 659.8125 1299.9375 C 650.6875 1298.582031 641.605469 1297.007812 632.558594 1295.207031 C 623.511719 1293.410156 614.515625 1291.386719 605.570312 1289.148438 C 596.625 1286.90625 587.738281 1284.445312 578.914062 1281.769531 C 570.085938 1279.09375 561.332031 1276.199219 552.648438 1273.09375 C 543.964844 1269.988281 535.363281 1266.667969 526.84375 1263.140625 C 518.320312 1259.609375 509.894531 1255.875 501.554688 1251.929688 C 493.21875 1247.988281 484.984375 1243.839844 476.847656 1239.496094 C 468.714844 1235.148438 460.695312 1230.601562 452.78125 1225.859375 C 444.871094 1221.121094 437.082031 1216.1875 429.414062 1211.0625 C 421.746094 1205.9375 414.207031 1200.628906 406.800781 1195.136719 C 399.394531 1189.640625 392.125 1183.96875 384.996094 1178.117188 C 377.867188 1172.269531 370.882812 1166.246094 364.050781 1160.050781 C 357.21875 1153.859375 350.539062 1147.5 344.019531 1140.980469 C 337.496094 1134.457031 331.140625 1127.78125 324.945312 1120.945312 C 318.753906 1114.113281 312.730469 1107.132812 306.878906 1100.003906 C 301.027344 1092.875 295.355469 1085.605469 289.863281 1078.199219 C 284.367188 1070.789062 279.058594 1063.25 273.933594 1055.582031 C 268.8125 1047.914062 263.878906 1040.125 259.136719 1032.214844 C 254.394531 1024.304688 249.851562 1016.28125 245.503906 1008.148438 C 241.15625 1000.015625 237.011719 991.777344 233.066406 983.441406 C 229.125 975.105469 225.386719 966.675781 221.859375 958.15625 C 218.328125 949.632812 215.011719 941.03125 211.902344 932.347656 C 208.796875 923.664062 205.90625 914.910156 203.226562 906.085938 C 200.550781 897.257812 198.089844 888.375 195.851562 879.425781 C 193.609375 870.480469 191.589844 861.484375 189.789062 852.4375 C 187.992188 843.394531 186.414062 834.308594 185.0625 825.1875 C 183.707031 816.0625 182.578125 806.914062 181.675781 797.734375 C 180.773438 788.558594 180.09375 779.363281 179.640625 770.152344 C 179.1875 760.9375 178.960938 751.722656 178.960938 742.5 C 178.960938 733.277344 179.1875 724.058594 179.640625 714.847656 C 180.09375 705.636719 180.773438 696.441406 181.675781 687.261719 C 182.578125 678.085938 183.707031 668.933594 185.0625 659.8125 C 186.414062 650.6875 187.992188 641.605469 189.789062 632.558594 C 191.589844 623.511719 193.609375 614.515625 195.851562 605.570312 C 198.089844 596.625 200.550781 587.738281 203.226562 578.914062 C 205.90625 570.085938 208.796875 561.332031 211.902344 552.648438 C 215.011719 543.964844 218.328125 535.363281 221.859375 526.84375 C 225.386719 518.320312 229.125 509.894531 233.066406 501.554688 C 237.011719 493.21875 241.15625 484.984375 245.503906 476.847656 C 249.851562 468.714844 254.394531 460.695312 259.136719 452.78125 C 263.878906 444.871094 268.8125 437.082031 273.933594 429.414062 C 279.058594 421.746094 284.367188 414.207031 289.863281 406.800781 C 295.355469 399.394531 301.027344 392.125 306.878906 384.996094 C 312.730469 377.867188 318.753906 370.882812 324.945312 364.050781 C 331.140625 357.21875 337.496094 350.539062 344.019531 344.019531 C 350.539062 337.496094 357.21875 331.140625 364.050781 324.945312 C 370.882812 318.75 377.867188 312.730469 384.996094 306.878906 C 392.125 301.027344 399.394531 295.355469 406.800781 289.863281 C 414.207031 284.367188 421.746094 279.058594 429.414062 273.933594 C 437.082031 268.8125 444.871094 263.878906 452.78125 259.136719 C 460.695312 254.394531 468.714844 249.851562 476.847656 245.503906 C 484.984375 241.15625 493.21875 237.011719 501.554688 233.066406 C 509.894531 229.125 518.320312 225.386719 526.84375 221.859375 C 535.363281 218.328125 543.964844 215.011719 552.648438 211.902344 C 561.332031 208.796875 570.085938 205.90625 578.914062 203.226562 C 587.738281 200.550781 596.625 198.089844 605.570312 195.851562 C 614.515625 193.609375 623.511719 191.589844 632.558594 189.789062 C 641.605469 187.992188 650.6875 186.414062 659.8125 185.0625 C 668.933594 183.707031 678.085938 182.578125 687.261719 181.675781 C 696.441406 180.773438 705.636719 180.09375 714.847656 179.640625 C 724.058594 179.1875 733.277344 178.960938 742.5 178.960938 C 751.722656 178.960938 760.9375 179.1875 770.152344 179.640625 C 779.363281 180.09375 788.558594 180.773438 797.734375 181.675781 C 806.914062 182.578125 816.0625 183.707031 825.1875 185.0625 C 834.308594 186.414062 843.394531 187.992188 852.441406 189.789062 C 861.484375 191.589844 870.480469 193.609375 879.425781 195.851562 C 888.375 198.089844 897.257812 200.550781 906.085938 203.226562 C 914.910156 205.90625 923.664062 208.796875 932.347656 211.902344 C 941.03125 215.011719 949.632812 218.328125 958.15625 221.859375 C 966.675781 225.386719 975.105469 229.125 983.441406 233.066406 C 991.78125 237.011719 1000.015625 241.15625 1008.148438 245.503906 C 1016.28125 249.851562 1024.304688 254.394531 1032.214844 259.136719 C 1040.125 263.878906 1047.914062 268.8125 1055.582031 273.933594 C 1063.25 279.058594 1070.789062 284.367188 1078.199219 289.863281 C 1085.605469 295.355469 1092.875 301.027344 1100.003906 306.878906 C 1107.132812 312.730469 1114.113281 318.75 1120.949219 324.945312 C 1127.78125 331.140625 1134.457031 337.496094 1140.980469 344.019531 C 1147.5 350.539062 1153.859375 357.21875 1160.050781 364.050781 C 1166.246094 370.882812 1172.269531 377.867188 1178.117188 384.996094 C 1183.96875 392.125 1189.640625 399.390625 1195.136719 406.800781 C 1200.628906 414.207031 1205.9375 421.746094 1211.0625 429.414062 C 1216.1875 437.082031 1221.121094 444.871094 1225.859375 452.78125 C 1230.601562 460.695312 1235.148438 468.714844 1239.496094 476.847656 C 1243.839844 484.984375 1247.988281 493.21875 1251.929688 501.554688 C 1255.875 509.894531 1259.609375 518.320312 1263.140625 526.84375 C 1266.667969 535.363281 1269.988281 543.964844 1273.09375 552.648438 C 1276.199219 561.332031 1279.09375 570.085938 1281.769531 578.914062 C 1284.449219 587.738281 1286.90625 596.625 1289.148438 605.570312 C 1291.386719 614.515625 1293.410156 623.511719 1295.207031 632.558594 C 1297.007812 641.605469 1298.582031 650.6875 1299.9375 659.8125 C 1301.289062 668.933594 1302.417969 678.085938 1303.324219 687.261719 C 1304.226562 696.441406 1304.90625 705.636719 1305.355469 714.847656 C 1305.808594 724.058594 1306.035156 733.277344 1306.035156 742.5 Z M 1306.035156 742.5" fill="#b53620"></path></g><g clip-path="url(#181e1b90d8)"><path fill-rule="nonzero" fill-opacity="1" d="M 227.242188 1057.296875 L 1257.742188 1057.296875 L 1257.742188 1252.296875 L 227.242188 1252.296875 Z M 227.242188 1057.296875" fill="#f1d9a0"></path></g><g clip-path="url(#0cf99e27c5)"><path fill-rule="nonzero" fill-opacity="1" d="M 247.167969 1076.175781 L 1237.917969 1076.175781 L 1237.917969 1233.675781 L 247.167969 1233.675781 Z M 247.167969 1076.175781" fill="#b53620"></path></g><path fill-rule="nonzero" fill-opacity="1" d="M 554 647.207031 L 669.945312 613.109375 L 734.972656 683.414062 L 718.363281 777.734375 L 602.417969 811.832031 C 643.332031 840.0625 700.183594 849.675781 756.460938 833.121094 C 818.617188 814.839844 864.09375 769.34375 879.664062 717.21875 L 1037.433594 670.816406 L 1069.941406 508.546875 L 1061.40625 511.058594 L 838.328125 576.660156 C 797.015625 541.265625 734.152344 527.632812 671.992188 545.910156 C 615.71875 562.460938 573.117188 601.324219 554 647.207031" fill="#f1d9a0"></path><g clip-path="url(#42e48c7d61)"><path fill-rule="nonzero" fill-opacity="1" d="M 1142.082031 665.082031 L 898.726562 749.496094 C 872.441406 827.53125 798.667969 883.734375 711.769531 883.734375 C 602.839844 883.734375 514.535156 795.433594 514.535156 686.503906 C 514.535156 577.570312 602.839844 489.273438 711.769531 489.273438 C 756.976562 489.273438 798.621094 504.484375 831.882812 530.0625 L 1115.148438 470.339844 C 1126.722656 458.757812 909.3125 479.382812 912.992188 469.039062 L 922.070312 443.535156 C 908.316406 431.621094 893.539062 420.867188 877.890625 411.390625 L 856.410156 427.921875 C 817.488281 457.878906 760.621094 439.410156 746.742188 392.296875 L 739.097656 366.332031 C 730.085938 365.582031 720.976562 365.164062 711.769531 365.164062 C 702.5625 365.164062 693.453125 365.582031 684.445312 366.332031 L 676.796875 392.296875 C 662.917969 439.410156 606.054688 457.878906 567.132812 427.921875 L 545.648438 411.390625 C 530.003906 420.867188 515.226562 431.621094 501.472656 443.535156 L 510.546875 469.039062 C 527.011719 515.3125 491.867188 563.683594 442.769531 562.324219 L 415.628906 561.578125 C 408.597656 578.214844 402.9375 595.578125 398.769531 613.507812 L 421.15625 628.851562 C 461.675781 656.601562 461.675781 716.394531 421.15625 744.152344 L 398.769531 759.496094 C 402.9375 777.425781 408.597656 794.789062 415.628906 811.425781 L 442.769531 810.683594 C 491.867188 809.320312 527.011719 857.691406 510.546875 903.964844 L 501.472656 929.46875 C 515.226562 941.382812 530.003906 952.136719 545.648438 961.613281 L 567.132812 945.070312 C 606.054688 915.113281 662.917969 933.59375 676.796875 980.710938 L 684.445312 1006.671875 C 693.453125 1007.425781 702.5625 1007.839844 711.769531 1007.839844 C 720.976562 1007.839844 730.085938 1007.425781 739.097656 1006.671875 L 746.742188 980.710938 C 760.621094 933.59375 817.488281 915.113281 856.410156 945.070312 L 877.890625 961.613281 C 893.539062 952.136719 908.316406 941.382812 922.070312 929.46875 L 912.992188 903.964844 C 896.53125 857.691406 931.675781 809.320312 980.769531 810.683594 L 1007.910156 811.425781 C 1014.945312 794.789062 1020.605469 777.425781 1024.769531 759.496094 L 1002.382812 744.152344 C 992.121094 737.128906 1147.148438 675.179688 1142.082031 665.082031" fill="#f1d9a0"></path></g><g fill-opacity="1" fill="#f1d9a0"><g transform="translate(305.465923, 1196.517529)"><g><path d="M 49.621094 -84.820312 C 48.347656 -84.820312 47.605469 -84.1875 47.289062 -82.914062 L 35.519531 -30.113281 L 23.75 -82.914062 C 23.433594 -84.1875 22.691406 -84.820312 21.417969 -84.820312 L 7.421875 -84.820312 C 6.042969 -84.820312 5.300781 -84.078125 5.300781 -82.703125 L 5.300781 -2.121094 C 5.300781 -0.742188 6.042969 0 7.421875 0 L 17.175781 0 C 18.554688 0 19.296875 -0.742188 19.296875 -2.121094 L 19.296875 -49.832031 L 20.039062 -49.832031 L 30.535156 -1.910156 C 30.855469 -0.636719 31.597656 0 32.867188 0 L 38.0625 0 C 39.335938 0 40.078125 -0.636719 40.394531 -1.910156 L 50.894531 -49.832031 L 51.636719 -49.832031 L 51.636719 -2.121094 C 51.636719 -0.742188 52.378906 0 53.757812 0 L 63.617188 0 C 64.996094 0 65.738281 -0.742188 65.738281 -2.121094 L 65.738281 -82.703125 C 65.738281 -84.078125 64.996094 -84.820312 63.617188 -84.820312 Z M 49.621094 -84.820312"></path></g></g></g><g fill-opacity="1" fill="#f1d9a0"><g transform="translate(387.101882, 1196.517529)"><g><path d="M 6.996094 -84.820312 C 5.832031 -84.820312 5.300781 -84.1875 5.300781 -83.125 L 5.300781 -1.695312 C 5.300781 -0.636719 5.832031 0 6.996094 0 L 18.023438 0 C 19.085938 0 19.722656 -0.636719 19.722656 -1.695312 L 19.722656 -83.125 C 19.722656 -84.1875 19.085938 -84.820312 18.023438 -84.820312 Z M 6.996094 -84.820312"></path></g></g></g><g fill-opacity="1" fill="#f1d9a0"><g transform="translate(422.725386, 1196.517529)"><g><path d="M 37.851562 -84.820312 C 36.683594 -84.820312 36.15625 -84.1875 36.15625 -83.125 L 36.15625 -38.382812 L 35.519531 -38.382812 L 19.402344 -83.445312 C 19.085938 -84.398438 18.449219 -84.820312 17.496094 -84.820312 L 6.996094 -84.820312 C 5.9375 -84.820312 5.300781 -84.1875 5.300781 -83.125 L 5.300781 -1.695312 C 5.300781 -0.636719 5.9375 0 6.996094 0 L 18.023438 0 C 19.191406 0 19.722656 -0.636719 19.722656 -1.695312 L 19.722656 -46.652344 L 20.25 -46.652344 L 36.472656 -1.378906 C 36.792969 -0.425781 37.425781 0 38.382812 0 L 48.878906 0 C 49.9375 0 50.574219 -0.636719 50.574219 -1.695312 L 50.574219 -83.125 C 50.574219 -84.1875 49.9375 -84.820312 48.878906 -84.820312 Z M 37.851562 -84.820312"></path></g></g></g><g fill-opacity="1" fill="#f1d9a0"><g transform="translate(489.20055, 1196.517529)"><g><path d="M 49.621094 -84.820312 C 48.347656 -84.820312 47.605469 -84.1875 47.289062 -82.914062 L 35.519531 -30.113281 L 23.75 -82.914062 C 23.433594 -84.1875 22.691406 -84.820312 21.417969 -84.820312 L 7.421875 -84.820312 C 6.042969 -84.820312 5.300781 -84.078125 5.300781 -82.703125 L 5.300781 -2.121094 C 5.300781 -0.742188 6.042969 0 7.421875 0 L 17.175781 0 C 18.554688 0 19.296875 -0.742188 19.296875 -2.121094 L 19.296875 -49.832031 L 20.039062 -49.832031 L 30.535156 -1.910156 C 30.855469 -0.636719 31.597656 0 32.867188 0 L 38.0625 0 C 39.335938 0 40.078125 -0.636719 40.394531 -1.910156 L 50.894531 -49.832031 L 51.636719 -49.832031 L 51.636719 -2.121094 C 51.636719 -0.742188 52.378906 0 53.757812 0 L 63.617188 0 C 64.996094 0 65.738281 -0.742188 65.738281 -2.121094 L 65.738281 -82.703125 C 65.738281 -84.078125 64.996094 -84.820312 63.617188 -84.820312 Z M 49.621094 -84.820312"></path></g></g></g><g fill-opacity="1" fill="#f1d9a0"><g transform="translate(570.836514, 1196.517529)"><g><path d="M 56.40625 0 C 57.679688 0 58.101562 -0.636719 57.890625 -1.800781 L 40.289062 -83.335938 C 40.078125 -84.398438 39.441406 -84.820312 38.488281 -84.820312 L 23.75 -84.820312 C 22.796875 -84.820312 22.160156 -84.398438 21.949219 -83.335938 L 4.347656 -1.800781 C 4.027344 -0.636719 4.558594 0 5.726562 0 L 17.070312 0 C 18.023438 0 18.554688 -0.53125 18.765625 -1.484375 L 21.628906 -16.964844 L 40.503906 -16.964844 L 43.472656 -1.484375 C 43.683594 -0.53125 44.214844 0 45.167969 0 Z M 37.851562 -29.261719 L 24.28125 -29.261719 L 31.066406 -66.265625 Z M 37.851562 -29.261719"></path></g></g></g><g fill-opacity="1" fill="#f1d9a0"><g transform="translate(643.566825, 1196.517529)"><g><path d="M 4.878906 -84.820312 C 3.816406 -84.820312 3.179688 -84.1875 3.179688 -83.125 L 3.179688 -72.523438 C 3.179688 -71.460938 3.816406 -70.828125 4.878906 -70.828125 L 17.175781 -70.828125 L 17.175781 -1.695312 C 17.175781 -0.53125 17.8125 0 18.871094 0 L 29.898438 0 C 31.066406 0 31.597656 -0.53125 31.597656 -1.695312 L 31.597656 -70.828125 L 43.894531 -70.828125 C 45.0625 -70.828125 45.59375 -71.460938 45.59375 -72.523438 L 45.59375 -83.125 C 45.59375 -84.1875 45.0625 -84.820312 43.894531 -84.820312 Z M 4.878906 -84.820312"></path></g></g></g><g fill-opacity="1" fill="#f1d9a0"><g transform="translate(702.938699, 1196.517529)"><g><path d="M 56.40625 0 C 57.679688 0 58.101562 -0.636719 57.890625 -1.800781 L 40.289062 -83.335938 C 40.078125 -84.398438 39.441406 -84.820312 38.488281 -84.820312 L 23.75 -84.820312 C 22.796875 -84.820312 22.160156 -84.398438 21.949219 -83.335938 L 4.347656 -1.800781 C 4.027344 -0.636719 4.558594 0 5.726562 0 L 17.070312 0 C 18.023438 0 18.554688 -0.53125 18.765625 -1.484375 L 21.628906 -16.964844 L 40.503906 -16.964844 L 43.472656 -1.484375 C 43.683594 -0.53125 44.214844 0 45.167969 0 Z M 37.851562 -29.261719 L 24.28125 -29.261719 L 31.066406 -66.265625 Z M 37.851562 -29.261719"></path></g></g></g><g fill-opacity="1" fill="#f1d9a0"><g transform="translate(775.669009, 1196.517529)"><g><path d="M 48.878906 -69.554688 C 48.878906 -79.519531 43.578125 -84.820312 33.609375 -84.820312 L 6.996094 -84.820312 C 5.9375 -84.820312 5.300781 -84.1875 5.300781 -83.125 L 5.300781 -1.695312 C 5.300781 -0.636719 5.9375 0 6.996094 0 L 18.023438 0 C 19.085938 0 19.722656 -0.636719 19.722656 -1.695312 L 19.722656 -28.414062 L 27.035156 -28.414062 L 34.140625 -1.484375 C 34.351562 -0.53125 34.882812 0 35.941406 0 L 46.96875 0 C 48.136719 0 48.773438 -0.636719 48.453125 -1.910156 L 41.136719 -29.6875 C 46.226562 -31.914062 48.878906 -36.578125 48.878906 -43.683594 Z M 19.722656 -42.410156 L 19.722656 -70.828125 L 30.21875 -70.828125 C 32.972656 -70.828125 34.457031 -69.34375 34.457031 -66.585938 L 34.457031 -46.652344 C 34.457031 -43.894531 32.972656 -42.410156 30.21875 -42.410156 Z M 19.722656 -42.410156"></path></g></g></g><g fill-opacity="1" fill="#f1d9a0"><g transform="translate(840.447874, 1196.517529)"><g></g></g></g><g fill-opacity="1" fill="#f1d9a0"><g transform="translate(877.555659, 1196.517529)"><g><path d="M 47.710938 -83.125 C 47.710938 -84.1875 47.078125 -84.820312 46.015625 -84.820312 L 6.996094 -84.820312 C 5.832031 -84.820312 5.300781 -84.1875 5.300781 -83.125 L 5.300781 -1.695312 C 5.300781 -0.636719 5.832031 0 6.996094 0 L 18.023438 0 C 19.085938 0 19.722656 -0.636719 19.722656 -1.695312 L 19.722656 -35.519531 L 39.652344 -35.519531 C 40.714844 -35.519531 41.351562 -36.050781 41.351562 -37.214844 L 41.351562 -47.820312 C 41.351562 -48.878906 40.714844 -49.515625 39.652344 -49.515625 L 19.722656 -49.515625 L 19.722656 -70.828125 L 46.015625 -70.828125 C 47.078125 -70.828125 47.710938 -71.460938 47.710938 -72.523438 Z M 47.710938 -83.125"></path></g></g></g><g fill-opacity="1" fill="#f1d9a0"><g transform="translate(941.168325, 1196.517529)"><g><path d="M 19.722656 -13.996094 L 44.957031 -13.996094 C 46.121094 -13.996094 46.652344 -13.359375 46.652344 -12.300781 L 46.652344 -1.695312 C 46.652344 -0.53125 46.121094 0 44.957031 0 L 6.996094 0 C 5.9375 0 5.300781 -0.53125 5.300781 -1.695312 L 5.300781 -83.125 C 5.300781 -84.1875 5.9375 -84.820312 6.996094 -84.820312 L 18.023438 -84.820312 C 19.191406 -84.820312 19.722656 -84.1875 19.722656 -83.125 Z M 19.722656 -13.996094"></path></g></g></g><g fill-opacity="1" fill="#f1d9a0"><g transform="translate(1003.720764, 1196.517529)"><g><path d="M 47.605469 -83.125 C 47.605469 -84.1875 47.183594 -84.820312 45.910156 -84.820312 L 6.890625 -84.820312 C 5.9375 -84.820312 5.300781 -84.1875 5.300781 -83.125 L 5.300781 -1.695312 C 5.300781 -0.636719 5.9375 0 6.890625 0 L 45.910156 0 C 47.183594 0 47.605469 -0.636719 47.605469 -1.695312 L 47.605469 -12.300781 C 47.605469 -13.464844 47.183594 -13.996094 45.910156 -13.996094 L 19.402344 -13.996094 L 19.402344 -35.414062 L 39.652344 -35.414062 C 40.714844 -35.414062 41.351562 -36.050781 41.351562 -37.214844 L 41.351562 -47.710938 C 41.351562 -48.878906 40.714844 -49.515625 39.652344 -49.515625 L 19.402344 -49.515625 L 19.402344 -70.71875 L 45.910156 -70.71875 C 47.183594 -70.71875 47.605469 -71.460938 47.605469 -72.523438 Z M 47.605469 -83.125"></path></g></g></g><g fill-opacity="1" fill="#f1d9a0"><g transform="translate(1067.227366, 1196.517529)"><g><path d="M 47.605469 -83.125 C 47.605469 -84.1875 47.183594 -84.820312 45.910156 -84.820312 L 6.890625 -84.820312 C 5.9375 -84.820312 5.300781 -84.1875 5.300781 -83.125 L 5.300781 -1.695312 C 5.300781 -0.636719 5.9375 0 6.890625 0 L 45.910156 0 C 47.183594 0 47.605469 -0.636719 47.605469 -1.695312 L 47.605469 -12.300781 C 47.605469 -13.464844 47.183594 -13.996094 45.910156 -13.996094 L 19.402344 -13.996094 L 19.402344 -35.414062 L 39.652344 -35.414062 C 40.714844 -35.414062 41.351562 -36.050781 41.351562 -37.214844 L 41.351562 -47.710938 C 41.351562 -48.878906 40.714844 -49.515625 39.652344 -49.515625 L 19.402344 -49.515625 L 19.402344 -70.71875 L 45.910156 -70.71875 C 47.183594 -70.71875 47.605469 -71.460938 47.605469 -72.523438 Z M 47.605469 -83.125"></path></g></g></g><g fill-opacity="1" fill="#f1d9a0"><g transform="translate(1130.734013, 1196.517529)"><g><path d="M 4.878906 -84.820312 C 3.816406 -84.820312 3.179688 -84.1875 3.179688 -83.125 L 3.179688 -72.523438 C 3.179688 -71.460938 3.816406 -70.828125 4.878906 -70.828125 L 17.175781 -70.828125 L 17.175781 -1.695312 C 17.175781 -0.53125 17.8125 0 18.871094 0 L 29.898438 0 C 31.066406 0 31.597656 -0.53125 31.597656 -1.695312 L 31.597656 -70.828125 L 43.894531 -70.828125 C 45.0625 -70.828125 45.59375 -71.460938 45.59375 -72.523438 L 45.59375 -83.125 C 45.59375 -84.1875 45.0625 -84.820312 43.894531 -84.820312 Z M 4.878906 -84.820312"></path></g></g></g></svg>