<svg xmlns="http://www.w3.org/2000/svg" id="svg42" version="1.0" preserveAspectRatio="xMidYMid" height="1878.9843" viewBox="0 0 1409.2383 1409.2381" zoomAndPan="magnify" width="1878.9844">
  
  <defs id="defs6">
    <clipPath id="7a37c28577">
      <path id="path2" clip-rule="nonzero" d="M 37.878906,39.867188 H 1447.1289 V 1449.1172 H 37.878906 Z m 0,0"></path>
    </clipPath>
    <clipPath id="7d0c140a71">
      <path id="path3" clip-rule="nonzero" d="M 44.746094,1124.2148 H 1440.4961 v 264 H 44.746094 Z m 0,0"></path>
    </clipPath>
    <clipPath id="84175e61c4">
      <path id="path4" clip-rule="nonzero" d="M 71.726562,1149.7773 H 1413.4766 v 213 H 71.726562 Z m 0,0"></path>
    </clipPath>
    <clipPath id="9514c4a1e8">
      <path id="path5" clip-rule="nonzero" d="M 522,187.80078 H 962 V 414 H 522 Z m 0,0"></path>
    </clipPath>
    <clipPath id="bda5c1c41b">
      <path id="path6" clip-rule="nonzero" d="m 328,432 h 829 v 692.5508 H 328 Z m 0,0"></path>
    </clipPath>
  </defs>
  <g transform="translate(-37.878905,-39.867188)" id="g8" clip-path="url(#7a37c28577)">
    <path id="path8" fill-rule="nonzero" fill-opacity="1" d="m 1447.1172,744.48828 c 0,11.53125 -0.2813,23.05469 -0.8477,34.57422 -0.5664,11.51562 -1.414,23.01172 -2.5468,34.48828 -1.1289,11.47656 -2.5391,22.91797 -4.2305,34.32422 -1.6953,11.40625 -3.6641,22.76562 -5.9141,34.07812 -2.25,11.3086 -4.7773,22.55469 -7.5781,33.74219 -2.8008,11.1875 -5.875,22.29688 -9.2227,33.33203 -3.3476,11.03516 -6.9648,21.98047 -10.8515,32.83985 -3.8828,10.85547 -8.0313,21.61331 -12.4453,32.26561 -4.4141,10.6524 -9.086,21.1914 -14.0157,31.6172 -4.9296,10.4258 -10.1132,20.7227 -15.5468,30.8906 -5.4375,10.1719 -11.1211,20.2032 -17.0469,30.0938 -5.9297,9.8906 -12.0977,19.6289 -18.5039,29.2187 -6.4063,9.586 -13.043,19.0117 -19.9141,28.2735 -6.8711,9.2656 -13.9609,18.3515 -21.2773,27.2656 -7.3164,8.9141 -14.8438,17.6445 -22.5899,26.1875 -7.7421,8.543 -15.6914,16.8945 -23.8476,25.0469 -8.1524,8.1562 -16.5039,16.1054 -25.0469,23.8476 -8.543,7.7461 -17.2734,15.2735 -26.1875,22.5899 -8.9141,7.3164 -18.0039,14.4101 -27.2656,21.2773 -9.2617,6.8711 -18.6875,13.5078 -28.2735,19.9141 -9.5898,6.4062 -19.3281,12.5742 -29.2187,18.5039 -9.8945,5.9258 -19.9219,11.6094 -30.0938,17.0469 -10.1679,5.4335 -20.4648,10.6171 -30.8906,15.5468 -10.4258,4.9336 -20.9648,9.6055 -31.6172,14.0157 -10.6562,4.414 -21.41013,8.5625 -32.2695,12.4492 -10.85547,3.8828 -21.80078,7.5 -32.83594,10.8476 -11.03515,3.3477 -22.14844,6.4219 -33.33203,9.2227 -11.1875,2.8047 -22.43359,5.3281 -33.74609,7.5781 -11.3086,2.25 -22.66797,4.2227 -34.07422,5.9141 -11.40625,1.6914 -22.84766,3.1015 -34.32422,4.2343 -11.47656,1.129 -22.97266,1.9766 -34.49219,2.543 -11.51562,0.5664 -23.03906,0.8477 -34.57422,0.8477 -11.53125,0 -23.05468,-0.2813 -34.57031,-0.8477 -11.51953,-0.5664 -23.01562,-1.414 -34.49219,-2.543 -11.47656,-1.1328 -22.91797,-2.5429 -34.32422,-4.2343 -11.40625,-1.6914 -22.76562,-3.6641 -34.07421,-5.9141 -11.3125,-2.25 -22.5586,-4.7734 -33.7461,-7.5781 -11.1875,-2.8008 -22.29687,-5.875 -33.33203,-9.2227 -11.03516,-3.3476 -21.98047,-6.9648 -32.83984,-10.8476 -10.85547,-3.8867 -21.61328,-8.0352 -32.26563,-12.4492 -10.65234,-4.4102 -21.1914,-9.0821 -31.61719,-14.0157 -10.42578,-4.9297 -20.72265,-10.1133 -30.89062,-15.5468 -10.17188,-5.4375 -20.20313,-11.1172 -30.09375,-17.0469 -9.89063,-5.9297 -19.62891,-12.0977 -29.21875,-18.5039 -9.58594,-6.4063 -19.01172,-13.043 -28.27344,-19.9141 -9.26172,-6.8672 -18.35156,-13.9609 -27.26562,-21.2773 -8.91407,-7.3164 -17.64453,-14.8438 -26.1875,-22.5899 -8.54297,-7.7422 -16.89453,-15.6914 -25.04688,-23.8476 -8.15625,-8.1524 -16.10547,-16.5039 -23.84765,-25.0469 -7.7461,-8.543 -15.27344,-17.2734 -22.58985,-26.1875 -7.3164,-8.9141 -14.41015,-18.0039 -21.27734,-27.2656 -6.8711,-9.2618 -13.50781,-18.6875 -19.91406,-28.2735 -6.40625,-9.5898 -12.57422,-19.3281 -18.50391,-29.2187 -5.92578,-9.8906 -11.60937,-19.9219 -17.04687,-30.0938 -5.4336,-10.1679 -10.61719,-20.4648 -15.54688,-30.8906 -4.93359,-10.4258 -9.605469,-20.9648 -14.015625,-31.6172 -4.414063,-10.6523 -8.5625,-21.41014 -12.449219,-32.26561 -3.882812,-10.85938 -7.5,-21.80469 -10.847656,-32.83985 -3.347656,-11.03515 -6.421875,-22.14453 -9.222656,-33.33203 -2.804688,-11.1875 -5.328125,-22.43359 -7.578125,-33.74609 -2.25,-11.3086 -4.222657,-22.66797 -5.914063,-34.07422 -1.691406,-11.40625 -3.101562,-22.84766 -4.230468,-34.32422 -1.132813,-11.47656 -1.980469,-22.97266 -2.546876,-34.48828 -0.566406,-11.51953 -0.847656,-23.04297 -0.847656,-34.57422 0,-11.53125 0.28125,-23.05859 0.847656,-34.57422 0.566407,-11.51953 1.414063,-23.01562 2.546876,-34.49219 1.128906,-11.47656 2.539062,-22.91796 4.230468,-34.32421 1.691406,-11.40625 3.664063,-22.76563 5.914063,-34.07422 2.25,-11.3125 4.777343,-22.5586 7.578125,-33.7461 2.800781,-11.18359 5.875,-22.29687 9.222656,-33.33203 3.347656,-11.03515 6.964844,-21.98047 10.847656,-32.83594 3.886719,-10.85937 8.035156,-21.61328 12.449219,-32.26953 4.410156,-10.65234 9.082035,-21.1914 14.015625,-31.61718 4.92969,-10.42188 10.11328,-20.72266 15.54688,-30.89063 5.4375,-10.17187 11.12109,-20.19922 17.04687,-30.08984 5.92969,-9.89453 12.09766,-19.63282 18.50391,-29.21875 6.40625,-9.58985 13.04296,-19.01563 19.91406,-28.27735 6.86719,-9.26172 13.96094,-18.35156 21.27734,-27.26562 7.31641,-8.91406 14.84375,-17.64063 22.58985,-26.1875 7.74218,-8.54297 15.6914,-16.89453 23.84765,-25.04688 8.15235,-8.15234 16.50391,-16.10156 25.04688,-23.84765 8.54297,-7.74219 17.27343,-15.27344 26.1875,-22.58985 8.91406,-7.3164 18.0039,-14.40625 27.26562,-21.27734 9.26172,-6.86719 18.6875,-13.50781 28.27344,-19.91406 9.58984,-6.40625 19.32812,-12.57422 29.21875,-18.50391 9.89062,-5.92578 19.92187,-11.60937 30.09375,-17.04297 10.16797,-5.4375 20.46484,-10.62109 30.89062,-15.55078 10.42579,-4.92969 20.96485,-9.601561 31.61719,-14.015624 10.65235,-4.414062 21.41016,-8.5625 32.26563,-12.445312 10.85937,-3.886719 21.80468,-7.503906 32.83984,-10.851563 11.03516,-3.347656 22.14453,-6.421875 33.33203,-9.222656 11.1875,-2.800781 22.4336,-5.328125 33.7461,-7.578125 11.30859,-2.25 22.66796,-4.21875 34.07421,-5.910156 11.40625,-1.695313 22.84766,-3.105469 34.32422,-4.234375 11.47657,-1.132813 22.97266,-1.980469 34.49219,-2.546875 11.51563,-0.5625 23.03906,-0.847656 34.57031,-0.847656 11.53516,0 23.0586,0.285156 34.57422,0.847656 11.51953,0.566406 23.01563,1.414062 34.49219,2.546875 11.47656,1.128906 22.91797,2.539062 34.32422,4.234375 11.40625,1.691406 22.76562,3.660156 34.07422,5.910156 11.3125,2.25 22.55859,4.777344 33.74609,7.578125 11.18359,2.800781 22.29688,5.875 33.33203,9.222656 11.03516,3.347657 21.98047,6.964844 32.83594,10.851563 10.85937,3.882812 21.6133,8.03125 32.2695,12.445312 10.6524,4.414063 21.1914,9.085934 31.6172,14.015624 10.4258,4.92969 20.7227,10.11328 30.8906,15.55078 10.1719,5.4336 20.1993,11.11719 30.0938,17.04297 9.8906,5.92969 19.6289,12.09766 29.2187,18.50391 9.586,6.40625 19.0118,13.04687 28.2735,19.91406 9.2617,6.87109 18.3515,13.96094 27.2656,21.27734 8.9141,7.31641 17.6445,14.84766 26.1875,22.58985 8.543,7.74609 16.8945,15.69531 25.0469,23.84765 8.1562,8.15235 16.1055,16.50391 23.8476,25.04688 7.7461,8.54687 15.2735,17.27344 22.5899,26.1875 7.3164,8.91406 14.4062,18.0039 21.2773,27.26562 6.8711,9.26172 13.5078,18.6875 19.9141,28.27735 6.4062,9.58593 12.5742,19.32422 18.5039,29.21875 5.9258,9.89062 11.6094,19.91797 17.0469,30.08984 5.4336,10.16797 10.6172,20.46875 15.5468,30.89063 4.9297,10.42578 9.6016,20.96484 14.0157,31.61718 4.414,10.65625 8.5625,21.41016 12.4453,32.26953 3.8867,10.85547 7.5039,21.80079 10.8515,32.83594 3.3477,11.03516 6.4219,22.14844 9.2227,33.33203 2.8008,11.1875 5.3281,22.4336 7.5781,33.7461 2.25,11.30859 4.2188,22.66797 5.9141,34.07422 1.6914,11.40625 3.1016,22.84765 4.2305,34.32421 1.1328,11.47657 1.9804,22.97266 2.5468,34.49219 0.5664,11.51563 0.8477,23.04297 0.8477,34.57422 z m 0,0" fill="#b53620"></path>
  </g>
  <g transform="translate(-37.878905,-39.867188)" id="g9" clip-path="url(#7d0c140a71)">
    <path id="path9" fill-rule="nonzero" fill-opacity="1" d="M 44.746094,1124.2148 H 1440.4961 v 264 H 44.746094 Z m 0,0" fill="#f1d9a0"></path>
  </g>
  <g transform="translate(-37.878905,-39.867188)" id="g10" clip-path="url(#84175e61c4)">
    <path id="path10" fill-rule="nonzero" fill-opacity="1" d="M 71.726562,1149.7773 H 1413.4766 v 213 H 71.726562 Z m 0,0" fill="#b53620"></path>
  </g>
  <g transform="translate(-37.878905,-39.867188)" id="g11" clip-path="url(#9514c4a1e8)">
    <path id="path11" fill-rule="nonzero" fill-opacity="1" d="m 651.49219,351.33984 c -3.95703,1.32032 -6.59375,2.64063 -10.55078,2.64063 -7.91407,0 -15.82422,-3.95703 -19.78125,-11.8711 l -44.84375,-83.08984 -18.46485,7.91406 c -29.01562,11.86719 -43.52344,44.83985 -31.65234,75.17578 l 1.32031,3.95704 72.53906,67.26171 c 93.64063,-19.78125 191.23828,-19.78125 283.5586,0 l 72.53906,-67.26171 1.32031,-3.95704 c 11.86719,-29.01562 -2.64062,-63.30859 -31.65625,-75.17578 l -22.41797,-9.23437 -43.52343,80.45312 c -3.95704,7.91407 -11.8711,11.8711 -19.78516,11.8711 -3.95703,0 -6.59375,-1.32032 -10.55078,-2.64063 -10.55078,-5.27344 -14.50781,-19.78125 -9.23047,-30.33203 l 52.75391,-97.59766 c -10.55079,-18.46484 -30.33594,-31.65234 -54.07422,-31.65234 h -154.3086 c -25.05859,0 -46.16406,14.50781 -56.71484,36.92578 l 52.75781,97.59766 c 5.27344,9.23437 1.31641,23.74219 -9.23437,29.01562 z m 0,0" fill="#f1d9a0"></path>
  </g>
  <g transform="translate(-37.878905,-39.867188)" id="g12" clip-path="url(#bda5c1c41b)">
    <path id="path12" fill-rule="nonzero" fill-opacity="1" d="M 888.89453,450.25781 C 793.93359,426.51953 692.37891,426.51953 596.10156,448.9375 511.69141,517.51953 354.74219,682.38281 331.00391,877.57812 c -9.23438,69.89844 5.27343,127.92968 43.52343,170.13668 34.28907,38.2461 80.45313,58.0313 118.69922,67.2618 217.61719,-1.3203 316.53125,-56.711 404.89844,-117.37894 10.55078,-6.59766 23.73828,-1.32032 30.33594,9.23044 5.27343,10.5508 0,21.1016 -9.23438,30.336 -47.48047,46.1601 -88.36328,71.2187 -125.29297,87.0468 h 133.20703 c 6.59375,0 117.38278,-1.3203 183.32418,-75.1796 38.25,-42.2032 52.7579,-100.23443 43.5235,-170.13677 C 1128.9297,683.69922 973.30078,518.83984 888.89453,450.25781 Z m -195.19531,280.92188 47.47656,9.23437 59.35156,11.86719 3.95703,1.32031 2.63672,1.32031 c 42.20703,21.10157 51.4375,46.16016 51.4375,63.30469 v 2.63672 c 0,42.20703 -39.5664,76.49609 -89.68359,76.49609 v 38.25 h -44.84375 v -38.25 h -9.23047 c -48.80078,0 -89.68359,-34.28906 -89.68359,-76.49609 v -17.14453 h 44.83984 v 17.14453 c 0,17.14844 21.10156,31.65625 44.84375,31.65625 H 768.875 c 23.73828,0 44.83984,-14.50781 44.83984,-31.65625 v -2.63672 c 0,-3.95703 -6.59375,-11.87109 -23.73828,-22.42187 l -104.1914,-21.10157 -6.59375,-1.3164 -2.64063,-1.32031 c -32.97266,-17.14454 -50.11719,-38.2461 -50.11719,-61.98829 v -2.63671 c 0,-42.20704 39.56641,-76.4961 89.6836,-76.4961 h 9.23437 V 595.33594 H 768.875 v 35.60937 c 48.79687,0 89.68359,34.28906 89.68359,76.4961 h -44.84375 c 0,-17.14454 -21.10156,-31.65235 -44.83984,-31.65235 h -54.07422 c -23.74219,0 -44.84375,14.50781 -44.84375,31.65235 v 2.63671 c 0,3.95704 5.27734,11.8711 23.74219,21.10157 z m 0,0" fill="#f1d9a0"></path>
  </g>
  <g transform="translate(-37.878905,-39.867188)" id="g15" fill-opacity="1" fill="#f1d9a0">
    <g id="g14" transform="translate(330.13994,1312.7429)">
      <g id="g13">
        <path id="path13" d="m 64.753906,-94.1875 c 0,-13.5 -7.320312,-20.67578 -20.675781,-20.67578 H 28 c -13.5,0 -20.820312,7.17578 -20.820312,20.67578 v 73.511719 C 7.179688,-7.179688 14.5,0 28,0 h 16.078125 c 13.355469,0 20.675781,-7.179688 20.675781,-20.675781 v -15.507813 c 0,-1.433594 -0.859375,-2.296875 -2.296875,-2.296875 H 48.101562 c -1.582031,0 -2.300781,0.863281 -2.300781,2.296875 v 11.488282 c 0,3.875 -2.007812,5.742187 -5.742187,5.742187 H 32.59375 c -3.734375,0 -5.742188,-1.867187 -5.742188,-5.742187 v -65.472657 c 0,-3.734375 1.863282,-5.746093 5.742188,-5.746093 h 7.464844 c 3.734375,0 5.742187,2.011718 5.742187,5.746093 v 11.484375 c 0,1.4375 0.71875,2.296875 2.300781,2.296875 h 14.355469 c 1.4375,0 2.296875,-0.859375 2.296875,-2.296875 z m 0,0"></path>
      </g>
    </g>
  </g>
  <g transform="translate(-37.878905,-39.867188)" id="g18" fill-opacity="1" fill="#f1d9a0">
    <g id="g17" transform="translate(416.42713,1312.7429)">
      <g id="g16">
        <path id="path15" d="M 7.179688,-20.675781 C 7.179688,-7.179688 14.359375,0 27.855469,0 H 43.9375 C 57.433594,0 64.613281,-7.179688 64.613281,-20.675781 V -94.1875 c 0,-13.5 -7.179687,-20.67578 -20.675781,-20.67578 H 27.855469 c -13.496094,0 -20.675781,7.17578 -20.675781,20.67578 z m 24.839843,2.152343 c -3.734375,0 -5.742187,-1.863281 -5.742187,-5.742187 v -66.335937 c 0,-3.730469 2.007812,-5.742188 5.742187,-5.742188 h 8.328125 c 3.730469,0 5.742188,2.011719 5.742188,5.742188 v 66.335937 c 0,3.878906 -2.011719,5.742187 -5.742188,5.742187 z m 0,0"></path>
      </g>
    </g>
  </g>
  <g transform="translate(-37.878905,-39.867188)" id="g21" fill-opacity="1" fill="#f1d9a0">
    <g id="g20" transform="translate(502.57076,1312.7429)">
      <g id="g19">
        <path id="path18" d="m 51.257812,-114.86328 c -1.578124,0 -2.296874,0.85937 -2.296874,2.29687 v 60.589848 H 48.101562 L 26.277344,-113 c -0.433594,-1.28906 -1.292969,-1.86328 -2.585938,-1.86328 H 9.476562 c -1.4375,0 -2.296874,0.85937 -2.296874,2.29687 V -2.296875 C 7.179688,-0.863281 8.039062,0 9.476562,0 h 14.933594 c 1.578125,0 2.296875,-0.863281 2.296875,-2.296875 v -60.878906 h 0.71875 L 49.390625,-1.867188 C 49.824219,-0.574219 50.683594,0 51.976562,0 H 66.191406 C 67.625,0 68.488281,-0.863281 68.488281,-2.296875 V -112.56641 c 0,-1.4375 -0.863281,-2.29687 -2.296875,-2.29687 z m 0,0"></path>
      </g>
    </g>
  </g>
  <g transform="translate(-37.878905,-39.867188)" id="g24" fill-opacity="1" fill="#f1d9a0">
    <g id="g23" transform="translate(592.59077,1312.7429)">
      <g id="g22">
        <path id="path21" d="m 57.289062,-114.86328 c -1.722656,0 -2.726562,0.85937 -3.160156,2.58203 l -15.21875,76.960938 -15.074218,-76.960938 c -0.433594,-1.72266 -1.4375,-2.58203 -3.160157,-2.58203 H 7.035156 c -2.152344,0 -3.015625,1.14844 -2.585937,3.15625 l 24.125,109.121092 C 29.003906,-0.863281 30.007812,0 31.730469,0 H 46.089844 C 47.8125,0 48.816406,-0.863281 49.25,-2.585938 L 73.515625,-111.70703 c 0.429687,-2.00781 -0.433594,-3.15625 -2.585937,-3.15625 z m 0,0"></path>
      </g>
    </g>
  </g>
  <g transform="translate(-37.878905,-39.867188)" id="g27" fill-opacity="1" fill="#f1d9a0">
    <g id="g26" transform="translate(684.90793,1312.7429)">
      <g id="g25">
        <path id="path24" d="m 64.46875,-112.56641 c 0,-1.4375 -0.574219,-2.29687 -2.296875,-2.29687 H 9.332031 c -1.292969,0 -2.152343,0.85937 -2.152343,2.29687 V -2.296875 C 7.179688,-0.863281 8.039062,0 9.332031,0 h 52.839844 c 1.722656,0 2.296875,-0.863281 2.296875,-2.296875 V -16.65625 c 0,-1.578125 -0.574219,-2.296875 -2.296875,-2.296875 H 26.277344 v -29.003906 h 27.421875 c 1.4375,0 2.296875,-0.859375 2.296875,-2.441407 v -14.214843 c 0,-1.578125 -0.859375,-2.4375 -2.296875,-2.4375 H 26.277344 v -28.71875 h 35.894531 c 1.722656,0 2.296875,-1.003907 2.296875,-2.441407 z m 0,0"></path>
      </g>
    </g>
  </g>
  <g transform="translate(-37.878905,-39.867188)" id="g30" fill-opacity="1" fill="#f1d9a0">
    <g id="g29" transform="translate(770.90799,1312.7429)">
      <g id="g28">
        <path id="path27" d="m 66.191406,-94.1875 c 0,-13.5 -7.179687,-20.67578 -20.675781,-20.67578 H 9.476562 c -1.4375,0 -2.296874,0.85937 -2.296874,2.29687 V -2.296875 C 7.179688,-0.863281 8.039062,0 9.476562,0 h 14.933594 c 1.433594,0 2.296875,-0.863281 2.296875,-2.296875 v -36.183594 h 9.90625 l 9.621094,36.46875 C 46.519531,-0.71875 47.238281,0 48.675781,0 h 14.929688 c 1.582031,0 2.441406,-0.863281 2.011719,-2.585938 l -9.90625,-37.617187 c 6.890624,-3.015625 10.480468,-9.332031 10.480468,-18.953125 z m -39.484375,36.753906 v -38.480468 h 14.214844 c 3.730469,0 5.742187,2.011718 5.742187,5.746093 v 26.992188 c 0,3.734375 -2.011718,5.742187 -5.742187,5.742187 z m 0,0"></path>
      </g>
    </g>
  </g>
  <g transform="translate(-37.878905,-39.867188)" id="g33" fill-opacity="1" fill="#f1d9a0">
    <g id="g32" transform="translate(858.63089,1312.7429)">
      <g id="g31">
        <path id="path30" d="m 27.855469,-114.86328 c -13.355469,0 -20.675781,7.17578 -20.675781,20.67578 v 33.882812 c 0,2.730469 1.292968,4.453126 3.875,5.3125 l 34.03125,11.199219 v 19.097657 c 0,3.875 -2.011719,5.742187 -5.746094,5.742187 h -6.890625 c -3.589844,0 -5.742188,-1.867187 -5.742188,-5.742187 V -35.75 c 0,-1.582031 -0.71875,-2.300781 -2.296875,-2.300781 H 9.476562 c -1.4375,0 -2.296874,0.71875 -2.296874,2.300781 v 15.074219 C 7.179688,-7.179688 14.5,0 27.855469,0 H 43.9375 C 57.433594,0 64.613281,-7.179688 64.613281,-20.675781 V -53.84375 c 0,-2.726562 -1.292969,-4.308594 -3.734375,-5.3125 L 26.707031,-70.355469 v -19.8125 c 0,-3.734375 2.152344,-5.746093 5.742188,-5.746093 h 6.890625 c 3.878906,0 5.746094,2.011718 5.746094,5.746093 v 11.199219 c 0,1.433594 0.859374,2.296875 2.296874,2.296875 H 62.3125 c 1.582031,0 2.300781,-0.863281 2.300781,-2.296875 V -94.1875 c 0,-13.5 -7.179687,-20.67578 -20.675781,-20.67578 z m 0,0"></path>
      </g>
    </g>
  </g>
  <g transform="translate(-37.878905,-39.867188)" id="g36" fill-opacity="1" fill="#f1d9a0">
    <g id="g35" transform="translate(944.77454,1312.7429)">
      <g id="g34">
        <path id="path33" d="m 9.476562,-114.86328 c -1.578124,0 -2.296874,0.85937 -2.296874,2.29687 V -2.296875 C 7.179688,-0.863281 7.898438,0 9.476562,0 h 14.933594 c 1.433594,0 2.296875,-0.863281 2.296875,-2.296875 V -112.56641 c 0,-1.4375 -0.863281,-2.29687 -2.296875,-2.29687 z m 0,0"></path>
      </g>
    </g>
  </g>
  <g transform="translate(-37.878905,-39.867188)" id="g39" fill-opacity="1" fill="#f1d9a0">
    <g id="g38" transform="translate(993.01552,1312.7429)">
      <g id="g37">
        <path id="path36" d="M 7.179688,-20.675781 C 7.179688,-7.179688 14.359375,0 27.855469,0 H 43.9375 C 57.433594,0 64.613281,-7.179688 64.613281,-20.675781 V -94.1875 c 0,-13.5 -7.179687,-20.67578 -20.675781,-20.67578 H 27.855469 c -13.496094,0 -20.675781,7.17578 -20.675781,20.67578 z m 24.839843,2.152343 c -3.734375,0 -5.742187,-1.863281 -5.742187,-5.742187 v -66.335937 c 0,-3.730469 2.007812,-5.742188 5.742187,-5.742188 h 8.328125 c 3.730469,0 5.742188,2.011719 5.742188,5.742188 v 66.335937 c 0,3.878906 -2.011719,5.742187 -5.742188,5.742187 z m 0,0"></path>
      </g>
    </g>
  </g>
  <g transform="translate(-37.878905,-39.867188)" id="g42" fill-opacity="1" fill="#f1d9a0">
    <g id="g41" transform="translate(1079.1592,1312.7429)">
      <g id="g40">
        <path id="path39" d="m 51.257812,-114.86328 c -1.578124,0 -2.296874,0.85937 -2.296874,2.29687 v 60.589848 H 48.101562 L 26.277344,-113 c -0.433594,-1.28906 -1.292969,-1.86328 -2.585938,-1.86328 H 9.476562 c -1.4375,0 -2.296874,0.85937 -2.296874,2.29687 V -2.296875 C 7.179688,-0.863281 8.039062,0 9.476562,0 h 14.933594 c 1.578125,0 2.296875,-0.863281 2.296875,-2.296875 v -60.878906 h 0.71875 L 49.390625,-1.867188 C 49.824219,-0.574219 50.683594,0 51.976562,0 H 66.191406 C 67.625,0 68.488281,-0.863281 68.488281,-2.296875 V -112.56641 c 0,-1.4375 -0.863281,-2.29687 -2.296875,-2.29687 z m 0,0"></path>
      </g>
    </g>
  </g>
</svg>
