<svg xmlns="http://www.w3.org/2000/svg" id="svg37" version="1.0" preserveAspectRatio="xMidYMid" height="1932.0001" viewBox="0 0 1449 1449" zoomAndPan="magnify" width="1932">
  
  <defs id="defs4">
    <clipPath id="25df2f03fe">
      <path id="path1" clip-rule="nonzero" d="M 17.839844,17.839844 H 1466.8398 V 1466.8398 H 17.839844 Z m 0,0"></path>
    </clipPath>
    <clipPath id="a3374499e2">
      <path id="path2" clip-rule="nonzero" d="M 37.878906,39.867188 H 1447.1289 V 1449.1172 H 37.878906 Z m 0,0"></path>
    </clipPath>
    <clipPath id="791e34d5a5">
      <path id="path3" clip-rule="nonzero" d="M 44.746094,1124.2148 H 1440.4961 v 264 H 44.746094 Z m 0,0"></path>
    </clipPath>
    <clipPath id="6a5b089c4c">
      <path id="path4" clip-rule="nonzero" d="M 71.726562,1149.7773 H 1413.4766 v 213 H 71.726562 Z m 0,0"></path>
    </clipPath>
  </defs>
  <g transform="translate(-17.839843,-17.839844)" id="g5" clip-path="url(#25df2f03fe)">
    <path id="path5" fill-rule="nonzero" fill-opacity="1" d="m 1467.1563,742.5 c 0,11.85937 -0.2891,23.71094 -0.8711,35.55469 -0.5821,11.84765 -1.4571,23.67187 -2.6172,35.47265 -1.1641,11.80078 -2.6133,23.57032 -4.3555,35.30078 -1.7383,11.73047 -3.7656,23.41016 -6.082,35.04297 -2.3125,11.63282 -4.9102,23.19922 -7.793,34.70313 -2.8789,11.5039 -6.043,22.93359 -9.4844,34.28125 -3.4453,11.34765 -7.164,22.60547 -11.1562,33.77344 -3.9961,11.16406 -8.2656,22.22659 -12.8008,33.18359 -4.5391,10.957 -9.3438,21.7969 -14.4141,32.5156 -5.0703,10.7227 -10.4023,21.3125 -15.9922,31.7696 -5.5898,10.4609 -11.4335,20.7773 -17.5312,30.9492 -6.0977,10.1719 -12.4414,20.1875 -19.0313,30.0508 -6.5859,9.8593 -13.414,19.5546 -20.4804,29.0781 -7.0625,9.5273 -14.3555,18.8711 -21.8789,28.039 -7.5235,9.168 -15.2696,18.1485 -23.2344,26.9336 -7.9648,8.7891 -16.1406,17.375 -24.5234,25.7618 -8.3868,8.3828 -16.9727,16.5586 -25.7618,24.5234 -8.7851,7.9648 -17.7656,15.7109 -26.9336,23.2344 -9.1679,7.5234 -18.5117,14.8164 -28.039,21.8789 -9.5235,7.0664 -19.2188,13.8945 -29.0781,20.4804 -9.8633,6.5899 -19.8789,12.9336 -30.0508,19.0313 -10.1719,6.0977 -20.4883,11.9414 -30.9492,17.5312 -10.4571,5.5899 -21.0469,10.9219 -31.7696,15.9922 -10.7187,5.0703 -21.5586,9.875 -32.5156,14.4141 -10.957,4.5352 -22.01953,8.8047 -33.18359,12.8008 -11.16797,3.9922 -22.42579,7.7148 -33.77344,11.1562 -11.34766,3.4414 -22.77735,6.6055 -34.28125,9.4844 -11.50391,2.8828 -23.07031,5.4805 -34.70313,7.793 -11.63281,2.3164 -23.3125,4.3437 -35.04297,6.082 -11.73046,1.7422 -23.5,3.1914 -35.30078,4.3555 -11.80468,1.1601 -23.625,2.0351 -35.47265,2.6172 -11.84375,0.582 -23.69532,0.8711 -35.55469,0.8711 -11.86328,0 -23.71484,-0.2891 -35.55859,-0.8711 -11.84766,-0.5821 -23.66797,-1.4571 -35.47266,-2.6172 -11.80078,-1.1641 -23.57031,-2.6133 -35.30078,-4.3555 -11.73047,-1.7383 -23.41016,-3.7656 -35.04297,-6.082 -11.63281,-2.3125 -23.19922,-4.9102 -34.70313,-7.793 -11.5039,-2.8789 -22.93359,-6.043 -34.28125,-9.4844 -11.34765,-3.4414 -22.60546,-7.164 -33.77343,-11.1562 -11.16407,-3.9961 -22.22657,-8.2656 -33.1836,-12.8008 -10.95703,-4.5391 -21.79687,-9.3438 -32.51562,-14.4141 -10.72266,-5.0703 -21.3125,-10.4023 -31.76953,-15.9922 -10.46094,-5.5898 -20.77735,-11.4335 -30.94922,-17.5312 -10.17188,-6.0977 -20.1875,-12.4414 -30.05078,-19.0313 -9.85938,-6.5859 -19.55469,-13.414 -29.07813,-20.4804 -9.52734,-7.0625 -18.87109,-14.3555 -28.03906,-21.8789 -9.16797,-7.5235 -18.14453,-15.2696 -26.93359,-23.2344 -8.78907,-7.9648 -17.375,-16.1406 -25.76172,-24.5234 -8.38282,-8.3868 -16.5586,-16.9727 -24.52344,-25.7618 -7.96484,-8.789 -15.71094,-17.7656 -23.23438,-26.9336 -7.52343,-9.1679 -14.8164,-18.5117 -21.8789,-28.039 -7.06641,-9.5235 -13.89453,-19.2188 -20.48047,-29.0781 -6.58984,-9.8633 -12.93359,-19.8789 -19.03125,-30.0508 -6.09766,-10.1719 -11.94141,-20.4883 -17.53125,-30.9492 -5.589844,-10.4571 -10.921875,-21.0469 -15.992188,-31.7696 -5.070312,-10.7187 -9.875,-21.5586 -14.414062,-32.5156 -4.539062,-10.957 -8.804688,-22.01953 -12.800781,-33.18359 -3.992188,-11.16797 -7.714844,-22.42579 -11.15625,-33.77344 -3.441407,-11.34766 -6.605469,-22.77735 -9.484375,-34.28125 -2.882813,-11.50391 -5.480469,-23.07031 -7.792969,-34.70313 -2.316406,-11.63281 -4.34375,-23.3125 -6.082031,-35.04297 -1.742188,-11.73046 -3.191406,-23.5 -4.355469,-35.30078 -1.160156,-11.80078 -2.035156,-23.625 -2.613281,-35.47265 -0.582032,-11.84375 -0.875,-23.69532 -0.875,-35.55469 0,-11.86328 0.292968,-23.71484 0.875,-35.55859 0.578125,-11.84766 1.453125,-23.66797 2.613281,-35.47266 1.164063,-11.80078 2.613281,-23.57031 4.355469,-35.30078 1.738281,-11.73047 3.765625,-23.41016 6.082031,-35.04297 2.3125,-11.63281 4.910156,-23.19922 7.792969,-34.70313 2.878906,-11.5039 6.042968,-22.93359 9.484375,-34.28125 3.441406,-11.34765 7.164062,-22.60546 11.15625,-33.77343 3.996093,-11.16407 8.261719,-22.22657 12.800781,-33.1836 4.539062,-10.95703 9.34375,-21.79687 14.414062,-32.51562 5.070313,-10.72266 10.402344,-21.3125 15.992188,-31.76953 5.58984,-10.46094 11.43359,-20.77735 17.53125,-30.94922 6.09766,-10.17188 12.44141,-20.1875 19.03125,-30.05078 6.58594,-9.85938 13.41406,-19.55469 20.48047,-29.07813 7.0625,-9.52734 14.35547,-18.87109 21.8789,-28.03906 7.52344,-9.16797 15.26954,-18.14453 23.23438,-26.93359 7.96484,-8.78907 16.14062,-17.375 24.52344,-25.76172 8.38672,-8.38282 16.97265,-16.5586 25.76172,-24.52344 8.78906,-7.96484 17.76562,-15.71094 26.93359,-23.23438 9.16797,-7.52343 18.51172,-14.8164 28.03906,-21.8789 9.52344,-7.06641 19.21875,-13.89453 29.07813,-20.48047 9.86328,-6.58984 19.8789,-12.93359 30.05078,-19.03125 10.17187,-6.09766 20.48828,-11.94141 30.94922,-17.53125 10.45703,-5.589844 21.04687,-10.921875 31.76953,-15.992188 10.71875,-5.070312 21.55859,-9.875 32.51562,-14.414062 10.95703,-4.535156 22.01953,-8.804688 33.1836,-12.800781 11.16797,-3.992188 22.42578,-7.714844 33.77343,-11.15625 11.34766,-3.441407 22.77735,-6.605469 34.28125,-9.484375 11.50391,-2.882813 23.07032,-5.480469 34.70313,-7.792969 11.63281,-2.316406 23.3125,-4.34375 35.04297,-6.082031 11.73047,-1.742188 23.5,-3.191406 35.30078,-4.355469 11.80469,-1.160156 23.625,-2.035156 35.47266,-2.613281 11.84375,-0.582032 23.69531,-0.875 35.55859,-0.875 11.85937,0 23.71094,0.292968 35.55469,0.875 11.84765,0.578125 23.66797,1.453125 35.47265,2.613281 11.80078,1.164063 23.57032,2.613281 35.30078,4.355469 11.73047,1.738281 23.41016,3.765625 35.04297,6.082031 11.63282,2.3125 23.19922,4.910156 34.70313,7.792969 11.5039,2.878906 22.93359,6.042968 34.28125,9.484375 11.34765,3.441406 22.60547,7.164062 33.77344,11.15625 11.16406,3.996093 22.22659,8.265625 33.18359,12.800781 10.957,4.539062 21.7969,9.34375 32.5156,14.414062 10.7227,5.070313 21.3125,10.402344 31.7735,15.992188 10.457,5.58984 20.7734,11.43359 30.9453,17.53125 10.1719,6.09766 20.1875,12.44141 30.0508,19.03125 9.8593,6.58594 19.5546,13.41406 29.0781,20.48047 9.5273,7.0625 18.8711,14.35547 28.039,21.8789 9.168,7.52344 18.1485,15.26954 26.9336,23.23438 8.7891,7.96484 17.375,16.14062 25.7618,24.52344 8.3828,8.38672 16.5586,16.97265 24.5234,25.76172 7.9648,8.78906 15.7109,17.76562 23.2344,26.93359 7.5234,9.16797 14.8164,18.51172 21.8828,28.03906 7.0625,9.52344 13.8906,19.21875 20.4765,29.07813 6.5899,9.86328 12.9336,19.8789 19.0313,30.05078 6.0977,10.17187 11.9414,20.48828 17.5312,30.94922 5.5899,10.45703 10.9219,21.04687 15.9922,31.76953 5.0703,10.71875 9.875,21.55859 14.4141,32.51562 4.5352,10.95703 8.8047,22.01953 12.8008,33.1836 3.9922,11.16797 7.7148,22.42578 11.1562,33.77343 3.4414,11.34766 6.6055,22.77735 9.4844,34.28125 2.8828,11.50391 5.4805,23.07032 7.793,34.70313 2.3164,11.63281 4.3437,23.3125 6.082,35.04297 1.7422,11.73047 3.1914,23.5 4.3555,35.30078 1.1601,11.80469 2.0351,23.625 2.6172,35.47266 0.582,11.84375 0.8711,23.69531 0.8711,35.55859 z m 0,0" fill="#f1d9a0"></path>
  </g>
  <g transform="translate(-17.839843,-17.839844)" id="g6" clip-path="url(#a3374499e2)">
    <path id="path6" fill-rule="nonzero" fill-opacity="1" d="m 1447.1172,744.48828 c 0,11.53125 -0.2813,23.05469 -0.8477,34.57422 -0.5664,11.51562 -1.414,23.01172 -2.5468,34.48828 -1.1289,11.47656 -2.5391,22.91797 -4.2305,34.32422 -1.6953,11.40625 -3.6641,22.76562 -5.9141,34.07812 -2.25,11.3086 -4.7773,22.55469 -7.5781,33.74219 -2.8008,11.1875 -5.875,22.29688 -9.2227,33.33203 -3.3476,11.03516 -6.9648,21.98047 -10.8515,32.83985 -3.8828,10.85547 -8.0313,21.61331 -12.4453,32.26561 -4.4141,10.6524 -9.086,21.1914 -14.0157,31.6172 -4.9296,10.4258 -10.1132,20.7227 -15.5468,30.8906 -5.4375,10.1719 -11.1211,20.2032 -17.0469,30.0938 -5.9297,9.8906 -12.0977,19.6289 -18.5039,29.2187 -6.4063,9.586 -13.043,19.0117 -19.9141,28.2735 -6.8711,9.2656 -13.9609,18.3515 -21.2773,27.2656 -7.3164,8.9141 -14.8438,17.6445 -22.5899,26.1875 -7.7421,8.543 -15.6914,16.8945 -23.8476,25.0469 -8.1524,8.1562 -16.5039,16.1054 -25.0469,23.8476 -8.543,7.7461 -17.2734,15.2735 -26.1875,22.5899 -8.9141,7.3164 -18.0039,14.4101 -27.2656,21.2773 -9.2617,6.8711 -18.6875,13.5078 -28.2735,19.9141 -9.5898,6.4062 -19.3281,12.5742 -29.2187,18.5039 -9.8945,5.9258 -19.9219,11.6094 -30.0938,17.0469 -10.1679,5.4335 -20.4648,10.6171 -30.8906,15.5468 -10.4258,4.9336 -20.9648,9.6055 -31.6172,14.0157 -10.6562,4.414 -21.41013,8.5625 -32.2695,12.4492 -10.85547,3.8828 -21.80078,7.5 -32.83594,10.8476 -11.03515,3.3477 -22.14844,6.4219 -33.33203,9.2227 -11.1875,2.8047 -22.43359,5.3281 -33.74609,7.5781 -11.3086,2.25 -22.66797,4.2227 -34.07422,5.9141 -11.40625,1.6914 -22.84766,3.1015 -34.32422,4.2343 -11.47656,1.129 -22.97266,1.9766 -34.49219,2.543 -11.51562,0.5664 -23.03906,0.8477 -34.57422,0.8477 -11.53125,0 -23.05468,-0.2813 -34.57031,-0.8477 -11.51953,-0.5664 -23.01562,-1.414 -34.49219,-2.543 -11.47656,-1.1328 -22.91797,-2.5429 -34.32422,-4.2343 -11.40625,-1.6914 -22.76562,-3.6641 -34.07421,-5.9141 -11.3125,-2.25 -22.5586,-4.7734 -33.7461,-7.5781 -11.1875,-2.8008 -22.29687,-5.875 -33.33203,-9.2227 -11.03516,-3.3476 -21.98047,-6.9648 -32.83984,-10.8476 -10.85547,-3.8867 -21.61328,-8.0352 -32.26563,-12.4492 -10.65234,-4.4102 -21.1914,-9.0821 -31.61719,-14.0157 -10.42578,-4.9297 -20.72265,-10.1133 -30.89062,-15.5468 -10.17188,-5.4375 -20.20313,-11.1172 -30.09375,-17.0469 -9.89063,-5.9297 -19.62891,-12.0977 -29.21875,-18.5039 -9.58594,-6.4063 -19.01172,-13.043 -28.27344,-19.9141 -9.26172,-6.8672 -18.35156,-13.9609 -27.26562,-21.2773 -8.91407,-7.3164 -17.64453,-14.8438 -26.1875,-22.5899 -8.54297,-7.7422 -16.89453,-15.6914 -25.04688,-23.8476 -8.15625,-8.1524 -16.10547,-16.5039 -23.84765,-25.0469 -7.7461,-8.543 -15.27344,-17.2734 -22.58985,-26.1875 -7.3164,-8.9141 -14.41015,-18.0039 -21.27734,-27.2656 -6.8711,-9.2618 -13.50781,-18.6875 -19.91406,-28.2735 -6.40625,-9.5898 -12.57422,-19.3281 -18.50391,-29.2187 -5.92578,-9.8906 -11.60937,-19.9219 -17.04687,-30.0938 -5.4336,-10.1679 -10.61719,-20.4648 -15.54688,-30.8906 -4.93359,-10.4258 -9.605469,-20.9648 -14.015625,-31.6172 -4.414063,-10.6523 -8.5625,-21.41014 -12.449219,-32.26561 -3.882812,-10.85938 -7.5,-21.80469 -10.847656,-32.83985 -3.347656,-11.03515 -6.421875,-22.14453 -9.222656,-33.33203 -2.804688,-11.1875 -5.328125,-22.43359 -7.578125,-33.74219 -2.25,-11.3125 -4.222657,-22.67187 -5.914063,-34.07812 -1.691406,-11.40625 -3.101562,-22.84766 -4.230468,-34.32422 -1.132813,-11.47656 -1.980469,-22.97266 -2.546876,-34.48828 -0.566406,-11.51953 -0.847656,-23.04297 -0.847656,-34.57422 0,-11.53125 0.28125,-23.05859 0.847656,-34.57422 0.566407,-11.51953 1.414063,-23.01562 2.546876,-34.49219 1.128906,-11.47656 2.539062,-22.91796 4.230468,-34.32421 1.691406,-11.40625 3.664063,-22.76563 5.914063,-34.07422 2.25,-11.3125 4.777343,-22.5586 7.578125,-33.7461 2.800781,-11.18359 5.875,-22.29687 9.222656,-33.33203 3.347656,-11.03515 6.964844,-21.98047 10.847656,-32.83594 3.886719,-10.85937 8.035156,-21.61328 12.449219,-32.26953 4.410156,-10.65234 9.082035,-21.1914 14.015625,-31.61718 4.92969,-10.42188 10.11328,-20.72266 15.54688,-30.89063 5.4375,-10.17187 11.12109,-20.19922 17.04687,-30.08984 5.92969,-9.89453 12.09766,-19.63282 18.50391,-29.21875 6.40625,-9.58985 13.04296,-19.01563 19.91406,-28.27735 6.86719,-9.26172 13.96094,-18.35156 21.27734,-27.26562 7.31641,-8.91406 14.84375,-17.64063 22.58985,-26.1875 7.74218,-8.54297 15.6914,-16.89453 23.84765,-25.04688 8.15235,-8.15234 16.50391,-16.10156 25.04688,-23.84765 8.54297,-7.74219 17.27343,-15.27344 26.1875,-22.58985 8.91406,-7.3164 18.0039,-14.40625 27.26562,-21.27734 9.26172,-6.86719 18.6875,-13.50781 28.27344,-19.91406 9.58984,-6.40625 19.32812,-12.57422 29.21875,-18.50391 9.89062,-5.92578 19.92187,-11.60937 30.09375,-17.04297 10.16797,-5.4375 20.46484,-10.62109 30.89062,-15.55078 10.42579,-4.92969 20.96485,-9.601561 31.61719,-14.015624 10.65235,-4.414062 21.41016,-8.5625 32.26563,-12.445312 10.85937,-3.886719 21.80468,-7.503906 32.83984,-10.851563 11.03516,-3.347656 22.14453,-6.421875 33.33203,-9.222656 11.1875,-2.800781 22.4336,-5.328125 33.7461,-7.578125 11.30859,-2.25 22.66796,-4.21875 34.07421,-5.910156 11.40625,-1.695313 22.84766,-3.105469 34.32422,-4.234375 11.47657,-1.132813 22.97266,-1.980469 34.49219,-2.546875 11.51563,-0.5625 23.03906,-0.847656 34.57031,-0.847656 11.53516,0 23.0586,0.285156 34.57422,0.847656 11.51953,0.566406 23.01563,1.414062 34.49219,2.546875 11.47656,1.128906 22.91797,2.539062 34.32422,4.234375 11.40625,1.691406 22.76562,3.660156 34.07422,5.910156 11.3125,2.25 22.55859,4.777344 33.74609,7.578125 11.18359,2.800781 22.29688,5.875 33.33203,9.222656 11.03516,3.347657 21.98047,6.964844 32.83594,10.851563 10.85937,3.882812 21.6133,8.03125 32.2695,12.445312 10.6524,4.414063 21.1914,9.085934 31.6172,14.015624 10.4258,4.92969 20.7227,10.11328 30.8906,15.55078 10.1719,5.4336 20.1993,11.11719 30.0938,17.04297 9.8906,5.92969 19.6289,12.09766 29.2187,18.50391 9.586,6.40625 19.0118,13.04687 28.2735,19.91406 9.2617,6.87109 18.3515,13.96094 27.2656,21.27734 8.9141,7.31641 17.6445,14.84766 26.1875,22.58985 8.543,7.74609 16.8945,15.69531 25.0469,23.84765 8.1562,8.15235 16.1055,16.50391 23.8476,25.04688 7.7461,8.54687 15.2735,17.27344 22.5899,26.1875 7.3164,8.91406 14.4062,18.0039 21.2773,27.26562 6.8711,9.26172 13.5078,18.6875 19.9141,28.27735 6.4062,9.58593 12.5742,19.32422 18.5039,29.21875 5.9258,9.89062 11.6094,19.91797 17.0469,30.08984 5.4336,10.16797 10.6172,20.46875 15.5468,30.89063 4.9297,10.42578 9.6016,20.96484 14.0157,31.61718 4.414,10.65625 8.5625,21.41016 12.4453,32.26953 3.8867,10.85547 7.5039,21.80079 10.8515,32.83594 3.3477,11.03516 6.4219,22.14844 9.2227,33.33203 2.8008,11.1875 5.3281,22.4336 7.5781,33.7461 2.25,11.30859 4.2188,22.66797 5.9141,34.07422 1.6914,11.40625 3.1016,22.84765 4.2305,34.32421 1.1328,11.47657 1.9804,22.97266 2.5468,34.49219 0.5664,11.51563 0.8477,23.04297 0.8477,34.57422 z m 0,0" fill="#b53620"></path>
  </g>
  <path id="path7" fill-rule="nonzero" fill-opacity="1" d="m 948.15235,333.17578 c -150.51172,-91.82421 -294.19532,-94.35546 -431.05078,-7.58593 -9.86329,6.07031 -20.74219,8.47265 -32.62891,7.20703 -3.54297,-0.25391 -7.08594,-0.63281 -10.625,-1.13672 -22.26172,-2.02344 -25.55078,-11.00391 -9.86719,-26.94141 137.35938,-138.49609 393.10547,-113.83203 525.15239,0 4.3007,3.79297 4.8085,7.84375 1.5195,12.14063 l -7.211,9.48828 c -9.61323,12.90234 -21.37495,15.17578 -35.28901,6.82812 z m 0,0" fill="#f1d9a0"></path>
  <path id="path8" fill-rule="nonzero" fill-opacity="1" d="m 427.55469,848.84375 c 0.41797,0.60938 0.80859,1.23828 1.16797,1.87891 0.36328,0.64453 0.69531,1.30469 1,1.98047 0.30078,0.67187 0.57422,1.35937 0.8125,2.05859 0.24219,0.69922 0.44922,1.40625 0.62891,2.125 0.17578,0.71485 0.32031,1.44141 0.43359,2.17188 0.11328,0.73047 0.19141,1.46484 0.23828,2.19922 0.0469,0.73828 0.0586,1.47656 0.0391,2.21484 -0.0195,0.74219 -0.0742,1.47656 -0.16015,2.21094 -0.0859,0.73437 -0.20703,1.46093 -0.35938,2.18359 -0.14844,0.72656 -0.33594,1.44141 -0.55078,2.14844 -0.21484,0.70312 -0.46484,1.40234 -0.74219,2.08594 -0.27734,0.68359 -0.58593,1.35546 -0.92578,2.01171 -0.33984,0.65625 -0.70703,1.29688 -1.10156,1.91797 -0.39844,0.625 -0.82031,1.23047 -1.27344,1.81641 -0.44922,0.58594 -0.92578,1.14844 -1.42578,1.69141 -0.50391,0.54296 -1.02734,1.0625 -1.57812,1.55859 l -12.14063,11.00391 c -0.49219,0.46484 -1.00781,0.90234 -1.55078,1.30859 -0.53906,0.40625 -1.10156,0.78125 -1.68359,1.12891 -0.58204,0.34375 -1.1836,0.65234 -1.80079,0.93359 -0.61718,0.27734 -1.25,0.51953 -1.89453,0.72656 -0.64453,0.20703 -1.29687,0.37891 -1.96093,0.51172 -0.66407,0.13281 -1.33204,0.23047 -2.00782,0.29297 -0.67187,0.0586 -1.34765,0.082 -2.02734,0.0664 -0.67578,-0.0156 -1.34766,-0.0703 -2.01953,-0.16016 -0.67188,-0.0898 -1.33594,-0.21875 -1.99219,-0.38281 -0.65625,-0.16407 -1.30078,-0.36719 -1.9375,-0.60157 -0.63281,-0.23828 -1.25391,-0.50781 -1.85547,-0.8164 -0.60547,-0.30469 -1.1914,-0.64063 -1.75781,-1.01172 -0.56641,-0.37109 -1.10938,-0.77344 -1.62891,-1.20703 -0.52343,-0.42969 -1.01953,-0.89063 -1.48828,-1.375 -0.47265,-0.48828 -0.91406,-1 -1.32812,-1.53516 -0.41016,-0.53906 -0.79297,-1.09375 -1.14453,-1.67578 -107.25782,-171.50781 -106.5,-342.63672 2.27734,-513.38672 9.10547,-14.42187 20.36328,-16.3164 33.76953,-5.6914 l 10.24609,7.96484 c 0.72657,0.60156 1.39844,1.25781 2.00782,1.97656 0.61328,0.71485 1.15625,1.48047 1.6289,2.29297 0.47266,0.80859 0.86719,1.65625 1.1875,2.53516 0.32032,0.8789 0.5586,1.78125 0.71485,2.69922 0.15625,0.91796 0.22656,1.83984 0.21484,2.76953 -0.0117,0.92578 -0.10937,1.84375 -0.29297,2.75 -0.17969,0.90625 -0.4414,1.78906 -0.78906,2.64453 -0.34375,0.85156 -0.76172,1.66797 -1.25781,2.44531 -100.93364,158.35548 -102.83207,308.8672 -5.69145,451.53907 z m 0,0" fill="#f1d9a0"></path>
  <path id="path9" fill-rule="nonzero" fill-opacity="1" d="m 1084.375,866.67969 c -7.3359,16.1875 -19.8593,23.14453 -37.5664,20.86719 l -15.9375,-1.89453 c -0.7343,-0.0899 -1.4609,-0.22266 -2.1796,-0.40235 -0.7227,-0.17968 -1.4258,-0.40625 -2.1172,-0.67578 -0.6914,-0.26953 -1.3594,-0.58203 -2.0118,-0.93359 -0.6484,-0.35547 -1.2773,-0.75 -1.875,-1.1875 -0.6015,-0.4336 -1.1718,-0.90625 -1.7109,-1.41406 -0.543,-0.50782 -1.0469,-1.04688 -1.5195,-1.61719 -0.4727,-0.57422 -0.9063,-1.17188 -1.3008,-1.80078 -0.3945,-0.625 -0.75,-1.27344 -1.0625,-1.94922 -0.3125,-0.67188 -0.5781,-1.35938 -0.8047,-2.06641 -0.2226,-0.70703 -0.4023,-1.42578 -0.5351,-2.15234 -0.1329,-0.73047 -0.2188,-1.46485 -0.2618,-2.20703 -0.039,-0.73828 -0.031,-1.47657 0.023,-2.21875 0.055,-0.73828 0.1562,-1.47266 0.3047,-2.19922 0.1484,-0.72656 0.3437,-1.4375 0.582,-2.14063 0.2383,-0.70312 0.5195,-1.38672 0.8476,-2.05078 0.3243,-0.66406 0.6915,-1.30859 1.1016,-1.92578 99.668,-151.78125 99.2891,-304.82422 -1.1406,-459.12891 -0.75,-1.1875 -1.4024,-2.42968 -1.9492,-3.72656 -0.5469,-1.29687 -0.9805,-2.625 -1.3086,-3.99609 -0.3242,-1.36719 -0.5352,-2.75 -0.6328,-4.15625 -0.094,-1.40235 -0.074,-2.80078 0.062,-4.20313 0.1367,-1.39843 0.3867,-2.77734 0.7539,-4.13281 0.3632,-1.35937 0.8398,-2.67969 1.4218,-3.95703 0.586,-1.27734 1.2696,-2.5 2.0586,-3.66797 0.7852,-1.16406 1.6641,-2.25781 2.6328,-3.27734 l 9.4844,-10.24219 c 0.5391,-0.54297 1.125,-1.02344 1.7617,-1.44531 0.6329,-0.41797 1.3047,-0.77344 2.0079,-1.0586 0.7031,-0.28515 1.4257,-0.49609 2.1679,-0.63281 0.7422,-0.13672 1.4883,-0.19531 2.2383,-0.17578 0.75,0.0156 1.4844,0.11328 2.2109,0.28125 0.7227,0.17187 1.418,0.41797 2.086,0.73437 0.6679,0.32032 1.2929,0.70313 1.8789,1.15235 0.582,0.44922 1.1133,0.95703 1.5859,1.52344 118.8906,138.37109 131.793,307.73046 38.7031,508.07812 z m 0,0" fill="#f1d9a0"></path>
  <path id="path10" fill-rule="nonzero" fill-opacity="1" d="m 891.61719,736.52735 c 8.34766,-21.25 12.64844,-43.63672 12.89844,-67.16016 0.2539,-22.51562 5.4414,-23.65234 15.55859,-3.41406 22.51563,45.78515 30.98828,92.32812 25.42188,139.63281 -1.01172,9.35938 -6.19532,13.78906 -15.55469,13.28125 -48.57031,-2.78125 -97.64453,1.14063 -147.22656,11.76172 -38.70313,8.09766 -79.6836,7.96875 -122.94141,-0.37891 -45.27734,-8.85156 -90.43359,-13.15234 -135.46094,-12.89843 -14.41797,0 -22.00781,-7.21094 -22.76562,-21.62891 -2.02344,-47.8125 7.71484,-90.81641 29.21484,-129.01172 10.625,-18.97266 16.06641,-17.58203 16.31641,4.17188 0.2539,22.26171 3.54297,43.38281 9.86719,63.36718 6.07031,19.98438 18.33984,25.04688 36.80468,15.17969 50.59375,-27.57422 71.96875,-69.05859 64.12891,-124.45703 -11.13281,-77.91406 -17.58203,-154.5625 -19.35156,-229.94531 -0.25391,-16.44141 7.58593,-22.76563 23.52343,-18.97266 41.99219,9.86719 83.60547,9.35938 124.83985,-1.51953 0.75,-0.21094 1.51172,-0.375 2.28125,-0.49609 0.77344,-0.1211 1.54687,-0.19141 2.32812,-0.21875 0.77735,-0.0274 1.5586,-0.004 2.33594,0.0625 0.77734,0.0703 1.54688,0.18359 2.3125,0.34375 0.76563,0.16015 1.51953,0.36718 2.25781,0.62109 0.74219,0.25 1.46875,0.54687 2.17578,0.88672 0.70704,0.33984 1.39063,0.71875 2.05469,1.14062 0.66016,0.42578 1.29688,0.88282 1.90625,1.38282 0.60938,0.5 1.1875,1.03125 1.73828,1.60156 0.54688,0.5664 1.0586,1.16797 1.53907,1.79687 0.47656,0.63282 0.91796,1.28907 1.32031,1.97266 0.40234,0.67969 0.76172,1.38672 1.08203,2.11328 0.32031,0.72656 0.59766,1.46875 0.83203,2.22656 0.23047,0.76172 0.42188,1.53125 0.56641,2.3125 0.14062,0.78516 0.24218,1.57032 0.29297,2.36328 0.0508,0.79297 0.0586,1.58985 0.0195,2.38282 -5.3125,89.29687 -12.52344,175.30468 -21.62891,258.02343 -4.93359,42.4961 31.11328,75.50782 64.125,96 0.78516,0.48829 1.59766,0.9336 2.42969,1.33204 0.83594,0.39843 1.6914,0.75 2.5664,1.05468 0.8711,0.30469 1.76172,0.5586 2.66407,0.76563 0.90234,0.20312 1.8125,0.35937 2.73437,0.46484 0.92188,0.10547 1.84375,0.16016 2.77344,0.16406 0.92969,0.004 1.85547,-0.043 2.77734,-0.14062 0.92578,-0.0977 1.83985,-0.24609 2.75,-0.44531 0.91016,-0.19922 1.80469,-0.44922 2.6875,-0.7461 0.88282,-0.29687 1.75,-0.64062 2.59766,-1.03515 0.84766,-0.39063 1.67187,-0.82813 2.47266,-1.3125 0.80078,-0.48047 1.57421,-1.00782 2.3164,-1.57422 0.7461,-0.56641 1.46094,-1.17188 2.14063,-1.81641 0.67968,-0.64453 1.32422,-1.32422 1.92968,-2.03906 0.60938,-0.71484 1.17579,-1.46094 1.70704,-2.23828 0.52734,-0.77344 1.01171,-1.57813 1.45312,-2.40625 0.44141,-0.82813 0.83594,-1.67969 1.1875,-2.55078 z m -187.06641,-6.82813 h 39.46094 c 0.44922,0 0.89453,-0.043 1.33203,-0.13281 0.44141,-0.0859 0.86719,-0.21484 1.28125,-0.38672 0.41407,-0.17187 0.8086,-0.38281 1.17969,-0.63281 0.375,-0.25 0.71875,-0.53125 1.03516,-0.84766 0.32031,-0.32031 0.60156,-0.66406 0.85156,-1.03515 0.25,-0.375 0.45703,-0.76954 0.62891,-1.1836 0.17187,-0.41406 0.30078,-0.83984 0.39062,-1.28125 0.0859,-0.4375 0.12891,-0.88281 0.13281,-1.33203 v -4.17187 c 0.008,-4.83594 0.004,-9.66407 -0.008,-14.49219 -0.0117,-4.82813 -0.0352,-9.64844 -0.0703,-14.45703 -0.0312,-4.8125 -0.0742,-9.60938 -0.12891,-14.39063 -0.0547,-4.78125 -0.11719,-9.54297 -0.1914,-14.28515 -0.0742,-4.74219 -0.16016,-9.45704 -0.25391,-14.14844 -0.0937,-4.69141 -0.19922,-9.35156 -0.31641,-13.97656 -0.11328,-4.62891 -0.23828,-9.21875 -0.375,-13.77344 -0.13281,-4.55469 -0.27734,-9.06641 -0.43359,-13.53906 -0.15234,-4.46875 -0.31641,-8.89063 -0.48828,-13.26563 -0.17578,-4.375 -0.35938,-8.69922 -0.55078,-12.96875 -0.19141,-4.26953 -0.39453,-8.48047 -0.60547,-12.63281 -0.20703,-4.15625 -0.42969,-8.2461 -0.65625,-12.27344 -0.23047,-4.03125 -0.46485,-7.99219 -0.71094,-11.88281 -0.24609,-3.89453 -0.5,-7.71485 -0.76172,-11.46485 -0.26172,-3.75 -0.53515,-7.42187 -0.8125,-11.01562 -0.27734,-3.59766 -0.5664,-7.11328 -0.85937,-10.54688 -0.29297,-3.43359 -0.59375,-6.78125 -0.90235,-10.04687 -0.30859,-3.26172 -0.625,-6.4375 -0.94531,-9.52344 -0.32422,-3.08594 -0.65234,-6.07812 -0.98828,-8.98047 -0.33594,-2.90234 -0.67969,-5.70703 -1.02734,-8.41406 -0.34766,-2.71094 -0.69922,-5.32031 -1.0586,-7.82812 -0.35937,-2.51172 -0.72656,-4.91797 -1.09765,-7.22657 -0.3711,-2.30468 -0.7461,-4.5039 -1.125,-6.60156 -0.37891,-2.09766 -0.76563,-4.08594 -1.15235,-5.96484 -0.39062,-1.88282 -0.78515,-3.65235 -1.17969,-5.31641 -0.39843,-1.66016 -0.80078,-3.21094 -1.20312,-4.64844 -0.40234,-1.4375 -0.8125,-2.76172 -1.22266,-3.97265 -0.41015,-1.21094 -0.82031,-2.3086 -1.23828,-3.28907 -0.41406,-0.98437 -0.83203,-1.84765 -1.25,-2.59765 -0.42187,-0.75 -0.84375,-1.38281 -1.26562,-1.89844 -0.42188,-0.51562 -0.84375,-0.91406 -1.26953,-1.19531 -0.42579,-0.28125 -0.85157,-0.44531 -1.27735,-0.48828 h -0.75763 c -0.42969,-0.0469 -0.86328,0.0273 -1.29297,0.22265 -0.42969,0.19532 -0.86328,0.51172 -1.29297,0.94922 -0.42969,0.4375 -0.85937,0.9961 -1.28515,1.67188 -0.42969,0.67578 -0.85547,1.47265 -1.28125,2.38672 -0.42579,0.91406 -0.84766,1.94921 -1.26954,3.10156 -0.41796,1.14844 -0.83984,2.41797 -1.2539,3.80078 -0.41406,1.38672 -0.82813,2.88281 -1.23828,4.5 -0.41016,1.61328 -0.81641,3.33984 -1.21875,5.17969 -0.40235,1.83984 -0.80078,3.79297 -1.19532,5.85547 -0.39453,2.05859 -0.78515,4.23046 -1.16796,6.50781 -0.38672,2.27734 -0.76563,4.66015 -1.14063,7.15234 -0.37891,2.48828 -0.74609,5.07813 -1.11328,7.77344 -0.36328,2.69141 -0.72266,5.48437 -1.07422,8.37891 -0.35156,2.89062 -0.69922,5.8789 -1.03906,8.96093 -0.33985,3.08594 -0.67188,6.26172 -1,9.52735 -0.32422,3.26562 -0.64453,6.62109 -0.95703,10.0625 -0.3125,3.44531 -0.61719,6.96875 -0.91407,10.57812 -0.29687,3.61328 -0.58593,7.30078 -0.86718,11.07031 -0.28125,3.76954 -0.55469,7.60938 -0.82032,11.52735 -0.26562,3.91797 -0.51953,7.90625 -0.76953,11.96484 -0.24609,4.0586 -0.48437,8.17969 -0.71484,12.36719 -0.23047,4.1875 -0.45313,8.43359 -0.66406,12.74219 -0.21094,4.30859 -0.41407,8.66797 -0.60547,13.08593 -0.19531,4.41407 -0.37891,8.88282 -0.55078,13.39454 -0.17188,4.51562 -0.33594,9.07421 -0.49219,13.67578 -0.15234,4.60156 -0.29688,9.24218 -0.42969,13.92187 -0.13672,4.67969 -0.25781,9.38672 -0.37109,14.13281 -0.11719,4.74219 -0.21875,9.51172 -0.3125,14.3086 -0.0898,4.79687 -0.17578,9.61328 -0.2461,14.44922 -0.0703,4.83984 -0.13281,9.6914 -0.18359,14.55859 -0.0508,4.86719 -0.0937,9.74609 -0.12109,14.62891 -0.0312,4.88672 -0.0508,9.77734 -0.0586,14.66797 v 4.17187 c 0,0.44922 0.043,0.89453 0.13282,1.33203 0.0859,0.44141 0.21484,0.86719 0.38671,1.28125 0.17188,0.41406 0.38282,0.8086 0.63282,1.1836 0.25,0.37109 0.53125,0.71484 0.84765,1.03515 0.31641,0.31641 0.66407,0.59766 1.03516,0.84766 0.375,0.25 0.76562,0.46094 1.18359,0.63281 0.41407,0.17188 0.83985,0.30078 1.28125,0.38672 0.4375,0.0898 0.88282,0.13281 1.33203,0.13281 z m 0,0" fill="#f1d9a0"></path>
  <path id="path11" fill-rule="nonzero" fill-opacity="1" d="m 509.13672,930.80469 c 146.46485,102.07031 291.03125,82.71881 441.29297,-4.93359 0.76953,-0.45703 1.57422,-0.85157 2.41016,-1.17969 0.83593,-0.32813 1.6914,-0.58594 2.57422,-0.77344 0.8789,-0.1875 1.76953,-0.30469 2.67187,-0.34765 0.90234,-0.043 1.80078,-0.0156 2.70313,0.0859 0.90234,0.10157 1.78906,0.27735 2.66406,0.51953 0.875,0.2461 1.72656,0.5586 2.55859,0.94141 0.82813,0.38281 1.6211,0.82813 2.38281,1.33594 0.75782,0.50781 1.47266,1.07422 2.14454,1.69531 l 9.48828,8.72656 c 0.74609,0.71485 1.45312,1.46875 2.11328,2.26563 0.66013,0.79687 1.27343,1.6289 1.83983,2.49609 0.5664,0.86719 1.0781,1.76172 1.543,2.6875 0.4609,0.92578 0.8672,1.875 1.2187,2.84375 0.3516,0.97266 0.6485,1.96094 0.8828,2.96485 0.2383,1.00781 0.418,2.01953 0.5352,3.04296 0.1211,1.02344 0.1797,2.05079 0.1797,3.08204 0,1.02734 -0.059,2.05468 -0.1797,3.07421 -0.1172,1.01954 -0.2969,2.02735 -0.5352,3.02735 -0.2343,0.99609 -0.5312,1.97656 -0.8828,2.9375 -0.3515,0.96484 -0.7578,1.90234 -1.2226,2.8125 -0.461,0.91406 -0.9727,1.79297 -1.5391,2.64453 -0.5664,0.85156 -1.1797,1.66406 -1.83983,2.44141 -0.66016,0.78125 -1.36719,1.51562 -2.11328,2.20703 -0.75,0.69531 -1.53516,1.34375 -2.35938,1.9414 -0.82422,0.60157 -1.68359,1.15235 -2.57422,1.64844 -175.05078,99.41794 -344.28515,97.26564 -507.69922,-6.44922 -0.58203,-0.3789 -1.14843,-0.78515 -1.6914,-1.22656 -0.53906,-0.4375 -1.0586,-0.90234 -1.55078,-1.39844 -0.49219,-0.49219 -0.95703,-1.00781 -1.39453,-1.55078 -0.4375,-0.54297 -0.84375,-1.10547 -1.21875,-1.69141 -0.37891,-0.58593 -0.72266,-1.1875 -1.03516,-1.80859 -0.30859,-0.62109 -0.58594,-1.25391 -0.83203,-1.90234 -0.24219,-0.65235 -0.44922,-1.3086 -0.6211,-1.98047 -0.17187,-0.66797 -0.30859,-1.34766 -0.40625,-2.03125 -0.10156,-0.67969 -0.16406,-1.36719 -0.1875,-2.05469 -0.0234,-0.69141 -0.0117,-1.375 0.0391,-2.0625 0.0508,-0.68359 0.13672,-1.36719 0.26172,-2.03906 0.125,-0.67578 0.28515,-1.34375 0.48437,-2 0.19531,-0.65625 0.42578,-1.29688 0.69531,-1.92578 0.26563,-0.63282 0.56641,-1.2461 0.90235,-1.83985 0.33593,-0.59765 0.70312,-1.17187 1.10156,-1.73047 0.39453,-0.55468 0.82422,-1.08593 1.28125,-1.59375 l 6.82812,-7.96875 c 0.59766,-0.68359 1.22266,-1.33984 1.875,-1.96484 0.65625,-0.625 1.33594,-1.21875 2.04297,-1.78516 0.71094,-0.5625 1.44141,-1.09375 2.19532,-1.58984 0.75781,-0.49609 1.53515,-0.95703 2.33203,-1.38281 0.79687,-0.42578 1.60937,-0.81641 2.4414,-1.16797 0.83203,-0.35156 1.67578,-0.66406 2.53516,-0.9375 0.85937,-0.27344 1.73047,-0.50781 2.60937,-0.70313 0.88282,-0.19531 1.76563,-0.34765 2.66016,-0.46093 0.89453,-0.11328 1.78906,-0.1836 2.6875,-0.21485 0.89844,-0.0273 1.79297,-0.0195 2.69141,0.0352 0.89453,0.0508 1.78906,0.14453 2.67578,0.28125 0.88672,0.13281 1.76172,0.30859 2.63281,0.52344 0.87109,0.21484 1.72656,0.47265 2.57422,0.76562 0.84375,0.29688 1.67187,0.62891 2.48828,1 0.8125,0.3711 1.60938,0.78125 2.38281,1.22656 0.77735,0.44532 1.52735,0.92579 2.26172,1.44141 z m 0,0" fill="#f1d9a0"></path>
  <g transform="translate(-17.839843,-17.839844)" id="g12" clip-path="url(#791e34d5a5)">
    <path id="path12" fill-rule="nonzero" fill-opacity="1" d="M 44.746094,1124.2148 H 1440.4961 v 264 H 44.746094 Z m 0,0" fill="#f1d9a0"></path>
  </g>
  <g transform="translate(-17.839843,-17.839844)" id="g13" clip-path="url(#6a5b089c4c)">
    <path id="path13" fill-rule="nonzero" fill-opacity="1" d="M 71.726562,1149.7773 H 1413.4766 v 213 H 71.726562 Z m 0,0" fill="#b53620"></path>
  </g>
  <g transform="translate(-17.839843,-17.839844)" id="g16" fill-opacity="1" fill="#f1d9a0">
    <g id="g15" transform="translate(445.36775,1312.7431)">
      <g id="g14">
        <path id="path14" d="m 64.613281,-112.56641 c 0,-1.4375 -0.863281,-2.29687 -2.300781,-2.29687 H 9.476562 c -1.578124,0 -2.296874,0.85937 -2.296874,2.29687 V -2.296875 C 7.179688,-0.863281 7.898438,0 9.476562,0 h 14.933594 c 1.433594,0 2.296875,-0.863281 2.296875,-2.296875 v -45.804687 h 26.992188 c 1.4375,0 2.296875,-0.714844 2.296875,-2.296876 v -14.355468 c 0,-1.4375 -0.859375,-2.296875 -2.296875,-2.296875 H 26.707031 V -95.914062 H 62.3125 c 1.4375,0 2.300781,-0.859376 2.300781,-2.296876 z m 0,0"></path>
      </g>
    </g>
  </g>
  <g transform="translate(-17.839843,-17.839844)" id="g19" fill-opacity="1" fill="#f1d9a0">
    <g id="g18" transform="translate(531.51138,1312.7431)">
      <g id="g17">
        <path id="path16" d="m 9.476562,-114.86328 c -1.578124,0 -2.296874,0.85937 -2.296874,2.29687 V -2.296875 C 7.179688,-0.863281 7.898438,0 9.476562,0 h 14.933594 c 1.433594,0 2.296875,-0.863281 2.296875,-2.296875 V -112.56641 c 0,-1.4375 -0.863281,-2.29687 -2.296875,-2.29687 z m 0,0"></path>
      </g>
    </g>
  </g>
  <g transform="translate(-17.839843,-17.839844)" id="g22" fill-opacity="1" fill="#f1d9a0">
    <g id="g21" transform="translate(579.75238,1312.7431)">
      <g id="g20">
        <path id="path19" d="m 6.605469,-114.86328 c -1.4375,0 -2.296875,0.85937 -2.296875,2.29687 v 14.355472 c 0,1.4375 0.859375,2.296876 2.296875,2.296876 h 16.65625 V -2.296875 C 23.261719,-0.71875 24.121094,0 25.558594,0 h 14.929687 c 1.582031,0 2.300781,-0.71875 2.300781,-2.296875 v -93.617187 h 16.652344 c 1.582032,0 2.296875,-0.859376 2.296875,-2.296876 v -14.355472 c 0,-1.4375 -0.714843,-2.29687 -2.296875,-2.29687 z m 0,0"></path>
      </g>
    </g>
  </g>
  <g transform="translate(-17.839843,-17.839844)" id="g25" fill-opacity="1" fill="#f1d9a0">
    <g id="g24" transform="translate(660.15319,1312.7431)">
      <g id="g23">
        <path id="path22" d="m 6.605469,-114.86328 c -1.4375,0 -2.296875,0.85937 -2.296875,2.29687 v 14.355472 c 0,1.4375 0.859375,2.296876 2.296875,2.296876 h 16.65625 V -2.296875 C 23.261719,-0.71875 24.121094,0 25.558594,0 h 14.929687 c 1.582031,0 2.300781,-0.71875 2.300781,-2.296875 v -93.617187 h 16.652344 c 1.582032,0 2.296875,-0.859376 2.296875,-2.296876 v -14.355472 c 0,-1.4375 -0.714843,-2.29687 -2.296875,-2.29687 z m 0,0"></path>
      </g>
    </g>
  </g>
  <g transform="translate(-17.839843,-17.839844)" id="g28" fill-opacity="1" fill="#f1d9a0">
    <g id="g27" transform="translate(740.554,1312.7431)">
      <g id="g26">
        <path id="path25" d="m 9.476562,-114.86328 c -1.578124,0 -2.296874,0.85937 -2.296874,2.29687 V -2.296875 C 7.179688,-0.863281 7.898438,0 9.476562,0 h 14.933594 c 1.433594,0 2.296875,-0.863281 2.296875,-2.296875 V -112.56641 c 0,-1.4375 -0.863281,-2.29687 -2.296875,-2.29687 z m 0,0"></path>
      </g>
    </g>
  </g>
  <g transform="translate(-17.839843,-17.839844)" id="g31" fill-opacity="1" fill="#f1d9a0">
    <g id="g30" transform="translate(788.79501,1312.7431)">
      <g id="g29">
        <path id="path28" d="m 51.257812,-114.86328 c -1.578124,0 -2.296874,0.85937 -2.296874,2.29687 v 60.589848 H 48.101562 L 26.277344,-113 c -0.433594,-1.28906 -1.292969,-1.86328 -2.585938,-1.86328 H 9.476562 c -1.4375,0 -2.296874,0.85937 -2.296874,2.29687 V -2.296875 C 7.179688,-0.863281 8.039062,0 9.476562,0 h 14.933594 c 1.578125,0 2.296875,-0.863281 2.296875,-2.296875 v -60.878906 h 0.71875 L 49.390625,-1.867188 C 49.824219,-0.574219 50.683594,0 51.976562,0 H 66.191406 C 67.625,0 68.488281,-0.863281 68.488281,-2.296875 V -112.56641 c 0,-1.4375 -0.863281,-2.29687 -2.296875,-2.29687 z m 0,0"></path>
      </g>
    </g>
  </g>
  <g transform="translate(-17.839843,-17.839844)" id="g34" fill-opacity="1" fill="#f1d9a0">
    <g id="g33" transform="translate(878.81504,1312.7431)">
      <g id="g32">
        <path id="path31" d="M 7.179688,-20.675781 C 7.179688,-7.179688 14.359375,0 27.855469,0 h 18.953125 c 13.351562,0 20.675781,-7.179688 20.675781,-20.675781 v -39.914063 c 0,-1.582031 -0.863281,-2.296875 -2.296875,-2.296875 h -24.125 c -1.578125,0 -2.296875,0.714844 -2.296875,2.296875 v 14.355469 c 0,1.4375 0.71875,2.296875 2.296875,2.296875 h 7.46875 v 19.242188 c 0,3.875 -2.011719,5.742187 -5.742188,5.742187 H 32.449219 c -3.734375,0 -5.742188,-1.867187 -5.742188,-5.742187 v -65.472657 c 0,-3.734375 1.867188,-5.746093 5.742188,-5.746093 h 10.339843 c 3.730469,0 5.742188,2.011718 5.742188,5.746093 v 10.910157 c 0,1.4375 0.71875,2.296874 2.296875,2.296874 H 65.1875 c 1.433594,0 2.296875,-0.859374 2.296875,-2.296874 V -94.1875 c 0,-13.5 -7.324219,-20.67578 -20.675781,-20.67578 H 27.855469 c -13.496094,0 -20.675781,7.17578 -20.675781,20.67578 z m 0,0"></path>
      </g>
    </g>
  </g>
  <g transform="translate(-17.839843,-17.839844)" id="g37" fill-opacity="1" fill="#f1d9a0">
    <g id="g36" transform="translate(967.83006,1312.7431)">
      <g id="g35">
        <path id="path34" d="m 27.855469,-114.86328 c -13.355469,0 -20.675781,7.17578 -20.675781,20.67578 v 33.882812 c 0,2.730469 1.292968,4.453126 3.875,5.3125 l 34.03125,11.199219 v 19.097657 c 0,3.875 -2.011719,5.742187 -5.746094,5.742187 h -6.890625 c -3.589844,0 -5.742188,-1.867187 -5.742188,-5.742187 V -35.75 c 0,-1.582031 -0.71875,-2.300781 -2.296875,-2.300781 H 9.476562 c -1.4375,0 -2.296874,0.71875 -2.296874,2.300781 v 15.074219 C 7.179688,-7.179688 14.5,0 27.855469,0 H 43.9375 C 57.433594,0 64.613281,-7.179688 64.613281,-20.675781 V -53.84375 c 0,-2.726562 -1.292969,-4.308594 -3.734375,-5.3125 L 26.707031,-70.355469 v -19.8125 c 0,-3.734375 2.152344,-5.746093 5.742188,-5.746093 h 6.890625 c 3.878906,0 5.746094,2.011718 5.746094,5.746093 v 11.199219 c 0,1.433594 0.859374,2.296875 2.296874,2.296875 H 62.3125 c 1.582031,0 2.300781,-0.863281 2.300781,-2.296875 V -94.1875 c 0,-13.5 -7.179687,-20.67578 -20.675781,-20.67578 z m 0,0"></path>
      </g>
    </g>
  </g>
</svg>
