<svg xmlns="http://www.w3.org/2000/svg" id="svg51" version="1.0" preserveAspectRatio="xMidYMid" height="1561.7345" viewBox="0 0 1171.3008 1171.3008" zoomAndPan="magnify" width="1561.7344">
  
  <defs id="defs6">
    <clipPath id="7e0b473703">
      <path id="path1" clip-rule="nonzero" d="M 156.84766,156.84766 H 1328.3477 V 1328.3477 H 156.84766 Z m 0,0"></path>
    </clipPath>
    <clipPath id="4aa35f614d">
      <path id="path2" clip-rule="nonzero" d="M 178.96094,177.37109 H 1306.2109 V 1304.6211 H 178.96094 Z m 0,0"></path>
    </clipPath>
    <clipPath id="44ff6c1daf">
      <path id="path3" clip-rule="nonzero" d="M 227.24219,1057.2969 H 1257.7422 v 195 H 227.24219 Z m 0,0"></path>
    </clipPath>
    <clipPath id="35391b4ce7">
      <path id="path4" clip-rule="nonzero" d="M 247.16797,1076.1758 H 1237.918 v 157.5 H 247.16797 Z m 0,0"></path>
    </clipPath>
    <clipPath id="1d50e5fe26">
      <path id="path5" clip-rule="nonzero" d="m 802,438.32812 h 298.8398 V 918 H 802 Z m 0,0"></path>
    </clipPath>
    <clipPath id="7f0a83350f">
      <path id="path6" clip-rule="nonzero" d="M 384.15625,438.32812 H 684 V 918 H 384.15625 Z m 0,0"></path>
    </clipPath>
  </defs>
  <g transform="translate(-156.84765,-156.84766)" id="g7" clip-path="url(#7e0b473703)">
    <path id="path7" fill-rule="nonzero" fill-opacity="1" d="m 1328.1484,742.5 c 0,9.58203 -0.2343,19.16406 -0.7031,28.73437 -0.4726,9.57422 -1.1758,19.12891 -2.1172,28.66797 -0.9375,9.53907 -2.1133,19.04688 -3.5195,28.52735 -1.4063,9.48437 -3.043,18.92187 -4.9141,28.32422 -1.8672,9.39843 -3.9687,18.75 -6.2968,28.04687 -2.3282,9.29688 -4.8829,18.53125 -7.668,27.70313 -2.7813,9.17187 -5.7852,18.26953 -9.0156,27.29296 -3.2305,9.02735 -6.6758,17.96485 -10.3438,26.82032 -3.668,8.85547 -7.5508,17.61328 -11.6484,26.27734 -4.0977,8.66797 -8.4063,17.22657 -12.9258,25.67967 -4.5195,8.4492 -9.2422,16.7891 -14.168,25.0078 -4.9297,8.2227 -10.0547,16.3164 -15.3789,24.2852 -5.3242,7.9687 -10.8437,15.8047 -16.5508,23.5039 -5.7109,7.6992 -11.6054,15.25 -17.6875,22.6602 -6.0781,7.4101 -12.3359,14.664 -18.7734,21.7656 -6.4375,7.1015 -13.043,14.0429 -19.8203,20.8203 -6.7774,6.7773 -13.7188,13.3828 -20.8203,19.8203 -7.1016,6.4375 -14.3555,12.6953 -21.7656,18.7734 -7.4102,6.0821 -14.961,11.9766 -22.6602,17.6875 -7.6992,5.7071 -15.5352,11.2266 -23.5039,16.5508 -7.9688,5.3242 -16.0625,10.4492 -24.2852,15.3789 -8.2187,4.9258 -16.5586,9.6485 -25.0078,14.168 -8.4531,4.5195 -17.0117,8.8242 -25.67967,12.9258 -8.66406,4.0976 -17.42187,7.9804 -26.27734,11.6484 -8.85547,3.668 -17.79297,7.1133 -26.82032,10.3438 -9.02343,3.2304 -18.12109,6.2343 -27.29296,9.0156 -9.17188,2.7851 -18.40625,5.3398 -27.70313,7.668 -9.29687,2.3281 -18.64844,4.4296 -28.04687,6.2968 -9.40235,1.8711 -18.83985,3.5078 -28.32422,4.9141 -9.48047,1.4062 -18.98828,2.582 -28.52735,3.5195 -9.53906,0.9414 -19.09375,1.6446 -28.66797,2.1172 -9.57031,0.4688 -19.15234,0.7031 -28.73437,0.7031 -9.58594,0 -19.16406,-0.2343 -28.73828,-0.7031 -9.57422,-0.4726 -19.12891,-1.1758 -28.66797,-2.1172 -9.53906,-0.9375 -19.04688,-2.1133 -28.52734,-3.5195 -9.48047,-1.4063 -18.92188,-3.043 -28.32422,-4.9141 -9.39844,-1.8672 -18.7461,-3.9687 -28.04297,-6.2968 -9.30078,-2.3282 -18.53516,-4.8829 -27.70703,-7.668 -9.17188,-2.7813 -18.26953,-5.7852 -27.29297,-9.0156 -9.02344,-3.2305 -17.96485,-6.6758 -26.82031,-10.3438 -8.85547,-3.668 -17.61329,-7.5508 -26.27735,-11.6484 -8.66406,-4.1016 -17.22265,-8.4063 -25.67578,-12.9258 -8.45312,-4.5195 -16.78906,-9.2422 -25.01172,-14.168 -8.22265,-4.9297 -16.3164,-10.0547 -24.28515,-15.3789 -7.96875,-5.3242 -15.80469,-10.8437 -23.5,-16.5508 -7.69922,-5.7109 -15.25391,-11.6054 -22.66407,-17.6875 -7.40625,-6.0781 -14.66406,-12.3359 -21.76562,-18.7734 -7.10156,-6.4375 -14.03906,-13.043 -20.81641,-19.8203 -6.77734,-6.7774 -13.38672,-13.7188 -19.82422,-20.8203 -6.43359,-7.1016 -12.6914,-14.3555 -18.77343,-21.7656 -6.08204,-7.4102 -11.97657,-14.961 -17.6836,-22.6602 -5.71094,-7.6992 -11.22656,-15.5352 -16.55469,-23.5039 -5.32421,-7.9688 -10.44921,-16.0625 -15.3789,-24.2852 -4.92578,-8.2187 -9.64844,-16.5586 -14.16797,-25.0117 -4.51563,-8.4492 -8.82422,-17.0078 -12.92188,-25.67577 -4.09765,-8.66406 -7.98046,-17.42187 -11.64843,-26.27734 -3.66797,-8.85547 -7.11719,-17.79297 -10.34766,-26.82032 -3.22656,-9.02343 -6.23437,-18.12109 -9.01562,-27.29296 -2.78125,-9.17188 -5.33594,-18.40625 -7.66797,-27.70313 -2.32813,-9.29687 -4.42578,-18.64844 -6.29688,-28.04687 -1.87109,-9.40235 -3.50781,-18.83985 -4.91406,-28.32422 -1.40625,-9.48047 -2.57813,-18.98828 -3.51953,-28.52735 -0.9375,-9.53906 -1.64453,-19.09375 -2.11328,-28.66797 -0.47266,-9.57031 -0.70703,-19.15234 -0.70703,-28.73437 0,-9.58594 0.23437,-19.16406 0.70703,-28.73828 0.46875,-9.57422 1.17578,-19.12891 2.11328,-28.66797 0.9414,-9.53906 2.11328,-19.04688 3.51953,-28.52734 1.40625,-9.48047 3.04297,-18.92188 4.91406,-28.32422 1.8711,-9.39844 3.96875,-18.7461 6.29688,-28.04688 2.33203,-9.29687 4.88672,-18.53125 7.66797,-27.70312 2.78125,-9.17188 5.78906,-18.26953 9.01562,-27.29297 3.23047,-9.02344 6.67969,-17.96485 10.34766,-26.82031 3.66797,-8.85547 7.55078,-17.61329 11.64843,-26.27735 4.09766,-8.66406 8.40625,-17.22265 12.92188,-25.67578 4.51953,-8.45312 9.24219,-16.78906 14.16797,-25.01172 4.92969,-8.22265 10.05469,-16.3164 15.3789,-24.28515 5.32813,-7.96875 10.84375,-15.80469 16.55469,-23.5 5.70703,-7.69922 11.60156,-15.25391 17.6836,-22.66407 6.08203,-7.40625 12.33984,-14.66406 18.77734,-21.76562 6.43359,-7.10156 13.04297,-14.03906 19.82031,-20.81641 6.77735,-6.77734 13.71485,-13.38672 20.81641,-19.82422 7.10156,-6.43359 14.35937,-12.6914 21.76562,-18.77343 7.41016,-6.08204 14.96485,-11.97657 22.66407,-17.6836 7.69531,-5.71094 15.53125,-11.22656 23.5,-16.55469 7.96875,-5.32421 16.0625,-10.44921 24.28515,-15.3789 8.22266,-4.92578 16.5586,-9.64844 25.01172,-14.16797 8.45313,-4.51563 17.01172,-8.82422 25.67578,-12.92188 8.66406,-4.09765 17.42188,-7.98046 26.27735,-11.64843 8.85546,-3.66797 17.79687,-7.11719 26.82031,-10.34766 9.02344,-3.22656 18.12109,-6.23437 27.29297,-9.01562 9.17187,-2.78125 18.40625,-5.33985 27.70703,-7.66797 9.29687,-2.32813 18.64453,-4.42578 28.04297,-6.29688 9.40234,-1.87109 18.84375,-3.50781 28.32422,-4.91406 9.48046,-1.40625 18.98828,-2.57813 28.52734,-3.51953 9.53906,-0.9375 19.09375,-1.64453 28.66797,-2.11328 9.57422,-0.47266 19.15234,-0.70703 28.73828,-0.70703 9.58203,0 19.16406,0.23437 28.73437,0.70703 9.57422,0.46875 19.12891,1.17578 28.66797,2.11328 9.53907,0.9414 19.04688,2.11328 28.52735,3.51953 9.48437,1.40625 18.92187,3.04297 28.32422,4.91406 9.39843,1.8711 18.75,3.96875 28.04687,6.29688 9.29688,2.32812 18.53125,4.88672 27.70313,7.66797 9.17187,2.78125 18.26953,5.78906 27.29296,9.01562 9.02735,3.23047 17.96485,6.67969 26.82032,10.34766 8.85547,3.66797 17.61328,7.55078 26.28125,11.64843 8.66406,4.09766 17.22266,8.40625 25.67576,12.92188 8.4492,4.51953 16.7891,9.24219 25.0078,14.16797 8.2227,4.92969 16.3164,10.05469 24.2852,15.3789 7.9687,5.32813 15.8047,10.84375 23.5039,16.55469 7.6992,5.70703 15.25,11.60156 22.6602,17.6836 7.4101,6.08203 14.664,12.33984 21.7656,18.77343 7.1015,6.4375 14.0429,13.04688 20.8203,19.82422 6.7773,6.77735 13.3828,13.71485 19.8203,20.81641 6.4375,7.10156 12.6953,14.35937 18.7734,21.76562 6.0821,7.41016 11.9766,14.96485 17.6875,22.66407 5.7071,7.69531 11.2266,15.53125 16.5508,23.5 5.3242,7.96875 10.4492,16.0625 15.3789,24.28515 4.9258,8.22266 9.6485,16.5586 14.168,25.01172 4.5195,8.45313 8.8281,17.01172 12.9258,25.67578 4.0976,8.66406 7.9804,17.42188 11.6484,26.27735 3.668,8.85546 7.1133,17.79687 10.3438,26.82031 3.2304,9.02344 6.2343,18.12109 9.0156,27.29297 2.7851,9.17187 5.3398,18.40625 7.668,27.70312 2.3281,9.30078 4.4296,18.64844 6.2968,28.04688 1.8711,9.40234 3.5078,18.84375 4.9141,28.32422 1.4062,9.48046 2.582,18.98828 3.5195,28.52734 0.9414,9.53906 1.6446,19.09375 2.1172,28.66797 0.4688,9.57422 0.7031,19.15234 0.7031,28.73828 z m 0,0" fill="#f1d9a0"></path>
  </g>
  <g transform="translate(-156.84765,-156.84766)" id="g8" clip-path="url(#4aa35f614d)">
    <path id="path8" fill-rule="nonzero" fill-opacity="1" d="m 1306.0352,740.91016 c 0,9.22265 -0.2266,18.4375 -0.6797,27.64843 -0.4492,9.21094 -1.1289,18.40625 -2.0313,27.58594 -0.9062,9.17969 -2.0351,18.32813 -3.3867,27.45313 -1.3555,9.12109 -2.9297,18.20703 -4.7305,27.25 -1.7968,9.04687 -3.8203,18.04296 -6.0586,26.98828 -2.2421,8.94531 -4.6992,17.83203 -7.3789,26.66015 -2.6757,8.82422 -5.5703,17.57813 -8.6757,26.26172 -3.1055,8.6836 -6.4258,17.28516 -9.9532,25.8086 -3.5312,8.51953 -7.2656,16.94921 -11.2109,25.28515 -3.9414,8.33594 -8.0899,16.57422 -12.4336,24.70704 -4.3477,8.1328 -8.8945,16.1562 -13.6367,24.0664 -4.7383,7.9102 -9.6719,15.6992 -14.7969,23.3672 -5.125,7.668 -10.4336,15.207 -15.9258,22.6133 -5.4961,7.4101 -11.1679,14.6758 -17.0195,21.8086 -5.8477,7.1289 -11.8711,14.1093 -18.0664,20.9414 -6.1914,6.8359 -12.5508,13.5117 -19.0703,20.0351 -6.5235,6.5196 -13.1992,12.8789 -20.0313,19.0703 -6.8359,6.1954 -13.8164,12.2149 -20.9453,18.0664 -7.1289,5.8516 -14.3984,11.5235 -21.8047,17.0196 -7.4101,5.4922 -14.9492,10.8008 -22.6172,15.9258 -7.6679,5.125 -15.457,10.0546 -23.3672,14.7968 -7.9101,4.7422 -15.9336,9.2852 -24.0664,13.6328 -8.1328,4.3477 -16.36715,8.4922 -24.70699,12.4375 -8.33594,3.9415 -16.76563,7.6797 -25.28516,11.2071 -8.52344,3.5312 -17.125,6.8476 -25.80859,9.957 -8.6836,3.1055 -17.4375,6 -26.26172,8.6758 -8.82813,2.6758 -17.71094,5.1367 -26.66016,7.375 -8.94531,2.2422 -17.94141,4.2617 -26.98437,6.0625 -9.04688,1.8008 -18.13282,3.375 -27.25391,4.7266 -9.125,1.3554 -18.27344,2.4843 -27.45313,3.3867 -9.17578,0.9062 -18.37109,1.582 -27.58203,2.0351 -9.21484,0.4532 -18.42968,0.6797 -27.65234,0.6797 -9.22266,0 -18.44141,-0.2265 -27.65234,-0.6797 -9.21094,-0.4531 -18.40625,-1.1289 -27.58594,-2.0351 -9.17578,-0.9024 -18.32813,-2.0313 -27.44922,-3.3867 -9.125,-1.3516 -18.20703,-2.9258 -27.25391,-4.7266 -9.04687,-1.8008 -18.04297,-3.8203 -26.98828,-6.0625 -8.94531,-2.2383 -17.83203,-4.6992 -26.65625,-7.375 -8.82812,-2.6758 -17.58203,-5.5703 -26.26562,-8.6758 -8.6836,-3.1094 -17.28516,-6.4258 -25.80469,-9.957 -8.52344,-3.5274 -16.94922,-7.2656 -25.28906,-11.2071 -8.33594,-3.9453 -16.57032,-8.0898 -24.70703,-12.4375 -8.13282,-4.3476 -16.15235,-8.8906 -24.06641,-13.6328 -7.91016,-4.7422 -15.69922,-9.6718 -23.36719,-14.7968 -7.66797,-5.125 -15.20703,-10.4336 -22.61328,-15.9258 -7.40625,-5.4961 -14.67578,-11.168 -21.80469,-17.0196 -7.1289,-5.8515 -14.11328,-11.871 -20.94531,-18.0664 -6.83203,-6.1914 -13.51172,-12.5507 -20.03125,-19.0703 -6.52344,-6.5234 -12.87891,-13.1992 -19.07422,-20.0351 -6.1914,-6.8321 -12.21484,-13.8125 -18.0664,-20.9414 -5.85157,-7.1328 -11.52344,-14.3985 -17.01563,-21.8086 -5.49609,-7.4063 -10.80469,-14.9453 -15.92969,-22.6133 -5.12109,-7.668 -10.05468,-15.457 -14.79687,-23.3672 -4.74219,-7.9102 -9.28516,-15.9336 -13.63281,-24.0664 -4.34766,-8.13282 -8.49219,-16.3711 -12.4375,-24.70704 -3.94141,-8.33594 -7.67969,-16.76562 -11.20704,-25.28906 -3.53125,-8.51953 -6.84765,-17.12109 -9.95703,-25.80469 -3.10547,-8.68359 -5.99609,-17.4375 -8.67578,-26.26172 -2.67578,-8.82812 -5.13672,-17.71484 -7.375,-26.66015 -2.24219,-8.94532 -4.26172,-17.94141 -6.0625,-26.98828 -1.79687,-9.04297 -3.375,-18.12891 -4.72656,-27.25 -1.35547,-9.125 -2.48438,-18.27344 -3.38672,-27.45313 -0.90234,-9.17969 -1.58203,-18.375 -2.03516,-27.58594 -0.45312,-9.21093 -0.67968,-18.42578 -0.67968,-27.64843 0,-9.22657 0.22656,-18.44141 0.67968,-27.65235 0.45313,-9.21094 1.13282,-18.40625 2.03516,-27.58594 0.90234,-9.17968 2.03125,-18.32812 3.38672,-27.45312 1.35156,-9.12109 2.92969,-18.20703 4.72656,-27.25 1.80078,-9.04688 3.82031,-18.04297 6.0625,-26.98828 2.23828,-8.94531 4.69922,-17.83203 7.375,-26.66016 2.67969,-8.82422 5.57031,-17.57812 8.67578,-26.26172 3.10938,-8.68359 6.42578,-17.28515 9.95703,-25.80859 3.52735,-8.51953 7.26563,-16.94922 11.20704,-25.28516 3.94531,-8.33593 8.08984,-16.57422 12.4375,-24.70703 4.34765,-8.13281 8.89062,-16.15625 13.63281,-24.0664 4.74219,-7.91016 9.67578,-15.69922 14.79687,-23.36719 5.125,-7.66797 10.4336,-15.20703 15.92969,-22.61328 5.49219,-7.41016 11.16406,-14.67578 17.01563,-21.8086 5.85156,-7.1289 11.875,-14.10937 18.0664,-20.9414 6.19531,-6.83594 12.55078,-13.51172 19.07422,-20.03516 6.51953,-6.51953 13.19922,-12.87891 20.03125,-19.07031 6.83203,-6.19531 13.81641,-12.21485 20.94531,-18.06641 7.12891,-5.85156 14.39844,-11.52344 21.80469,-17.01953 7.40625,-5.49219 14.94531,-10.80078 22.61328,-15.92578 7.66797,-5.125 15.45703,-10.05469 23.36719,-14.79688 7.91406,-4.74218 15.93359,-9.28515 24.06641,-13.63281 8.13671,-4.34765 16.37109,-8.49219 24.70703,-12.4375 8.33984,-3.9414 16.76562,-7.67969 25.28906,-11.20703 8.51953,-3.53125 17.12109,-6.84766 25.80469,-9.95703 8.68359,-3.10547 17.4375,-6 26.26562,-8.67578 8.82422,-2.67578 17.71094,-5.13672 26.65625,-7.37891 8.94531,-2.23828 17.94141,-4.25781 26.98828,-6.05859 9.04688,-1.80078 18.12891,-3.375 27.25391,-4.73047 9.12109,-1.35156 18.27344,-2.48047 27.44922,-3.38281 9.17969,-0.90625 18.375,-1.58203 27.58594,-2.03516 9.21093,-0.45312 18.42968,-0.67969 27.65234,-0.67969 9.22266,0 18.4375,0.22657 27.65234,0.67969 9.21094,0.45313 18.40625,1.12891 27.58203,2.03516 9.17969,0.90234 18.32813,2.03125 27.45313,3.38281 9.12109,1.35547 18.20703,2.92969 27.25391,4.73047 9.04296,1.80078 18.03906,3.82031 26.98437,6.05859 8.94922,2.24219 17.83203,4.70313 26.66016,7.37891 8.82422,2.67578 17.57812,5.57031 26.26172,8.67578 8.68359,3.10937 17.28515,6.42578 25.80859,9.95703 8.51953,3.52734 16.94922,7.26563 25.28516,11.20703 8.33984,3.94531 16.57419,8.08985 24.70699,12.4375 8.1328,4.34766 16.1563,8.89063 24.0664,13.63281 7.9102,4.74219 15.6993,9.67188 23.3672,14.79688 7.668,5.125 15.2071,10.43359 22.6172,15.92578 7.4063,5.49609 14.6758,11.16797 21.8047,17.01953 7.1289,5.85156 14.1094,11.8711 20.9453,18.06641 6.8321,6.1914 13.5078,12.55078 20.0313,19.07031 6.5195,6.52344 12.8789,13.19922 19.0703,20.03516 6.1953,6.83203 12.2187,13.8125 18.0664,20.9414 5.8516,7.13282 11.5234,14.39844 17.0195,21.8086 5.4922,7.40625 10.8008,14.94531 15.9258,22.61328 5.125,7.66797 10.0586,15.45703 14.7969,23.36719 4.7422,7.91015 9.289,15.93359 13.6367,24.0664 4.3437,8.13281 8.4922,16.3711 12.4336,24.70703 3.9453,8.33594 7.6797,16.76563 11.2109,25.28516 3.5274,8.52344 6.8477,17.125 9.9532,25.80859 3.1054,8.6836 6,17.4375 8.6757,26.26172 2.6797,8.82813 5.1368,17.71485 7.3789,26.66016 2.2383,8.94531 4.2618,17.9414 6.0586,26.98828 1.8008,9.04297 3.375,18.12891 4.7305,27.25 1.3516,9.125 2.4805,18.27344 3.3867,27.45312 0.9024,9.17969 1.5821,18.375 2.0313,27.58594 0.4531,9.21094 0.6797,18.42578 0.6797,27.65235 z m 0,0" fill="#b53620"></path>
  </g>
  <g transform="translate(-156.84765,-156.84766)" id="g9" clip-path="url(#44ff6c1daf)">
    <path id="path9" fill-rule="nonzero" fill-opacity="1" d="M 227.24219,1057.2969 H 1257.7422 v 195 H 227.24219 Z m 0,0" fill="#f1d9a0"></path>
  </g>
  <g transform="translate(-156.84765,-156.84766)" id="g10" clip-path="url(#35391b4ce7)">
    <path id="path10" fill-rule="nonzero" fill-opacity="1" d="M 247.16797,1076.1758 H 1237.918 v 157.5 H 247.16797 Z m 0,0" fill="#b53620"></path>
  </g>
  <g transform="translate(-156.84765,-156.84766)" id="g13" fill-opacity="1" fill="#f1d9a0">
    <g id="g12" transform="translate(326.25498,1196.518)">
      <g id="g11">
        <path id="path11" d="m 47.710938,-83.125 c 0,-1.0625 -0.632813,-1.695312 -1.695313,-1.695312 H 6.996094 c -1.164063,0 -1.695313,0.632812 -1.695313,1.695312 V -1.695312 C 5.300781,-0.636719 5.832031,0 6.996094,0 h 11.027344 c 1.0625,0 1.699218,-0.636719 1.699218,-1.695312 v -33.824219 h 19.929688 c 1.0625,0 1.699218,-0.53125 1.699218,-1.695313 v -10.605468 c 0,-1.058594 -0.636718,-1.695313 -1.699218,-1.695313 H 19.722656 v -21.3125 h 26.292969 c 1.0625,0 1.695313,-0.632813 1.695313,-1.695313 z m 0,0"></path>
      </g>
    </g>
  </g>
  <g transform="translate(-156.84765,-156.84766)" id="g16" fill-opacity="1" fill="#f1d9a0">
    <g id="g15" transform="translate(389.86763,1196.518)">
      <g id="g14">
        <path id="path13" d="m 19.722656,-13.996094 h 25.234375 c 1.164063,0 1.695313,0.636719 1.695313,1.695313 V -1.695312 C 46.652344,-0.53125 46.121094,0 44.957031,0 H 6.996094 C 5.9375,0 5.300781,-0.53125 5.300781,-1.695312 V -83.125 c 0,-1.0625 0.636719,-1.695312 1.695313,-1.695312 h 11.027344 c 1.167968,0 1.699218,0.632812 1.699218,1.695312 z m 0,0"></path>
      </g>
    </g>
  </g>
  <g transform="translate(-156.84765,-156.84766)" id="g19" fill-opacity="1" fill="#f1d9a0">
    <g id="g18" transform="translate(452.42008,1196.518)">
      <g id="g17">
        <path id="path16" d="m 47.605469,-83.125 c 0,-1.0625 -0.421875,-1.695312 -1.695313,-1.695312 H 6.890625 c -0.953125,0 -1.589844,0.632812 -1.589844,1.695312 V -1.695312 C 5.300781,-0.636719 5.9375,0 6.890625,0 h 39.019531 c 1.273438,0 1.695313,-0.636719 1.695313,-1.695312 v -10.605469 c 0,-1.164063 -0.421875,-1.695313 -1.695313,-1.695313 H 19.402344 v -21.417968 h 20.25 c 1.0625,0 1.699218,-0.636719 1.699218,-1.800782 v -10.496094 c 0,-1.167968 -0.636718,-1.804687 -1.699218,-1.804687 h -20.25 V -70.71875 h 26.507812 c 1.273438,0 1.695313,-0.742188 1.695313,-1.804688 z m 0,0"></path>
      </g>
    </g>
  </g>
  <g transform="translate(-156.84765,-156.84766)" id="g22" fill-opacity="1" fill="#f1d9a0">
    <g id="g21" transform="translate(515.92669,1196.518)">
      <g id="g20">
        <path id="path19" d="m 47.605469,-83.125 c 0,-1.0625 -0.421875,-1.695312 -1.695313,-1.695312 H 6.890625 c -0.953125,0 -1.589844,0.632812 -1.589844,1.695312 V -1.695312 C 5.300781,-0.636719 5.9375,0 6.890625,0 h 39.019531 c 1.273438,0 1.695313,-0.636719 1.695313,-1.695312 v -10.605469 c 0,-1.164063 -0.421875,-1.695313 -1.695313,-1.695313 H 19.402344 v -21.417968 h 20.25 c 1.0625,0 1.699218,-0.636719 1.699218,-1.800782 v -10.496094 c 0,-1.167968 -0.636718,-1.804687 -1.699218,-1.804687 h -20.25 V -70.71875 h 26.507812 c 1.273438,0 1.695313,-0.742188 1.695313,-1.804688 z m 0,0"></path>
      </g>
    </g>
  </g>
  <g transform="translate(-156.84765,-156.84766)" id="g25" fill-opacity="1" fill="#f1d9a0">
    <g id="g24" transform="translate(579.43332,1196.518)">
      <g id="g23">
        <path id="path22" d="m 4.878906,-84.820312 c -1.0625,0 -1.699218,0.632812 -1.699218,1.695312 v 10.601562 c 0,1.0625 0.636718,1.695313 1.699218,1.695313 H 17.175781 V -1.695312 C 17.175781,-0.53125 17.8125,0 18.871094,0 h 11.027344 c 1.167968,0 1.699218,-0.53125 1.699218,-1.695312 v -69.132813 h 12.296875 c 1.167969,0 1.699219,-0.632813 1.699219,-1.695313 V -83.125 c 0,-1.0625 -0.53125,-1.695312 -1.699219,-1.695312 z m 0,0"></path>
      </g>
    </g>
  </g>
  <g transform="translate(-156.84765,-156.84766)" id="g31" fill-opacity="1" fill="#f1d9a0">
    <g id="g30" transform="translate(675.91295,1196.518)">
      <g id="g29">
        <path id="path28" d="m 47.820312,-69.554688 c 0,-9.964843 -5.410156,-15.265624 -15.269531,-15.265624 h -11.875 c -9.96875,0 -15.375,5.300781 -15.375,15.265624 v 54.285157 C 5.300781,-5.300781 10.707031,0 20.675781,0 h 11.875 c 9.859375,0 15.269531,-5.300781 15.269531,-15.269531 V -26.71875 c 0,-1.058594 -0.636718,-1.695312 -1.699218,-1.695312 H 35.519531 c -1.167969,0 -1.695312,0.636718 -1.695312,1.695312 v 8.480469 c 0,2.863281 -1.484375,4.242187 -4.242188,4.242187 h -5.515625 c -2.753906,0 -4.238281,-1.378906 -4.238281,-4.242187 v -48.347657 c 0,-2.757812 1.378906,-4.242187 4.238281,-4.242187 h 5.515625 c 2.757813,0 4.242188,1.484375 4.242188,4.242187 v 8.484376 c 0,1.058593 0.527343,1.695312 1.695312,1.695312 h 10.601563 c 1.0625,0 1.699218,-0.636719 1.699218,-1.695312 z m 0,0"></path>
      </g>
    </g>
  </g>
  <g transform="translate(-156.84765,-156.84766)" id="g34" fill-opacity="1" fill="#f1d9a0">
    <g id="g33" transform="translate(739.63161,1196.518)">
      <g id="g32">
        <path id="path31" d="M 5.300781,-15.269531 C 5.300781,-5.300781 10.601562,0 20.570312,0 h 11.875 c 9.964844,0 15.265626,-5.300781 15.265626,-15.269531 v -54.285157 c 0,-9.964843 -5.300782,-15.265624 -15.265626,-15.265624 h -11.875 c -9.96875,0 -15.269531,5.300781 -15.269531,15.265624 z m 18.34375,1.59375 c -2.757812,0 -4.242187,-1.378907 -4.242187,-4.242188 v -48.984375 c 0,-2.757812 1.484375,-4.242187 4.242187,-4.242187 h 6.148438 c 2.757812,0 4.242187,1.484375 4.242187,4.242187 v 48.984375 c 0,2.863281 -1.484375,4.242188 -4.242187,4.242188 z m 0,0"></path>
      </g>
    </g>
  </g>
  <g transform="translate(-156.84765,-156.84766)" id="g37" fill-opacity="1" fill="#f1d9a0">
    <g id="g36" transform="translate(803.24428,1196.518)">
      <g id="g35">
        <path id="path34" d="m 49.621094,-84.820312 c -1.273438,0 -2.015625,0.632812 -2.332032,1.90625 L 35.519531,-30.113281 23.75,-82.914062 c -0.316406,-1.273438 -1.058594,-1.90625 -2.332031,-1.90625 H 7.421875 c -1.378906,0 -2.121094,0.742187 -2.121094,2.117187 V -2.121094 C 5.300781,-0.742188 6.042969,0 7.421875,0 h 9.753906 c 1.378907,0 2.121094,-0.742188 2.121094,-2.121094 v -47.710937 h 0.742187 L 30.535156,-1.910156 C 30.855469,-0.636719 31.597656,0 32.867188,0 H 38.0625 c 1.273438,0 2.015625,-0.636719 2.332031,-1.910156 l 10.5,-47.921875 h 0.742188 V -2.121094 C 51.636719,-0.742188 52.378906,0 53.757812,0 h 9.859376 c 1.378906,0 2.121093,-0.742188 2.121093,-2.121094 v -80.582031 c 0,-1.375 -0.742187,-2.117187 -2.121093,-2.117187 z m 0,0"></path>
      </g>
    </g>
  </g>
  <g transform="translate(-156.84765,-156.84766)" id="g40" fill-opacity="1" fill="#f1d9a0">
    <g id="g39" transform="translate(884.88024,1196.518)">
      <g id="g38">
        <path id="path37" d="m 49.621094,-84.820312 c -1.273438,0 -2.015625,0.632812 -2.332032,1.90625 L 35.519531,-30.113281 23.75,-82.914062 c -0.316406,-1.273438 -1.058594,-1.90625 -2.332031,-1.90625 H 7.421875 c -1.378906,0 -2.121094,0.742187 -2.121094,2.117187 V -2.121094 C 5.300781,-0.742188 6.042969,0 7.421875,0 h 9.753906 c 1.378907,0 2.121094,-0.742188 2.121094,-2.121094 v -47.710937 h 0.742187 L 30.535156,-1.910156 C 30.855469,-0.636719 31.597656,0 32.867188,0 H 38.0625 c 1.273438,0 2.015625,-0.636719 2.332031,-1.910156 l 10.5,-47.921875 h 0.742188 V -2.121094 C 51.636719,-0.742188 52.378906,0 53.757812,0 h 9.859376 c 1.378906,0 2.121093,-0.742188 2.121093,-2.121094 v -80.582031 c 0,-1.375 -0.742187,-2.117187 -2.121093,-2.117187 z m 0,0"></path>
      </g>
    </g>
  </g>
  <g transform="translate(-156.84765,-156.84766)" id="g43" fill-opacity="1" fill="#f1d9a0">
    <g id="g42" transform="translate(966.51621,1196.518)">
      <g id="g41">
        <path id="path40" d="m 56.40625,0 c 1.273438,0 1.695312,-0.636719 1.484375,-1.800781 L 40.289062,-83.335938 c -0.210937,-1.0625 -0.847656,-1.484374 -1.800781,-1.484374 H 23.75 c -0.953125,0 -1.589844,0.421874 -1.800781,1.484374 L 4.347656,-1.800781 C 4.027344,-0.636719 4.558594,0 5.726562,0 h 11.34375 c 0.953126,0 1.484376,-0.53125 1.695313,-1.484375 l 2.863281,-15.480469 h 18.875 l 2.96875,15.480469 C 43.683594,-0.53125 44.214844,0 45.167969,0 Z M 37.851562,-29.261719 H 24.28125 l 6.785156,-37.003906 z m 0,0"></path>
      </g>
    </g>
  </g>
  <g transform="translate(-156.84765,-156.84766)" id="g46" fill-opacity="1" fill="#f1d9a0">
    <g id="g45" transform="translate(1039.2465,1196.518)">
      <g id="g44">
        <path id="path43" d="m 37.851562,-84.820312 c -1.167968,0 -1.695312,0.632812 -1.695312,1.695312 v 44.742188 h -0.636719 l -16.117187,-45.0625 c -0.316406,-0.953126 -0.953125,-1.375 -1.90625,-1.375 h -10.5 c -1.058594,0 -1.695313,0.632812 -1.695313,1.695312 V -1.695312 C 5.300781,-0.636719 5.9375,0 6.996094,0 h 11.027344 c 1.167968,0 1.699218,-0.636719 1.699218,-1.695312 V -46.652344 H 20.25 L 36.472656,-1.378906 C 36.792969,-0.425781 37.425781,0 38.382812,0 h 10.496094 c 1.058594,0 1.695313,-0.636719 1.695313,-1.695312 V -83.125 c 0,-1.0625 -0.636719,-1.695312 -1.695313,-1.695312 z m 0,0"></path>
      </g>
    </g>
  </g>
  <g transform="translate(-156.84765,-156.84766)" id="g49" fill-opacity="1" fill="#f1d9a0">
    <g id="g48" transform="translate(1105.7217,1196.518)">
      <g id="g47">
        <path id="path46" d="M 5.300781,-1.695312 C 5.300781,-0.53125 5.832031,0 6.996094,0 h 25.449218 c 9.964844,0 15.265626,-5.300781 15.265626,-15.269531 v -54.179688 c 0,-9.964843 -5.300782,-15.371093 -15.265626,-15.371093 H 6.996094 c -1.164063,0 -1.695313,0.632812 -1.695313,1.695312 z m 14.421875,-12.300782 v -56.832031 h 9.753906 c 2.753907,0 4.238282,1.484375 4.238282,4.347656 v 48.242188 c 0,2.863281 -1.484375,4.242187 -4.238282,4.242187 z m 0,0"></path>
      </g>
    </g>
  </g>
  <g transform="translate(-156.84765,-156.84766)" id="g50" clip-path="url(#1d50e5fe26)">
    <path id="path49" fill-rule="nonzero" fill-opacity="1" d="m 957.92187,678.19141 c -51.21875,78.85156 -101.74609,156.63671 -155.125,238.8125 23.42188,0 42.08204,0.0195 60.7461,0 22.44922,-0.0195 44.91797,-0.69141 67.32812,0.13671 11.42578,0.42579 18.20703,-3.6289 24.3125,-13.10156 48.15231,-74.73047 96.76171,-149.17187 146.01171,-224.91797 -2.9844,-5.32031 -5.832,-11.13672 -9.3359,-16.53515 -44.8399,-68.97266 -90.0664,-137.69922 -134.41409,-206.98828 -7.57422,-11.83594 -15.4375,-17.07813 -29.88672,-16.70313 -39.82422,1.03906 -79.6914,0.35547 -123.72265,0.35547 50.51953,81.71094 102.89453,158.25781 154.08593,238.94141 z m 0,0" fill="#f1d9a0"></path>
  </g>
  <g transform="translate(-156.84765,-156.84766)" id="g51" clip-path="url(#7f0a83350f)">
    <path id="path50" fill-rule="nonzero" fill-opacity="1" d="m 383.89844,439.15234 c 53.34765,82.03516 103.95312,159.83985 155.37109,238.91016 -51,78.42578 -101.61719,156.26172 -154.56641,237.68359 26.01954,2.44532 48.71485,0.71485 71.27344,1.0586 23.26172,0.34765 46.52344,0.082 71.60547,0.082 51.49609,-79.0625 103.12109,-158.32031 155.44922,-238.65625 -15.73438,-24.19922 -31.06641,-47.8086 -46.40234,-71.39453 -33.10157,-50.875 -66.53907,-101.53907 -99.05079,-152.78907 -7.14843,-11.27343 -15.07031,-15.44921 -28.27343,-15.17968 -39.88672,0.80078 -79.77344,0.28515 -125.40625,0.28515 z m 0,0" fill="#f1d9a0"></path>
  </g>
  <path id="path51" fill-rule="nonzero" fill-opacity="1" d="m 590.17969,523.75781 c -50.12109,77.10156 -100.3125,154.32031 -152.82812,235.10156 26.03125,2.27734 48.72656,1.01172 71.33594,1.14844 23.26171,0.13672 46.52343,0.0312 71.43359,0.0312 C 631.64844,680.91791 683.25391,601.6601 735.61329,521.26557 683.71094,441.52338 632.12501,362.25385 580.5586,283.0351 c -46.84766,0 -92.46094,0 -137.73828,0 -0.75,1.07813 -1.29297,1.6211 -1.54297,2.28516 -0.27734,0.76172 -0.57422,1.70312 -0.35547,2.41406 0.47656,1.57031 1.07031,3.17578 1.95703,4.55078 48.76953,75.35938 97.57422,150.69922 146.34375,226.0625 0.40625,0.6211 0.30469,1.58203 0.95703,5.41016 z m 0,0" fill="#f1d9a0"></path>
</svg>
