<svg xmlns="http://www.w3.org/2000/svg" id="svg36" version="1.0" preserveAspectRatio="xMidYMid" height="1932.0001" viewBox="0 0 1449 1449" zoomAndPan="magnify" width="1932">
  
  <defs id="defs9">
    <clipPath id="befd0d1d50">
      <path id="path1" clip-rule="nonzero" d="M 17.839844,17.839844 H 1466.8398 V 1466.8398 H 17.839844 Z m 0,0"></path>
    </clipPath>
    <clipPath id="e995b7a18e">
      <path id="path2" clip-rule="nonzero" d="M 37.878906,39.867188 H 1447.1289 V 1449.1172 H 37.878906 Z m 0,0"></path>
    </clipPath>
    <clipPath id="c6e5e30c83">
      <path id="path3" clip-rule="nonzero" d="m 133,531.62109 h 1219 v 421.5 H 133 Z m 0,0"></path>
    </clipPath>
    <clipPath id="1de09c80b0">
      <path id="path4" clip-rule="nonzero" d="M 445.5,362 H 1018 v 14 H 445.5 Z m 0,0"></path>
    </clipPath>
    <clipPath id="c4645f0b92">
      <path id="path5" clip-rule="nonzero" d="m 941,325 h 98.5 v 98 H 941 Z m 0,0"></path>
    </clipPath>
    <clipPath id="107961a220">
      <path id="path6" clip-rule="nonzero" d="m 467,1098 h 572.5 v 15 H 467 Z m 0,0"></path>
    </clipPath>
    <clipPath id="827035b551">
      <path id="path7" clip-rule="nonzero" d="M 445.5,1062 H 544 v 98 h -98.5 z m 0,0"></path>
    </clipPath>
    <clipPath id="9d7555d47a">
      <path id="path8" clip-rule="nonzero" d="M 72.128906,1033.1602 H 1413.1289 v 254.25 H 72.128906 Z m 0,0"></path>
    </clipPath>
    <clipPath id="401264888b">
      <path id="path9" clip-rule="nonzero" d="M 98.054688,1057.7188 H 1387.3047 v 204.75 H 98.054688 Z m 0,0"></path>
    </clipPath>
  </defs>
  <g transform="translate(-17.839843,-17.839844)" id="g10" clip-path="url(#befd0d1d50)">
    <path id="path10" fill-rule="nonzero" fill-opacity="1" d="m 1467.1563,742.5 c 0,11.85937 -0.2891,23.71094 -0.8711,35.55469 -0.5821,11.84765 -1.4571,23.67187 -2.6172,35.47265 -1.1641,11.80078 -2.6133,23.57032 -4.3555,35.30078 -1.7383,11.73047 -3.7656,23.41016 -6.082,35.04297 -2.3125,11.63282 -4.9102,23.19922 -7.793,34.70313 -2.8789,11.5039 -6.043,22.93359 -9.4844,34.28125 -3.4453,11.34765 -7.164,22.60547 -11.1562,33.77344 -3.9961,11.16406 -8.2656,22.22659 -12.8008,33.18359 -4.5391,10.957 -9.3438,21.7969 -14.4141,32.5156 -5.0703,10.7227 -10.4023,21.3125 -15.9922,31.7696 -5.5898,10.4609 -11.4335,20.7773 -17.5312,30.9492 -6.0977,10.1719 -12.4414,20.1875 -19.0313,30.0508 -6.5859,9.8593 -13.414,19.5546 -20.4804,29.0781 -7.0625,9.5273 -14.3555,18.8711 -21.8789,28.039 -7.5235,9.168 -15.2696,18.1485 -23.2344,26.9336 -7.9648,8.7891 -16.1406,17.375 -24.5234,25.7618 -8.3868,8.3828 -16.9727,16.5586 -25.7618,24.5234 -8.7851,7.9648 -17.7656,15.7109 -26.9336,23.2344 -9.1679,7.5234 -18.5117,14.8164 -28.039,21.8789 -9.5235,7.0664 -19.2188,13.8945 -29.0781,20.4804 -9.8633,6.5899 -19.8789,12.9336 -30.0508,19.0313 -10.1719,6.0977 -20.4883,11.9414 -30.9492,17.5312 -10.4571,5.5899 -21.0469,10.9219 -31.7696,15.9922 -10.7187,5.0703 -21.5586,9.875 -32.5156,14.4141 -10.957,4.5352 -22.01953,8.8047 -33.18359,12.8008 -11.16797,3.9922 -22.42579,7.7148 -33.77344,11.1562 -11.34766,3.4414 -22.77735,6.6055 -34.28125,9.4844 -11.50391,2.8828 -23.07031,5.4805 -34.70313,7.793 -11.63281,2.3164 -23.3125,4.3437 -35.04297,6.082 -11.73046,1.7422 -23.5,3.1914 -35.30078,4.3555 -11.80468,1.1601 -23.625,2.0351 -35.47265,2.6172 -11.84375,0.582 -23.69532,0.8711 -35.55469,0.8711 -11.86328,0 -23.71484,-0.2891 -35.55859,-0.8711 -11.84766,-0.5821 -23.66797,-1.4571 -35.47266,-2.6172 -11.80078,-1.1641 -23.57031,-2.6133 -35.30078,-4.3555 -11.73047,-1.7383 -23.41016,-3.7656 -35.04297,-6.082 -11.63281,-2.3125 -23.19922,-4.9102 -34.70313,-7.793 -11.5039,-2.8789 -22.93359,-6.043 -34.28125,-9.4844 -11.34765,-3.4414 -22.60546,-7.164 -33.77343,-11.1562 -11.16407,-3.9961 -22.22657,-8.2656 -33.1836,-12.8008 -10.95703,-4.5391 -21.79687,-9.3438 -32.51562,-14.4141 -10.72266,-5.0703 -21.3125,-10.4023 -31.76953,-15.9922 -10.46094,-5.5898 -20.77735,-11.4335 -30.94922,-17.5312 -10.17188,-6.0977 -20.1875,-12.4414 -30.05078,-19.0313 -9.85938,-6.5859 -19.55469,-13.414 -29.07813,-20.4804 -9.52734,-7.0625 -18.87109,-14.3555 -28.03906,-21.8789 -9.16797,-7.5235 -18.14453,-15.2696 -26.93359,-23.2344 -8.78907,-7.9648 -17.375,-16.1406 -25.76172,-24.5234 -8.38282,-8.3868 -16.5586,-16.9727 -24.52344,-25.7618 -7.96484,-8.789 -15.71094,-17.7656 -23.23438,-26.9336 -7.52343,-9.1679 -14.8164,-18.5117 -21.8789,-28.039 -7.06641,-9.5235 -13.89453,-19.2188 -20.48047,-29.0781 -6.58984,-9.8633 -12.93359,-19.8789 -19.03125,-30.0508 -6.09766,-10.1719 -11.94141,-20.4883 -17.53125,-30.9492 -5.589844,-10.4571 -10.921875,-21.0469 -15.992188,-31.7696 -5.070312,-10.7187 -9.875,-21.5586 -14.414062,-32.5156 -4.539062,-10.957 -8.804688,-22.01953 -12.800781,-33.18359 -3.992188,-11.16797 -7.714844,-22.42579 -11.15625,-33.77344 -3.441407,-11.34766 -6.605469,-22.77735 -9.484375,-34.28125 -2.882813,-11.50391 -5.480469,-23.07031 -7.792969,-34.70313 -2.316406,-11.63281 -4.34375,-23.3125 -6.082031,-35.04297 -1.742188,-11.73046 -3.191406,-23.5 -4.355469,-35.30078 -1.160156,-11.80078 -2.035156,-23.625 -2.613281,-35.47265 -0.582032,-11.84375 -0.875,-23.69532 -0.875,-35.55469 0,-11.86328 0.292968,-23.71484 0.875,-35.55859 0.578125,-11.84766 1.453125,-23.66797 2.613281,-35.47266 1.164063,-11.80078 2.613281,-23.57031 4.355469,-35.30078 1.738281,-11.73047 3.765625,-23.41016 6.082031,-35.04297 2.3125,-11.63281 4.910156,-23.19922 7.792969,-34.70313 2.878906,-11.5039 6.042968,-22.93359 9.484375,-34.28125 3.441406,-11.34765 7.164062,-22.60546 11.15625,-33.77343 3.996093,-11.16407 8.261719,-22.22657 12.800781,-33.1836 4.539062,-10.95703 9.34375,-21.79687 14.414062,-32.51562 5.070313,-10.72266 10.402344,-21.3125 15.992188,-31.76953 5.58984,-10.46094 11.43359,-20.77735 17.53125,-30.94922 6.09766,-10.17188 12.44141,-20.1875 19.03125,-30.05078 6.58594,-9.85938 13.41406,-19.55469 20.48047,-29.07813 7.0625,-9.52734 14.35547,-18.87109 21.8789,-28.03906 7.52344,-9.16797 15.26954,-18.14453 23.23438,-26.93359 7.96484,-8.78907 16.14062,-17.375 24.52344,-25.76172 8.38672,-8.38282 16.97265,-16.5586 25.76172,-24.52344 8.78906,-7.96484 17.76562,-15.71094 26.93359,-23.23438 9.16797,-7.52343 18.51172,-14.8164 28.03906,-21.8789 9.52344,-7.06641 19.21875,-13.89453 29.07813,-20.48047 9.86328,-6.58984 19.8789,-12.93359 30.05078,-19.03125 10.17187,-6.09766 20.48828,-11.94141 30.94922,-17.53125 10.45703,-5.589844 21.04687,-10.921875 31.76953,-15.992188 10.71875,-5.070312 21.55859,-9.875 32.51562,-14.414062 10.95703,-4.535156 22.01953,-8.804688 33.1836,-12.800781 11.16797,-3.992188 22.42578,-7.714844 33.77343,-11.15625 11.34766,-3.441407 22.77735,-6.605469 34.28125,-9.484375 11.50391,-2.882813 23.07032,-5.480469 34.70313,-7.792969 11.63281,-2.316406 23.3125,-4.34375 35.04297,-6.082031 11.73047,-1.742188 23.5,-3.191406 35.30078,-4.355469 11.80469,-1.160156 23.625,-2.035156 35.47266,-2.613281 11.84375,-0.582032 23.69531,-0.875 35.55859,-0.875 11.85937,0 23.71094,0.292968 35.55469,0.875 11.84765,0.578125 23.66797,1.453125 35.47265,2.613281 11.80078,1.164063 23.57032,2.613281 35.30078,4.355469 11.73047,1.738281 23.41016,3.765625 35.04297,6.082031 11.63282,2.3125 23.19922,4.910156 34.70313,7.792969 11.5039,2.878906 22.93359,6.042968 34.28125,9.484375 11.34765,3.441406 22.60547,7.164062 33.77344,11.15625 11.16406,3.996093 22.22659,8.265625 33.18359,12.800781 10.957,4.539062 21.7969,9.34375 32.5156,14.414062 10.7227,5.070313 21.3125,10.402344 31.7735,15.992188 10.457,5.58984 20.7734,11.43359 30.9453,17.53125 10.1719,6.09766 20.1875,12.44141 30.0508,19.03125 9.8593,6.58594 19.5546,13.41406 29.0781,20.48047 9.5273,7.0625 18.8711,14.35547 28.039,21.8789 9.168,7.52344 18.1485,15.26954 26.9336,23.23438 8.7891,7.96484 17.375,16.14062 25.7618,24.52344 8.3828,8.38672 16.5586,16.97265 24.5234,25.76172 7.9648,8.78906 15.7109,17.76562 23.2344,26.93359 7.5234,9.16797 14.8164,18.51172 21.8828,28.03906 7.0625,9.52344 13.8906,19.21875 20.4765,29.07813 6.5899,9.86328 12.9336,19.8789 19.0313,30.05078 6.0977,10.17187 11.9414,20.48828 17.5312,30.94922 5.5899,10.45703 10.9219,21.04687 15.9922,31.76953 5.0703,10.71875 9.875,21.55859 14.4141,32.51562 4.5352,10.95703 8.8047,22.01953 12.8008,33.1836 3.9922,11.16797 7.7148,22.42578 11.1562,33.77343 3.4414,11.34766 6.6055,22.77735 9.4844,34.28125 2.8828,11.50391 5.4805,23.07032 7.793,34.70313 2.3164,11.63281 4.3437,23.3125 6.082,35.04297 1.7422,11.73047 3.1914,23.5 4.3555,35.30078 1.1601,11.80469 2.0351,23.625 2.6172,35.47266 0.582,11.84375 0.8711,23.69531 0.8711,35.55859 z m 0,0" fill="#f1d9a0"></path>
  </g>
  <g transform="translate(-17.839843,-17.839844)" id="g11" clip-path="url(#e995b7a18e)">
    <path id="path11" fill-rule="nonzero" fill-opacity="1" d="m 1447.1172,744.48828 c 0,11.53125 -0.2813,23.05469 -0.8477,34.57422 -0.5664,11.51562 -1.414,23.01172 -2.5468,34.48828 -1.1289,11.47656 -2.5391,22.91797 -4.2305,34.32422 -1.6953,11.40625 -3.6641,22.76562 -5.9141,34.07812 -2.25,11.3086 -4.7773,22.55469 -7.5781,33.74219 -2.8008,11.1875 -5.875,22.29688 -9.2227,33.33203 -3.3476,11.03516 -6.9648,21.98047 -10.8515,32.83985 -3.8828,10.85547 -8.0313,21.61331 -12.4453,32.26561 -4.4141,10.6524 -9.086,21.1914 -14.0157,31.6172 -4.9296,10.4258 -10.1132,20.7227 -15.5468,30.8906 -5.4375,10.1719 -11.1211,20.2032 -17.0469,30.0938 -5.9297,9.8906 -12.0977,19.6289 -18.5039,29.2187 -6.4063,9.586 -13.043,19.0117 -19.9141,28.2735 -6.8711,9.2656 -13.9609,18.3515 -21.2773,27.2656 -7.3164,8.9141 -14.8438,17.6445 -22.5899,26.1875 -7.7421,8.543 -15.6914,16.8945 -23.8476,25.0469 -8.1524,8.1562 -16.5039,16.1054 -25.0469,23.8476 -8.543,7.7461 -17.2734,15.2735 -26.1875,22.5899 -8.9141,7.3164 -18.0039,14.4101 -27.2656,21.2773 -9.2617,6.8711 -18.6875,13.5078 -28.2735,19.9141 -9.5898,6.4062 -19.3281,12.5742 -29.2187,18.5039 -9.8945,5.9258 -19.9219,11.6094 -30.0938,17.0469 -10.1679,5.4335 -20.4648,10.6171 -30.8906,15.5468 -10.4258,4.9336 -20.9648,9.6055 -31.6172,14.0157 -10.6562,4.414 -21.41013,8.5625 -32.2695,12.4492 -10.85547,3.8828 -21.80078,7.5 -32.83594,10.8476 -11.03515,3.3477 -22.14844,6.4219 -33.33203,9.2227 -11.1875,2.8047 -22.43359,5.3281 -33.74609,7.5781 -11.3086,2.25 -22.66797,4.2227 -34.07422,5.9141 -11.40625,1.6914 -22.84766,3.1015 -34.32422,4.2343 -11.47656,1.129 -22.97266,1.9766 -34.49219,2.543 -11.51562,0.5664 -23.03906,0.8477 -34.57422,0.8477 -11.53125,0 -23.05468,-0.2813 -34.57031,-0.8477 -11.51953,-0.5664 -23.01562,-1.414 -34.49219,-2.543 -11.47656,-1.1328 -22.91797,-2.5429 -34.32422,-4.2343 -11.40625,-1.6914 -22.76562,-3.6641 -34.07421,-5.9141 -11.3125,-2.25 -22.5586,-4.7734 -33.7461,-7.5781 -11.1875,-2.8008 -22.29687,-5.875 -33.33203,-9.2227 -11.03516,-3.3476 -21.98047,-6.9648 -32.83984,-10.8476 -10.85547,-3.8867 -21.61328,-8.0352 -32.26563,-12.4492 -10.65234,-4.4102 -21.1914,-9.0821 -31.61719,-14.0157 -10.42578,-4.9297 -20.72265,-10.1133 -30.89062,-15.5468 -10.17188,-5.4375 -20.20313,-11.1172 -30.09375,-17.0469 -9.89063,-5.9297 -19.62891,-12.0977 -29.21875,-18.5039 -9.58594,-6.4063 -19.01172,-13.043 -28.27344,-19.9141 -9.26172,-6.8672 -18.35156,-13.9609 -27.26562,-21.2773 -8.91407,-7.3164 -17.64453,-14.8438 -26.1875,-22.5899 -8.54297,-7.7422 -16.89453,-15.6914 -25.04688,-23.8476 -8.15625,-8.1524 -16.10547,-16.5039 -23.84765,-25.0469 -7.7461,-8.543 -15.27344,-17.2734 -22.58985,-26.1875 -7.3164,-8.9141 -14.41015,-18.0039 -21.27734,-27.2656 -6.8711,-9.2618 -13.50781,-18.6875 -19.91406,-28.2735 -6.40625,-9.5898 -12.57422,-19.3281 -18.50391,-29.2187 -5.92578,-9.8906 -11.60937,-19.9219 -17.04687,-30.0938 -5.4336,-10.1679 -10.61719,-20.4648 -15.54688,-30.8906 -4.93359,-10.4258 -9.605469,-20.9648 -14.015625,-31.6172 -4.414063,-10.6523 -8.5625,-21.41014 -12.449219,-32.26561 -3.882812,-10.85938 -7.5,-21.80469 -10.847656,-32.83985 -3.347656,-11.03515 -6.421875,-22.14453 -9.222656,-33.33203 -2.804688,-11.1875 -5.328125,-22.43359 -7.578125,-33.74219 -2.25,-11.3125 -4.222657,-22.67187 -5.914063,-34.07812 -1.691406,-11.40625 -3.101562,-22.84766 -4.230468,-34.32422 -1.132813,-11.47656 -1.980469,-22.97266 -2.546876,-34.48828 -0.566406,-11.51953 -0.847656,-23.04297 -0.847656,-34.57422 0,-11.53125 0.28125,-23.05859 0.847656,-34.57422 0.566407,-11.51953 1.414063,-23.01562 2.546876,-34.49219 1.128906,-11.47656 2.539062,-22.91796 4.230468,-34.32421 1.691406,-11.40625 3.664063,-22.76563 5.914063,-34.07422 2.25,-11.3125 4.777343,-22.5586 7.578125,-33.7461 2.800781,-11.18359 5.875,-22.29687 9.222656,-33.33203 3.347656,-11.03515 6.964844,-21.98047 10.847656,-32.83594 3.886719,-10.85937 8.035156,-21.61328 12.449219,-32.26953 4.410156,-10.65234 9.082035,-21.1914 14.015625,-31.61718 4.92969,-10.42188 10.11328,-20.72266 15.54688,-30.89063 5.4375,-10.17187 11.12109,-20.19922 17.04687,-30.08984 5.92969,-9.89453 12.09766,-19.63282 18.50391,-29.21875 6.40625,-9.58985 13.04296,-19.01563 19.91406,-28.27735 6.86719,-9.26172 13.96094,-18.35156 21.27734,-27.26562 7.31641,-8.91406 14.84375,-17.64063 22.58985,-26.1875 7.74218,-8.54297 15.6914,-16.89453 23.84765,-25.04688 8.15235,-8.15234 16.50391,-16.10156 25.04688,-23.84765 8.54297,-7.74219 17.27343,-15.27344 26.1875,-22.58985 8.91406,-7.3164 18.0039,-14.40625 27.26562,-21.27734 9.26172,-6.86719 18.6875,-13.50781 28.27344,-19.91406 9.58984,-6.40625 19.32812,-12.57422 29.21875,-18.50391 9.89062,-5.92578 19.92187,-11.60937 30.09375,-17.04297 10.16797,-5.4375 20.46484,-10.62109 30.89062,-15.55078 10.42579,-4.92969 20.96485,-9.601561 31.61719,-14.015624 10.65235,-4.414062 21.41016,-8.5625 32.26563,-12.445312 10.85937,-3.886719 21.80468,-7.503906 32.83984,-10.851563 11.03516,-3.347656 22.14453,-6.421875 33.33203,-9.222656 11.1875,-2.800781 22.4336,-5.328125 33.7461,-7.578125 11.30859,-2.25 22.66796,-4.21875 34.07421,-5.910156 11.40625,-1.695313 22.84766,-3.105469 34.32422,-4.234375 11.47657,-1.132813 22.97266,-1.980469 34.49219,-2.546875 11.51563,-0.5625 23.03906,-0.847656 34.57031,-0.847656 11.53516,0 23.0586,0.285156 34.57422,0.847656 11.51953,0.566406 23.01563,1.414062 34.49219,2.546875 11.47656,1.128906 22.91797,2.539062 34.32422,4.234375 11.40625,1.691406 22.76562,3.660156 34.07422,5.910156 11.3125,2.25 22.55859,4.777344 33.74609,7.578125 11.18359,2.800781 22.29688,5.875 33.33203,9.222656 11.03516,3.347657 21.98047,6.964844 32.83594,10.851563 10.85937,3.882812 21.6133,8.03125 32.2695,12.445312 10.6524,4.414063 21.1914,9.085934 31.6172,14.015624 10.4258,4.92969 20.7227,10.11328 30.8906,15.55078 10.1719,5.4336 20.1993,11.11719 30.0938,17.04297 9.8906,5.92969 19.6289,12.09766 29.2187,18.50391 9.586,6.40625 19.0118,13.04687 28.2735,19.91406 9.2617,6.87109 18.3515,13.96094 27.2656,21.27734 8.9141,7.31641 17.6445,14.84766 26.1875,22.58985 8.543,7.74609 16.8945,15.69531 25.0469,23.84765 8.1562,8.15235 16.1055,16.50391 23.8476,25.04688 7.7461,8.54687 15.2735,17.27344 22.5899,26.1875 7.3164,8.91406 14.4062,18.0039 21.2773,27.26562 6.8711,9.26172 13.5078,18.6875 19.9141,28.27735 6.4062,9.58593 12.5742,19.32422 18.5039,29.21875 5.9258,9.89062 11.6094,19.91797 17.0469,30.08984 5.4336,10.16797 10.6172,20.46875 15.5468,30.89063 4.9297,10.42578 9.6016,20.96484 14.0157,31.61718 4.414,10.65625 8.5625,21.41016 12.4453,32.26953 3.8867,10.85547 7.5039,21.80079 10.8515,32.83594 3.3477,11.03516 6.4219,22.14844 9.2227,33.33203 2.8008,11.1875 5.3281,22.4336 7.5781,33.7461 2.25,11.30859 4.2188,22.66797 5.9141,34.07422 1.6914,11.40625 3.1016,22.84765 4.2305,34.32421 1.1328,11.47657 1.9804,22.97266 2.5468,34.49219 0.5664,11.51563 0.8477,23.04297 0.8477,34.57422 z m 0,0" fill="#b53620"></path>
  </g>
  <g transform="translate(-17.839843,-17.839844)" id="g12" clip-path="url(#c6e5e30c83)">
    <path id="path12" fill-rule="nonzero" fill-opacity="1" d="m 714.77734,538.58203 -0.0508,7.12109 h -0.66797 c -0.5039,0 -0.6875,0.1875 -0.90234,0.98438 -0.16016,0.55859 -0.29297,1.57031 -0.29297,2.25781 v 1.27735 h -5.87109 c -5.42188,0 -5.92578,-0.0274 -6.53907,-0.53125 l -0.66406,-0.50391 2.63281,-0.082 2.60157,-0.0781 0.082,-0.71875 c 0.0508,-0.39843 -0.10547,-1.0625 -0.34766,-1.51562 l -0.42578,-0.82422 h -39.83594 l -0.45312,0.95703 -0.44922,0.92969 0.85156,0.66797 0.84766,0.66406 -1.64844,1.99219 -1.67187,1.96484 h -8.90235 v -3.45312 h -9.83594 v 6.64453 h -78.5312 L 560,562.23437 l -4.73047,5.875 v 3.10938 h -21.55078 c -14.27344,0 -21.47656,-0.082 -21.36719,-0.26563 0.0781,-0.16015 1.32813,-0.26562 2.78906,-0.26562 h 2.60547 l 2.33594,-2.92578 2.3125,-2.92188 h 3.24219 l 1.9414,-1.88672 1.91407,-1.88671 v -4.73047 H 379.20703 l -5.28906,6.58984 c -2.92578,3.61328 -11.87891,14.72266 -19.90625,24.6875 l -14.61719,18.15234 h -5.63281 l -17.48828,21.66016 -17.48438,21.66016 h -5.02344 V 655.25 l -1.64843,2.09766 -1.67578,2.10156 h -16.76954 l -2.49609,1.59375 -2.52734,1.59375 h -9.48438 c -9.30469,0 -9.51562,0 -9.51562,0.53125 0,0.50781 0.21093,0.53515 8.6914,0.58594 l 8.6875,0.082 -1.62109,1.0625 c -1.14063,0.76953 -3,2.65625 -6.58984,6.77734 -2.73829,3.13281 -5.12891,5.73828 -5.28907,5.76563 -0.39843,0.10546 -15.57031,1.67187 -16.02343,1.67187 -0.26563,0 -0.34766,1.67578 -0.34766,8.69141 l -0.0234,8.71875 -10.8164,12.35547 -10.84375,12.35937 -22.11329,4.59766 -22.10937,4.59765 -1.41016,1.51563 c -5.57812,5.92578 -7.0664,7.70703 -6.75,7.97265 0.26563,0.23829 28.9961,2.71094 31.28125,2.71094 0.50391,0 0.5586,0.13281 0.47657,1.16797 -0.0781,1.14453 -0.74219,1.91406 -26.38672,31.06641 l -26.3125,29.89843 -2.28516,4.94141 -2.3125,4.94531 10.97656,0.0508 10.94922,0.082 -13.1289,15.01562 -13.15235,15.01563 17.4336,0.0781 17.43359,0.0547 v 8.15625 l -2.39453,3.13672 c -2.33594,3.03125 -2.39063,3.16406 -2.39063,4.54687 v 1.4336 h 45.17969 v 10.09765 h 11.42578 v 10.36719 h 32.6875 v -10.36719 h 12.22656 V 862.2226 h 8.74219 c 5.55469,0 8.82422,-0.10547 8.92969,-0.26563 0.10547,-0.1875 6.83203,-0.26562 19.29687,-0.26562 12.57032,0 19.10547,0.0781 19.10547,0.26562 0,0.1875 5.52735,0.26563 16.07813,0.26563 8.85156,0 16.07812,0.0781 16.07812,0.16015 0,0.0781 -0.42578,0.66406 -0.92968,1.27344 -0.50391,0.64062 -0.92969,1.25 -0.92969,1.38281 0,0.13281 0.79687,0.45313 1.80859,0.71875 1.64453,0.42578 4.8086,0.44922 43.28906,0.44922 h 41.51172 l -0.18359,1.01172 c -0.26563,1.35547 -0.24219,20.19922 0.0234,21.10156 l 0.1875,0.74219 h 9.03515 v 1.86328 H 453.75 v 17.53906 h 10.09766 v 2.92188 h 41.0625 c 37.36328,0 41.13671,-0.0273 41.72265,-0.42578 l 0.66406,-0.42188 v -19.8789 h 2.92579 v 20.99218 h 24.18359 v -7.17578 h 3.98437 v 7.17578 h 24.1836 v -7.17578 h 68.03515 v 3.96094 l 0.875,0.13281 c 0.45313,0.0781 20.03907,2.01953 43.50782,4.27735 l 42.65234,4.12109 h 59.13281 v 11.93359 l 2.17969,0.0781 2.20313,0.0781 1.96875,2.84375 c 1.85937,2.66016 2.07031,2.8711 2.86718,2.8711 0.87891,0 0.87891,0 0.87891,1.32812 v 1.33203 h -0.92969 c -0.71875,0 -1.85937,0.58203 -5.05078,2.57422 l -4.11719,2.60547 v 5.58203 l 4.14453,2.57813 4.11719,2.60547 h 17.67578 l 2.33594,-2.52735 2.3125,-2.52344 h 3.16406 v -6.64453 l -1.48828,0.16016 -1.48828,0.1875 -5.21094,-5.21094 -3.34765,0.21094 -3.34766,0.1875 v -1.19531 c 0,-1.11719 0.0547,-1.22266 0.71875,-1.30078 0.55859,-0.0547 1.19531,-0.69141 2.84375,-2.92579 l 2.15234,-2.84375 2.52344,-0.0273 h 2.52344 l 1.19922,-2.68359 c 0.76953,-1.72657 1.3789,-2.73438 1.72656,-2.86719 0.29297,-0.10938 3.45313,-0.40234 7.04297,-0.66797 3.58594,-0.23828 6.77734,-0.50391 7.12109,-0.58203 0.5586,-0.10547 0.58594,-0.23828 0.58594,-2.63281 v -2.52344 h 41.45703 l 6.11328,-0.92969 c 3.375,-0.5039 6.2461,-0.92969 6.37891,-0.92969 0.15625,0 0.26562,-2.20703 0.26562,-5.79296 v -5.79688 l -6.43359,-2.39062 c -5.63281,-2.07422 -6.45703,-2.44532 -6.53516,-2.97657 l -0.082,-0.58593 h 19.69141 v -7.70704 h 23.38672 v 7.70704 l 2.07422,0.0273 2.04687,0.0273 -1.32812,0.34375 c -0.71875,0.1875 -1.64844,0.42578 -2.04688,0.50782 -0.71875,0.16015 -0.74609,0.23828 -0.74609,1.88671 v 1.72657 h -1.11328 c -0.64063,0.0273 -2.33985,0.39843 -3.80078,0.8789 l -2.66016,0.875 v 2.60547 l 2.39453,0.74219 c 1.32813,0.39844 3.02734,0.74609 3.80078,0.74609 h 1.37891 v 22.53516 l 2.47265,0.55859 c 2.44532,0.5586 2.63282,0.5586 39.9961,0.5586 h 37.5547 l 2.125,-1.59375 2.0976,-1.6211 V 919.625 h 2.4727 c 3.5078,0 3.375,0.21484 3.375,-5.76563 0,-5.875 0.1328,-5.66015 -3.4024,-5.66015 h -2.4453 v -3.80078 l -0.027,-3.77344 -1.9922,-1.46094 c -1.0899,-0.79687 -1.9375,-1.57031 -1.9141,-1.7539 0.055,-0.16016 1.0899,-1.9961 2.3399,-4.03907 l 2.2578,-3.75 8.5859,-0.0273 h 8.5586 v -22.58594 l 6.8281,-0.0547 6.8555,-0.0781 0.6133,-2.3125 0.6367,-2.28516 2.9492,-1.17187 c 1.6485,-0.63672 12.2266,-4.73047 23.4922,-9.11328 l 20.543,-7.97266 v -7.57422 h 21.5 l 0.4258,1.99219 0.4531,1.99219 5.4726,-0.0508 5.5039,-0.082 0.1836,-1.32812 c 0.4258,-2.63281 0.3477,-2.52344 1.7813,-2.52344 h 1.3047 l 0.1562,1.51172 c 0.3203,2.73828 -0.6367,2.47266 8.6914,2.47266 h 8.211 v 22.51172 l 1.1718,0.82421 1.168,0.84766 h 12.6758 l 25.2461,-6.26953 25.25,-6.27344 30.5625,-35.76953 c 16.8203,-19.66797 39.4101,-46.10937 50.2266,-58.76172 10.8164,-12.64844 23.6796,-27.76953 28.621,-33.58984 l 8.9844,-10.60547 v -5.26172 h -3.9883 v -9.03516 h 3.9883 v -1.64843 c 0,-1.38282 0.1602,-1.91407 0.9571,-3.34766 l 0.9296,-1.72656 -0.5859,-1.67578 c -0.6367,-1.80469 -0.8477,-1.96485 -2.7891,-1.96485 -1.2226,0 -1.0625,0.21094 -2.3398,-3.26953 l -0.6641,-1.78125 h 1.5664 c 0.8789,0 1.5977,-0.0547 1.5977,-0.10547 0,-0.0547 -2.4453,-7.12109 -5.4492,-15.73437 -3.4531,-9.91016 -5.6328,-15.78516 -5.9531,-16.05078 -0.2657,-0.21094 -1.1446,-0.95703 -1.9415,-1.67578 -0.8242,-0.69141 -1.5937,-1.2461 -1.7773,-1.2461 -0.1602,0 -0.293,-0.0547 -0.293,-0.10937 0,-0.28907 -10.0195,-28.72657 -17.8867,-50.73047 l -9.0898,-25.46094 -2.2578,-1.96484 -2.2579,-1.9961 h -16.0781 v -3.45312 h 5.3125 v -4.14453 l -1.2734,-1.25 -1.2774,-1.25 H 1269.68 l -1.3828,-1.59375 -1.3789,-1.59375 h -12.1719 v -4.25391 h -4.9453 l -0.3164,-1.59375 -0.3477,-1.59375 h -3.4258 v -1.96875 c 0,-1.08984 -0.1328,-2.01953 -0.2695,-2.07031 -0.1562,-0.0547 -0.3711,-1.57031 -0.5039,-3.40235 l -0.2109,-3.32421 -0.055,5.37109 -0.027,5.36719 -0.7148,0.0781 c -0.6406,0.082 -0.7734,0.26563 -1.0899,1.59375 l -0.371,1.54297 h -5 v 4.25391 h -13.0196 v -3.45703 h -8.2383 v 3.45703 h -2.3945 v -3.45703 h -7.707 v 3.45703 h -8.7696 v 3.1875 h -2.0468 c -1.9102,0 -2.2852,0.10547 -4.7813,1.25 l -2.7383,1.22265 v 4.17188 h 7.1758 v 3.45312 h -22.9883 l -3.0039,1.9961 -2.9765,1.99218 v 10.09766 h -53.6836 v -1.62109 c 0,-1.4336 0.055,-1.59375 0.5078,-1.4336 0.3984,0.13282 0.6094,-0.16015 1.1953,-1.7539 0.3984,-1.0625 0.6094,-2.01953 0.5039,-2.12891 -0.3203,-0.31641 -3.2148,-1.46094 -26.8398,-10.70703 l -22.1133,-8.66406 H 1063 c -2.3398,0 -2.5234,-0.0547 -2.5234,-0.53125 0,-0.58594 -0.4258,-0.69141 -4.0118,-0.92969 l -2.3125,-0.1875 -0.4531,-1.16797 c -0.4258,-1.11719 -0.5039,-1.17187 -1.4609,-1.17187 -0.9063,0 -1.1719,-0.16016 -2.0469,-1.19532 l -0.9844,-1.19531 h -5.0742 l -0.7461,1.19531 c -1.2226,1.94141 -1.5156,1.64844 -1.5156,-1.53906 v -2.76562 l -4.0898,-1.22266 -4.1211,-1.25 h -8.211 l -2.207,-2.33594 -2.2305,-2.33984 -7.4961,-1.91406 -7.4687,-1.91407 h -5.8711 c -5.0508,0 -5.87502,-0.0508 -5.87502,-0.39843 0,-0.34375 -3.26562,-0.39844 -27.74219,-0.39844 H 938.8125 l -0.32031,0.79687 c -0.23828,0.5586 -0.50391,0.79688 -0.95703,0.79688 -0.60938,0 -0.63672,-0.0781 -0.63672,-1.99219 v -1.99219 h -7.44141 v 1.99219 c 0,1.80859 -0.0547,1.99219 -0.53125,1.99219 -0.47656,0 -0.53125,-0.1836 -0.53125,-1.99219 v -1.99219 h -7.17578 v 3.98438 h -14.75 l -1.59375,3.80078 c -1.46094,3.40234 -1.67578,3.77344 -2.3125,3.85547 -0.42578,0.0508 -0.79688,0.28906 -0.87891,0.60937 -0.13281,0.42578 -0.42187,0.50391 -1.67187,0.50391 -2.07422,0 -30.66797,1.30469 -30.72266,1.38281 -0.85156,1.41016 -0.95703,1.48828 -2.65625,1.8086 -0.95703,0.18359 -1.91406,0.44921 -2.125,0.63671 -0.6914,0.53125 -2.28906,4.625 -2.28906,5.89844 v 1.17188 h -28.16797 v 4.25 h 4.78125 v 10.36718 h -4.51562 v 2.39063 h -49.96485 v -1.85938 h 3.45703 v -15.14843 l -25.5664,-0.0547 -25.56641,-0.0781 -0.58594,-1.46093 -0.58203,-1.46485 -4.30469,-0.0781 -4.33203,-0.0781 -2.04687,-1.4375 c -1.91406,-1.35547 -2.17969,-1.46093 -3.5625,-1.46093 h -1.48828 v -1.4336 c 0,-0.77344 -0.13282,-1.78125 -0.29297,-2.26172 -0.26563,-0.76953 -0.3711,-0.82422 -1.69922,-0.82422 -1.51563,0 -1.72656,-0.21093 -1.72656,-1.91015 0,-0.39844 -0.1875,-0.82422 -0.39844,-0.9336 -0.32031,-0.18359 -0.42578,-1.32812 -0.61328,-5.79296 l -0.23828,-5.57813 z m 451.20316,220.12891 v 10.76172 h -52.086 v -6.88282 c 0,-6.42968 0.023,-6.88281 0.4766,-6.77734 0.293,0.10547 0.6133,-0.13281 0.9297,-0.66406 0.3711,-0.60938 0.4531,-1.41016 0.4531,-3.98438 v -3.21875 h 50.2266 z m 0,29.49609 v 0.93359 h -49.1641 v -1.86328 h 49.1641 z m 0,7.70703 v 2.26172 h -24.875 c -23.5977,0 -24.875,-0.0273 -24.6602,-0.48047 0.1055,-0.23828 0.2656,-1.25 0.3164,-2.25781 l 0.1094,-1.78125 h 49.1094 z m 0,9.30469 v 2.52344 l -8.2891,0.0547 -8.3203,0.0781 -0.2383,1.41016 -0.2383,1.40625 -1.3554,-0.0781 -1.3555,-0.082 -0.2383,-1.40625 -0.2422,-1.38281 h -11.0547 l -0.8515,2.92187 h -9.5391 v -7.17578 h -5.1836 c -4.4375,0 -5.1797,-0.0508 -5.1797,-0.39844 0,-0.34375 3.0821,-0.39843 26.043,-0.39843 h 26.043 z m -408.46878,89.29297 v 4.12109 h -86.90235 v 1.59375 h -68.03515 v -9.5664 l 18.01953,-0.082 c 9.88672,-0.0273 44.75391,-0.0781 77.46875,-0.13281 l 59.44922,-0.0508 z m -179.1211,0.92969 v 4.78515 h -3.98437 v -9.5664 h 3.98437 z m 0,0" fill="#f1d9a0"></path>
  </g>
  <g transform="translate(-17.839843,-17.839844)" id="g13" clip-path="url(#1de09c80b0)">
    <path id="path13" fill-rule="evenodd" fill-opacity="1" d="m 455.52734,362.25 c 183.92188,0 367.83985,0 551.75786,0 5.539,0 10.0273,2.98828 10.0273,6.67187 0,3.6836 -4.4883,6.66797 -10.0273,6.66797 -183.91801,0 -367.83598,0 -551.75786,0 -5.53515,0 -10.02734,-2.98437 -10.02734,-6.66797 0,-3.68359 4.49219,-6.67187 10.02734,-6.67187 z m 0,0" fill="#f1d9a0"></path>
  </g>
  <g transform="translate(-17.839843,-17.839844)" id="g14" clip-path="url(#c4645f0b92)">
    <path id="path14" fill-rule="evenodd" fill-opacity="1" d="m 950.54687,326.3125 c 9.59375,4.17578 88.31643,34.67578 88.64063,42.32812 0.3281,7.71485 -76.79688,47.35157 -87.74219,53.33985 -3.30859,1.61719 -7.30469,0.24219 -8.92187,-3.06641 -1.6211,-3.30469 -0.2461,-7.30078 3.0625,-8.92187 24.0625,-13.1836 47.35547,-27.125 71.32026,-40.21094 -24.00386,-9.90625 -47.84761,-20.85938 -71.60151,-31.19922 -3.38282,-1.44922 -4.95703,-5.36719 -3.51563,-8.75391 1.44922,-3.38671 5.36719,-4.96093 8.75781,-3.51953 z m 0,0" fill="#f1d9a0"></path>
  </g>
  <g transform="translate(-17.839843,-17.839844)" id="g15" clip-path="url(#107961a220)">
    <path id="path15" fill-rule="evenodd" fill-opacity="1" d="m 1029.4727,1098.7656 c -183.92192,0 -367.83989,0 -551.75786,0 -5.53906,0 -10.03125,2.9844 -10.03125,6.668 0,3.6875 4.49219,6.6719 10.03125,6.6719 183.91797,0 367.83594,0 551.75786,0 5.5351,0 10.0273,-2.9844 10.0273,-6.6719 0,-3.6836 -4.4922,-6.668 -10.0273,-6.668 z m 0,0" fill="#f1d9a0"></path>
  </g>
  <g transform="translate(-17.839843,-17.839844)" id="g16" clip-path="url(#827035b551)">
    <path id="path16" fill-rule="evenodd" fill-opacity="1" d="m 534.45312,1062.8281 c -9.59375,4.1719 -88.3164,34.6719 -88.64062,42.3242 -0.32813,7.7188 76.79687,47.3516 87.74219,53.3399 3.30859,1.6211 7.30468,0.2461 8.92187,-3.0625 1.6211,-3.3086 0.2461,-7.3047 -3.0625,-8.9258 -24.0625,-13.1836 -47.35547,-27.125 -71.32031,-40.2109 24.00391,-9.9024 47.84766,-20.8594 71.60156,-31.1992 3.38281,-1.4454 4.95703,-5.3633 3.51563,-8.754 -1.44922,-3.3867 -5.36719,-4.9609 -8.75782,-3.5156 z m 0,0" fill="#f1d9a0"></path>
  </g>
  <g transform="translate(-17.839843,-17.839844)" id="g17" clip-path="url(#9d7555d47a)">
    <path id="path17" fill-rule="nonzero" fill-opacity="1" d="M 72.128906,1033.1602 H 1413.1289 v 254.25 H 72.128906 Z m 0,0" fill="#f1d9a0"></path>
  </g>
  <g transform="translate(-17.839843,-17.839844)" id="g18" clip-path="url(#401264888b)">
    <path id="path18" fill-rule="nonzero" fill-opacity="1" d="M 98.054688,1057.7188 H 1387.3047 v 204.75 H 98.054688 Z m 0,0" fill="#b53620"></path>
  </g>
  <g transform="translate(-17.839843,-17.839844)" id="g21" fill-opacity="1" fill="#f1d9a0">
    <g id="g20" transform="translate(498.60668,1214.2886)">
      <g id="g19">
        <path id="path19" d="m 26.761719,-110.35547 c -12.828125,0 -19.863281,6.89453 -19.863281,19.863282 V -57.9375 c 0,2.621094 1.242187,4.277344 3.722656,5.105469 l 32.695312,10.757812 v 18.347657 c 0,3.722656 -1.933594,5.519531 -5.519531,5.519531 h -6.621094 c -3.449219,0 -5.519531,-1.796875 -5.519531,-5.519531 v -10.621094 c 0,-1.519532 -0.6875,-2.207032 -2.207031,-2.207032 H 9.105469 c -1.378907,0 -2.207031,0.6875 -2.207031,2.207032 v 14.484375 C 6.898438,-6.898438 13.933594,0 26.761719,0 h 15.449219 c 12.96875,0 19.863281,-6.898438 19.863281,-19.863281 v -31.867188 c 0,-2.621093 -1.238281,-4.136719 -3.585938,-5.101562 L 25.65625,-67.59375 v -19.035156 c 0,-3.589844 2.070312,-5.519532 5.519531,-5.519532 h 6.621094 c 3.726563,0 5.519531,1.929688 5.519531,5.519532 v 10.757812 c 0,1.378906 0.828125,2.207032 2.207032,2.207032 h 14.34375 c 1.519531,0 2.207031,-0.828126 2.207031,-2.207032 v -14.621094 c 0,-12.968752 -6.894531,-19.863282 -19.863281,-19.863282 z m 0,0"></path>
      </g>
    </g>
  </g>
  <g transform="translate(-17.839843,-17.839844)" id="g24" fill-opacity="1" fill="#f1d9a0">
    <g id="g23" transform="translate(581.36945,1214.2886)">
      <g id="g22">
        <path id="path21" d="m 46.625,-110.35547 c -1.515625,0 -2.757812,1.23828 -2.757812,2.75781 v 83.871098 c 0,3.722656 -1.929688,5.519531 -5.519532,5.519531 h -7.171875 c -3.585937,0 -5.519531,-1.796875 -5.519531,-5.519531 v -83.871098 c 0,-1.51953 -1.238281,-2.75781 -2.757812,-2.75781 H 9.65625 c -1.515625,0 -2.757812,1.23828 -2.757812,2.75781 v 87.734379 C 6.898438,-6.898438 13.792969,0 26.761719,0 h 15.449219 c 12.96875,0 19.863281,-6.898438 19.863281,-19.863281 v -87.734379 c 0,-1.51953 -1.238281,-2.75781 -2.757813,-2.75781 z m 0,0"></path>
      </g>
    </g>
  </g>
  <g transform="translate(-17.839843,-17.839844)" id="g27" fill-opacity="1" fill="#f1d9a0">
    <g id="g26" transform="translate(664.13221,1214.2886)">
      <g id="g25">
        <path id="path24" d="M 6.898438,-2.207031 C 6.898438,-0.828125 7.726562,0 9.105469,0 h 14.34375 C 24.96875,0 25.65625,-0.828125 25.65625,-2.207031 V -36.96875 h 16.554688 c 12.96875,0 19.863281,-7.035156 19.863281,-19.863281 v -33.660157 c 0,-12.968752 -6.894531,-19.863282 -19.863281,-19.863282 H 9.105469 c -1.378907,0 -2.207031,0.82422 -2.207031,2.20703 z M 25.65625,-55.179688 v -36.96875 h 12.140625 c 3.726563,0 5.519531,1.929688 5.519531,5.519532 v 25.933594 c 0,3.449218 -1.792968,5.515624 -5.519531,5.515624 z m 0,0"></path>
      </g>
    </g>
  </g>
  <g transform="translate(-17.839843,-17.839844)" id="g30" fill-opacity="1" fill="#f1d9a0">
    <g id="g29" transform="translate(746.89499,1214.2886)">
      <g id="g28">
        <path id="path27" d="M 6.898438,-2.207031 C 6.898438,-0.828125 7.726562,0 9.105469,0 h 14.34375 C 24.96875,0 25.65625,-0.828125 25.65625,-2.207031 V -36.96875 h 16.554688 c 12.96875,0 19.863281,-7.035156 19.863281,-19.863281 v -33.660157 c 0,-12.968752 -6.894531,-19.863282 -19.863281,-19.863282 H 9.105469 c -1.378907,0 -2.207031,0.82422 -2.207031,2.20703 z M 25.65625,-55.179688 v -36.96875 h 12.140625 c 3.726563,0 5.519531,1.929688 5.519531,5.519532 v 25.933594 c 0,3.449218 -1.792968,5.515624 -5.519531,5.515624 z m 0,0"></path>
      </g>
    </g>
  </g>
  <g transform="translate(-17.839843,-17.839844)" id="g33" fill-opacity="1" fill="#f1d9a0">
    <g id="g32" transform="translate(829.65775,1214.2886)">
      <g id="g31">
        <path id="path30" d="m 25.65625,-18.207031 h 32.832031 c 1.519531,0 2.207031,0.824219 2.207031,2.207031 V -2.207031 C 60.695312,-0.691406 60.007812,0 58.488281,0 H 9.105469 C 7.726562,0 6.898438,-0.691406 6.898438,-2.207031 V -108.14844 c 0,-1.38281 0.828124,-2.20703 2.207031,-2.20703 h 14.34375 c 1.519531,0 2.207031,0.82422 2.207031,2.20703 z m 0,0"></path>
      </g>
    </g>
  </g>
  <g transform="translate(-17.839843,-17.839844)" id="g36" fill-opacity="1" fill="#f1d9a0">
    <g id="g35" transform="translate(911.04114,1214.2886)">
      <g id="g34">
        <path id="path33" d="m 56.28125,-110.35547 c -1.65625,0 -2.621094,0.6875 -3.171875,2.20703 L 37.660156,-68.558594 22.210938,-108.14844 c -0.554688,-1.51953 -1.519532,-2.20703 -3.175782,-2.20703 H 5.242188 c -2.070313,0 -3.035157,1.23828 -2.207032,3.17188 l 25.242188,61.386715 V -2.757812 C 28.277344,-0.964844 29.246094,0 31.039062,0 H 44.28125 c 1.792969,0 2.757812,-0.964844 2.757812,-2.757812 v -43.039063 l 25.246094,-61.386715 c 0.828125,-1.9336 -0.140625,-3.17188 -2.207031,-3.17188 z m 0,0"></path>
      </g>
    </g>
  </g>
</svg>
