<svg xmlns="http://www.w3.org/2000/svg" id="svg69" version="1.0" preserveAspectRatio="xMidYMid" height="1932.0001" viewBox="0 0 1449 1449" zoomAndPan="magnify" width="1932">
  
  <defs id="defs5">
    <clipPath id="14cef71288">
      <path id="path1" clip-rule="nonzero" d="M 17.839844,17.839844 H 1466.8398 V 1466.8398 H 17.839844 Z m 0,0"></path>
    </clipPath>
    <clipPath id="0107ee1373">
      <path id="path2" clip-rule="nonzero" d="M 37.878906,39.867188 H 1447.1289 V 1449.1172 H 37.878906 Z m 0,0"></path>
    </clipPath>
    <clipPath id="42d8a60605">
      <path id="path3" clip-rule="nonzero" d="M 44.746094,1124.2148 H 1440.4961 v 264 H 44.746094 Z m 0,0"></path>
    </clipPath>
    <clipPath id="2348f2b98e">
      <path id="path4" clip-rule="nonzero" d="M 71.726562,1149.7773 H 1413.4766 v 213 H 71.726562 Z m 0,0"></path>
    </clipPath>
    <clipPath id="101d92a4a0">
      <path id="path5" clip-rule="nonzero" d="m 433.32031,714 h 617.99999 v 410.25 H 433.32031 Z m 0,0"></path>
    </clipPath>
  </defs>
  <g transform="translate(-17.839843,-17.839844)" id="g6" clip-path="url(#14cef71288)">
    <path id="path6" fill-rule="nonzero" fill-opacity="1" d="m 1467.1563,742.5 c 0,11.85937 -0.2891,23.71094 -0.8711,35.55469 -0.5821,11.84765 -1.4571,23.67187 -2.6172,35.47265 -1.1641,11.80078 -2.6133,23.57032 -4.3555,35.30078 -1.7383,11.73047 -3.7656,23.41407 -6.082,35.04297 -2.3125,11.63282 -4.9102,23.19922 -7.793,34.70313 -2.8789,11.5039 -6.043,22.93359 -9.4844,34.28125 -3.4453,11.34765 -7.164,22.60547 -11.1562,33.77344 -3.9961,11.16406 -8.2656,22.22659 -12.8008,33.18359 -4.5391,10.957 -9.3438,21.7969 -14.4141,32.5156 -5.0703,10.7227 -10.4023,21.3125 -15.9922,31.7696 -5.5898,10.4609 -11.4335,20.7773 -17.5312,30.9492 -6.0977,10.1719 -12.4414,20.1875 -19.0313,30.0508 -6.5859,9.8593 -13.414,19.5546 -20.4804,29.0781 -7.0625,9.5273 -14.3555,18.875 -21.8789,28.039 -7.5235,9.168 -15.2696,18.1485 -23.2344,26.9336 -7.9648,8.7891 -16.1406,17.375 -24.5234,25.7618 -8.3868,8.3828 -16.9727,16.5586 -25.7618,24.5234 -8.7851,7.9648 -17.7656,15.7109 -26.9336,23.2344 -9.1679,7.5234 -18.5117,14.8164 -28.039,21.8789 -9.5235,7.0664 -19.2188,13.8945 -29.0781,20.4804 -9.8633,6.5899 -19.8789,12.9336 -30.0508,19.0313 -10.1719,6.0977 -20.4883,11.9414 -30.9492,17.5312 -10.4571,5.5899 -21.0469,10.9219 -31.7696,15.9922 -10.7187,5.0703 -21.5586,9.875 -32.5156,14.4141 -10.957,4.5391 -22.01953,8.8047 -33.18359,12.8008 -11.16797,3.9922 -22.42579,7.7148 -33.77344,11.1562 -11.34766,3.4414 -22.77735,6.6055 -34.28125,9.4844 -11.50391,2.8828 -23.07031,5.4805 -34.70313,7.793 -11.63281,2.3164 -23.3125,4.3437 -35.04297,6.082 -11.73046,1.7422 -23.5,3.1914 -35.30078,4.3555 -11.80468,1.1601 -23.625,2.0351 -35.47265,2.6172 -11.84375,0.582 -23.69532,0.8711 -35.55469,0.8711 -11.86328,0 -23.71484,-0.2891 -35.55859,-0.8711 -11.84766,-0.5821 -23.66797,-1.4571 -35.47266,-2.6172 -11.80078,-1.1641 -23.57031,-2.6133 -35.30078,-4.3555 -11.73047,-1.7383 -23.41016,-3.7656 -35.04297,-6.082 -11.63281,-2.3125 -23.19922,-4.9102 -34.70313,-7.793 -11.5039,-2.8789 -22.93359,-6.043 -34.28125,-9.4844 -11.34765,-3.4414 -22.60546,-7.164 -33.77343,-11.1562 -11.16407,-3.9961 -22.22657,-8.2617 -33.1836,-12.8008 -10.95703,-4.5391 -21.79687,-9.3438 -32.51562,-14.4141 -10.72266,-5.0703 -21.3125,-10.4023 -31.76953,-15.9922 -10.46094,-5.5898 -20.77735,-11.4335 -30.94922,-17.5312 -10.17188,-6.0977 -20.1875,-12.4414 -30.05078,-19.0313 -9.85938,-6.5859 -19.55469,-13.414 -29.07813,-20.4804 -9.52734,-7.0625 -18.87109,-14.3555 -28.03906,-21.8789 -9.16797,-7.5235 -18.14453,-15.2696 -26.93359,-23.2344 -8.78907,-7.9648 -17.375,-16.1406 -25.76172,-24.5234 -8.38282,-8.3868 -16.5586,-16.9727 -24.52344,-25.7618 -7.96484,-8.7851 -15.71094,-17.7656 -23.23438,-26.9336 -7.52343,-9.1679 -14.8164,-18.5117 -21.8789,-28.039 -7.06641,-9.5235 -13.89453,-19.2188 -20.48047,-29.0781 -6.58984,-9.8633 -12.93359,-19.8789 -19.03125,-30.0508 -6.09766,-10.1719 -11.94141,-20.4883 -17.53125,-30.9492 -5.589844,-10.4571 -10.921875,-21.0469 -15.992188,-31.7696 -5.070312,-10.7187 -9.875,-21.5586 -14.414062,-32.5156 -4.539062,-10.957 -8.804688,-22.01953 -12.800781,-33.18359 -3.992188,-11.16797 -7.714844,-22.42579 -11.15625,-33.77344 -3.441407,-11.34766 -6.605469,-22.77735 -9.484375,-34.28125 -2.882813,-11.50391 -5.480469,-23.07031 -7.792969,-34.70313 -2.316406,-11.63281 -4.34375,-23.3125 -6.082031,-35.04297 -1.742188,-11.73046 -3.191406,-23.5 -4.355469,-35.30078 -1.160156,-11.80078 -2.035156,-23.625 -2.613281,-35.47265 -0.582032,-11.84375 -0.875,-23.69532 -0.875,-35.55469 0,-11.86328 0.292968,-23.71484 0.875,-35.55859 0.578125,-11.84766 1.453125,-23.66797 2.613281,-35.47266 1.164063,-11.80078 2.613281,-23.57031 4.355469,-35.30078 1.738281,-11.73047 3.765625,-23.41016 6.082031,-35.04297 2.3125,-11.63281 4.910156,-23.19922 7.792969,-34.70313 2.878906,-11.5039 6.042968,-22.93359 9.484375,-34.28125 3.441406,-11.34765 7.164062,-22.60546 11.15625,-33.77343 3.996093,-11.16407 8.261719,-22.22657 12.800781,-33.1836 4.539062,-10.95703 9.34375,-21.79687 14.414062,-32.51562 5.070313,-10.72266 10.402344,-21.3125 15.992188,-31.76953 5.58984,-10.46094 11.43359,-20.77735 17.53125,-30.94922 6.09766,-10.17188 12.44141,-20.1875 19.03125,-30.05078 6.58594,-9.85938 13.41406,-19.55469 20.48047,-29.07813 7.0625,-9.52734 14.35547,-18.87109 21.8789,-28.03906 7.52344,-9.16797 15.26954,-18.14453 23.23438,-26.93359 7.96484,-8.78907 16.14062,-17.375 24.52344,-25.76172 8.38672,-8.38282 16.97265,-16.5586 25.76172,-24.52344 8.78906,-7.96484 17.76562,-15.70703 26.93359,-23.23438 9.16797,-7.52343 18.51172,-14.8164 28.03906,-21.8789 9.52344,-7.06641 19.21875,-13.89453 29.07813,-20.48047 9.86328,-6.58984 19.8789,-12.93359 30.05078,-19.03125 10.17187,-6.09766 20.48828,-11.94141 30.94922,-17.53125 10.45703,-5.589844 21.04687,-10.921875 31.76953,-15.992188 10.71875,-5.070312 21.55859,-9.875 32.51562,-14.414062 10.95703,-4.535156 22.01953,-8.804688 33.1836,-12.800781 11.16797,-3.992188 22.42578,-7.714844 33.77343,-11.15625 11.34766,-3.441407 22.77735,-6.605469 34.28125,-9.484375 11.50391,-2.882813 23.07032,-5.480469 34.70313,-7.792969 11.63281,-2.316406 23.3125,-4.34375 35.04297,-6.082031 11.73047,-1.742188 23.5,-3.191406 35.30078,-4.355469 11.80469,-1.160156 23.625,-2.03125 35.47266,-2.613281 11.84375,-0.582032 23.69531,-0.875 35.55859,-0.875 11.85937,0 23.71094,0.292968 35.55469,0.875 11.84765,0.582031 23.66797,1.453125 35.47265,2.613281 11.80078,1.164063 23.57032,2.613281 35.30078,4.355469 11.73047,1.738281 23.41016,3.765625 35.04297,6.082031 11.63282,2.3125 23.19922,4.910156 34.70313,7.792969 11.5039,2.878906 22.93359,6.042968 34.28125,9.484375 11.34765,3.441406 22.60547,7.164062 33.77344,11.15625 11.16406,3.996093 22.22659,8.265625 33.18359,12.800781 10.957,4.539062 21.7969,9.34375 32.5156,14.414062 10.7227,5.070313 21.3125,10.402344 31.7735,15.992188 10.457,5.58984 20.7734,11.43359 30.9453,17.53125 10.1719,6.09766 20.1875,12.44141 30.0508,19.03125 9.8593,6.58594 19.5546,13.41406 29.0781,20.48047 9.5273,7.0625 18.8711,14.35547 28.039,21.8789 9.168,7.52735 18.1485,15.26954 26.9336,23.23438 8.7891,7.96484 17.375,16.14062 25.7618,24.52344 8.3828,8.38672 16.5586,16.97265 24.5234,25.76172 7.9648,8.78906 15.7109,17.76562 23.2344,26.93359 7.5234,9.16797 14.8164,18.51172 21.8828,28.03906 7.0625,9.52344 13.8906,19.21875 20.4765,29.07813 6.5899,9.86328 12.9336,19.8789 19.0313,30.05078 6.0977,10.17187 11.9414,20.48828 17.5312,30.94922 5.5899,10.45703 10.9219,21.04687 15.9922,31.76953 5.0703,10.71875 9.875,21.55859 14.4141,32.51562 4.5352,10.95703 8.8047,22.01953 12.8008,33.1836 3.9922,11.16797 7.7148,22.42578 11.1562,33.77343 3.4414,11.34766 6.6055,22.77735 9.4844,34.28125 2.8828,11.50391 5.4805,23.07032 7.793,34.70313 2.3164,11.63281 4.3437,23.3125 6.082,35.04297 1.7422,11.73047 3.1914,23.5 4.3555,35.30078 1.1601,11.80469 2.0351,23.625 2.6172,35.47266 0.582,11.84375 0.8711,23.69531 0.8711,35.55859 z m 0,0" fill="#f1d9a0"></path>
  </g>
  <g transform="translate(-17.839843,-17.839844)" id="g7" clip-path="url(#0107ee1373)">
    <path id="path7" fill-rule="nonzero" fill-opacity="1" d="m 1447.1172,744.48828 c 0,11.53125 -0.2813,23.05469 -0.8477,34.57422 -0.5664,11.51562 -1.414,23.01172 -2.5468,34.48828 -1.1289,11.47656 -2.5391,22.91797 -4.2305,34.32422 -1.6953,11.40625 -3.6641,22.76562 -5.9141,34.07812 -2.25,11.3086 -4.7773,22.55469 -7.5781,33.74219 -2.8008,11.1875 -5.875,22.29688 -9.2227,33.33203 -3.3476,11.03516 -6.9648,21.98047 -10.8515,32.83985 -3.8828,10.85547 -8.0313,21.61331 -12.4453,32.26561 -4.4141,10.6524 -9.086,21.1953 -14.0157,31.6172 -4.9296,10.4258 -10.1132,20.7227 -15.5468,30.8906 -5.4375,10.1719 -11.1211,20.2032 -17.0469,30.0938 -5.9297,9.8906 -12.0977,19.6289 -18.5039,29.2187 -6.4063,9.586 -13.043,19.0117 -19.9141,28.2735 -6.8711,9.2656 -13.9609,18.3515 -21.2773,27.2656 -7.3164,8.9141 -14.8438,17.6445 -22.5899,26.1875 -7.7421,8.5469 -15.6914,16.8945 -23.8476,25.0469 -8.1524,8.1562 -16.5039,16.1054 -25.0469,23.8476 -8.543,7.7461 -17.2734,15.2735 -26.1875,22.5899 -8.9141,7.3164 -18.0039,14.4101 -27.2656,21.2773 -9.2617,6.8711 -18.6875,13.5078 -28.2735,19.9141 -9.5898,6.4062 -19.3281,12.5742 -29.2187,18.5039 -9.8945,5.9297 -19.9219,11.6094 -30.0938,17.0469 -10.1679,5.4335 -20.4648,10.6171 -30.8906,15.5507 -10.4258,4.9297 -20.9648,9.6016 -31.6172,14.0118 -10.6562,4.414 -21.41013,8.5625 -32.2695,12.4492 -10.85547,3.8828 -21.80078,7.5 -32.83594,10.8476 -11.03515,3.3477 -22.14844,6.4219 -33.33203,9.2227 -11.1875,2.8047 -22.43359,5.3281 -33.74609,7.5781 -11.3086,2.25 -22.66797,4.2227 -34.07422,5.9141 -11.40625,1.6914 -22.84766,3.1015 -34.32422,4.2343 -11.47656,1.129 -22.97266,1.9766 -34.49219,2.543 -11.51562,0.5664 -23.03906,0.8477 -34.57422,0.8477 -11.53125,0 -23.05468,-0.2813 -34.57031,-0.8477 -11.51953,-0.5664 -23.01562,-1.414 -34.49219,-2.543 -11.47656,-1.1328 -22.91797,-2.5429 -34.32422,-4.2343 -11.40625,-1.6914 -22.76562,-3.6641 -34.07421,-5.9141 -11.3125,-2.25 -22.5586,-4.7734 -33.7461,-7.5781 -11.1875,-2.8008 -22.29687,-5.875 -33.33203,-9.2227 -11.03516,-3.3476 -21.98047,-6.9648 -32.83984,-10.8476 -10.85547,-3.8867 -21.61328,-8.0352 -32.26563,-12.4492 -10.65234,-4.4102 -21.1914,-9.0821 -31.61719,-14.0118 -10.42578,-4.9336 -20.72265,-10.1172 -30.89062,-15.5507 -10.17188,-5.4375 -20.20313,-11.1172 -30.09375,-17.0469 -9.89063,-5.9297 -19.62891,-12.0977 -29.21875,-18.5039 -9.58594,-6.4063 -19.01172,-13.043 -28.27344,-19.9141 -9.26172,-6.8672 -18.35156,-13.9609 -27.26562,-21.2773 -8.91407,-7.3164 -17.64453,-14.8438 -26.1875,-22.5899 -8.54297,-7.7422 -16.89453,-15.6914 -25.04688,-23.8476 -8.15625,-8.1524 -16.10547,-16.5 -23.84765,-25.0469 -7.7461,-8.543 -15.27344,-17.2734 -22.58985,-26.1875 -7.3164,-8.9141 -14.41015,-18 -21.27734,-27.2656 -6.8711,-9.2618 -13.50781,-18.6875 -19.91406,-28.2735 -6.40625,-9.5898 -12.57422,-19.3281 -18.50391,-29.2187 -5.92578,-9.8906 -11.60937,-19.9219 -17.04687,-30.0938 -5.4336,-10.1679 -10.61719,-20.4648 -15.54688,-30.8906 -4.93359,-10.4258 -9.605469,-20.9648 -14.015625,-31.6172 -4.414063,-10.6523 -8.5625,-21.41014 -12.449219,-32.26561 -3.882812,-10.85938 -7.5,-21.80469 -10.847656,-32.83985 -3.347656,-11.03515 -6.421875,-22.14453 -9.222656,-33.33203 -2.804688,-11.1875 -5.328125,-22.43359 -7.578125,-33.74219 -2.25,-11.3125 -4.222657,-22.67187 -5.914063,-34.07812 -1.691406,-11.40625 -3.101562,-22.84766 -4.230468,-34.32422 -1.132813,-11.47656 -1.980469,-22.97266 -2.546876,-34.48828 -0.566406,-11.51953 -0.847656,-23.04297 -0.847656,-34.57422 0,-11.53125 0.28125,-23.05859 0.847656,-34.57422 0.566407,-11.51953 1.414063,-23.01562 2.546876,-34.49219 1.128906,-11.47656 2.539062,-22.91796 4.230468,-34.32421 1.691406,-11.40625 3.664063,-22.76563 5.914063,-34.07422 2.25,-11.3125 4.777343,-22.5586 7.578125,-33.7461 2.800781,-11.18359 5.875,-22.29687 9.222656,-33.33203 3.347656,-11.03515 6.964844,-21.98047 10.847656,-32.83594 3.886719,-10.85937 8.035156,-21.61328 12.449219,-32.26953 4.410156,-10.65234 9.082035,-21.1914 14.015625,-31.61718 4.92969,-10.42188 10.11328,-20.71875 15.54688,-30.89063 5.4375,-10.17187 11.12109,-20.19922 17.04687,-30.08984 5.92969,-9.89453 12.09766,-19.63282 18.50391,-29.21875 6.40625,-9.58985 13.04296,-19.01563 19.91406,-28.27735 6.86719,-9.26172 13.96094,-18.35156 21.27734,-27.26562 7.31641,-8.91406 14.84375,-17.64063 22.58985,-26.1875 7.74218,-8.54297 15.6914,-16.89453 23.84765,-25.04688 8.15235,-8.15234 16.50391,-16.10156 25.04688,-23.84765 8.54297,-7.74219 17.27343,-15.27344 26.1875,-22.58985 8.91406,-7.3164 18.0039,-14.40625 27.26562,-21.27734 9.26172,-6.86719 18.6875,-13.50781 28.27344,-19.91406 9.58984,-6.40625 19.32812,-12.57422 29.21875,-18.50391 9.89062,-5.92578 19.92187,-11.60937 30.09375,-17.04297 10.16797,-5.4375 20.46484,-10.62109 30.89062,-15.55078 10.42579,-4.92969 20.96485,-9.601561 31.61719,-14.015624 10.65235,-4.414062 21.41016,-8.5625 32.26563,-12.445312 10.85937,-3.886719 21.80468,-7.503906 32.83984,-10.851563 11.03516,-3.347656 22.14453,-6.421875 33.33203,-9.222656 11.1875,-2.800781 22.4336,-5.328125 33.7461,-7.578125 11.30859,-2.25 22.66796,-4.21875 34.07421,-5.910156 11.40625,-1.695313 22.84766,-3.105469 34.32422,-4.234375 11.47657,-1.132813 22.97266,-1.980469 34.49219,-2.542969 11.51563,-0.566406 23.03906,-0.851562 34.57031,-0.851562 11.53516,0 23.0586,0.285156 34.57422,0.851562 11.51953,0.5625 23.01563,1.410156 34.49219,2.542969 11.47656,1.128906 22.91797,2.539062 34.32422,4.234375 11.40625,1.691406 22.76562,3.660156 34.07422,5.910156 11.3125,2.25 22.55859,4.777344 33.74609,7.578125 11.18359,2.800781 22.29688,5.875 33.33203,9.222656 11.03516,3.347657 21.98047,6.964844 32.83594,10.851563 10.85937,3.882812 21.6133,8.03125 32.2695,12.445312 10.6524,4.414063 21.1914,9.085934 31.6172,14.015624 10.4258,4.92969 20.7227,10.11328 30.8906,15.55078 10.1719,5.4336 20.1993,11.11719 30.0938,17.04297 9.8906,5.92969 19.6289,12.09766 29.2187,18.50391 9.586,6.40625 19.0118,13.04687 28.2735,19.91406 9.2617,6.87109 18.3515,13.96094 27.2656,21.27734 8.9141,7.31641 17.6445,14.84766 26.1875,22.58985 8.543,7.74609 16.8945,15.69531 25.0469,23.84765 8.1562,8.15235 16.1055,16.50391 23.8476,25.04688 7.7461,8.54687 15.2735,17.27344 22.5899,26.1875 7.3164,8.91406 14.4062,18.0039 21.2773,27.26562 6.8711,9.26172 13.5078,18.6875 19.9141,28.27735 6.4062,9.58593 12.5742,19.32422 18.5039,29.21875 5.9258,9.89062 11.6094,19.91797 17.0469,30.08984 5.4336,10.16797 10.6172,20.46875 15.5468,30.89063 4.9297,10.42578 9.6016,20.96484 14.0157,31.61718 4.414,10.65625 8.5625,21.41016 12.4453,32.26953 3.8867,10.85547 7.5039,21.80079 10.8515,32.83594 3.3477,11.03516 6.4219,22.14844 9.2227,33.33203 2.8008,11.1875 5.3281,22.4336 7.5781,33.7461 2.25,11.30859 4.2188,22.66797 5.9141,34.07422 1.6914,11.40625 3.1016,22.84765 4.2305,34.32421 1.1328,11.47657 1.9804,22.97266 2.5468,34.49219 0.5664,11.51563 0.8477,23.04297 0.8477,34.57422 z m 0,0" fill="#b53620"></path>
  </g>
  <g transform="translate(-17.839843,-17.839844)" id="g8" clip-path="url(#42d8a60605)">
    <path id="path8" fill-rule="nonzero" fill-opacity="1" d="M 44.746094,1124.2148 H 1440.4961 v 264 H 44.746094 Z m 0,0" fill="#f1d9a0"></path>
  </g>
  <g transform="translate(-17.839843,-17.839844)" id="g9" clip-path="url(#2348f2b98e)">
    <path id="path9" fill-rule="nonzero" fill-opacity="1" d="M 71.726562,1149.7773 H 1413.4766 v 213 H 71.726562 Z m 0,0" fill="#b53620"></path>
  </g>
  <path id="path10" fill-rule="nonzero" fill-opacity="1" d="M 656.3125,616.13282 H 774.55078 V 760.35547 H 656.3125 Z m 0,0" fill="#f1d9a0"></path>
  <path id="path11" fill-rule="nonzero" fill-opacity="1" d="m 802.125,718.89063 -14.48437,-19.04297 -4.5625,-5.95313 c -1.38672,-1.78515 -4.36328,-2.17968 -6.14844,-0.39453 l -52.17578,47.01563 c -0.39453,0.39844 -0.59375,0.59375 -0.79297,0.99219 0,0.19921 -0.19922,0.19921 -0.19922,0.39843 0,-0.19922 0,-0.19922 -0.19531,-0.39843 -0.19922,-0.39844 -0.59766,-0.59375 -0.79297,-0.99219 l -66.26172,-50.38672 c -1.98437,-1.39063 -4.95703,-0.99219 -6.14844,0.98828 l -3.96875,6.35156 L 633.5,717.70313 c -0.79297,1.1875 -0.79297,2.3789 0,3.57031 l 86.29688,292.01566 h 47.60937 l 34.91797,-290.82425 c 0.59375,-1.19141 0.59375,-2.38282 -0.19922,-3.57422 z m 0,0" fill="#b53620"></path>
  <g transform="translate(-17.839843,-17.839844)" id="g12" clip-path="url(#101d92a4a0)">
    <path id="path12" fill-rule="nonzero" fill-opacity="1" d="m 984.81641,803.58594 c -1.1875,-5.15625 -5.15625,-9.125 -10.11719,-10.91016 0,0 -0.19531,0 -0.19531,0 L 802.90234,714.51172 785.64453,936.89844 762.03516,818.06641 766.79687,797.23828 772.75,770.85156 c 1.19141,-6.14844 -2.57813,-11.90234 -7.53906,-11.70312 l -44.4375,2.57812 c -3.96875,0.19922 -6.7461,5.16016 -5.35547,10.31641 l 9.32422,29.35937 5.7539,18.25391 -6.15234,129.14453 -59.71094,-234.28906 -173.98047,79.35547 c -0.19922,0.19531 -0.59375,0.19531 -0.79297,0.19531 -4.96093,2.18359 -8.53125,6.35156 -9.32421,11.50781 L 433.32031,1124.168 h 618.35159 z m 0,0" fill="#f1d9a0"></path>
  </g>
  <path id="path13" fill-rule="nonzero" fill-opacity="1" d="m 723.56641,741.10938 -19.83984,36.89844 -12.89454,24.0039 -32.33593,-43.24609 -25.39063,-41.0625 c -0.59765,-1.19141 -0.59765,-2.38281 0,-3.57031 L 646,693.89453 l 3.96485,-6.34765 c 1.1914,-1.98438 4.16797,-2.37891 6.15234,-0.99219 l 66.25781,50.39063 c 0.39844,0.19921 0.59375,0.59375 0.79297,0.99218 0.99219,0.79297 0.99219,2.17969 0.39844,3.17188 z m 0,0" fill="#b53620"></path>
  <path id="path14" fill-rule="nonzero" fill-opacity="1" d="M 802.32422,718.89063 780.5,761.74219 l -19.04297,37.09766 -15.87109,-24.59766 -21.625,-33.52734 c -0.59375,-0.99219 -0.79297,-2.38282 -0.19922,-3.375 0.19922,-0.39453 0.39844,-0.79297 0.79688,-0.98828 l 52.17187,-47.01954 c 1.78516,-1.58593 4.76172,-1.38671 6.15235,0.39844 l 4.5625,5.95313 14.48046,19.04297 c 0.99219,1.58593 0.99219,2.97656 0.39844,4.16406 z m 0,0" fill="#b53620"></path>
  <path id="path15" fill-rule="nonzero" fill-opacity="1" d="M 570.41407,731.39063 646.79297,696.47657 744,1076.7696 559.50391,767.09766 l 44.4375,-19.83594 z m 0,0" fill="#f1d9a0"></path>
  <path id="path16" fill-rule="nonzero" fill-opacity="1" d="M 865.60547,733.375 785.0625,696.47657 755.50391,1076.7696 877.70703,767.09766 833.26953,747.26172 Z m 0,0" fill="#f1d9a0"></path>
  <path id="path17" fill-rule="nonzero" fill-opacity="1" d="m 903.29688,928.1836 -53.16406,6.14843 c -2.38282,0.19922 -4.36719,-1.1875 -4.5625,-2.97265 L 845.3711,929.375 c -0.19922,-1.78515 1.58593,-3.375 3.96875,-3.57031 l 53.16406,-6.15234 c 2.38281,-0.19922 4.36328,1.1914 4.5625,2.97656 l 0.19922,1.98437 c 0,1.78516 -1.78516,3.3711 -3.96875,3.57032 z m 0,0" fill="#f1d9a0"></path>
  <path id="path18" fill-rule="nonzero" fill-opacity="1" d="m 528.35938,361.8086 -53.76172,121.60547 c -3.17188,8.73046 -4.96094,20.03515 -4.96094,31.9414 v 146.60156 c 0,15.27344 4.76172,27.57422 10.91406,27.57422 l 43.04688,12.5 z m 0,0" fill="#f1d9a0"></path>
  <path id="path19" fill-rule="nonzero" fill-opacity="1" d="m 753.21485,347.40235 -7.29688,-4.41797 109.83594,-181.41016 7.29687,4.41797 z m 0,0" fill="#f1d9a0"></path>
  <path id="path20" fill-rule="nonzero" fill-opacity="1" d="m 871.07032,145.22266 c 0.54687,0.35156 1.03906,0.78125 1.46875,1.29297 0.42968,0.51172 0.79687,1.09375 1.09375,1.74609 0.29687,0.65235 0.51953,1.35938 0.67187,2.12891 0.15234,0.76562 0.23047,1.57812 0.23047,2.42969 0,0.85156 -0.0742,1.73437 -0.22266,2.64062 -0.15234,0.90625 -0.375,1.82031 -0.67187,2.74609 -0.29688,0.92579 -0.66016,1.84375 -1.08985,2.75 -0.42968,0.90625 -0.91796,1.78907 -1.46484,2.64454 -0.54687,0.85546 -1.14453,1.67187 -1.78516,2.4414 -0.64453,0.76953 -1.32421,1.48438 -2.04296,2.14063 -0.71485,0.65625 -1.45313,1.24218 -2.21094,1.76172 -0.76172,0.51562 -1.52735,0.95312 -2.30469,1.30859 -0.77344,0.35547 -1.54297,0.62891 -2.30469,0.8125 -0.75781,0.18359 -1.49609,0.27734 -2.21484,0.27734 -0.71484,0.004 -1.39453,-0.082 -2.03906,-0.25781 -0.64453,-0.17969 -1.24219,-0.44141 -1.79297,-0.79297 -0.54688,-0.35156 -1.03906,-0.78125 -1.46875,-1.29297 -0.42969,-0.51172 -0.79688,-1.09375 -1.09375,-1.74609 -0.29688,-0.65234 -0.51953,-1.35938 -0.67188,-2.12891 -0.15234,-0.76562 -0.23047,-1.57812 -0.23047,-2.42968 0,-0.85547 0.0742,-1.73438 0.22657,-2.64063 0.14843,-0.90625 0.37109,-1.82031 0.66797,-2.74609 0.29687,-0.92578 0.66015,-1.84375 1.08984,-2.75 0.42969,-0.91016 0.91797,-1.78907 1.46484,-2.64453 0.54688,-0.85938 1.14453,-1.67188 1.78907,-2.44141 0.64062,-0.76953 1.32031,-1.48438 2.03906,-2.14063 0.71484,-0.65625 1.45312,-1.24218 2.21094,-1.76171 0.76171,-0.51563 1.53125,-0.95313 2.30468,-1.3086 0.77344,-0.35937 1.54297,-0.6289 2.30469,-0.8125 0.75781,-0.18359 1.49609,-0.27734 2.21484,-0.28125 0.71485,0 1.39454,0.0859 2.03907,0.26172 0.64453,0.17969 1.24218,0.44141 1.79297,0.79297 z m 0,0" fill="#f1d9a0"></path>
  <path id="path21" fill-rule="nonzero" fill-opacity="1" d="m 669.40625,156.6836 7.53907,-3.57032 45.6289,95.61719 45.625,95.6211 -3.76953,1.78515 -3.76562,1.98438 -45.62891,-95.82032 z m 0,0" fill="#f1d9a0"></path>
  <path id="path22" fill-rule="nonzero" fill-opacity="1" d="m 679.46094,144.89063 c 0.41797,0.92969 0.76953,1.87109 1.05859,2.83203 0.29297,0.96484 0.51563,1.92187 0.67188,2.88281 0.15234,0.95703 0.23828,1.89844 0.25391,2.81641 0.0117,0.91797 -0.043,1.80078 -0.17188,2.64453 -0.125,0.84375 -0.32031,1.63281 -0.58594,2.37109 -0.26562,0.73438 -0.58984,1.40235 -0.98047,2.00391 -0.39062,0.60156 -0.83984,1.12109 -1.33984,1.5625 -0.50391,0.44141 -1.05078,0.79687 -1.64844,1.0625 -0.59375,0.26562 -1.22265,0.4375 -1.88672,0.51562 -0.66406,0.082 -1.35156,0.0664 -2.05859,-0.043 -0.70703,-0.10938 -1.42187,-0.3125 -2.14844,-0.60547 -0.72265,-0.29688 -1.44531,-0.67578 -2.15625,-1.14453 -0.71484,-0.46875 -1.41015,-1.01563 -2.08203,-1.63672 -0.67578,-0.625 -1.32031,-1.3125 -1.92969,-2.07032 -0.60937,-0.7539 -1.17578,-1.5625 -1.69921,-2.41796 -0.52344,-0.85938 -0.99219,-1.75 -1.40625,-2.67969 -0.41407,-0.92578 -0.76563,-1.8711 -1.0586,-2.83203 -0.28906,-0.96094 -0.51172,-1.92188 -0.66797,-2.88282 -0.15625,-0.95703 -0.24218,-1.89453 -0.2539,-2.8164 -0.0156,-0.91797 0.0391,-1.80078 0.16797,-2.64453 0.1289,-0.84375 0.32421,-1.63282 0.58593,-2.36719 0.26563,-0.73828 0.59375,-1.40625 0.98438,-2.00781 0.39062,-0.59766 0.83594,-1.1211 1.33984,-1.5625 0.5,-0.44141 1.05078,-0.79297 1.64453,-1.0586 0.59375,-0.26562 1.22266,-0.4414 1.88672,-0.51953 0.66406,-0.0781 1.35156,-0.0664 2.0586,0.043 0.70703,0.10938 1.42578,0.3125 2.14843,0.60547 0.72657,0.29687 1.44532,0.67578 2.16016,1.14453 0.71094,0.46875 1.40625,1.01563 2.08203,1.63672 0.67578,0.625 1.31641,1.31641 1.92969,2.07031 0.60937,0.75391 1.17578,1.5625 1.69922,2.41797 0.51953,0.85938 0.98828,1.75391 1.40234,2.67969 z m 0,0" fill="#f1d9a0"></path>
  <path id="path23" fill-rule="nonzero" fill-opacity="1" d="m 804.50391,353.67578 c 0,1.53125 -0.0742,3.0625 -0.22656,4.58594 -0.14844,1.52735 -0.375,3.04297 -0.67188,4.54688 -0.30078,1.5039 -0.67187,2.98828 -1.11719,4.45703 -0.44531,1.46484 -0.96093,2.90625 -1.54687,4.32422 -0.58594,1.41797 -1.24219,2.80078 -1.96484,4.15234 -0.72266,1.35547 -1.51172,2.66797 -2.36329,3.94141 -0.85156,1.27734 -1.76171,2.50781 -2.73437,3.6914 -0.97266,1.1836 -2.00391,2.32032 -3.08594,3.40235 -1.08594,1.08593 -2.21875,2.11328 -3.40625,3.08593 -1.18359,0.97266 -2.41406,1.88672 -3.6914,2.73829 -1.27344,0.85156 -2.58594,1.64062 -3.9375,2.36328 -1.35547,0.72265 -2.73829,1.375 -4.15625,1.96484 -1.41407,0.58594 -2.85547,1.10156 -4.32422,1.54688 -1.46875,0.44531 -2.95313,0.8164 -4.45703,1.11718 -1.50391,0.29688 -3.01954,0.52344 -4.54297,0.67188 -1.52735,0.15234 -3.0586,0.22656 -4.58985,0.22656 -1.53515,0 -3.0625,-0.0742 -4.58984,-0.22656 -1.52734,-0.14844 -3.03906,-0.375 -4.54297,-0.67188 -1.50391,-0.30078 -2.99219,-0.67187 -4.45703,-1.11718 -1.46875,-0.44532 -2.91016,-0.96094 -4.32813,-1.54688 -1.41406,-0.58984 -2.80078,-1.24219 -4.15234,-1.96484 -1.35156,-0.72266 -2.66797,-1.51172 -3.94141,-2.36328 -1.27343,-0.85157 -2.5039,-1.76563 -3.6914,-2.73829 -1.1836,-0.97265 -2.32031,-2 -3.40235,-3.08593 -1.08593,-1.08203 -2.11328,-2.21875 -3.08593,-3.40235 -0.97266,-1.18359 -1.88672,-2.41406 -2.73828,-3.6914 -0.85157,-1.27344 -1.63672,-2.58594 -2.35938,-3.94141 -0.72266,-1.35156 -1.37891,-2.73437 -1.96484,-4.15234 -0.58594,-1.41797 -1.10547,-2.85938 -1.54688,-4.32422 -0.44531,-1.46875 -0.82031,-2.95313 -1.11719,-4.45703 -0.30078,-1.50391 -0.52343,-3.01953 -0.67578,-4.54688 -0.14843,-1.52344 -0.22656,-3.05469 -0.22656,-4.58594 0,-1.53515 0.0781,-3.0664 0.22656,-4.58984 0.15235,-1.52734 0.375,-3.04297 0.67578,-4.54687 0.29688,-1.50391 0.67188,-2.98829 1.11719,-4.45704 0.44141,-1.46484 0.96094,-2.90625 1.54688,-4.32421 0.58593,-1.41797 1.24218,-2.80079 1.96484,-4.15235 0.72266,-1.35547 1.50781,-2.66797 2.35938,-3.9414 0.85156,-1.27735 1.76562,-2.50391 2.73828,-3.69141 0.97265,-1.18359 2,-2.32031 3.08593,-3.40234 1.08204,-1.08594 2.21875,-2.11329 3.40235,-3.08594 1.1875,-0.97266 2.41797,-1.88672 3.6914,-2.73828 1.27344,-0.85157 2.58985,-1.64063 3.94141,-2.36328 1.35156,-0.72266 2.73828,-1.375 4.15234,-1.96094 1.41797,-0.58985 2.85938,-1.10547 4.32813,-1.55078 1.46484,-0.44532 2.95312,-0.81641 4.45703,-1.11719 1.50391,-0.29688 3.01563,-0.52344 4.54297,-0.67188 1.52734,-0.15234 3.05469,-0.22656 4.58984,-0.22656 1.53125,0 3.0625,0.0742 4.58985,0.22656 1.52343,0.14844 3.03906,0.375 4.54297,0.67188 1.5039,0.30078 2.98828,0.67187 4.45703,1.11719 1.46875,0.44531 2.91015,0.96093 4.32422,1.55078 1.41796,0.58594 2.80078,1.23828 4.15625,1.96094 1.35156,0.72265 2.66406,1.51171 3.9375,2.36328 1.27734,0.85156 2.50781,1.76562 3.6914,2.73828 1.1875,0.97265 2.32031,2 3.40625,3.08594 1.08203,1.08203 2.11328,2.21875 3.08594,3.40234 0.97266,1.1875 1.88281,2.41406 2.73437,3.69141 0.85157,1.27343 1.64063,2.58593 2.36329,3.9414 0.72265,1.35156 1.3789,2.73438 1.96484,4.15235 0.58594,1.41796 1.10156,2.85937 1.54687,4.32421 0.44532,1.46875 0.81641,2.95313 1.11719,4.45704 0.29688,1.5039 0.52344,3.01953 0.67188,4.54687 0.15234,1.52344 0.22656,3.05469 0.22656,4.58984 z m 0,0" fill="#f1d9a0"></path>
  <path id="path24" fill-rule="nonzero" fill-opacity="1" d="M 508.51953,620.29688 504.75,681.59766 c 0,10.31641 10.51563,18.44922 23.41016,18.44922 l 402.71094,-0.99219 c 9.1289,-0.39844 15.47656,0 24.99609,-8.33203 5.35938,-4.76172 15.07813,-16.07031 16.86328,-30.15625 l -0.79297,-40.26953 z m 0,0" fill="#b53620"></path>
  <path id="path25" fill-rule="nonzero" fill-opacity="1" d="M 500.78516,681.59766 504.75,616.32813 h 470.95703 l 0.79297,44.4375 v 0.19922 c -2.18359,17.85547 -15.47265,30.35156 -18.25,32.53515 -9.91797,8.72657 -17.0625,8.92578 -25.39453,9.32422 h -1.98437 l -402.91016,0.99219 c -14.87891,0.19531 -27.17578,-9.92188 -27.17578,-22.21875 z m 431.87109,13.28906 c 7.9375,-0.39453 12.69922,-0.59375 20.4336,-7.33984 6.15234,-5.55469 14.08593,-15.8711 15.47656,-27.375 l -0.79688,-35.90625 H 512.09375 l -3.375,57.33203 c 0,7.93359 8.73047,14.48047 19.44141,14.48047 l 402.51562,-0.99219 z m 0,0" fill="#f1d9a0"></path>
  <path id="path26" fill-rule="nonzero" fill-opacity="1" d="M 954.875,671.28125 H 579.14453 c -4.96093,0 -9.52343,-1.98437 -12.89453,-5.35547 -3.37109,-3.375 -5.35547,-7.9375 -5.35547,-12.89453 v -294 c 0,-4.96093 1.98438,-9.52343 5.35547,-12.89453 3.3711,-3.375 7.9336,-5.35937 12.89453,-5.35937 H 954.875 c 4.96094,0 9.52344,1.98437 12.89453,5.35937 3.375,3.3711 5.35938,7.9336 5.35938,12.89453 v 294 c 0,4.95703 -1.98438,9.51953 -5.35938,12.89453 -3.37109,3.3711 -7.93359,5.35547 -12.89453,5.35547 z m 0,0" fill="#b53620"></path>
  <path id="path27" fill-rule="nonzero" fill-opacity="1" d="M 556.92578,653.22657 V 359.42578 c 0,-12.29687 9.91797,-22.21875 22.21875,-22.21875 h 375.53516 c 12.29688,0 22.21875,9.92188 22.21875,22.21875 v 293.80079 c 0,12.30078 -9.92187,22.21875 -22.21875,22.21875 H 579.14453 c -12.30078,0 -22.21875,-10.11719 -22.21875,-22.21875 z m 22.21875,-308.08204 c -7.93359,0 -14.28515,6.34766 -14.28515,14.28125 v 293.80079 c 0,7.9375 6.35156,14.28515 14.28515,14.28515 h 375.53516 c 7.93359,0 14.28125,-6.34765 14.28125,-14.28515 V 359.42578 c 0,-7.93359 -6.34766,-14.28125 -14.28125,-14.28125 z m 0,0" fill="#f1d9a0"></path>
  <path id="path28" fill-rule="nonzero" fill-opacity="1" d="m 576.96094,345.9375 c 0,-2.57812 -2.77734,-4.36328 -5.55469,-3.57031 -8.72656,2.57813 -25.78906,6.54688 -33.1289,10.51172 -7.73438,4.16797 -15.07813,9.32422 -15.07813,17.85547 L 504.75,681.19922 c 0,0.39844 0,0.79297 0,1.19141 0.99219,12.49609 16.66407,19.4414 28.57032,12.69531 l 45.03125,-25.19531 z m 0,0" fill="#b53620"></path>
  <path id="path29" fill-rule="nonzero" fill-opacity="1" d="m 511.69532,698.85547 c -6.34766,-3.37109 -10.31641,-9.32422 -10.91016,-16.07031 0,-0.59375 0,-0.98828 0,-1.58594 l 18.44922,-310.46484 c 0,-10.71094 9.125,-17.0586 17.05859,-21.22656 5.95313,-3.17579 17.0625,-6.14844 25.98828,-8.53125 2.97657,-0.79297 5.75391,-1.58594 7.9375,-2.17969 2.57813,-0.79688 5.35547,-0.19922 7.53516,1.1875 1.98437,1.39062 3.17578,3.57031 3.17578,5.95312 l 1.39063,326.53516 -47.01954,26.38281 c -3.57031,1.98438 -7.73437,2.97656 -11.90234,2.97656 -3.96484,0 -7.93359,-0.99218 -11.70312,-2.97656 z M 572.9961,346.33203 c 0,0 -0.19922,0 -0.39844,0 -2.18359,0.59766 -5.15625,1.39063 -8.13281,2.1836 -8.53125,2.38281 -19.24219,5.16015 -24.40235,7.9375 -9.125,4.95703 -12.89453,9.125 -12.89453,14.48047 l -18.44922,310.46484 c 0,0.19922 0,0.59375 0,0.79297 0.39844,3.96875 2.77735,7.53906 6.7461,9.72266 4.96093,2.57812 11.10937,2.57812 15.87109,0 l 43.04688,-24.00391 z m 0,0" fill="#f1d9a0"></path>
  <path id="path30" fill-rule="nonzero" fill-opacity="1" d="m 956.66407,412.98828 c 0,0.73047 -0.0391,1.45313 -0.10938,2.17969 -0.0703,0.72266 -0.17578,1.44141 -0.32031,2.15625 -0.14063,0.71485 -0.31641,1.41797 -0.52735,2.11328 -0.21093,0.69922 -0.45703,1.38282 -0.73437,2.05469 -0.28125,0.67188 -0.58984,1.32813 -0.93359,1.97266 -0.34375,0.64062 -0.71875,1.26562 -1.1211,1.86718 -0.40625,0.60547 -0.83594,1.19141 -1.30078,1.75391 -0.46094,0.5625 -0.94922,1.10156 -1.46094,1.61328 -0.51562,0.51563 -1.05468,1.00391 -1.61718,1.46485 -0.5625,0.46093 -1.14454,0.89453 -1.75,1.30078 -0.60547,0.40234 -1.23047,0.77734 -1.8711,1.12109 -0.64062,0.33984 -1.30078,0.65234 -1.97265,0.92969 -0.67188,0.28125 -1.35547,0.52344 -2.05079,0.73437 -0.69921,0.21094 -1.40234,0.39063 -2.11718,0.53125 -0.71485,0.14063 -1.4336,0.25 -2.15625,0.32032 -0.72266,0.0703 -1.44922,0.10546 -2.17578,0.10546 -0.73047,0 -1.45704,-0.0351 -2.17969,-0.10546 -0.72266,-0.0703 -1.44141,-0.17969 -2.15625,-0.32032 -0.71485,-0.14062 -1.41797,-0.32031 -2.11719,-0.53125 -0.69531,-0.21093 -1.37891,-0.45312 -2.05078,-0.73437 -0.67188,-0.27735 -1.32813,-0.58985 -1.97266,-0.92969 -0.64062,-0.34375 -1.26562,-0.71875 -1.87109,-1.12109 -0.60156,-0.40625 -1.1875,-0.83985 -1.75,-1.30078 -0.5625,-0.46094 -1.10156,-0.94922 -1.61328,-1.46485 -0.51563,-0.51172 -1.00391,-1.05078 -1.46485,-1.61328 -0.46093,-0.5625 -0.89453,-1.14844 -1.30078,-1.75391 -0.40234,-0.60156 -0.77734,-1.22656 -1.12109,-1.86718 -0.34375,-0.64453 -0.65234,-1.30078 -0.92969,-1.97266 -0.28125,-0.67187 -0.52344,-1.35547 -0.73437,-2.05469 -0.21485,-0.69531 -0.39063,-1.39843 -0.53125,-2.11328 -0.14063,-0.71484 -0.25,-1.43359 -0.32032,-2.15625 -0.0703,-0.72656 -0.10546,-1.44922 -0.10546,-2.17969 0,-0.72656 0.0351,-1.45312 0.10546,-2.17578 0.0703,-0.72656 0.17969,-1.44531 0.32032,-2.15625 0.14062,-0.71484 0.3164,-1.42187 0.53125,-2.11718 0.21093,-0.69532 0.45312,-1.37891 0.73437,-2.05079 0.27735,-0.67187 0.58594,-1.33203 0.92969,-1.97265 0.34375,-0.64063 0.71875,-1.26563 1.12109,-1.8711 0.40625,-0.60546 0.83985,-1.1875 1.30078,-1.75 0.46094,-0.5625 0.94922,-1.10156 1.46485,-1.61718 0.51172,-0.51172 1.05078,-1 1.61328,-1.46485 0.5625,-0.46093 1.14844,-0.89453 1.75,-1.29687 0.60547,-0.40625 1.23047,-0.77735 1.87109,-1.1211 0.64453,-0.34375 1.30078,-0.65234 1.97266,-0.93359 0.67187,-0.27734 1.35547,-0.52344 2.05078,-0.73437 0.69922,-0.21094 1.40234,-0.38672 2.11719,-0.52735 0.71484,-0.14453 1.43359,-0.25 2.15625,-0.32031 0.72265,-0.0703 1.44922,-0.10938 2.17969,-0.10938 0.72656,0 1.45312,0.0391 2.17578,0.10938 0.72265,0.0703 1.44531,0.17578 2.15625,0.32031 0.71484,0.14063 1.41797,0.31641 2.11718,0.52735 0.69532,0.21093 1.37891,0.45703 2.05079,0.73437 0.67187,0.28125 1.33203,0.58984 1.97265,0.93359 0.64063,0.34375 1.26563,0.71485 1.8711,1.1211 0.60546,0.40234 1.1875,0.83594 1.75,1.29687 0.5625,0.46485 1.10156,0.95313 1.61718,1.46485 0.51172,0.51562 1,1.05468 1.46094,1.61718 0.46484,0.5625 0.89453,1.14454 1.30078,1.75 0.40235,0.60547 0.77735,1.23047 1.1211,1.8711 0.34375,0.64062 0.65234,1.30078 0.93359,1.97265 0.27734,0.67188 0.52344,1.35547 0.73437,2.05079 0.21094,0.69531 0.38672,1.40234 0.52735,2.11718 0.14453,0.71094 0.25,1.42969 0.32031,2.15625 0.0703,0.72266 0.10938,1.44922 0.10938,2.17578 z m 0,0" fill="#f1d9a0"></path>
  <path id="path31" fill-rule="nonzero" fill-opacity="1" d="m 956.66407,493.73047 c 0,0.72656 -0.0391,1.45313 -0.10938,2.17969 -0.0703,0.72266 -0.17578,1.44141 -0.32031,2.15625 -0.14063,0.71094 -0.31641,1.41797 -0.52735,2.11328 -0.21093,0.69531 -0.45703,1.38281 -0.73437,2.05469 -0.28125,0.67187 -0.58984,1.32812 -0.93359,1.96875 -0.34375,0.64453 -0.71875,1.26562 -1.1211,1.87109 -0.40625,0.60547 -0.83594,1.1875 -1.30078,1.75 -0.46094,0.5625 -0.94922,1.10156 -1.46094,1.61719 -0.51562,0.51562 -1.05468,1.00391 -1.61718,1.46484 -0.5625,0.46094 -1.14454,0.89453 -1.75,1.29688 -0.60547,0.40625 -1.23047,0.78125 -1.8711,1.12109 -0.64062,0.34375 -1.30078,0.65625 -1.97265,0.9336 -0.67188,0.27734 -1.35547,0.52343 -2.05079,0.73437 -0.69921,0.21094 -1.40234,0.38672 -2.11718,0.53125 -0.71485,0.14063 -1.4336,0.24609 -2.15625,0.32031 -0.72266,0.0703 -1.44922,0.10547 -2.17578,0.10547 -0.73047,0 -1.45704,-0.0351 -2.17969,-0.10547 -0.72266,-0.0742 -1.44141,-0.17968 -2.15625,-0.32031 -0.71485,-0.14453 -1.41797,-0.32031 -2.11719,-0.53125 -0.69531,-0.21094 -1.37891,-0.45703 -2.05078,-0.73437 -0.67188,-0.27735 -1.32813,-0.58985 -1.97266,-0.9336 -0.64062,-0.33984 -1.26562,-0.71484 -1.87109,-1.12109 -0.60156,-0.40235 -1.1875,-0.83594 -1.75,-1.29688 -0.5625,-0.46093 -1.10156,-0.94922 -1.61328,-1.46484 -0.51563,-0.51563 -1.00391,-1.05469 -1.46485,-1.61719 -0.46093,-0.5625 -0.89453,-1.14453 -1.30078,-1.75 -0.40234,-0.60547 -0.77734,-1.22656 -1.12109,-1.87109 -0.34375,-0.64063 -0.65234,-1.29688 -0.92969,-1.96875 -0.28125,-0.67188 -0.52344,-1.35938 -0.73437,-2.05469 -0.21485,-0.69531 -0.39063,-1.40234 -0.53125,-2.11328 -0.14063,-0.71484 -0.25,-1.43359 -0.32032,-2.15625 -0.0703,-0.72656 -0.10546,-1.45313 -0.10546,-2.17969 0,-0.72656 0.0351,-1.45312 0.10546,-2.17969 0.0703,-0.72265 0.17969,-1.4414 0.32032,-2.15625 0.14062,-0.71093 0.3164,-1.41796 0.53125,-2.11328 0.21093,-0.69531 0.45312,-1.38281 0.73437,-2.05468 0.27735,-0.67188 0.58594,-1.32813 0.92969,-1.96875 0.34375,-0.64454 0.71875,-1.26563 1.12109,-1.8711 0.40625,-0.60547 0.83985,-1.1875 1.30078,-1.75 0.46094,-0.5625 0.94922,-1.10156 1.46485,-1.61719 0.51172,-0.51562 1.05078,-1.0039 1.61328,-1.46484 0.5625,-0.46094 1.14844,-0.89453 1.75,-1.29687 0.60547,-0.40625 1.23047,-0.78125 1.87109,-1.1211 0.64453,-0.34375 1.30078,-0.65625 1.97266,-0.93359 0.67187,-0.27735 1.35547,-0.52344 2.05078,-0.73438 0.69922,-0.21093 1.40234,-0.38672 2.11719,-0.53125 0.71484,-0.14062 1.43359,-0.24609 2.15625,-0.32031 0.72265,-0.0703 1.44922,-0.10547 2.17969,-0.10547 0.72656,0 1.45312,0.0352 2.17578,0.10547 0.72265,0.0742 1.44531,0.17969 2.15625,0.32031 0.71484,0.14453 1.41797,0.32032 2.11718,0.53125 0.69532,0.21094 1.37891,0.45703 2.05079,0.73438 0.67187,0.27734 1.33203,0.58984 1.97265,0.93359 0.64063,0.33985 1.26563,0.71485 1.8711,1.1211 0.60546,0.40234 1.1875,0.83593 1.75,1.29687 0.5625,0.46094 1.10156,0.94922 1.61718,1.46484 0.51172,0.51563 1,1.05469 1.46094,1.61719 0.46484,0.5625 0.89453,1.14453 1.30078,1.75 0.40235,0.60547 0.77735,1.22656 1.1211,1.8711 0.34375,0.64062 0.65234,1.29687 0.93359,1.96875 0.27734,0.67187 0.52344,1.35937 0.73437,2.05468 0.21094,0.69532 0.38672,1.40235 0.52735,2.11328 0.14453,0.71485 0.25,1.4336 0.32031,2.15625 0.0703,0.72657 0.10938,1.45313 0.10938,2.17969 z m 0,0" fill="#f1d9a0"></path>
  <path id="path32" fill-rule="nonzero" fill-opacity="1" d="M 860.64453,648.07032 H 633.69922 c -10.3164,0 -19.64062,-4.16407 -26.58203,-11.10938 -6.74609,-6.74609 -11.10937,-16.26562 -11.10937,-26.58203 V 401.6836 c 0,-10.31641 4.16406,-19.64063 11.10937,-26.58594 6.74219,-6.74219 16.26563,-11.10938 26.58203,-11.10938 h 226.94531 c 10.31641,0 19.64063,4.16797 26.58594,11.10938 6.74219,6.74609 11.10938,16.26953 11.10938,26.58594 v 208.69531 c 0,10.31641 -4.16797,19.64062 -11.10938,26.58203 -6.94531,6.94531 -16.26953,11.10938 -26.58594,11.10938 z m 0,0" fill="#f1d9a0"></path>
  <path id="path33" fill-rule="nonzero" fill-opacity="1" d="m 810.0586,385.01953 h -28.36719 c 18.05078,5.75 34.71484,15.86719 48.40234,29.75391 23.01563,23.01563 35.71094,53.5625 35.71094,86.09766 0,29.75781 -11.50781,57.73047 -32.53516,78.55859 -20.82812,21.03125 -48.80078,32.73438 -78.55859,32.73438 -29.75781,0 -57.73047,-11.50782 -78.55859,-32.53516 -21.02735,-21.02734 -32.53516,-49 -32.53516,-78.55859 0,-55.34766 45.03125,-100.57813 100.57813,-100.57813 55.35156,0 100.58203,45.03125 100.58203,100.57813 0,49.59375 -40.27344,89.86718 -89.86719,89.86718 -49.59766,0 -89.86719,-40.27343 -89.86719,-89.86718 0,-43.64454 35.51172,-79.35157 79.35156,-79.35157 43.64454,0 79.35157,35.50782 79.35157,79.35157 0,37.89062 -30.7461,68.64062 -68.63672,68.64062 -37.89063,0 -68.64063,-30.75 -68.64063,-68.64062 0,-31.9375 25.98828,-57.92579 57.92578,-57.92579 31.94141,0 57.92579,25.98829 57.92579,57.92579 0,26.1875 -21.22657,47.41406 -47.41016,47.41406 -26.1875,0 -47.41406,-21.22656 -47.41406,-47.41406 0,-20.23438 16.46484,-36.69922 36.69922,-36.69922 20.23437,0 36.70312,16.46484 36.70312,36.69922 0,14.48046 -11.70703,26.1875 -26.1875,26.1875 -14.48047,0 -26.1875,-11.70704 -26.1875,-26.1875 0,-8.53125 6.94531,-15.47266 15.47656,-15.47266 8.33203,0 15.27344,6.74219 15.47266,15.27344 v 0.39843 c 0,2.17969 -1.98438,3.76954 -4.76172,3.76954 -2.57812,0 -4.76172,-1.58985 -4.96094,-3.76954 v -0.19921 c -0.19531,-3.17579 -2.57812,-5.55469 -5.75,-5.55469 -3.17578,0 -5.7539,2.57812 -5.7539,5.7539 0,9.125 7.33984,16.46485 16.46484,16.46485 9.125,0 16.46484,-7.33985 16.46484,-16.46485 0,-14.8789 -12.10156,-26.98046 -26.98046,-26.98046 -14.87891,0 -26.97657,12.10156 -26.97657,26.98046 0,20.82813 16.85938,37.69141 37.69141,37.69141 20.82812,0 37.69141,-16.86328 37.69141,-37.69141 0,-26.58203 -21.625,-48.20703 -48.20704,-48.20703 -26.58203,0 -48.20703,21.625 -48.20703,48.20703 0,32.53516 26.38672,58.91797 58.92188,58.91797 32.53125,0 58.91797,-26.38281 58.91797,-58.91797 0,-38.28906 -31.14453,-69.63281 -69.63282,-69.63281 -38.28515,0 -69.6289,31.14453 -69.6289,69.63281 0,44.23829 35.90625,80.14454 80.14453,80.14454 44.23828,0 80.14453,-35.90625 80.14453,-80.14454 0,-49.99218 -40.66797,-90.85937 -90.85937,-90.85937 -49.99219,0 -90.85547,40.66797 -90.85547,90.85937 0,55.94141 45.42968,101.3711 101.37109,101.3711 55.94141,0 101.37109,-45.42969 101.37109,-101.3711 0,-61.89453 -50.1875,-112.08593 -112.08203,-112.08593 -61.89453,0 -112.08593,50.1914 -112.08593,112.08593 0,67.64844 55.14843,122.79688 122.79687,122.79688 61.69531,0 112.87891,-45.82422 121.41016,-105.14063 v -36.10546 c -5.75391,-42.0586 -30.94922,-77.56641 -66.0625,-97.80079 z m 0,0" fill="#b53620"></path>
  <path id="path34" fill-rule="nonzero" fill-opacity="1" d="m 876.1211,578.24219 v -24.20312 c -6.54688,15.07421 -15.8711,28.76562 -27.77344,40.66796 -15.47656,15.47266 -33.92578,26.58204 -54.16016,32.73047 h 29.36328 c 21.42188,-11.70312 39.47657,-28.76562 52.57032,-49.19531 z m 0,0" fill="#b53620"></path>
  <path id="path35" fill-rule="nonzero" fill-opacity="1" d="m 685.8711,627.4375 h 29.36328 C 695,621.08985 676.35157,609.98047 661.07422,594.70703 c -24.99609,-24.99609 -38.68359,-58.32421 -38.68359,-93.63671 0,-32.53516 12.69531,-63.08594 35.71094,-86.09766 13.88671,-13.88672 30.35156,-23.80469 48.40234,-29.75781 h -28.36719 c -27.57422,15.67187 -49,41.0664 -59.71484,71.21875 v 90.85937 c 11.70703,34.32031 36.10547,62.88672 67.44922,80.14453 z m 0,0" fill="#b53620"></path>
  <path id="path36" fill-rule="nonzero" fill-opacity="1" d="m 828.11328,385.01953 c 5.94922,4.36329 11.70313,9.32422 17.25782,14.67969 13.48828,13.48828 23.80468,28.96094 30.94531,46.02344 v -25.19531 c -8.13281,-13.28907 -18.05078,-25.19532 -29.75391,-35.50782 -0.79297,0 -1.58984,0 -2.38281,0 z m 0,0" fill="#b53620"></path>
  <path id="path37" fill-rule="nonzero" fill-opacity="1" d="m 876.1211,595.10157 c -3.96875,4.96093 -8.13672,9.92187 -12.69922,14.48437 -6.54688,6.54688 -13.6875,12.49609 -21.22656,17.85156 h 1.98437 c 17.65625,0 31.94141,-14.48047 31.94141,-32.33593 z m 0,0" fill="#b53620"></path>
  <path id="path38" fill-rule="nonzero" fill-opacity="1" d="M 667.22657,627.4375 C 659.6875,622.28125 652.54688,616.32813 646,609.58594 634.69141,598.27735 625.56641,585.77735 618.42188,572.08985 v 22.21875 c 8.53125,12.30078 18.64844,23.41015 29.95703,33.1289 0.59375,0 1.39062,0 1.98437,0 z m 0,0" fill="#b53620"></path>
  <path id="path39" fill-rule="nonzero" fill-opacity="1" d="m 619.21875,409.81641 c -0.59765,2.37891 -0.79687,4.76172 -0.79687,7.33984 v 15.27344 c 6.54687,-11.90234 14.68359,-22.8125 24.60156,-32.73047 5.35547,-5.35547 11.10938,-10.3164 17.05859,-14.67969 h -9.71875 c -3.76953,0 -7.33984,0.59375 -10.71093,1.78516 -7.53907,7.14063 -14.28516,14.67969 -20.4336,23.01172 z m 0,0" fill="#b53620"></path>
  <g transform="translate(-17.839843,-17.839844)" id="g42" fill-opacity="1" fill="#f1d9a0">
    <g id="g41" transform="translate(327.55322,1312.7434)">
      <g id="g40">
        <path id="path40" d="m 6.605469,-114.86328 c -1.4375,0 -2.296875,0.85937 -2.296875,2.29687 v 14.355472 c 0,1.4375 0.859375,2.296876 2.296875,2.296876 h 16.65625 V -2.296875 C 23.261719,-0.71875 24.121094,0 25.558594,0 h 14.929687 c 1.582031,0 2.300781,-0.71875 2.300781,-2.296875 v -93.617187 h 16.652344 c 1.582032,0 2.296875,-0.859376 2.296875,-2.296876 v -14.355472 c 0,-1.4375 -0.714843,-2.29687 -2.296875,-2.29687 z m 0,0"></path>
      </g>
    </g>
  </g>
  <g transform="translate(-17.839843,-17.839844)" id="g45" fill-opacity="1" fill="#f1d9a0">
    <g id="g44" transform="translate(407.95402,1312.7434)">
      <g id="g43">
        <path id="path42" d="M 45.085938,-66.910156 H 26.707031 v -45.656254 c 0,-1.4375 -0.863281,-2.29687 -2.296875,-2.29687 H 9.621094 c -1.722656,0 -2.441406,0.85937 -2.441406,2.29687 V -2.296875 C 7.179688,-0.863281 7.898438,0 9.621094,0 h 14.789062 c 1.433594,0 2.296875,-0.863281 2.296875,-2.296875 V -47.957031 H 45.085938 V -2.296875 C 45.085938,-0.863281 45.945312,0 47.382812,0 h 14.789063 c 1.722656,0 2.441406,-0.863281 2.441406,-2.296875 V -112.56641 c 0,-1.4375 -0.71875,-2.29687 -2.441406,-2.29687 H 47.382812 c -1.4375,0 -2.296874,0.85937 -2.296874,2.29687 z m 0,0"></path>
      </g>
    </g>
  </g>
  <g transform="translate(-17.839843,-17.839844)" id="g48" fill-opacity="1" fill="#f1d9a0">
    <g id="g47" transform="translate(494.09765,1312.7434)">
      <g id="g46">
        <path id="path45" d="m 9.476562,-114.86328 c -1.578124,0 -2.296874,0.85937 -2.296874,2.29687 V -2.296875 C 7.179688,-0.863281 7.898438,0 9.476562,0 h 14.933594 c 1.433594,0 2.296875,-0.863281 2.296875,-2.296875 V -112.56641 c 0,-1.4375 -0.863281,-2.29687 -2.296875,-2.29687 z m 0,0"></path>
      </g>
    </g>
  </g>
  <g transform="translate(-17.839843,-17.839844)" id="g51" fill-opacity="1" fill="#f1d9a0">
    <g id="g50" transform="translate(542.33865,1312.7434)">
      <g id="g49">
        <path id="path48" d="m 51.257812,-114.86328 c -1.578124,0 -2.296874,0.85937 -2.296874,2.29687 v 60.589848 H 48.101562 L 26.277344,-113 c -0.433594,-1.28906 -1.292969,-1.86328 -2.585938,-1.86328 H 9.476562 c -1.4375,0 -2.296874,0.85937 -2.296874,2.29687 V -2.296875 C 7.179688,-0.863281 8.039062,0 9.476562,0 h 14.933594 c 1.578125,0 2.296875,-0.863281 2.296875,-2.296875 v -60.878906 h 0.71875 L 49.390625,-1.867188 C 49.824219,-0.574219 50.683594,0 51.976562,0 H 66.191406 C 67.625,0 68.488281,-0.863281 68.488281,-2.296875 V -112.56641 c 0,-1.4375 -0.863281,-2.29687 -2.296875,-2.29687 z m 0,0"></path>
      </g>
    </g>
  </g>
  <g transform="translate(-17.839843,-17.839844)" id="g54" fill-opacity="1" fill="#f1d9a0">
    <g id="g53" transform="translate(632.35869,1312.7434)">
      <g id="g52">
        <path id="path51" d="m 68.632812,0 c 2.296876,0 3.15625,-1.4375 2.152344,-3.300781 L 44.796875,-61.308594 69.207031,-111.41797 c 1.003907,-2.01172 0.144531,-3.44531 -2.011719,-3.44531 H 52.121094 c -1.582032,0 -2.585938,0.71484 -3.304688,2.15234 l -22.109375,45.226565 v -44.507815 c 0,-1.86719 -1.007812,-2.87109 -2.871093,-2.87109 H 10.050781 c -1.867187,0 -2.871093,1.0039 -2.871093,2.87109 V -2.871094 C 7.179688,-1.003906 8.183594,0 10.050781,0 h 13.785157 c 1.863281,0 2.871093,-1.003906 2.871093,-2.871094 v -31.730468 l 5.3125,-10.195313 18.089844,42.644531 C 50.683594,-0.71875 51.6875,0 53.414062,0 Z m 0,0"></path>
      </g>
    </g>
  </g>
  <g transform="translate(-17.839843,-17.839844)" id="g57" fill-opacity="1" fill="#f1d9a0">
    <g id="g56" transform="translate(723.67083,1312.7434)">
      <g id="g55">
        <path id="path54" d="m 27.855469,-114.86328 c -13.355469,0 -20.675781,7.17578 -20.675781,20.67578 v 33.882812 c 0,2.730469 1.292968,4.453126 3.875,5.3125 l 34.03125,11.199219 v 19.097657 c 0,3.875 -2.011719,5.742187 -5.746094,5.742187 h -6.890625 c -3.589844,0 -5.742188,-1.867187 -5.742188,-5.742187 V -35.75 c 0,-1.582031 -0.71875,-2.300781 -2.296875,-2.300781 H 9.476562 c -1.4375,0 -2.296874,0.71875 -2.296874,2.300781 v 15.074219 C 7.179688,-7.179688 14.5,0 27.855469,0 H 43.9375 C 57.433594,0 64.613281,-7.179688 64.613281,-20.675781 V -53.84375 c 0,-2.726562 -1.292969,-4.308594 -3.734375,-5.3125 L 26.707031,-70.355469 v -19.8125 c 0,-3.734375 2.152344,-5.746093 5.742188,-5.746093 h 6.890625 c 3.878906,0 5.746094,2.011718 5.746094,5.746093 v 11.199219 c 0,1.433594 0.859374,2.296875 2.296874,2.296875 H 62.3125 c 1.582031,0 2.300781,-0.863281 2.300781,-2.296875 V -94.1875 c 0,-13.5 -7.179687,-20.67578 -20.675781,-20.67578 z m 0,0"></path>
      </g>
    </g>
  </g>
  <g transform="translate(-17.839843,-17.839844)" id="g60" fill-opacity="1" fill="#f1d9a0">
    <g id="g59" transform="translate(809.81445,1312.7434)">
      <g id="g58">
        <path id="path57" d="M 7.179688,-2.296875 C 7.179688,-0.863281 8.039062,0 9.476562,0 h 14.933594 c 1.578125,0 2.296875,-0.863281 2.296875,-2.296875 V -38.480469 H 43.9375 c 13.496094,0 20.675781,-7.320312 20.675781,-20.675781 V -94.1875 c 0,-13.5 -7.179687,-20.67578 -20.675781,-20.67578 H 9.476562 c -1.4375,0 -2.296874,0.85937 -2.296874,2.29687 z m 19.527343,-55.136719 v -38.480468 h 12.632813 c 3.878906,0 5.746094,2.011718 5.746094,5.746093 v 26.992188 c 0,3.589843 -1.867188,5.742187 -5.746094,5.742187 z m 0,0"></path>
      </g>
    </g>
  </g>
  <g transform="translate(-17.839843,-17.839844)" id="g63" fill-opacity="1" fill="#f1d9a0">
    <g id="g62" transform="translate(895.9581,1312.7434)">
      <g id="g61">
        <path id="path60" d="m 64.46875,-112.56641 c 0,-1.4375 -0.574219,-2.29687 -2.296875,-2.29687 H 9.332031 c -1.292969,0 -2.152343,0.85937 -2.152343,2.29687 V -2.296875 C 7.179688,-0.863281 8.039062,0 9.332031,0 h 52.839844 c 1.722656,0 2.296875,-0.863281 2.296875,-2.296875 V -16.65625 c 0,-1.578125 -0.574219,-2.296875 -2.296875,-2.296875 H 26.277344 v -29.003906 h 27.421875 c 1.4375,0 2.296875,-0.859375 2.296875,-2.441407 v -14.214843 c 0,-1.578125 -0.859375,-2.4375 -2.296875,-2.4375 H 26.277344 v -28.71875 h 35.894531 c 1.722656,0 2.296875,-1.003907 2.296875,-2.441407 z m 0,0"></path>
      </g>
    </g>
  </g>
  <g transform="translate(-17.839843,-17.839844)" id="g66" fill-opacity="1" fill="#f1d9a0">
    <g id="g65" transform="translate(981.95812,1312.7434)">
      <g id="g64">
        <path id="path63" d="m 76.386719,0 c 1.722656,0 2.296875,-0.863281 2.007812,-2.441406 L 54.5625,-112.85547 c -0.289062,-1.43359 -1.148438,-2.00781 -2.441406,-2.00781 H 32.164062 c -1.292968,0 -2.15625,0.57422 -2.441406,2.00781 L 5.886719,-2.441406 C 5.457031,-0.863281 6.175781,0 7.753906,0 h 15.363282 c 1.292968,0 2.007812,-0.71875 2.296874,-2.011719 l 3.875,-20.960937 h 25.558594 l 4.019532,20.960937 C 59.15625,-0.71875 59.875,0 61.164062,0 Z M 51.257812,-39.628906 H 32.878906 l 9.191406,-50.109375 z m 0,0"></path>
      </g>
    </g>
  </g>
  <g transform="translate(-17.839843,-17.839844)" id="g69" fill-opacity="1" fill="#f1d9a0">
    <g id="g68" transform="translate(1080.4488,1312.7434)">
      <g id="g67">
        <path id="path66" d="m 68.632812,0 c 2.296876,0 3.15625,-1.4375 2.152344,-3.300781 L 44.796875,-61.308594 69.207031,-111.41797 c 1.003907,-2.01172 0.144531,-3.44531 -2.011719,-3.44531 H 52.121094 c -1.582032,0 -2.585938,0.71484 -3.304688,2.15234 l -22.109375,45.226565 v -44.507815 c 0,-1.86719 -1.007812,-2.87109 -2.871093,-2.87109 H 10.050781 c -1.867187,0 -2.871093,1.0039 -2.871093,2.87109 V -2.871094 C 7.179688,-1.003906 8.183594,0 10.050781,0 h 13.785157 c 1.863281,0 2.871093,-1.003906 2.871093,-2.871094 v -31.730468 l 5.3125,-10.195313 18.089844,42.644531 C 50.683594,-0.71875 51.6875,0 53.414062,0 Z m 0,0"></path>
      </g>
    </g>
  </g>
</svg>
