<svg xmlns="http://www.w3.org/2000/svg" id="svg28" version="1.0" preserveAspectRatio="xMidYMid" height="1932.0001" viewBox="0 0 1449 1449" zoomAndPan="magnify" width="1932">
  
  <defs id="defs4">
    <clipPath id="1ee2f19ffe">
      <path id="path1" clip-rule="nonzero" d="M 17.839844,17.839844 H 1466.8398 V 1466.8398 H 17.839844 Z m 0,0"></path>
    </clipPath>
    <clipPath id="486baafb70">
      <path id="path2" clip-rule="nonzero" d="M 37.878906,39.867188 H 1447.1289 V 1449.1172 H 37.878906 Z m 0,0"></path>
    </clipPath>
    <clipPath id="ac9fed814a">
      <path id="path3" clip-rule="nonzero" d="M 44.746094,1124.2148 H 1440.4961 v 264 H 44.746094 Z m 0,0"></path>
    </clipPath>
    <clipPath id="2fa15556dc">
      <path id="path4" clip-rule="nonzero" d="M 71.726562,1149.7773 H 1413.4766 v 213 H 71.726562 Z m 0,0"></path>
    </clipPath>
  </defs>
  <g transform="translate(-17.839843,-17.839844)" id="g5" clip-path="url(#1ee2f19ffe)">
    <path id="path5" fill-rule="nonzero" fill-opacity="1" d="m 1467.1563,742.5 c 0,11.85937 -0.2891,23.71094 -0.8711,35.55469 -0.5821,11.84765 -1.4571,23.67187 -2.6172,35.47265 -1.1641,11.80078 -2.6133,23.57032 -4.3555,35.30078 -1.7383,11.73047 -3.7656,23.41407 -6.082,35.04297 -2.3125,11.63282 -4.9102,23.19922 -7.793,34.70313 -2.8789,11.5039 -6.043,22.93359 -9.4844,34.28125 -3.4453,11.34765 -7.164,22.60547 -11.1562,33.77344 -3.9961,11.16406 -8.2656,22.22659 -12.8008,33.18359 -4.5391,10.957 -9.3438,21.7969 -14.4141,32.5156 -5.0703,10.7227 -10.4023,21.3125 -15.9922,31.7696 -5.5898,10.4609 -11.4335,20.7773 -17.5312,30.9492 -6.0977,10.1719 -12.4414,20.1875 -19.0313,30.0508 -6.5859,9.8593 -13.414,19.5546 -20.4804,29.0781 -7.0625,9.5273 -14.3555,18.875 -21.8789,28.039 -7.5235,9.168 -15.2696,18.1485 -23.2344,26.9336 -7.9648,8.7891 -16.1406,17.375 -24.5234,25.7618 -8.3868,8.3828 -16.9727,16.5586 -25.7618,24.5234 -8.7851,7.9648 -17.7656,15.7109 -26.9336,23.2344 -9.1679,7.5234 -18.5117,14.8164 -28.039,21.8789 -9.5235,7.0664 -19.2188,13.8945 -29.0781,20.4804 -9.8633,6.5899 -19.8789,12.9336 -30.0508,19.0313 -10.1719,6.0977 -20.4883,11.9414 -30.9492,17.5312 -10.4571,5.5899 -21.0469,10.9219 -31.7696,15.9922 -10.7187,5.0703 -21.5586,9.875 -32.5156,14.4141 -10.957,4.5391 -22.01953,8.8047 -33.18359,12.8008 -11.16797,3.9922 -22.42579,7.7148 -33.77344,11.1562 -11.34766,3.4414 -22.77735,6.6055 -34.28125,9.4844 -11.50391,2.8828 -23.07031,5.4805 -34.70313,7.793 -11.63281,2.3164 -23.3125,4.3437 -35.04297,6.082 -11.73046,1.7422 -23.5,3.1914 -35.30078,4.3555 -11.80468,1.1601 -23.625,2.0351 -35.47265,2.6172 -11.84375,0.582 -23.69532,0.8711 -35.55469,0.8711 -11.86328,0 -23.71484,-0.2891 -35.55859,-0.8711 -11.84766,-0.5821 -23.66797,-1.4571 -35.47266,-2.6172 -11.80078,-1.1641 -23.57031,-2.6133 -35.30078,-4.3555 -11.73047,-1.7383 -23.41016,-3.7656 -35.04297,-6.082 -11.63281,-2.3125 -23.19922,-4.9102 -34.70313,-7.793 -11.5039,-2.8789 -22.93359,-6.043 -34.28125,-9.4844 -11.34765,-3.4414 -22.60546,-7.164 -33.77343,-11.1562 -11.16407,-3.9961 -22.22657,-8.2617 -33.1836,-12.8008 -10.95703,-4.5391 -21.79687,-9.3438 -32.51562,-14.4141 -10.72266,-5.0703 -21.3125,-10.4023 -31.76953,-15.9922 -10.46094,-5.5898 -20.77735,-11.4335 -30.94922,-17.5312 -10.17188,-6.0977 -20.1875,-12.4414 -30.05078,-19.0313 -9.85938,-6.5859 -19.55469,-13.414 -29.07813,-20.4804 -9.52734,-7.0625 -18.87109,-14.3555 -28.03906,-21.8789 -9.16797,-7.5235 -18.14453,-15.2696 -26.93359,-23.2344 -8.78907,-7.9648 -17.375,-16.1406 -25.76172,-24.5234 -8.38282,-8.3868 -16.5586,-16.9727 -24.52344,-25.7618 -7.96484,-8.7851 -15.71094,-17.7656 -23.23438,-26.9336 -7.52343,-9.1679 -14.8164,-18.5117 -21.8789,-28.039 -7.06641,-9.5235 -13.89453,-19.2188 -20.48047,-29.0781 -6.58984,-9.8633 -12.93359,-19.8789 -19.03125,-30.0508 -6.09766,-10.1719 -11.94141,-20.4883 -17.53125,-30.9492 -5.589844,-10.4571 -10.921875,-21.0469 -15.992188,-31.7696 -5.070312,-10.7187 -9.875,-21.5586 -14.414062,-32.5156 -4.539062,-10.957 -8.804688,-22.01953 -12.800781,-33.18359 -3.992188,-11.16797 -7.714844,-22.42579 -11.15625,-33.77344 -3.441407,-11.34766 -6.605469,-22.77735 -9.484375,-34.28125 -2.882813,-11.50391 -5.480469,-23.07031 -7.792969,-34.70313 -2.316406,-11.63281 -4.34375,-23.3125 -6.082031,-35.04297 -1.742188,-11.73046 -3.191406,-23.5 -4.355469,-35.30078 -1.160156,-11.80078 -2.035156,-23.625 -2.613281,-35.47265 -0.582032,-11.84375 -0.875,-23.69532 -0.875,-35.55469 0,-11.86328 0.292968,-23.71484 0.875,-35.55859 0.578125,-11.84766 1.453125,-23.66797 2.613281,-35.47266 1.164063,-11.80078 2.613281,-23.57031 4.355469,-35.30078 1.738281,-11.73047 3.765625,-23.41016 6.082031,-35.04297 2.3125,-11.63281 4.910156,-23.19922 7.792969,-34.70313 2.878906,-11.5039 6.042968,-22.93359 9.484375,-34.28125 3.441406,-11.34765 7.164062,-22.60546 11.15625,-33.77343 3.996093,-11.16407 8.261719,-22.22657 12.800781,-33.1836 4.539062,-10.95703 9.34375,-21.79687 14.414062,-32.51562 5.070313,-10.72266 10.402344,-21.3125 15.992188,-31.76953 5.58984,-10.46094 11.43359,-20.77735 17.53125,-30.94922 6.09766,-10.17188 12.44141,-20.1875 19.03125,-30.05078 6.58594,-9.85938 13.41406,-19.55469 20.48047,-29.07813 7.0625,-9.52734 14.35547,-18.87109 21.8789,-28.03906 7.52344,-9.16797 15.26954,-18.14453 23.23438,-26.93359 7.96484,-8.78907 16.14062,-17.375 24.52344,-25.76172 8.38672,-8.38282 16.97265,-16.5586 25.76172,-24.52344 8.78906,-7.96484 17.76562,-15.70703 26.93359,-23.23438 9.16797,-7.52343 18.51172,-14.8164 28.03906,-21.8789 9.52344,-7.06641 19.21875,-13.89453 29.07813,-20.48047 9.86328,-6.58984 19.8789,-12.93359 30.05078,-19.03125 10.17187,-6.09766 20.48828,-11.94141 30.94922,-17.53125 10.45703,-5.589844 21.04687,-10.921875 31.76953,-15.992188 10.71875,-5.070312 21.55859,-9.875 32.51562,-14.414062 10.95703,-4.535156 22.01953,-8.804688 33.1836,-12.800781 11.16797,-3.992188 22.42578,-7.714844 33.77343,-11.15625 11.34766,-3.441407 22.77735,-6.605469 34.28125,-9.484375 11.50391,-2.882813 23.07032,-5.480469 34.70313,-7.792969 11.63281,-2.316406 23.3125,-4.34375 35.04297,-6.082031 11.73047,-1.742188 23.5,-3.191406 35.30078,-4.355469 11.80469,-1.160156 23.625,-2.03125 35.47266,-2.613281 11.84375,-0.582032 23.69531,-0.875 35.55859,-0.875 11.85937,0 23.71094,0.292968 35.55469,0.875 11.84765,0.582031 23.66797,1.453125 35.47265,2.613281 11.80078,1.164063 23.57032,2.613281 35.30078,4.355469 11.73047,1.738281 23.41016,3.765625 35.04297,6.082031 11.63282,2.3125 23.19922,4.910156 34.70313,7.792969 11.5039,2.878906 22.93359,6.042968 34.28125,9.484375 11.34765,3.441406 22.60547,7.164062 33.77344,11.15625 11.16406,3.996093 22.22659,8.265625 33.18359,12.800781 10.957,4.539062 21.7969,9.34375 32.5156,14.414062 10.7227,5.070313 21.3125,10.402344 31.7735,15.992188 10.457,5.58984 20.7734,11.43359 30.9453,17.53125 10.1719,6.09766 20.1875,12.44141 30.0508,19.03125 9.8593,6.58594 19.5546,13.41406 29.0781,20.48047 9.5273,7.0625 18.8711,14.35547 28.039,21.8789 9.168,7.52735 18.1485,15.26954 26.9336,23.23438 8.7891,7.96484 17.375,16.14062 25.7618,24.52344 8.3828,8.38672 16.5586,16.97265 24.5234,25.76172 7.9648,8.78906 15.7109,17.76562 23.2344,26.93359 7.5234,9.16797 14.8164,18.51172 21.8828,28.03906 7.0625,9.52344 13.8906,19.21875 20.4765,29.07813 6.5899,9.86328 12.9336,19.8789 19.0313,30.05078 6.0977,10.17187 11.9414,20.48828 17.5312,30.94922 5.5899,10.45703 10.9219,21.04687 15.9922,31.76953 5.0703,10.71875 9.875,21.55859 14.4141,32.51562 4.5352,10.95703 8.8047,22.01953 12.8008,33.1836 3.9922,11.16797 7.7148,22.42578 11.1562,33.77343 3.4414,11.34766 6.6055,22.77735 9.4844,34.28125 2.8828,11.50391 5.4805,23.07032 7.793,34.70313 2.3164,11.63281 4.3437,23.3125 6.082,35.04297 1.7422,11.73047 3.1914,23.5 4.3555,35.30078 1.1601,11.80469 2.0351,23.625 2.6172,35.47266 0.582,11.84375 0.8711,23.69531 0.8711,35.55859 z m 0,0" fill="#f1d9a0"></path>
  </g>
  <g transform="translate(-17.839843,-17.839844)" id="g6" clip-path="url(#486baafb70)">
    <path id="path6" fill-rule="nonzero" fill-opacity="1" d="m 1447.1172,744.48828 c 0,11.53125 -0.2813,23.05469 -0.8477,34.57422 -0.5664,11.51562 -1.414,23.01172 -2.5468,34.48828 -1.1289,11.47656 -2.5391,22.91797 -4.2305,34.32422 -1.6953,11.40625 -3.6641,22.76562 -5.9141,34.07812 -2.25,11.3086 -4.7773,22.55469 -7.5781,33.74219 -2.8008,11.1875 -5.875,22.29688 -9.2227,33.33203 -3.3476,11.03516 -6.9648,21.98047 -10.8515,32.83985 -3.8828,10.85547 -8.0313,21.61331 -12.4453,32.26561 -4.4141,10.6524 -9.086,21.1914 -14.0157,31.6172 -4.9296,10.4258 -10.1132,20.7227 -15.5468,30.8906 -5.4375,10.1719 -11.1211,20.2032 -17.0469,30.0938 -5.9297,9.8906 -12.0977,19.6289 -18.5039,29.2187 -6.4063,9.586 -13.043,19.0117 -19.9141,28.2735 -6.8711,9.2656 -13.9609,18.3515 -21.2773,27.2656 -7.3164,8.9141 -14.8438,17.6445 -22.5899,26.1875 -7.7421,8.543 -15.6914,16.8945 -23.8476,25.0469 -8.1524,8.1562 -16.5039,16.1054 -25.0469,23.8476 -8.543,7.7461 -17.2734,15.2735 -26.1875,22.5899 -8.9141,7.3164 -18.0039,14.4101 -27.2656,21.2773 -9.2617,6.8711 -18.6875,13.5078 -28.2735,19.9141 -9.5898,6.4062 -19.3281,12.5742 -29.2187,18.5039 -9.8945,5.9258 -19.9219,11.6094 -30.0938,17.0469 -10.1679,5.4335 -20.4648,10.6171 -30.8906,15.5468 -10.4258,4.9336 -20.9648,9.6055 -31.6172,14.0157 -10.6562,4.414 -21.41013,8.5625 -32.2695,12.4492 -10.85547,3.8828 -21.80078,7.5 -32.83594,10.8476 -11.03515,3.3477 -22.14844,6.4219 -33.33203,9.2227 -11.1875,2.8047 -22.43359,5.3281 -33.74609,7.5781 -11.3086,2.25 -22.66797,4.2227 -34.07422,5.9141 -11.40625,1.6914 -22.84766,3.1015 -34.32422,4.2343 -11.47656,1.129 -22.97266,1.9766 -34.49219,2.543 -11.51562,0.5664 -23.03906,0.8477 -34.57422,0.8477 -11.53125,0 -23.05468,-0.2813 -34.57031,-0.8477 -11.51953,-0.5664 -23.01562,-1.414 -34.49219,-2.543 -11.47656,-1.1328 -22.91797,-2.5429 -34.32422,-4.2343 -11.40625,-1.6914 -22.76562,-3.6641 -34.07421,-5.9141 -11.3125,-2.25 -22.5586,-4.7734 -33.7461,-7.5781 -11.1875,-2.8008 -22.29687,-5.875 -33.33203,-9.2227 -11.03516,-3.3476 -21.98047,-6.9648 -32.83984,-10.8476 -10.85547,-3.8867 -21.61328,-8.0352 -32.26563,-12.4492 -10.65234,-4.4102 -21.1914,-9.0821 -31.61719,-14.0157 -10.42578,-4.9297 -20.72265,-10.1133 -30.89062,-15.5468 -10.17188,-5.4375 -20.20313,-11.1172 -30.09375,-17.0469 -9.89063,-5.9297 -19.62891,-12.0977 -29.21875,-18.5039 -9.58594,-6.4063 -19.01172,-13.043 -28.27344,-19.9141 -9.26172,-6.8672 -18.35156,-13.9609 -27.26562,-21.2773 -8.91407,-7.3164 -17.64453,-14.8438 -26.1875,-22.5899 -8.54297,-7.7422 -16.89453,-15.6914 -25.04688,-23.8476 -8.15625,-8.1524 -16.10547,-16.5039 -23.84765,-25.0469 -7.7461,-8.543 -15.27344,-17.2734 -22.58985,-26.1875 -7.3164,-8.9141 -14.41015,-18.0039 -21.27734,-27.2656 -6.8711,-9.2618 -13.50781,-18.6875 -19.91406,-28.2735 -6.40625,-9.5898 -12.57422,-19.3281 -18.50391,-29.2187 -5.92578,-9.8906 -11.60937,-19.9219 -17.04687,-30.0938 -5.4336,-10.1679 -10.61719,-20.4648 -15.54688,-30.8906 -4.93359,-10.4258 -9.605469,-20.9648 -14.015625,-31.6172 -4.414063,-10.6523 -8.5625,-21.41014 -12.449219,-32.26561 -3.882812,-10.85938 -7.5,-21.80469 -10.847656,-32.83985 -3.347656,-11.03515 -6.421875,-22.14453 -9.222656,-33.33203 -2.804688,-11.1875 -5.328125,-22.43359 -7.578125,-33.74609 -2.25,-11.3086 -4.222657,-22.66797 -5.914063,-34.07422 -1.691406,-11.40625 -3.101562,-22.84766 -4.230468,-34.32422 -1.132813,-11.47656 -1.980469,-22.97266 -2.546876,-34.48828 -0.566406,-11.51953 -0.847656,-23.04297 -0.847656,-34.57422 0,-11.53125 0.28125,-23.05859 0.847656,-34.57422 0.566407,-11.51953 1.414063,-23.01562 2.546876,-34.49219 1.128906,-11.47656 2.539062,-22.91796 4.230468,-34.32421 1.691406,-11.40625 3.664063,-22.76563 5.914063,-34.07422 2.25,-11.3125 4.777343,-22.5586 7.578125,-33.7461 2.800781,-11.18359 5.875,-22.29687 9.222656,-33.33203 3.347656,-11.03515 6.964844,-21.98047 10.847656,-32.83594 3.886719,-10.85937 8.035156,-21.61328 12.449219,-32.26953 4.410156,-10.65234 9.082035,-21.1914 14.015625,-31.61718 4.92969,-10.42188 10.11328,-20.72266 15.54688,-30.89063 5.4375,-10.17187 11.12109,-20.19922 17.04687,-30.08984 5.92969,-9.89453 12.09766,-19.63282 18.50391,-29.21875 6.40625,-9.58985 13.04296,-19.01563 19.91406,-28.27735 6.86719,-9.26172 13.96094,-18.35156 21.27734,-27.26562 7.31641,-8.91406 14.84375,-17.64063 22.58985,-26.1875 7.74218,-8.54297 15.6914,-16.89453 23.84765,-25.04688 8.15235,-8.15234 16.50391,-16.10156 25.04688,-23.84765 8.54297,-7.74219 17.27343,-15.27344 26.1875,-22.58985 8.91406,-7.3164 18.0039,-14.40625 27.26562,-21.27734 9.26172,-6.86719 18.6875,-13.50781 28.27344,-19.91406 9.58984,-6.40625 19.32812,-12.57422 29.21875,-18.50391 9.89062,-5.92578 19.92187,-11.60937 30.09375,-17.04297 10.16797,-5.4375 20.46484,-10.62109 30.89062,-15.55078 10.42579,-4.92969 20.96485,-9.601561 31.61719,-14.015624 10.65235,-4.414062 21.41016,-8.5625 32.26563,-12.445312 10.85937,-3.886719 21.80468,-7.503906 32.83984,-10.851563 11.03516,-3.347656 22.14453,-6.421875 33.33203,-9.222656 11.1875,-2.800781 22.4336,-5.328125 33.7461,-7.578125 11.30859,-2.25 22.66796,-4.21875 34.07421,-5.910156 11.40625,-1.695313 22.84766,-3.105469 34.32422,-4.234375 11.47657,-1.132813 22.97266,-1.980469 34.49219,-2.546875 11.51563,-0.5625 23.03906,-0.847656 34.57031,-0.847656 11.53516,0 23.0586,0.285156 34.57422,0.847656 11.51953,0.566406 23.01563,1.414062 34.49219,2.546875 11.47656,1.128906 22.91797,2.539062 34.32422,4.234375 11.40625,1.691406 22.76562,3.660156 34.07422,5.910156 11.3125,2.25 22.55859,4.777344 33.74609,7.578125 11.18359,2.800781 22.29688,5.875 33.33203,9.222656 11.03516,3.347657 21.98047,6.964844 32.83594,10.851563 10.85937,3.882812 21.6133,8.03125 32.2695,12.445312 10.6524,4.414063 21.1914,9.085934 31.6172,14.015624 10.4258,4.92969 20.7227,10.11328 30.8906,15.55078 10.1719,5.4336 20.1993,11.11719 30.0938,17.04297 9.8906,5.92969 19.6289,12.09766 29.2187,18.50391 9.586,6.40625 19.0118,13.04687 28.2735,19.91406 9.2617,6.87109 18.3515,13.96094 27.2656,21.27734 8.9141,7.31641 17.6445,14.84766 26.1875,22.58985 8.543,7.74609 16.8945,15.69531 25.0469,23.84765 8.1562,8.15235 16.1055,16.50391 23.8476,25.04688 7.7461,8.54687 15.2735,17.27344 22.5899,26.1875 7.3164,8.91406 14.4062,18.0039 21.2773,27.26562 6.8711,9.26172 13.5078,18.6875 19.9141,28.27735 6.4062,9.58593 12.5742,19.32422 18.5039,29.21875 5.9258,9.89062 11.6094,19.91797 17.0469,30.08984 5.4336,10.16797 10.6172,20.46875 15.5468,30.89063 4.9297,10.42578 9.6016,20.96484 14.0157,31.61718 4.414,10.65625 8.5625,21.41016 12.4453,32.26953 3.8867,10.85547 7.5039,21.80079 10.8515,32.83594 3.3477,11.03516 6.4219,22.14844 9.2227,33.33203 2.8008,11.1875 5.3281,22.4336 7.5781,33.7461 2.25,11.30859 4.2188,22.66797 5.9141,34.07422 1.6914,11.40625 3.1016,22.84765 4.2305,34.32421 1.1328,11.47657 1.9804,22.97266 2.5468,34.49219 0.5664,11.51563 0.8477,23.04297 0.8477,34.57422 z m 0,0" fill="#b53620"></path>
  </g>
  <g transform="translate(-17.839843,-17.839844)" id="g7" clip-path="url(#ac9fed814a)">
    <path id="path7" fill-rule="nonzero" fill-opacity="1" d="M 44.746094,1124.2148 H 1440.4961 v 264 H 44.746094 Z m 0,0" fill="#f1d9a0"></path>
  </g>
  <g transform="translate(-17.839843,-17.839844)" id="g8" clip-path="url(#2fa15556dc)">
    <path id="path8" fill-rule="nonzero" fill-opacity="1" d="M 71.726562,1149.7773 H 1413.4766 v 213 H 71.726562 Z m 0,0" fill="#b53620"></path>
  </g>
  <g transform="translate(-17.839843,-17.839844)" id="g11" fill-opacity="1" fill="#f1d9a0">
    <g id="g10" transform="translate(593.95309,1312.7429)">
      <g id="g9">
        <path id="path9" d="m 85.71875,-114.86328 c -1.722656,0 -2.871094,1.0039 -3.015625,2.72656 l -5.886719,67.195314 h -0.71875 L 62.027344,-112.28125 c -0.429688,-1.72266 -1.4375,-2.58203 -3.160156,-2.58203 h -8.613282 c -1.722656,0 -2.726562,0.85937 -3.160156,2.58203 L 32.878906,-44.941406 H 32.164062 L 26.5625,-112.13672 c -0.144531,-1.72266 -1.292969,-2.72656 -3.015625,-2.72656 H 9.90625 c -1.867188,0 -2.871094,1.14844 -2.726562,3.01172 L 18.953125,-2.726562 C 19.097656,-0.863281 20.101562,0 21.96875,0 h 14.355469 c 1.726562,0 2.730469,-0.863281 3.160156,-2.441406 L 54.5625,-67.484375 69.492188,-2.585938 C 69.925781,-0.863281 70.929688,0 72.652344,0 h 14.070312 c 1.867188,0 2.871094,-0.863281 3.015625,-2.726562 L 102.08594,-111.85156 c 0.14453,-1.86328 -0.85938,-3.01172 -2.726565,-3.01172 z m 0,0"></path>
      </g>
    </g>
  </g>
  <g transform="translate(-17.839843,-17.839844)" id="g14" fill-opacity="1" fill="#f1d9a0">
    <g id="g13" transform="translate(717.56862,1312.7429)">
      <g id="g12">
        <path id="path11" d="m 9.476562,-114.86328 c -1.578124,0 -2.296874,0.85937 -2.296874,2.29687 V -2.296875 C 7.179688,-0.863281 7.898438,0 9.476562,0 h 14.933594 c 1.433594,0 2.296875,-0.863281 2.296875,-2.296875 V -112.56641 c 0,-1.4375 -0.863281,-2.29687 -2.296875,-2.29687 z m 0,0"></path>
      </g>
    </g>
  </g>
  <g transform="translate(-17.839843,-17.839844)" id="g17" fill-opacity="1" fill="#f1d9a0">
    <g id="g16" transform="translate(765.80962,1312.7429)">
      <g id="g15">
        <path id="path14" d="m 68.632812,0 c 2.296876,0 3.15625,-1.4375 2.152344,-3.300781 L 44.796875,-61.308594 69.207031,-111.41797 c 1.003907,-2.01172 0.144531,-3.44531 -2.011719,-3.44531 H 52.121094 c -1.582032,0 -2.585938,0.71484 -3.304688,2.15234 l -22.109375,45.226565 v -44.507815 c 0,-1.86719 -1.007812,-2.87109 -2.871093,-2.87109 H 10.050781 c -1.867187,0 -2.871093,1.0039 -2.871093,2.87109 V -2.871094 C 7.179688,-1.003906 8.183594,0 10.050781,0 h 13.785157 c 1.863281,0 2.871093,-1.003906 2.871093,-2.871094 v -31.730468 l 5.3125,-10.195313 18.089844,42.644531 C 50.683594,-0.71875 51.6875,0 53.414062,0 Z m 0,0"></path>
      </g>
    </g>
  </g>
  <g transform="translate(-17.839843,-17.839844)" id="g20" fill-opacity="1" fill="#f1d9a0">
    <g id="g19" transform="translate(857.12177,1312.7429)">
      <g id="g18">
        <path id="path17" d="m 9.476562,-114.86328 c -1.578124,0 -2.296874,0.85937 -2.296874,2.29687 V -2.296875 C 7.179688,-0.863281 7.898438,0 9.476562,0 h 14.933594 c 1.433594,0 2.296875,-0.863281 2.296875,-2.296875 V -112.56641 c 0,-1.4375 -0.863281,-2.29687 -2.296875,-2.29687 z m 0,0"></path>
      </g>
    </g>
  </g>
  <path id="path20" fill-rule="nonzero" fill-opacity="1" d="M 804.19532,901.53516 H 637.4375 v 14.26172 c 0,2.19531 0,5.48828 0,8.77734 0,0 0,1.09766 0,1.09766 h 166.75782 c 0,-7.67969 0,-14.26172 0,-21.94141 0,-1.09765 0,-2.19531 0,-2.19531 z m 0,0" fill="#f1d9a0"></path>
  <path id="path21" fill-rule="nonzero" fill-opacity="1" d="m 640.73047,953.09766 c 6.58203,16.45703 23.03516,28.52734 44.98047,34.0117 0,5.4844 2.19141,14.26174 7.67969,21.94144 6.58203,6.5821 15.35937,10.9688 26.32812,10.9688 10.97266,0 20.84375,-3.2891 26.33203,-9.8711 6.58204,-6.5821 8.77344,-15.35944 9.8711,-20.84384 4.39062,-1.0976 8.77734,-2.1953 13.16406,-3.2929 13.16797,-5.48441 23.03906,-15.35941 29.625,-28.52348 2.19141,-4.39062 3.28906,-8.77734 4.38672,-13.16406 H 637.4375 c 1.09766,1.09375 1.09766,5.48438 3.29297,8.77344 z m 74.60156,37.3008 c 3.28907,0 5.48438,0 8.77344,0 h 5.48828 c 3.28907,0 6.58203,0 9.8711,0 -1.09375,2.1953 -2.19141,4.3906 -3.28907,6.5859 -3.29296,3.28914 -7.67968,5.48444 -14.26171,5.48444 -6.58204,0 -10.97266,-1.0977 -13.16407,-4.39064 -2.19531,-2.1914 -2.19531,-4.3868 -3.29297,-7.6797 2.19532,0 5.48438,0 9.875,0 z m 0,0" fill="#f1d9a0"></path>
  <path id="path22" fill-rule="nonzero" fill-opacity="1" d="m 637.4375,867.52735 v 16.45703 h 166.75782 v -16.45703 z m 0,0" fill="#f1d9a0"></path>
  <path id="path23" fill-rule="nonzero" fill-opacity="1" d="M 444.35157,479.15625 347.8086,445.14844 c -8.77735,-3.29297 -18.65235,2.19531 -21.94532,10.97266 -3.28906,8.77343 2.19532,18.64843 10.97266,21.9414 l 96.54297,34.00782 c 2.19531,1.09765 3.29297,1.09765 5.48437,1.09765 7.67969,0 14.26563,-4.38672 16.45704,-12.0664 3.29296,-9.875 -1.09766,-19.75 -10.96875,-21.94532 z m 0,0" fill="#f1d9a0"></path>
  <path id="path24" fill-rule="nonzero" fill-opacity="1" d="m 514.5625,337.63282 c 3.29297,4.39062 7.67969,5.48828 13.16797,5.48828 4.38672,0 7.67969,-1.09766 10.96875,-4.39063 7.67969,-6.58203 7.67969,-17.55469 2.19531,-24.13672 l -66.92187,-77.89062 c -6.58203,-7.67969 -17.55469,-7.67969 -24.13672,-2.19531 -7.67969,6.58203 -7.67969,17.55468 -2.19531,24.13671 z m 0,0" fill="#f1d9a0"></path>
  <path id="path25" fill-rule="nonzero" fill-opacity="1" d="m 716.42578,271.8086 c 9.875,0 17.55469,-7.67969 17.55469,-17.55469 l -1.09765,-103.125 c 0,-9.875 -7.67969,-17.55469 -17.55079,-17.55469 -9.875,0 -17.55468,7.67969 -17.55468,17.55469 l 1.09765,103.125 c 0,9.875 7.67969,17.55469 17.55078,17.55469 z m 0,0" fill="#f1d9a0"></path>
  <path id="path26" fill-rule="nonzero" fill-opacity="1" d="m 986.31246,233.41016 c -7.67964,-5.48438 -18.6523,-4.38672 -24.13668,3.29297 l -62.53515,82.28125 c -5.48438,7.67969 -4.38672,18.64844 3.29297,24.13672 3.28906,2.1914 6.58203,3.28906 10.96875,3.28906 5.48828,0 9.875,-2.19531 14.26172,-6.58203 l 62.53519,-82.28125 c 4.3867,-7.67969 3.2929,-18.65235 -4.3868,-24.13672 z m 0,0" fill="#f1d9a0"></path>
  <path id="path27" fill-rule="nonzero" fill-opacity="1" d="m 1124.543,463.80078 c -2.1953,-8.77734 -12.0664,-15.35937 -20.8437,-13.16796 l -99.836,25.23437 c -8.77734,2.19531 -15.35944,12.06641 -13.16404,20.84375 2.1953,7.67969 8.7773,13.16406 16.45704,13.16406 1.0977,0 3.2891,0 4.3867,0 l 99.836,-25.23047 c 9.875,-2.19531 15.3593,-10.97265 13.164,-20.84375 z m 0,0" fill="#f1d9a0"></path>
  <path id="path28" fill-rule="nonzero" fill-opacity="1" d="m 725.20313,348.60547 c -122.8711,0 -223.80469,100.92969 -223.80469,223.80469 0,63.63281 27.42578,123.97266 74.60156,166.75781 0,0 1.09766,1.09766 1.09766,1.09766 0,0 16.45703,12.0664 14.26172,32.91015 0,4.39063 -1.09766,7.67969 -2.19531,12.07032 -3.28907,18.64843 -6.58204,42.78515 8.77734,60.33984 h 103.12891 c 1.09375,-1.09766 29.62109,-32.91406 14.26171,-107.51562 -1.09765,-6.58204 3.28907,-13.16407 9.8711,-15.35938 6.58203,-1.09766 14.26172,3.29297 15.35937,9.875 12.07032,57.04688 1.09766,94.34766 -9.87109,114.09766 h 113 c 16.45312,-15.35938 23.03516,-38.39844 17.55078,-68.01953 -5.48437,-28.52735 15.35938,-41.69141 17.55469,-43.88672 1.09765,-1.09375 2.19531,-2.19141 3.28906,-3.28907 C 924.875,688.70313 947.91407,632.75 947.91407,573.50782 949.01172,448.44141 848.07813,348.60547 725.20313,348.60547 Z m -7.67969,153.58985 c -1.09766,-1.09375 -3.28906,-1.09375 -5.48437,0 -20.84375,5.48828 -32.91407,-17.55079 -34.00782,-18.64844 -2.19531,-4.39063 -7.67968,-5.48438 -12.07031,-3.29297 -4.38672,2.19531 -5.48437,7.67969 -3.28906,12.07031 5.48437,10.96875 20.84375,28.52344 42.78515,28.52344 3.29297,0 6.58204,0 10.97266,-1.09766 0,0 0,0 1.09375,0 v 194.1836 c -6.58203,5.48437 -27.42578,19.75 -44.98047,12.07031 -20.84375,-9.875 -20.84375,-32.91406 -20.84375,-34.01172 0,0 0,-1.09766 0,-1.09766 l 26.33203,-35.10546 c 4.38672,-5.48438 14.26172,0 14.26172,0 4.38672,2.19531 9.8711,1.09765 12.06641,-3.29297 2.19531,-4.38672 1.09765,-9.8711 -3.28906,-12.06641 -5.48829,-3.29297 -14.26563,-6.58203 -23.03907,-4.38672 -1.09765,-10.97265 -5.48828,-24.13672 -13.16797,-29.62109 -3.28906,-3.29297 -8.77343,-2.19531 -12.0664,2.1914 -3.29297,4.39063 -2.19531,8.77735 2.19531,12.07032 4.38672,3.28906 6.58203,17.55078 7.67969,27.42578 l -26.33203,34.00781 c 0,1.09766 -1.09766,1.09766 -1.09766,2.19531 -6.58203,0 -17.55078,-1.09765 -25.23047,-14.26172 -10.97265,-20.84375 -2.19531,-40.59375 -1.09765,-41.6875 2.19531,-4.39062 0,-8.77734 -3.29297,-10.97265 -9.8711,-5.48438 -20.84375,-15.35938 -18.64844,-41.6875 1.09766,-18.65235 19.74609,-30.71875 26.32812,-35.10938 9.875,1.09766 28.52344,6.58203 37.30079,16.45703 -7.67969,5.48438 -12.06641,12.06641 -15.35938,18.65235 -2.19141,4.38672 0,9.87109 4.39063,10.96875 1.09765,1.09765 2.1914,1.09765 3.28906,1.09765 3.29297,0 6.58203,-2.19531 7.67969,-4.38671 1.09765,-2.19532 10.97265,-21.94141 30.71875,-14.26563 4.39062,2.19531 9.875,0 10.97265,-4.38672 2.19141,-4.38672 0,-9.875 -4.39062,-10.96875 -7.67969,-3.29297 -14.26172,-3.29297 -20.84375,-2.19531 -12.06641,-18.65234 -41.6875,-24.13672 -51.5625,-26.33203 -2.19532,-3.28906 -7.67969,-10.96875 -1.09766,-28.52344 8.77734,-23.03906 37.30078,-25.23437 38.39844,-25.23437 3.29297,0 6.58203,-2.19141 7.67969,-5.48438 6.58203,-16.45703 16.45703,-25.23047 26.32812,-28.52344 12.07031,-3.29297 25.23438,3.29297 30.71875,7.67969 z m 151.39844,84.47656 c -1.09766,4.39062 -3.28906,8.77734 -6.58203,14.26172 -2.19532,2.19531 -12.06641,7.67968 -20.84375,10.97265 -4.39063,1.09766 -6.58203,4.38672 -6.58203,7.67969 0,4.38672 3.28906,8.77734 5.48437,13.16406 2.19531,3.29297 4.38672,6.58203 5.48438,8.77735 2.19531,9.875 0,20.84375 -5.48438,28.52343 -4.38672,6.58204 -12.06641,9.875 -19.74609,10.97266 -2.19532,0 -3.29297,0 -4.39063,0 -1.09765,-9.875 -5.48437,-23.03906 -17.55078,-31.81641 3.28906,-5.48437 6.58203,-10.97265 9.87109,-18.65234 2.19532,-4.38672 0,-9.87109 -4.38671,-10.96875 -4.39063,-2.19531 -9.875,0 -10.97266,4.38672 -10.96875,24.13672 -19.74609,29.62109 -25.23047,31.81641 -4.39062,1.09765 -6.58203,0 -7.67969,0 -4.39062,-2.19532 -8.77734,-1.09766 -12.07031,3.29296 -2.19141,4.38672 -1.09766,9.8711 3.29297,12.06641 1.09766,0 5.48437,3.28906 12.06641,3.28906 2.19531,0 5.48437,0 8.77734,-1.09375 5.48437,-2.19531 9.875,-5.48828 15.35937,-9.875 13.16407,8.77735 12.06641,23.03907 12.06641,25.23438 0,1.09375 0,2.1914 0,2.1914 -2.19141,3.29297 -3.28906,6.58204 -5.48437,9.875 -5.48438,9.875 -7.67969,16.45704 -18.64844,20.84375 -16.45703,7.67969 -32.91406,-4.38671 -39.4961,-8.77734 V 597.64453 c 10.96875,15.35938 23.03907,23.03907 37.30079,23.03907 1.09765,0 1.09765,0 2.19531,0 3.28906,0 5.48437,-2.19532 6.58203,-4.39063 1.09766,-2.1914 2.19141,-5.48437 0,-7.67969 0,0 -10.97266,-25.23046 -1.09766,-39.49609 3.28907,-4.38672 2.19532,-8.77344 -2.19531,-12.06641 -4.38672,-3.28906 -8.77734,-2.19531 -12.06641,2.19532 -9.875,13.16406 -8.77734,29.62109 -5.48437,41.6875 -12.07031,-6.58203 -18.65234,-23.03907 -21.94531,-29.6211 l -1.09375,-2.19531 c -1.09766,-3.28906 -2.19532,-4.38672 -3.29297,-4.38672 V 440.76172 c 15.35937,-17.55469 36.20312,-7.67969 37.30078,-6.58594 13.16406,8.77735 16.45703,18.65235 13.16406,31.81641 -1.09765,4.39063 1.09766,8.77734 4.39063,9.875 3.28906,2.19531 8.77734,1.09766 10.96875,-2.19531 2.19531,-3.28906 6.58203,-4.38672 9.875,-4.38672 12.0664,1.09766 25.23437,15.35937 28.52343,27.42578 1.09766,4.39063 1.09766,19.75 0,27.42578 -9.875,-2.1914 -23.03906,-2.1914 -32.91015,4.39063 -9.875,-9.875 -21.94531,-13.16407 -23.03906,-14.26172 -4.39063,-1.09766 -9.875,1.09765 -10.97266,5.48437 -1.09766,4.39063 1.09766,9.875 5.48437,10.97266 0,0 13.16797,4.38672 20.84766,15.35937 3.28906,4.38672 4.38672,8.77344 5.48438,13.16407 0,4.38672 4.38671,7.67968 8.77734,7.67968 0,0 0,0 1.09766,0 4.38671,0 8.77343,-4.39062 7.67578,-8.77734 0,-5.48437 -2.19141,-10.97266 -4.38672,-16.45703 6.58203,-3.28906 17.55469,-2.19531 21.9414,0 4.39063,3.29297 15.35938,14.26172 16.45704,15.35937 10.96875,12.07032 15.35937,20.84375 13.16406,29.6211 z m 0,0" fill="#f1d9a0"></path>
</svg>
