<svg width="128" height="128" viewBox="0 0 32 29" xmlns="http://www.w3.org/2000/svg"><path d="M23.9958 0.793457H8.00422L0 14.6566L8.00422 28.5029H23.9958L32 14.6398L23.9958 0.793457ZM15.9916 20.2914C14.8772 20.2914 13.7877 19.961 12.8611 19.3418C11.9344 18.7226 11.2122 17.8426 10.7857 16.8129C10.3592 15.7833 10.2476 14.6503 10.465 13.5573C10.6825 12.4642 11.2191 11.4602 12.0072 10.6721C12.7952 9.88407 13.7992 9.3474 14.8923 9.12998C15.9854 8.91256 17.1184 9.02415 18.148 9.45064C19.1776 9.87713 20.0577 10.5994 20.6768 11.526C21.296 12.4527 21.6265 13.5421 21.6265 14.6566C21.628 16.1486 21.0371 17.5801 19.9837 18.6367C18.9302 19.6933 17.5004 20.2885 16.0084 20.2914H15.9916Z" fill="#d2801e"></path></svg>