<svg version="1.2" xmlns="http://www.w3.org/2000/svg" viewBox="0 0 1485 1486" width="1485" height="1486">
	<title>fleet-logo-svg</title>
	<style>
		.s0 { fill: #b53620 } 
		.s1 { fill: #f1d9a0 } 
	</style>
	<path id="Shape 1" class="s0" d="m0 0h1485v1486h-1485z"/>
	<path id="Layer" fill-rule="evenodd" class="s1" d="m523.3 405.4c10.9-17.2 21.4-17.6 39.1-9.2l211.9 101.5c21.6 10.1-28.7 134.6-164.7 61.8l-33.5 64.4c117.8 49.9 192.9 146.5 226.8 305l32.3-171.7 106.3 54.7 125.8-130.2c0 60.5-2.6 78.1-16.3 105.5l-105.1 212.3v237h-381.3l41.5-277.6-211.4-303.2c-13.7-19.9-11.1-34 1.7-53.9zm251.4 635.6l7.5 165.9 27.4-161.5 60-42.8c-63.6 12.8-92.2 8.8-152.7-19zm322.6-412.2l-154.9 139c-9.3 8-69.7-53.8-60.5-64l147-162c11-12.3 81.7 75.1 68.4 87zm-171.9-210.8c10.8-14.8 115.9 79.3 99.5 97.4l-157.5 174.7c-7.5 8.4-92.7-66.6-84.8-77.2zm-13.9-23.6l-123.6 179.6c16.4-59.1 11.1-85.2-6.6-94.4l-69.3-36.2 76.8-128.9c11.1-18.5 135.5 60.5 122.7 79.9zm-146.5-80.8l-72.8 120.5-117.9-55.6 70.2-126.7c11-19.8 132.4 42 120.5 61.8z"/>
</svg>