<svg xmlns="http://www.w3.org/2000/svg" xmlns:xlink="http://www.w3.org/1999/xlink" width="1980" zoomAndPan="magnify" viewBox="0 0 1485 1484.999939" height="1980" preserveAspectRatio="xMidYMid meet" version="1.0"><defs><g/><clipPath id="48d0c425d3"><path d="M 156.847656 156.847656 L 1328.347656 156.847656 L 1328.347656 1328.347656 L 156.847656 1328.347656 Z M 156.847656 156.847656 " clip-rule="nonzero"/></clipPath><clipPath id="ed63bad0b0"><path d="M 178.960938 177.371094 L 1306.210938 177.371094 L 1306.210938 1304.621094 L 178.960938 1304.621094 Z M 178.960938 177.371094 " clip-rule="nonzero"/></clipPath><clipPath id="68b70a878e"><path d="M 227.242188 1057.296875 L 1257.742188 1057.296875 L 1257.742188 1252.296875 L 227.242188 1252.296875 Z M 227.242188 1057.296875 " clip-rule="nonzero"/></clipPath><clipPath id="142274519d"><path d="M 247.167969 1076.175781 L 1237.917969 1076.175781 L 1237.917969 1233.675781 L 247.167969 1233.675781 Z M 247.167969 1076.175781 " clip-rule="nonzero"/></clipPath></defs><g clip-path="url(#48d0c425d3)"><path fill="#f1d9a0" d="M 1328.148438 742.5 C 1328.148438 752.082031 1327.914062 761.664062 1327.445312 771.234375 C 1326.972656 780.808594 1326.269531 790.363281 1325.328125 799.902344 C 1324.390625 809.441406 1323.214844 818.949219 1321.808594 828.429688 C 1320.402344 837.914062 1318.765625 847.351562 1316.894531 856.753906 C 1315.027344 866.152344 1312.925781 875.503906 1310.597656 884.800781 C 1308.269531 894.097656 1305.714844 903.332031 1302.929688 912.503906 C 1300.148438 921.675781 1297.144531 930.773438 1293.914062 939.796875 C 1290.683594 948.824219 1287.238281 957.761719 1283.570312 966.617188 C 1279.902344 975.472656 1276.019531 984.230469 1271.921875 992.898438 C 1267.824219 1001.5625 1263.515625 1010.121094 1258.996094 1018.574219 C 1254.476562 1027.023438 1249.753906 1035.363281 1244.828125 1043.582031 C 1239.898438 1051.804688 1234.773438 1059.898438 1229.449219 1067.867188 C 1224.125 1075.839844 1218.605469 1083.671875 1212.898438 1091.371094 C 1207.1875 1099.070312 1201.292969 1106.621094 1195.210938 1114.03125 C 1189.132812 1121.441406 1182.875 1128.695312 1176.4375 1135.796875 C 1170 1142.898438 1163.394531 1149.839844 1156.617188 1156.617188 C 1149.839844 1163.394531 1142.898438 1170 1135.796875 1176.4375 C 1128.695312 1182.875 1121.441406 1189.132812 1114.03125 1195.210938 C 1106.621094 1201.292969 1099.070312 1207.1875 1091.371094 1212.898438 C 1083.671875 1218.605469 1075.835938 1224.125 1067.867188 1229.449219 C 1059.898438 1234.773438 1051.804688 1239.898438 1043.582031 1244.828125 C 1035.363281 1249.753906 1027.023438 1254.476562 1018.574219 1258.996094 C 1010.121094 1263.515625 1001.5625 1267.824219 992.894531 1271.921875 C 984.230469 1276.019531 975.472656 1279.902344 966.617188 1283.570312 C 957.761719 1287.238281 948.824219 1290.683594 939.796875 1293.914062 C 930.773438 1297.144531 921.675781 1300.148438 912.503906 1302.929688 C 903.332031 1305.714844 894.097656 1308.269531 884.800781 1310.597656 C 875.503906 1312.925781 866.152344 1315.027344 856.753906 1316.894531 C 847.351562 1318.765625 837.914062 1320.402344 828.429688 1321.808594 C 818.949219 1323.214844 809.441406 1324.390625 799.902344 1325.328125 C 790.363281 1326.269531 780.808594 1326.972656 771.234375 1327.445312 C 761.664062 1327.914062 752.082031 1328.148438 742.5 1328.148438 C 732.914062 1328.148438 723.335938 1327.914062 713.761719 1327.445312 C 704.1875 1326.972656 694.632812 1326.269531 685.09375 1325.328125 C 675.554688 1324.390625 666.046875 1323.214844 656.566406 1321.808594 C 647.085938 1320.402344 637.644531 1318.765625 628.242188 1316.894531 C 618.84375 1315.027344 609.496094 1312.925781 600.199219 1310.597656 C 590.898438 1308.269531 581.664062 1305.714844 572.492188 1302.929688 C 563.320312 1300.148438 554.222656 1297.144531 545.199219 1293.914062 C 536.175781 1290.683594 527.234375 1287.238281 518.378906 1283.570312 C 509.523438 1279.902344 500.765625 1276.019531 492.101562 1271.921875 C 483.4375 1267.824219 474.878906 1263.515625 466.425781 1258.996094 C 457.972656 1254.476562 449.636719 1249.753906 441.414062 1244.828125 C 433.191406 1239.898438 425.097656 1234.773438 417.128906 1229.449219 C 409.160156 1224.125 401.324219 1218.605469 393.628906 1212.898438 C 385.929688 1207.1875 378.375 1201.292969 370.964844 1195.210938 C 363.558594 1189.132812 356.300781 1182.875 349.199219 1176.4375 C 342.097656 1170 335.160156 1163.394531 328.382812 1156.617188 C 321.605469 1149.839844 314.996094 1142.898438 308.558594 1135.796875 C 302.125 1128.695312 295.867188 1121.441406 289.785156 1114.03125 C 283.703125 1106.621094 277.808594 1099.070312 272.101562 1091.371094 C 266.390625 1083.671875 260.875 1075.839844 255.546875 1067.867188 C 250.222656 1059.898438 245.097656 1051.804688 240.167969 1043.582031 C 235.242188 1035.363281 230.519531 1027.023438 226 1018.574219 C 221.484375 1010.121094 217.175781 1001.5625 213.078125 992.894531 C 208.980469 984.230469 205.097656 975.472656 201.429688 966.617188 C 197.761719 957.761719 194.3125 948.824219 191.082031 939.796875 C 187.855469 930.773438 184.847656 921.675781 182.066406 912.503906 C 179.285156 903.332031 176.730469 894.097656 174.398438 884.800781 C 172.070312 875.503906 169.972656 866.152344 168.101562 856.753906 C 166.230469 847.351562 164.59375 837.914062 163.1875 828.429688 C 161.78125 818.949219 160.609375 809.441406 159.667969 799.902344 C 158.730469 790.363281 158.023438 780.808594 157.554688 771.234375 C 157.082031 761.664062 156.847656 752.082031 156.847656 742.5 C 156.847656 732.914062 157.082031 723.335938 157.554688 713.761719 C 158.023438 704.1875 158.730469 694.632812 159.667969 685.09375 C 160.609375 675.554688 161.78125 666.046875 163.1875 656.566406 C 164.59375 647.085938 166.230469 637.644531 168.101562 628.242188 C 169.972656 618.84375 172.070312 609.496094 174.398438 600.199219 C 176.730469 590.898438 179.285156 581.664062 182.066406 572.492188 C 184.847656 563.320312 187.855469 554.222656 191.082031 545.199219 C 194.3125 536.175781 197.761719 527.234375 201.429688 518.378906 C 205.097656 509.523438 208.980469 500.765625 213.078125 492.101562 C 217.175781 483.4375 221.484375 474.878906 226 466.425781 C 230.519531 457.972656 235.242188 449.636719 240.167969 441.414062 C 245.097656 433.191406 250.222656 425.097656 255.546875 417.128906 C 260.875 409.160156 266.390625 401.324219 272.101562 393.628906 C 277.808594 385.929688 283.703125 378.375 289.785156 370.964844 C 295.867188 363.558594 302.125 356.300781 308.5625 349.199219 C 314.996094 342.097656 321.605469 335.160156 328.382812 328.382812 C 335.160156 321.605469 342.097656 314.996094 349.199219 308.558594 C 356.300781 302.125 363.558594 295.867188 370.964844 289.785156 C 378.375 283.703125 385.929688 277.808594 393.628906 272.101562 C 401.324219 266.390625 409.160156 260.875 417.128906 255.546875 C 425.097656 250.222656 433.191406 245.097656 441.414062 240.167969 C 449.636719 235.242188 457.972656 230.519531 466.425781 226 C 474.878906 221.484375 483.4375 217.175781 492.101562 213.078125 C 500.765625 208.980469 509.523438 205.097656 518.378906 201.429688 C 527.234375 197.761719 536.175781 194.3125 545.199219 191.082031 C 554.222656 187.855469 563.320312 184.847656 572.492188 182.066406 C 581.664062 179.285156 590.898438 176.730469 600.199219 174.398438 C 609.496094 172.070312 618.84375 169.972656 628.242188 168.101562 C 637.644531 166.230469 647.085938 164.59375 656.566406 163.1875 C 666.046875 161.78125 675.554688 160.609375 685.09375 159.667969 C 694.632812 158.730469 704.1875 158.023438 713.761719 157.554688 C 723.335938 157.082031 732.914062 156.847656 742.5 156.847656 C 752.082031 156.847656 761.664062 157.082031 771.234375 157.554688 C 780.808594 158.023438 790.363281 158.730469 799.902344 159.667969 C 809.441406 160.609375 818.949219 161.78125 828.429688 163.1875 C 837.914062 164.59375 847.351562 166.230469 856.753906 168.101562 C 866.152344 169.972656 875.503906 172.070312 884.800781 174.398438 C 894.097656 176.730469 903.332031 179.285156 912.503906 182.066406 C 921.675781 184.847656 930.773438 187.855469 939.796875 191.082031 C 948.824219 194.3125 957.761719 197.761719 966.617188 201.429688 C 975.472656 205.097656 984.230469 208.980469 992.898438 213.078125 C 1001.5625 217.175781 1010.121094 221.484375 1018.574219 226 C 1027.023438 230.519531 1035.363281 235.242188 1043.582031 240.167969 C 1051.804688 245.097656 1059.898438 250.222656 1067.867188 255.546875 C 1075.835938 260.875 1083.671875 266.390625 1091.371094 272.101562 C 1099.070312 277.808594 1106.621094 283.703125 1114.03125 289.785156 C 1121.441406 295.867188 1128.695312 302.125 1135.796875 308.558594 C 1142.898438 314.996094 1149.839844 321.605469 1156.617188 328.382812 C 1163.394531 335.160156 1170 342.097656 1176.4375 349.199219 C 1182.875 356.300781 1189.132812 363.558594 1195.210938 370.964844 C 1201.292969 378.375 1207.1875 385.929688 1212.898438 393.628906 C 1218.605469 401.324219 1224.125 409.160156 1229.449219 417.128906 C 1234.773438 425.097656 1239.898438 433.191406 1244.828125 441.414062 C 1249.753906 449.636719 1254.476562 457.972656 1258.996094 466.425781 C 1263.515625 474.878906 1267.824219 483.4375 1271.921875 492.101562 C 1276.019531 500.765625 1279.902344 509.523438 1283.570312 518.378906 C 1287.238281 527.234375 1290.683594 536.175781 1293.914062 545.199219 C 1297.144531 554.222656 1300.148438 563.320312 1302.929688 572.492188 C 1305.714844 581.664062 1308.269531 590.898438 1310.597656 600.199219 C 1312.925781 609.496094 1315.027344 618.84375 1316.894531 628.242188 C 1318.765625 637.644531 1320.402344 647.085938 1321.808594 656.566406 C 1323.214844 666.046875 1324.390625 675.554688 1325.328125 685.09375 C 1326.269531 694.632812 1326.972656 704.1875 1327.445312 713.761719 C 1327.914062 723.335938 1328.148438 732.914062 1328.148438 742.5 Z M 1328.148438 742.5 " fill-opacity="1" fill-rule="nonzero"/></g><g clip-path="url(#ed63bad0b0)"><path fill="#b53620" d="M 1306.035156 740.910156 C 1306.035156 750.132812 1305.808594 759.347656 1305.355469 768.558594 C 1304.90625 777.769531 1304.226562 786.964844 1303.324219 796.144531 C 1302.417969 805.324219 1301.289062 814.472656 1299.9375 823.597656 C 1298.582031 832.71875 1297.007812 841.804688 1295.207031 850.847656 C 1293.410156 859.894531 1291.386719 868.890625 1289.148438 877.835938 C 1286.90625 886.78125 1284.449219 895.667969 1281.769531 904.496094 C 1279.09375 913.320312 1276.199219 922.074219 1273.09375 930.757812 C 1269.988281 939.441406 1266.667969 948.042969 1263.140625 956.566406 C 1259.609375 965.085938 1255.875 973.515625 1251.929688 981.851562 C 1247.988281 990.1875 1243.839844 998.425781 1239.496094 1006.558594 C 1235.148438 1014.691406 1230.601562 1022.714844 1225.859375 1030.625 C 1221.121094 1038.535156 1216.1875 1046.324219 1211.0625 1053.992188 C 1205.9375 1061.660156 1200.628906 1069.199219 1195.136719 1076.605469 C 1189.640625 1084.015625 1183.96875 1091.28125 1178.117188 1098.414062 C 1172.269531 1105.542969 1166.246094 1112.523438 1160.050781 1119.355469 C 1153.859375 1126.191406 1147.5 1132.867188 1140.980469 1139.390625 C 1134.457031 1145.910156 1127.78125 1152.269531 1120.949219 1158.460938 C 1114.113281 1164.65625 1107.132812 1170.675781 1100.003906 1176.527344 C 1092.875 1182.378906 1085.605469 1188.050781 1078.199219 1193.546875 C 1070.789062 1199.039062 1063.25 1204.347656 1055.582031 1209.472656 C 1047.914062 1214.597656 1040.125 1219.527344 1032.214844 1224.269531 C 1024.304688 1229.011719 1016.28125 1233.554688 1008.148438 1237.902344 C 1000.015625 1242.25 991.78125 1246.394531 983.441406 1250.339844 C 975.105469 1254.28125 966.675781 1258.019531 958.15625 1261.546875 C 949.632812 1265.078125 941.03125 1268.394531 932.347656 1271.503906 C 923.664062 1274.609375 914.910156 1277.503906 906.085938 1280.179688 C 897.257812 1282.855469 888.375 1285.316406 879.425781 1287.554688 C 870.480469 1289.796875 861.484375 1291.816406 852.441406 1293.617188 C 843.394531 1295.417969 834.308594 1296.992188 825.1875 1298.34375 C 816.0625 1299.699219 806.914062 1300.828125 797.734375 1301.730469 C 788.558594 1302.636719 779.363281 1303.3125 770.152344 1303.765625 C 760.9375 1304.21875 751.722656 1304.445312 742.5 1304.445312 C 733.277344 1304.445312 724.058594 1304.21875 714.847656 1303.765625 C 705.636719 1303.3125 696.441406 1302.636719 687.261719 1301.730469 C 678.085938 1300.828125 668.933594 1299.699219 659.8125 1298.34375 C 650.6875 1296.992188 641.605469 1295.417969 632.558594 1293.617188 C 623.511719 1291.816406 614.515625 1289.796875 605.570312 1287.554688 C 596.625 1285.316406 587.738281 1282.855469 578.914062 1280.179688 C 570.085938 1277.503906 561.332031 1274.609375 552.648438 1271.503906 C 543.964844 1268.394531 535.363281 1265.078125 526.84375 1261.546875 C 518.320312 1258.019531 509.894531 1254.28125 501.554688 1250.339844 C 493.21875 1246.394531 484.984375 1242.25 476.847656 1237.902344 C 468.714844 1233.554688 460.695312 1229.011719 452.78125 1224.269531 C 444.871094 1219.527344 437.082031 1214.597656 429.414062 1209.472656 C 421.746094 1204.347656 414.207031 1199.039062 406.800781 1193.546875 C 399.394531 1188.050781 392.125 1182.378906 384.996094 1176.527344 C 377.867188 1170.675781 370.882812 1164.65625 364.050781 1158.460938 C 357.21875 1152.269531 350.539062 1145.910156 344.019531 1139.390625 C 337.496094 1132.867188 331.140625 1126.191406 324.945312 1119.355469 C 318.753906 1112.523438 312.730469 1105.542969 306.878906 1098.414062 C 301.027344 1091.28125 295.355469 1084.015625 289.863281 1076.605469 C 284.367188 1069.199219 279.058594 1061.660156 273.933594 1053.992188 C 268.8125 1046.324219 263.878906 1038.535156 259.136719 1030.625 C 254.394531 1022.714844 249.851562 1014.691406 245.503906 1006.558594 C 241.15625 998.425781 237.011719 990.1875 233.066406 981.851562 C 229.125 973.515625 225.386719 965.085938 221.859375 956.5625 C 218.328125 948.042969 215.011719 939.441406 211.902344 930.757812 C 208.796875 922.074219 205.90625 913.320312 203.226562 904.496094 C 200.550781 895.667969 198.089844 886.78125 195.851562 877.835938 C 193.609375 868.890625 191.589844 859.894531 189.789062 850.847656 C 187.992188 841.804688 186.414062 832.71875 185.0625 823.597656 C 183.707031 814.472656 182.578125 805.324219 181.675781 796.144531 C 180.773438 786.964844 180.09375 777.769531 179.640625 768.558594 C 179.1875 759.347656 178.960938 750.132812 178.960938 740.910156 C 178.960938 731.683594 179.1875 722.46875 179.640625 713.257812 C 180.09375 704.046875 180.773438 694.851562 181.675781 685.671875 C 182.578125 676.492188 183.707031 667.34375 185.0625 658.21875 C 186.414062 649.097656 187.992188 640.011719 189.789062 630.96875 C 191.589844 621.921875 193.609375 612.925781 195.851562 603.980469 C 198.089844 595.035156 200.550781 586.148438 203.226562 577.320312 C 205.90625 568.496094 208.796875 559.742188 211.902344 551.058594 C 215.011719 542.375 218.328125 533.773438 221.859375 525.25 C 225.386719 516.730469 229.125 508.300781 233.066406 499.964844 C 237.011719 491.628906 241.15625 483.390625 245.503906 475.257812 C 249.851562 467.125 254.394531 459.101562 259.136719 451.191406 C 263.878906 443.28125 268.8125 435.492188 273.933594 427.824219 C 279.058594 420.15625 284.367188 412.617188 289.863281 405.210938 C 295.355469 397.800781 301.027344 390.535156 306.878906 383.402344 C 312.730469 376.273438 318.753906 369.292969 324.945312 362.460938 C 331.140625 355.625 337.496094 348.949219 344.019531 342.425781 C 350.539062 335.90625 357.21875 329.546875 364.050781 323.355469 C 370.882812 317.160156 377.867188 311.140625 384.996094 305.289062 C 392.125 299.4375 399.394531 293.765625 406.800781 288.269531 C 414.207031 282.777344 421.746094 277.46875 429.414062 272.34375 C 437.082031 267.21875 444.871094 262.289062 452.78125 257.546875 C 460.695312 252.804688 468.714844 248.261719 476.847656 243.914062 C 484.984375 239.566406 493.21875 235.421875 501.554688 231.476562 C 509.894531 227.535156 518.320312 223.796875 526.84375 220.269531 C 535.363281 216.738281 543.964844 213.421875 552.648438 210.3125 C 561.332031 207.207031 570.085938 204.3125 578.914062 201.636719 C 587.738281 198.960938 596.625 196.5 605.570312 194.257812 C 614.515625 192.019531 623.511719 190 632.558594 188.199219 C 641.605469 186.398438 650.6875 184.824219 659.8125 183.46875 C 668.933594 182.117188 678.085938 180.988281 687.261719 180.085938 C 696.441406 179.179688 705.636719 178.503906 714.847656 178.050781 C 724.058594 177.597656 733.277344 177.371094 742.5 177.371094 C 751.722656 177.371094 760.9375 177.597656 770.152344 178.050781 C 779.363281 178.503906 788.558594 179.179688 797.734375 180.085938 C 806.914062 180.988281 816.0625 182.117188 825.1875 183.46875 C 834.308594 184.824219 843.394531 186.398438 852.441406 188.199219 C 861.484375 190 870.480469 192.019531 879.425781 194.257812 C 888.375 196.5 897.257812 198.960938 906.085938 201.636719 C 914.910156 204.3125 923.664062 207.207031 932.347656 210.3125 C 941.03125 213.421875 949.632812 216.738281 958.15625 220.269531 C 966.675781 223.796875 975.105469 227.535156 983.441406 231.476562 C 991.78125 235.421875 1000.015625 239.566406 1008.148438 243.914062 C 1016.28125 248.261719 1024.304688 252.804688 1032.214844 257.546875 C 1040.125 262.289062 1047.914062 267.21875 1055.582031 272.34375 C 1063.25 277.46875 1070.789062 282.777344 1078.199219 288.269531 C 1085.605469 293.765625 1092.875 299.4375 1100.003906 305.289062 C 1107.132812 311.140625 1114.113281 317.160156 1120.949219 323.355469 C 1127.78125 329.546875 1134.457031 335.90625 1140.980469 342.425781 C 1147.5 348.949219 1153.859375 355.625 1160.050781 362.460938 C 1166.246094 369.292969 1172.269531 376.273438 1178.117188 383.402344 C 1183.96875 390.535156 1189.640625 397.800781 1195.136719 405.210938 C 1200.628906 412.617188 1205.9375 420.15625 1211.0625 427.824219 C 1216.1875 435.492188 1221.121094 443.28125 1225.859375 451.191406 C 1230.601562 459.101562 1235.148438 467.125 1239.496094 475.257812 C 1243.839844 483.390625 1247.988281 491.628906 1251.929688 499.964844 C 1255.875 508.300781 1259.609375 516.730469 1263.140625 525.25 C 1266.667969 533.773438 1269.988281 542.375 1273.09375 551.058594 C 1276.199219 559.742188 1279.09375 568.496094 1281.769531 577.320312 C 1284.449219 586.148438 1286.90625 595.035156 1289.148438 603.980469 C 1291.386719 612.925781 1293.410156 621.921875 1295.207031 630.96875 C 1297.007812 640.011719 1298.582031 649.097656 1299.9375 658.21875 C 1301.289062 667.34375 1302.417969 676.492188 1303.324219 685.671875 C 1304.226562 694.851562 1304.90625 704.046875 1305.355469 713.257812 C 1305.808594 722.46875 1306.035156 731.683594 1306.035156 740.910156 Z M 1306.035156 740.910156 " fill-opacity="1" fill-rule="nonzero"/></g><g clip-path="url(#68b70a878e)"><path fill="#f1d9a0" d="M 227.242188 1057.296875 L 1257.742188 1057.296875 L 1257.742188 1252.296875 L 227.242188 1252.296875 Z M 227.242188 1057.296875 " fill-opacity="1" fill-rule="nonzero"/></g><g clip-path="url(#142274519d)"><path fill="#b53620" d="M 247.167969 1076.175781 L 1237.917969 1076.175781 L 1237.917969 1233.675781 L 247.167969 1233.675781 Z M 247.167969 1076.175781 " fill-opacity="1" fill-rule="nonzero"/></g><path fill="#f1d9a0" d="M 719.738281 876.628906 C 767.101562 898.410156 789.574219 901.523438 839.359375 891.496094 L 792.339844 925.03125 L 770.902344 1051.566406 L 765.027344 921.574219 Z M 468.738281 577.574219 C 458.710938 593.132812 456.636719 604.195312 467.355469 619.753906 L 632.957031 857.269531 L 600.460938 1074.730469 L 899.167969 1074.730469 L 899.167969 889.074219 L 981.453125 722.78125 C 992.171875 701.34375 994.246094 687.515625 994.246094 640.152344 L 895.710938 742.140625 L 812.390625 699.269531 L 787.152344 833.757812 C 760.53125 709.644531 701.757812 633.929688 609.449219 594.859375 L 635.722656 544.382812 C 742.207031 601.429688 781.621094 503.933594 764.679688 495.984375 L 598.730469 416.464844 C 584.902344 409.898438 576.605469 410.242188 568.132812 423.726562 Z M 964.167969 530.554688 L 849.039062 657.4375 C 841.777344 665.390625 889.144531 713.792969 896.402344 707.570312 L 1017.753906 598.664062 C 1028.125 589.328125 972.808594 520.875 964.167969 530.554688 Z M 771.25 586.21875 C 765.027344 594.515625 831.753906 653.289062 837.628906 646.71875 L 961.054688 509.8125 C 973.847656 495.636719 891.5625 421.996094 883.09375 433.578125 Z M 776.089844 352.503906 L 715.933594 453.457031 L 770.210938 481.808594 C 784.042969 489.066406 788.191406 509.464844 775.398438 555.792969 L 872.203125 415.082031 C 882.230469 399.871094 784.734375 337.984375 776.089844 352.503906 Z M 663.035156 303.414062 L 608.066406 402.636719 L 700.375 446.199219 L 757.421875 351.8125 C 766.753906 336.257812 671.679688 287.855469 663.035156 303.414062 Z M 663.035156 303.414062 " fill-opacity="1" fill-rule="nonzero"/><g fill="#f1d9a0" fill-opacity="1"><g transform="translate(305.465923, 1196.517529)"><g><path d="M 49.621094 -84.820312 C 48.347656 -84.820312 47.605469 -84.1875 47.289062 -82.914062 L 35.519531 -30.113281 L 23.75 -82.914062 C 23.433594 -84.1875 22.691406 -84.820312 21.417969 -84.820312 L 7.421875 -84.820312 C 6.042969 -84.820312 5.300781 -84.078125 5.300781 -82.703125 L 5.300781 -2.121094 C 5.300781 -0.742188 6.042969 0 7.421875 0 L 17.175781 0 C 18.554688 0 19.296875 -0.742188 19.296875 -2.121094 L 19.296875 -49.832031 L 20.039062 -49.832031 L 30.535156 -1.910156 C 30.855469 -0.636719 31.597656 0 32.867188 0 L 38.0625 0 C 39.335938 0 40.078125 -0.636719 40.394531 -1.910156 L 50.894531 -49.832031 L 51.636719 -49.832031 L 51.636719 -2.121094 C 51.636719 -0.742188 52.378906 0 53.757812 0 L 63.617188 0 C 64.996094 0 65.738281 -0.742188 65.738281 -2.121094 L 65.738281 -82.703125 C 65.738281 -84.078125 64.996094 -84.820312 63.617188 -84.820312 Z M 49.621094 -84.820312 "/></g></g></g><g fill="#f1d9a0" fill-opacity="1"><g transform="translate(387.101882, 1196.517529)"><g><path d="M 6.996094 -84.820312 C 5.832031 -84.820312 5.300781 -84.1875 5.300781 -83.125 L 5.300781 -1.695312 C 5.300781 -0.636719 5.832031 0 6.996094 0 L 18.023438 0 C 19.085938 0 19.722656 -0.636719 19.722656 -1.695312 L 19.722656 -83.125 C 19.722656 -84.1875 19.085938 -84.820312 18.023438 -84.820312 Z M 6.996094 -84.820312 "/></g></g></g><g fill="#f1d9a0" fill-opacity="1"><g transform="translate(422.725386, 1196.517529)"><g><path d="M 37.851562 -84.820312 C 36.683594 -84.820312 36.15625 -84.1875 36.15625 -83.125 L 36.15625 -38.382812 L 35.519531 -38.382812 L 19.402344 -83.445312 C 19.085938 -84.398438 18.449219 -84.820312 17.496094 -84.820312 L 6.996094 -84.820312 C 5.9375 -84.820312 5.300781 -84.1875 5.300781 -83.125 L 5.300781 -1.695312 C 5.300781 -0.636719 5.9375 0 6.996094 0 L 18.023438 0 C 19.191406 0 19.722656 -0.636719 19.722656 -1.695312 L 19.722656 -46.652344 L 20.25 -46.652344 L 36.472656 -1.378906 C 36.792969 -0.425781 37.425781 0 38.382812 0 L 48.878906 0 C 49.9375 0 50.574219 -0.636719 50.574219 -1.695312 L 50.574219 -83.125 C 50.574219 -84.1875 49.9375 -84.820312 48.878906 -84.820312 Z M 37.851562 -84.820312 "/></g></g></g><g fill="#f1d9a0" fill-opacity="1"><g transform="translate(489.20055, 1196.517529)"><g><path d="M 49.621094 -84.820312 C 48.347656 -84.820312 47.605469 -84.1875 47.289062 -82.914062 L 35.519531 -30.113281 L 23.75 -82.914062 C 23.433594 -84.1875 22.691406 -84.820312 21.417969 -84.820312 L 7.421875 -84.820312 C 6.042969 -84.820312 5.300781 -84.078125 5.300781 -82.703125 L 5.300781 -2.121094 C 5.300781 -0.742188 6.042969 0 7.421875 0 L 17.175781 0 C 18.554688 0 19.296875 -0.742188 19.296875 -2.121094 L 19.296875 -49.832031 L 20.039062 -49.832031 L 30.535156 -1.910156 C 30.855469 -0.636719 31.597656 0 32.867188 0 L 38.0625 0 C 39.335938 0 40.078125 -0.636719 40.394531 -1.910156 L 50.894531 -49.832031 L 51.636719 -49.832031 L 51.636719 -2.121094 C 51.636719 -0.742188 52.378906 0 53.757812 0 L 63.617188 0 C 64.996094 0 65.738281 -0.742188 65.738281 -2.121094 L 65.738281 -82.703125 C 65.738281 -84.078125 64.996094 -84.820312 63.617188 -84.820312 Z M 49.621094 -84.820312 "/></g></g></g><g fill="#f1d9a0" fill-opacity="1"><g transform="translate(570.836514, 1196.517529)"><g><path d="M 56.40625 0 C 57.679688 0 58.101562 -0.636719 57.890625 -1.800781 L 40.289062 -83.335938 C 40.078125 -84.398438 39.441406 -84.820312 38.488281 -84.820312 L 23.75 -84.820312 C 22.796875 -84.820312 22.160156 -84.398438 21.949219 -83.335938 L 4.347656 -1.800781 C 4.027344 -0.636719 4.558594 0 5.726562 0 L 17.070312 0 C 18.023438 0 18.554688 -0.53125 18.765625 -1.484375 L 21.628906 -16.964844 L 40.503906 -16.964844 L 43.472656 -1.484375 C 43.683594 -0.53125 44.214844 0 45.167969 0 Z M 37.851562 -29.261719 L 24.28125 -29.261719 L 31.066406 -66.265625 Z M 37.851562 -29.261719 "/></g></g></g><g fill="#f1d9a0" fill-opacity="1"><g transform="translate(643.566825, 1196.517529)"><g><path d="M 4.878906 -84.820312 C 3.816406 -84.820312 3.179688 -84.1875 3.179688 -83.125 L 3.179688 -72.523438 C 3.179688 -71.460938 3.816406 -70.828125 4.878906 -70.828125 L 17.175781 -70.828125 L 17.175781 -1.695312 C 17.175781 -0.53125 17.8125 0 18.871094 0 L 29.898438 0 C 31.066406 0 31.597656 -0.53125 31.597656 -1.695312 L 31.597656 -70.828125 L 43.894531 -70.828125 C 45.0625 -70.828125 45.59375 -71.460938 45.59375 -72.523438 L 45.59375 -83.125 C 45.59375 -84.1875 45.0625 -84.820312 43.894531 -84.820312 Z M 4.878906 -84.820312 "/></g></g></g><g fill="#f1d9a0" fill-opacity="1"><g transform="translate(702.938699, 1196.517529)"><g><path d="M 56.40625 0 C 57.679688 0 58.101562 -0.636719 57.890625 -1.800781 L 40.289062 -83.335938 C 40.078125 -84.398438 39.441406 -84.820312 38.488281 -84.820312 L 23.75 -84.820312 C 22.796875 -84.820312 22.160156 -84.398438 21.949219 -83.335938 L 4.347656 -1.800781 C 4.027344 -0.636719 4.558594 0 5.726562 0 L 17.070312 0 C 18.023438 0 18.554688 -0.53125 18.765625 -1.484375 L 21.628906 -16.964844 L 40.503906 -16.964844 L 43.472656 -1.484375 C 43.683594 -0.53125 44.214844 0 45.167969 0 Z M 37.851562 -29.261719 L 24.28125 -29.261719 L 31.066406 -66.265625 Z M 37.851562 -29.261719 "/></g></g></g><g fill="#f1d9a0" fill-opacity="1"><g transform="translate(775.669009, 1196.517529)"><g><path d="M 48.878906 -69.554688 C 48.878906 -79.519531 43.578125 -84.820312 33.609375 -84.820312 L 6.996094 -84.820312 C 5.9375 -84.820312 5.300781 -84.1875 5.300781 -83.125 L 5.300781 -1.695312 C 5.300781 -0.636719 5.9375 0 6.996094 0 L 18.023438 0 C 19.085938 0 19.722656 -0.636719 19.722656 -1.695312 L 19.722656 -28.414062 L 27.035156 -28.414062 L 34.140625 -1.484375 C 34.351562 -0.53125 34.882812 0 35.941406 0 L 46.96875 0 C 48.136719 0 48.773438 -0.636719 48.453125 -1.910156 L 41.136719 -29.6875 C 46.226562 -31.914062 48.878906 -36.578125 48.878906 -43.683594 Z M 19.722656 -42.410156 L 19.722656 -70.828125 L 30.21875 -70.828125 C 32.972656 -70.828125 34.457031 -69.34375 34.457031 -66.585938 L 34.457031 -46.652344 C 34.457031 -43.894531 32.972656 -42.410156 30.21875 -42.410156 Z M 19.722656 -42.410156 "/></g></g></g><g fill="#f1d9a0" fill-opacity="1"><g transform="translate(840.447874, 1196.517529)"><g/></g></g><g fill="#f1d9a0" fill-opacity="1"><g transform="translate(877.555659, 1196.517529)"><g><path d="M 47.710938 -83.125 C 47.710938 -84.1875 47.078125 -84.820312 46.015625 -84.820312 L 6.996094 -84.820312 C 5.832031 -84.820312 5.300781 -84.1875 5.300781 -83.125 L 5.300781 -1.695312 C 5.300781 -0.636719 5.832031 0 6.996094 0 L 18.023438 0 C 19.085938 0 19.722656 -0.636719 19.722656 -1.695312 L 19.722656 -35.519531 L 39.652344 -35.519531 C 40.714844 -35.519531 41.351562 -36.050781 41.351562 -37.214844 L 41.351562 -47.820312 C 41.351562 -48.878906 40.714844 -49.515625 39.652344 -49.515625 L 19.722656 -49.515625 L 19.722656 -70.828125 L 46.015625 -70.828125 C 47.078125 -70.828125 47.710938 -71.460938 47.710938 -72.523438 Z M 47.710938 -83.125 "/></g></g></g><g fill="#f1d9a0" fill-opacity="1"><g transform="translate(941.168325, 1196.517529)"><g><path d="M 19.722656 -13.996094 L 44.957031 -13.996094 C 46.121094 -13.996094 46.652344 -13.359375 46.652344 -12.300781 L 46.652344 -1.695312 C 46.652344 -0.53125 46.121094 0 44.957031 0 L 6.996094 0 C 5.9375 0 5.300781 -0.53125 5.300781 -1.695312 L 5.300781 -83.125 C 5.300781 -84.1875 5.9375 -84.820312 6.996094 -84.820312 L 18.023438 -84.820312 C 19.191406 -84.820312 19.722656 -84.1875 19.722656 -83.125 Z M 19.722656 -13.996094 "/></g></g></g><g fill="#f1d9a0" fill-opacity="1"><g transform="translate(1003.720764, 1196.517529)"><g><path d="M 47.605469 -83.125 C 47.605469 -84.1875 47.183594 -84.820312 45.910156 -84.820312 L 6.890625 -84.820312 C 5.9375 -84.820312 5.300781 -84.1875 5.300781 -83.125 L 5.300781 -1.695312 C 5.300781 -0.636719 5.9375 0 6.890625 0 L 45.910156 0 C 47.183594 0 47.605469 -0.636719 47.605469 -1.695312 L 47.605469 -12.300781 C 47.605469 -13.464844 47.183594 -13.996094 45.910156 -13.996094 L 19.402344 -13.996094 L 19.402344 -35.414062 L 39.652344 -35.414062 C 40.714844 -35.414062 41.351562 -36.050781 41.351562 -37.214844 L 41.351562 -47.710938 C 41.351562 -48.878906 40.714844 -49.515625 39.652344 -49.515625 L 19.402344 -49.515625 L 19.402344 -70.71875 L 45.910156 -70.71875 C 47.183594 -70.71875 47.605469 -71.460938 47.605469 -72.523438 Z M 47.605469 -83.125 "/></g></g></g><g fill="#f1d9a0" fill-opacity="1"><g transform="translate(1067.227366, 1196.517529)"><g><path d="M 47.605469 -83.125 C 47.605469 -84.1875 47.183594 -84.820312 45.910156 -84.820312 L 6.890625 -84.820312 C 5.9375 -84.820312 5.300781 -84.1875 5.300781 -83.125 L 5.300781 -1.695312 C 5.300781 -0.636719 5.9375 0 6.890625 0 L 45.910156 0 C 47.183594 0 47.605469 -0.636719 47.605469 -1.695312 L 47.605469 -12.300781 C 47.605469 -13.464844 47.183594 -13.996094 45.910156 -13.996094 L 19.402344 -13.996094 L 19.402344 -35.414062 L 39.652344 -35.414062 C 40.714844 -35.414062 41.351562 -36.050781 41.351562 -37.214844 L 41.351562 -47.710938 C 41.351562 -48.878906 40.714844 -49.515625 39.652344 -49.515625 L 19.402344 -49.515625 L 19.402344 -70.71875 L 45.910156 -70.71875 C 47.183594 -70.71875 47.605469 -71.460938 47.605469 -72.523438 Z M 47.605469 -83.125 "/></g></g></g><g fill="#f1d9a0" fill-opacity="1"><g transform="translate(1130.734013, 1196.517529)"><g><path d="M 4.878906 -84.820312 C 3.816406 -84.820312 3.179688 -84.1875 3.179688 -83.125 L 3.179688 -72.523438 C 3.179688 -71.460938 3.816406 -70.828125 4.878906 -70.828125 L 17.175781 -70.828125 L 17.175781 -1.695312 C 17.175781 -0.53125 17.8125 0 18.871094 0 L 29.898438 0 C 31.066406 0 31.597656 -0.53125 31.597656 -1.695312 L 31.597656 -70.828125 L 43.894531 -70.828125 C 45.0625 -70.828125 45.59375 -71.460938 45.59375 -72.523438 L 45.59375 -83.125 C 45.59375 -84.1875 45.0625 -84.820312 43.894531 -84.820312 Z M 4.878906 -84.820312 "/></g></g></g></svg>