<svg width="16" height="16" viewBox="0 0 16 16" fill="none" xmlns="http://www.w3.org/2000/svg">
    <g clip-path="url(#clip0_1170_2)">
    <path d="M15.5 9.39999C15.5 13.4 10.275 15.5 8 15.5C5.725 15.5 0.5 13.4 0.5 9.39999C0.5 4.67499 3.6 2.14999 7.025 2.79999C7.45 2.87499 8.3 2.97499 8.625 2.89999C12.5 1.82499 15.5 4.54999 15.5 9.39999Z" fill="#E9841A"/>
    <path d="M4.54999 9.47499C4.54999 6.17499 5.74999 4.67499 6.84999 3.02499C4.32499 3.52499 1.89999 4.64999 1.89999 9.24999C1.89999 12.825 4.94999 14.9 6.89999 15.375C5.54999 13.925 4.54999 11.95 4.54999 9.47499ZM11.4 9.47499C11.4 6.17499 9.79999 4.77499 8.72499 3.12499C11.175 3.62499 13.925 4.64999 13.925 9.24999C13.925 12.825 10.975 14.9 9.09999 15.375C10.425 13.925 11.4 11.95 11.4 9.47499Z" fill="#BA6B24"/>
    <path d="M9.29998 8.75C9.29998 13.775 7.99998 15.5 7.99998 15.5C7.99998 15.5 6.69998 13.775 6.69998 8.75C6.69998 3.725 8.04998 2.5 8.04998 2.5C8.04998 2.5 9.29998 3.725 9.29998 8.75Z" fill="#BA6B24"/>
    <path d="M6.42501 7.175C6.70001 8.5 5.32501 9.575 4.97501 9.475C3.85001 9.125 2.32501 6.85 2.32501 6.4C2.32501 6.025 5.10001 7.3 5.37501 7.4C5.77501 7.525 6.35001 6.85 6.42501 7.175ZM9.57501 7.175C9.30001 8.5 10.675 9.575 11.025 9.475C12.15 9.125 13.675 6.85 13.675 6.4C13.675 6.025 10.9 7.3 10.625 7.4C10.225 7.525 9.65001 6.85 9.57501 7.175Z" fill="#FFCE31"/>
    <path d="M6.425 7.17501C6.7 8.50001 5.325 9.57501 4.975 9.47501C3.85 9.12501 3.125 7.47501 3.125 7.02501C3.125 6.65001 5.1 7.30001 5.375 7.37501C5.775 7.52501 6.35 6.85001 6.425 7.17501ZM9.575 7.17501C9.3 8.50001 10.675 9.57501 11.025 9.47501C12.15 9.12501 12.875 7.47501 12.875 7.02501C12.875 6.65001 10.9 7.30001 10.625 7.37501C10.225 7.52501 9.65 6.85001 9.575 7.17501Z" fill="white"/>
    <path d="M9.42501 9.67501C9.42501 10.525 8.77501 9.75001 8.00001 9.75001C7.20001 9.75001 6.57501 10.5 6.57501 9.67501C6.57501 8.82501 7.70001 8.32501 8.00001 8.32501C8.30001 8.32501 9.42501 8.82501 9.42501 9.67501Z" fill="#FFCE31"/>
    <path d="M9.05001 9.19999C9.05001 9.74999 8.57501 9.24999 8.00001 9.24999C7.42501 9.24999 6.95001 9.74999 6.95001 9.19999C6.95001 8.64999 7.77501 8.29999 8.00001 8.29999C8.22501 8.32499 9.05001 8.64999 9.05001 9.19999Z" fill="white"/>
    <path d="M1.70001 8.875L2.47501 12.075L3.67501 11.55L4.60001 13.175L6.17501 12.575L7.22501 13.775L8.17501 12.65L10.025 13.975L10.75 12.275L11.65 13.175L12.225 11.75L13.075 12.25L14.675 8.875L12.85 10.975L12.025 10.125L11.325 11.425L10.175 10.8L9.42501 11.875L8.20001 10.95L7.17501 12.35L6.10001 10.9L4.80001 11.65L4.07501 10.25L2.90001 10.875L1.70001 8.875Z" fill="#FFCE31"/>
    <path d="M4.47501 12.1L6.02501 11.9L7.17501 13.15L8.25001 12.175L9.77501 13.225L10.475 11.675L11.525 11.95L12.025 10.125L11.325 11.425L10.175 10.8L9.42501 11.875L8.20001 10.95L7.17501 12.35L6.10001 10.9L4.80001 11.65L4.07501 10.25L4.47501 12.1Z" fill="white"/>
    <path d="M6.02499 3.22501C6.02499 3.22501 6.42499 3.45001 6.37499 3.77501C6.37499 3.77501 7.74999 3.97501 8.77499 3.87501C8.77499 3.87501 9.02499 3.12501 8.72499 2.82501C8.62499 2.72501 8.89999 1.62501 9.42499 1.32501C9.59999 1.22501 8.29999 0.300007 7.92499 0.600007C6.84999 1.50001 6.82499 2.82501 6.82499 2.82501C6.34999 2.95001 6.02499 3.22501 6.02499 3.22501Z" fill="#83BF4F"/>
    <path d="M6.37501 3.77499C6.37501 3.77499 6.90001 3.32499 6.82501 2.79999C6.82501 2.79999 6.27501 2.97499 6.05001 3.22499C6.02501 3.22499 6.37501 3.42499 6.37501 3.77499Z" fill="#699635"/>
    <path d="M8.77499 3.87501C8.77499 3.87501 7.89999 2.42501 8.89999 1.32501C9.02499 1.17501 9.52499 1.25001 9.52499 1.25001C9.07499 1.65001 8.69999 2.57501 8.92499 2.77501C9.14999 3.00001 9.64999 3.25001 9.79999 3.37501C9.94999 3.47501 9.12499 3.52501 8.77499 3.87501Z" fill="#75A843"/>
    <path d="M9.47499 1.32499C9.29999 1.42499 8.82499 1.34999 8.39999 1.12499C7.99999 0.89999 7.79999 0.64999 7.97499 0.54999C8.14999 0.44999 8.62499 0.52499 9.04999 0.74999C9.44999 0.94999 9.64999 1.22499 9.47499 1.32499Z" fill="#ADEA73"/>
    </g>
    <defs>
    <clipPath id="clip0_1170_2">
    <rect width="16" height="16" fill="white"/>
    </clipPath>
    </defs>
</svg>