<svg class="[ w-full ]" xmlns="http://www.w3.org/2000/svg" width="160" height="160" xmlns:xlink="http://www.w3.org/1999/xlink" viewBox="-20 -20 180 180" xml:space="preserve">
	<defs>
	</defs>
	<g>
		<path d="M112.727,14.19L82.745,69.283c-5.087-4.35-11.397-6.926-18.234-6.926c-16.848,0-30.507,15.643-30.507,34.94    c0,13.53,7.927,24.501,17.206,30.84c8.531,5.829,18.532,8.477,29.511,8.477c33.695,0,61.012-28.25,61.012-63.098    C141.732,49.158,130.313,27.568,112.727,14.19 M65.053,54.267c5.418,0,10.604,1.058,15.388,2.991l25.272-47.77    C95.424,3.448,83.533,0,70.865,0c-8.779,0-17.184,1.661-24.943,4.689l16.473,49.673C63.275,54.305,64.16,54.267,65.053,54.267     M53.351,55.982L37.629,8.576C23.297,16.487,11.891,29.351,5.541,44.971l29.92,21.715C40.469,61.717,46.576,57.998,53.351,55.982     M29.668,73.721L2.524,54.02C0.881,60.229,0,66.765,0,73.516c0,7.693,1.145,15.108,3.258,22.078h18.574    C22.662,87.491,25.446,80.021,29.668,73.721 M21.732,104.688H6.68c7.765,17.178,21.738,30.734,38.932,37.539    C32.411,135.173,23.048,121.157,21.732,104.688" fill="#653834"/>
	</g>
</svg>