<svg width="21" height="24" viewBox="0 0 21 24" fill="none" xmlns="http://www.w3.org/2000/svg">
    <g clip-path="url(#clip0_1102_4)">
    <path d="M20.662 14.947L19.131 15.826L17.737 15.023L19.358 14.084C19.737 13.871 18.949 12.493 18.57 12.72L16.161 14.114L14.222 12.993V11.008L16.161 9.88701L18.57 11.281C18.949 11.494 19.737 10.13 19.358 9.91701L17.738 8.97801L19.132 8.17501L20.663 9.05401C20.936 9.22101 21.526 8.20601 21.239 8.05401L20.285 7.50801L21.178 6.99301C21.617 6.73601 20.693 5.14501 20.254 5.40201L19.36 5.91701V4.81101C19.36 4.49301 18.193 4.49301 18.193 4.81101V6.58301L16.799 7.38601V5.50701C16.799 5.06801 15.224 5.06801 15.224 5.50701V8.29501L13.3 9.40101L11.573 8.43101V6.18901L13.981 4.79601C14.36 4.58301 13.572 3.20501 13.193 3.43201L11.574 4.36901V2.76401L13.104 1.88201C13.377 1.71501 12.801 0.715006 12.528 0.882006L11.574 1.42801V0.386006C11.574 -0.128994 9.72599 -0.128994 9.72599 0.386006V1.41601L8.77199 0.870006C8.49899 0.703006 7.90899 1.71801 8.19599 1.87001L9.72499 2.74901V4.35501L8.10299 3.41601C7.72399 3.20301 6.93599 4.56701 7.31499 4.78001L9.72399 6.17401V8.41701L7.99699 9.38601L6.07299 8.26501V5.50701C6.07299 5.06801 4.49799 5.06801 4.49799 5.50701V7.38601L3.10399 6.58301V4.81101C3.10399 4.49301 1.93699 4.49301 1.93699 4.81101V5.91701L1.04299 5.40201C0.603991 5.14501 -0.321009 6.75201 0.118991 6.99301L1.01299 7.50801L0.0739912 8.05401C-0.199009 8.22101 0.376991 9.22101 0.649991 9.05401L2.19599 8.17501L3.58999 8.97801L1.96799 9.91701C1.58899 10.13 2.37699 11.508 2.75599 11.281L5.16499 9.88701L7.10399 11.008V12.993L5.16499 14.114L2.75399 12.721C2.37499 12.508 1.58699 13.872 1.96599 14.085L3.58699 15.024L2.19299 15.827L0.664991 14.948C0.391991 14.781 -0.198009 15.796 0.0889912 15.948L1.04299 16.494L0.148991 17.009C-0.290009 17.266 0.633991 18.857 1.07299 18.6L1.96799 18.086V19.192C1.96799 19.51 3.13499 19.51 3.13499 19.192V17.418L4.53099 16.615V18.494C4.53099 18.933 6.10599 18.933 6.10599 18.494V15.706L8.02999 14.6L9.75699 15.57V17.813L7.34799 19.207C6.96899 19.42 7.75699 20.798 8.13599 20.571L9.75699 19.632V21.238L8.21099 22.132C7.93799 22.299 8.51399 23.299 8.78699 23.132L9.74099 22.586V23.616C9.74099 24.131 11.589 24.131 11.589 23.616V22.586L12.543 23.132C12.816 23.299 13.406 22.284 13.119 22.132L11.588 21.253V19.647L13.209 20.586C13.588 20.799 14.376 19.435 13.997 19.222L11.588 17.828V15.586L13.315 14.616L15.239 15.737V18.495C15.239 18.934 16.814 18.934 16.814 18.495V16.616L18.208 17.419V19.192C18.208 19.51 19.375 19.51 19.375 19.192V18.087L20.269 18.602C20.708 18.859 21.633 17.252 21.193 17.011L20.299 16.496L21.253 15.95C21.512 15.782 20.935 14.782 20.662 14.949V14.947ZM10.662 14.356L8.61699 13.189V10.811L10.662 9.66001L12.707 10.811V13.19L10.662 14.356Z" fill="white"/>
    </g>
    <defs>
    <clipPath id="clip0_1102_4">
    <rect width="21" height="24" fill="white"/>
    </clipPath>
    </defs>
</svg>