<svg xmlns="http://www.w3.org/2000/svg" id="svg26" version="1.0" preserveAspectRatio="xMidYMid" height="1932.0001" viewBox="0 0 1449 1449" zoomAndPan="magnify" width="1932">
  
  <defs id="defs4">
    <clipPath id="2a5bc5e781">
      <path id="path1" clip-rule="nonzero" d="M 17.839844,17.839844 H 1466.8398 V 1466.8398 H 17.839844 Z m 0,0"></path>
    </clipPath>
    <clipPath id="50fe42c4c1">
      <path id="path2" clip-rule="nonzero" d="M 37.878906,39.867188 H 1447.1289 V 1449.1172 H 37.878906 Z m 0,0"></path>
    </clipPath>
    <clipPath id="3d0d17b45e">
      <path id="path3" clip-rule="nonzero" d="M 44.746094,1124.2148 H 1440.4961 v 264 H 44.746094 Z m 0,0"></path>
    </clipPath>
    <clipPath id="bb57935df7">
      <path id="path4" clip-rule="nonzero" d="M 71.726562,1149.7773 H 1413.4766 v 213 H 71.726562 Z m 0,0"></path>
    </clipPath>
  </defs>
  <g transform="translate(-17.839843,-17.839844)" id="g5" clip-path="url(#2a5bc5e781)">
    <path id="path5" fill-rule="nonzero" fill-opacity="1" d="m 1467.1563,742.5 c 0,11.85937 -0.2891,23.71094 -0.8711,35.55469 -0.5821,11.84765 -1.4571,23.67187 -2.6172,35.47265 -1.1641,11.80078 -2.6133,23.57032 -4.3555,35.30078 -1.7383,11.73047 -3.7656,23.41016 -6.082,35.04297 -2.3125,11.63282 -4.9102,23.19922 -7.793,34.70313 -2.8789,11.5039 -6.043,22.93359 -9.4844,34.28125 -3.4453,11.34765 -7.164,22.60547 -11.1562,33.77344 -3.9961,11.16406 -8.2656,22.22659 -12.8008,33.18359 -4.5391,10.957 -9.3438,21.7969 -14.4141,32.5156 -5.0703,10.7227 -10.4023,21.3125 -15.9922,31.7696 -5.5898,10.4609 -11.4335,20.7773 -17.5312,30.9492 -6.0977,10.1719 -12.4414,20.1875 -19.0313,30.0508 -6.5859,9.8593 -13.414,19.5546 -20.4804,29.0781 -7.0625,9.5273 -14.3555,18.8711 -21.8789,28.039 -7.5235,9.168 -15.2696,18.1485 -23.2344,26.9336 -7.9648,8.7891 -16.1406,17.375 -24.5234,25.7618 -8.3868,8.3828 -16.9727,16.5586 -25.7618,24.5234 -8.7851,7.9648 -17.7656,15.7109 -26.9336,23.2344 -9.1679,7.5234 -18.5117,14.8164 -28.039,21.8789 -9.5235,7.0664 -19.2188,13.8945 -29.0781,20.4804 -9.8633,6.5899 -19.8789,12.9336 -30.0508,19.0313 -10.1719,6.0977 -20.4883,11.9414 -30.9492,17.5312 -10.4571,5.5899 -21.0469,10.9219 -31.7696,15.9922 -10.7187,5.0703 -21.5586,9.875 -32.5156,14.4141 -10.957,4.5352 -22.01953,8.8047 -33.18359,12.8008 -11.16797,3.9922 -22.42579,7.7148 -33.77344,11.1562 -11.34766,3.4414 -22.77735,6.6055 -34.28125,9.4844 -11.50391,2.8828 -23.07031,5.4805 -34.70313,7.793 -11.63281,2.3164 -23.3125,4.3437 -35.04297,6.082 -11.73046,1.7422 -23.5,3.1914 -35.30078,4.3555 -11.80468,1.1601 -23.625,2.0351 -35.47265,2.6172 -11.84375,0.582 -23.69532,0.8711 -35.55469,0.8711 -11.86328,0 -23.71484,-0.2891 -35.55859,-0.8711 -11.84766,-0.5821 -23.66797,-1.4571 -35.47266,-2.6172 -11.80078,-1.1641 -23.57031,-2.6133 -35.30078,-4.3555 -11.73047,-1.7383 -23.41016,-3.7656 -35.04297,-6.082 -11.63281,-2.3125 -23.19922,-4.9102 -34.70313,-7.793 -11.5039,-2.8789 -22.93359,-6.043 -34.28125,-9.4844 -11.34765,-3.4414 -22.60546,-7.164 -33.77343,-11.1562 -11.16407,-3.9961 -22.22657,-8.2656 -33.1836,-12.8008 -10.95703,-4.5391 -21.79687,-9.3438 -32.51562,-14.4141 -10.72266,-5.0703 -21.3125,-10.4023 -31.76953,-15.9922 -10.46094,-5.5898 -20.77735,-11.4335 -30.94922,-17.5312 -10.17188,-6.0977 -20.1875,-12.4414 -30.05078,-19.0313 -9.85938,-6.5859 -19.55469,-13.414 -29.07813,-20.4804 -9.52734,-7.0625 -18.87109,-14.3555 -28.03906,-21.8789 -9.16797,-7.5235 -18.14453,-15.2696 -26.93359,-23.2344 -8.78907,-7.9648 -17.375,-16.1406 -25.76172,-24.5234 -8.38282,-8.3868 -16.5586,-16.9727 -24.52344,-25.7618 -7.96484,-8.789 -15.71094,-17.7656 -23.23438,-26.9336 -7.52343,-9.1679 -14.8164,-18.5117 -21.8789,-28.039 -7.06641,-9.5235 -13.89453,-19.2188 -20.48047,-29.0781 -6.58984,-9.8633 -12.93359,-19.8789 -19.03125,-30.0508 -6.09766,-10.1719 -11.94141,-20.4883 -17.53125,-30.9492 -5.589844,-10.4571 -10.921875,-21.0469 -15.992188,-31.7696 -5.070312,-10.7187 -9.875,-21.5586 -14.414062,-32.5156 -4.539062,-10.957 -8.804688,-22.01953 -12.800781,-33.18359 -3.992188,-11.16797 -7.714844,-22.42579 -11.15625,-33.77344 -3.441407,-11.34766 -6.605469,-22.77735 -9.484375,-34.28125 -2.882813,-11.50391 -5.480469,-23.07031 -7.792969,-34.70313 -2.316406,-11.63281 -4.34375,-23.3125 -6.082031,-35.04297 -1.742188,-11.73046 -3.191406,-23.5 -4.355469,-35.30078 -1.160156,-11.80078 -2.035156,-23.625 -2.613281,-35.47265 -0.582032,-11.84375 -0.875,-23.69532 -0.875,-35.55469 0,-11.86328 0.292968,-23.71484 0.875,-35.55859 0.578125,-11.84766 1.453125,-23.66797 2.613281,-35.47266 1.164063,-11.80078 2.613281,-23.57031 4.355469,-35.30078 1.738281,-11.73047 3.765625,-23.41016 6.082031,-35.04297 2.3125,-11.63281 4.910156,-23.19922 7.792969,-34.70313 2.878906,-11.5039 6.042968,-22.93359 9.484375,-34.28125 3.441406,-11.34765 7.164062,-22.60546 11.15625,-33.77343 3.996093,-11.16407 8.261719,-22.22657 12.800781,-33.1836 4.539062,-10.95703 9.34375,-21.79687 14.414062,-32.51562 5.070313,-10.72266 10.402344,-21.3125 15.992188,-31.76953 5.58984,-10.46094 11.43359,-20.77735 17.53125,-30.94922 6.09766,-10.17188 12.44141,-20.1875 19.03125,-30.05078 6.58594,-9.85938 13.41406,-19.55469 20.48047,-29.07813 7.0625,-9.52734 14.35547,-18.87109 21.8789,-28.03906 7.52344,-9.16797 15.26954,-18.14453 23.23438,-26.93359 7.96484,-8.78907 16.14062,-17.375 24.52344,-25.76172 8.38672,-8.38282 16.97265,-16.5586 25.76172,-24.52344 8.78906,-7.96484 17.76562,-15.71094 26.93359,-23.23438 9.16797,-7.52343 18.51172,-14.8164 28.03906,-21.8789 9.52344,-7.06641 19.21875,-13.89453 29.07813,-20.48047 9.86328,-6.58984 19.8789,-12.93359 30.05078,-19.03125 10.17187,-6.09766 20.48828,-11.94141 30.94922,-17.53125 10.45703,-5.589844 21.04687,-10.921875 31.76953,-15.992188 10.71875,-5.070312 21.55859,-9.875 32.51562,-14.414062 10.95703,-4.535156 22.01953,-8.804688 33.1836,-12.800781 11.16797,-3.992188 22.42578,-7.714844 33.77343,-11.15625 11.34766,-3.441407 22.77735,-6.605469 34.28125,-9.484375 11.50391,-2.882813 23.07032,-5.480469 34.70313,-7.792969 11.63281,-2.316406 23.3125,-4.34375 35.04297,-6.082031 11.73047,-1.742188 23.5,-3.191406 35.30078,-4.355469 11.80469,-1.160156 23.625,-2.035156 35.47266,-2.613281 11.84375,-0.582032 23.69531,-0.875 35.55859,-0.875 11.85937,0 23.71094,0.292968 35.55469,0.875 11.84765,0.578125 23.66797,1.453125 35.47265,2.613281 11.80078,1.164063 23.57032,2.613281 35.30078,4.355469 11.73047,1.738281 23.41016,3.765625 35.04297,6.082031 11.63282,2.3125 23.19922,4.910156 34.70313,7.792969 11.5039,2.878906 22.93359,6.042968 34.28125,9.484375 11.34765,3.441406 22.60547,7.164062 33.77344,11.15625 11.16406,3.996093 22.22659,8.265625 33.18359,12.800781 10.957,4.539062 21.7969,9.34375 32.5156,14.414062 10.7227,5.070313 21.3125,10.402344 31.7735,15.992188 10.457,5.58984 20.7734,11.43359 30.9453,17.53125 10.1719,6.09766 20.1875,12.44141 30.0508,19.03125 9.8593,6.58594 19.5546,13.41406 29.0781,20.48047 9.5273,7.0625 18.8711,14.35547 28.039,21.8789 9.168,7.52344 18.1485,15.26954 26.9336,23.23438 8.7891,7.96484 17.375,16.14062 25.7618,24.52344 8.3828,8.38672 16.5586,16.97265 24.5234,25.76172 7.9648,8.78906 15.7109,17.76562 23.2344,26.93359 7.5234,9.16797 14.8164,18.51172 21.8828,28.03906 7.0625,9.52344 13.8906,19.21875 20.4765,29.07813 6.5899,9.86328 12.9336,19.8789 19.0313,30.05078 6.0977,10.17187 11.9414,20.48828 17.5312,30.94922 5.5899,10.45703 10.9219,21.04687 15.9922,31.76953 5.0703,10.71875 9.875,21.55859 14.4141,32.51562 4.5352,10.95703 8.8047,22.01953 12.8008,33.1836 3.9922,11.16797 7.7148,22.42578 11.1562,33.77343 3.4414,11.34766 6.6055,22.77735 9.4844,34.28125 2.8828,11.50391 5.4805,23.07032 7.793,34.70313 2.3164,11.63281 4.3437,23.3125 6.082,35.04297 1.7422,11.73047 3.1914,23.5 4.3555,35.30078 1.1601,11.80469 2.0351,23.625 2.6172,35.47266 0.582,11.84375 0.8711,23.69531 0.8711,35.55859 z m 0,0" fill="#f1d9a0"></path>
  </g>
  <g transform="translate(-17.839843,-17.839844)" id="g6" clip-path="url(#50fe42c4c1)">
    <path id="path6" fill-rule="nonzero" fill-opacity="1" d="m 1447.1172,744.48828 c 0,11.53125 -0.2813,23.05469 -0.8477,34.57422 -0.5664,11.51562 -1.414,23.01172 -2.5468,34.48828 -1.1289,11.47656 -2.5391,22.91797 -4.2305,34.32422 -1.6953,11.40625 -3.6641,22.76562 -5.9141,34.07812 -2.25,11.3086 -4.7773,22.55469 -7.5781,33.74219 -2.8008,11.1875 -5.875,22.29688 -9.2227,33.33203 -3.3476,11.03516 -6.9648,21.98047 -10.8515,32.83985 -3.8828,10.85547 -8.0313,21.61331 -12.4453,32.26561 -4.4141,10.6524 -9.086,21.1914 -14.0157,31.6172 -4.9296,10.4258 -10.1132,20.7227 -15.5468,30.8906 -5.4375,10.1719 -11.1211,20.2032 -17.0469,30.0938 -5.9297,9.8906 -12.0977,19.6289 -18.5039,29.2187 -6.4063,9.586 -13.043,19.0117 -19.9141,28.2735 -6.8711,9.2656 -13.9609,18.3515 -21.2773,27.2656 -7.3164,8.9141 -14.8438,17.6445 -22.5899,26.1875 -7.7421,8.543 -15.6914,16.8945 -23.8476,25.0469 -8.1524,8.1562 -16.5039,16.1054 -25.0469,23.8476 -8.543,7.7461 -17.2734,15.2735 -26.1875,22.5899 -8.9141,7.3164 -18.0039,14.4101 -27.2656,21.2773 -9.2617,6.8711 -18.6875,13.5078 -28.2735,19.9141 -9.5898,6.4062 -19.3281,12.5742 -29.2187,18.5039 -9.8945,5.9258 -19.9219,11.6094 -30.0938,17.0469 -10.1679,5.4335 -20.4648,10.6171 -30.8906,15.5468 -10.4258,4.9336 -20.9648,9.6055 -31.6172,14.0157 -10.6562,4.414 -21.41013,8.5625 -32.2695,12.4492 -10.85547,3.8828 -21.80078,7.5 -32.83594,10.8476 -11.03515,3.3477 -22.14844,6.4219 -33.33203,9.2227 -11.1875,2.8047 -22.43359,5.3281 -33.74609,7.5781 -11.3086,2.25 -22.66797,4.2227 -34.07422,5.9141 -11.40625,1.6914 -22.84766,3.1015 -34.32422,4.2343 -11.47656,1.129 -22.97266,1.9766 -34.49219,2.543 -11.51562,0.5664 -23.03906,0.8477 -34.57422,0.8477 -11.53125,0 -23.05468,-0.2813 -34.57031,-0.8477 -11.51953,-0.5664 -23.01562,-1.414 -34.49219,-2.543 -11.47656,-1.1328 -22.91797,-2.5429 -34.32422,-4.2343 -11.40625,-1.6914 -22.76562,-3.6641 -34.07421,-5.9141 -11.3125,-2.25 -22.5586,-4.7734 -33.7461,-7.5781 -11.1875,-2.8008 -22.29687,-5.875 -33.33203,-9.2227 -11.03516,-3.3476 -21.98047,-6.9648 -32.83984,-10.8476 -10.85547,-3.8867 -21.61328,-8.0352 -32.26563,-12.4492 -10.65234,-4.4102 -21.1914,-9.0821 -31.61719,-14.0157 -10.42578,-4.9297 -20.72265,-10.1133 -30.89062,-15.5468 -10.17188,-5.4375 -20.20313,-11.1172 -30.09375,-17.0469 -9.89063,-5.9297 -19.62891,-12.0977 -29.21875,-18.5039 -9.58594,-6.4063 -19.01172,-13.043 -28.27344,-19.9141 -9.26172,-6.8672 -18.35156,-13.9609 -27.26562,-21.2773 -8.91407,-7.3164 -17.64453,-14.8438 -26.1875,-22.5899 -8.54297,-7.7422 -16.89453,-15.6914 -25.04688,-23.8476 -8.15625,-8.1524 -16.10547,-16.5039 -23.84765,-25.0469 -7.7461,-8.543 -15.27344,-17.2734 -22.58985,-26.1875 -7.3164,-8.9141 -14.41015,-18.0039 -21.27734,-27.2656 -6.8711,-9.2618 -13.50781,-18.6875 -19.91406,-28.2735 -6.40625,-9.5898 -12.57422,-19.3281 -18.50391,-29.2187 -5.92578,-9.8906 -11.60937,-19.9219 -17.04687,-30.0938 -5.4336,-10.1679 -10.61719,-20.4648 -15.54688,-30.8906 -4.93359,-10.4258 -9.605469,-20.9648 -14.015625,-31.6172 -4.414063,-10.6523 -8.5625,-21.41014 -12.449219,-32.26561 -3.882812,-10.85938 -7.5,-21.80469 -10.847656,-32.83985 -3.347656,-11.03515 -6.421875,-22.14453 -9.222656,-33.33203 -2.804688,-11.1875 -5.328125,-22.43359 -7.578125,-33.74219 -2.25,-11.3125 -4.222657,-22.67187 -5.914063,-34.07812 -1.691406,-11.40625 -3.101562,-22.84766 -4.230468,-34.32422 -1.132813,-11.47656 -1.980469,-22.97266 -2.546876,-34.48828 -0.566406,-11.51953 -0.847656,-23.04297 -0.847656,-34.57422 0,-11.53125 0.28125,-23.05859 0.847656,-34.57422 0.566407,-11.51953 1.414063,-23.01562 2.546876,-34.49219 1.128906,-11.47656 2.539062,-22.91796 4.230468,-34.32421 1.691406,-11.40625 3.664063,-22.76563 5.914063,-34.07422 2.25,-11.3125 4.777343,-22.5586 7.578125,-33.7461 2.800781,-11.18359 5.875,-22.29687 9.222656,-33.33203 3.347656,-11.03515 6.964844,-21.98047 10.847656,-32.83594 3.886719,-10.85937 8.035156,-21.61328 12.449219,-32.26953 4.410156,-10.65234 9.082035,-21.1914 14.015625,-31.61718 4.92969,-10.42188 10.11328,-20.72266 15.54688,-30.89063 5.4375,-10.17187 11.12109,-20.19922 17.04687,-30.08984 5.92969,-9.89453 12.09766,-19.63282 18.50391,-29.21875 6.40625,-9.58985 13.04296,-19.01563 19.91406,-28.27735 6.86719,-9.26172 13.96094,-18.35156 21.27734,-27.26562 7.31641,-8.91406 14.84375,-17.64063 22.58985,-26.1875 7.74218,-8.54297 15.6914,-16.89453 23.84765,-25.04688 8.15235,-8.15234 16.50391,-16.10156 25.04688,-23.84765 8.54297,-7.74219 17.27343,-15.27344 26.1875,-22.58985 8.91406,-7.3164 18.0039,-14.40625 27.26562,-21.27734 9.26172,-6.86719 18.6875,-13.50781 28.27344,-19.91406 9.58984,-6.40625 19.32812,-12.57422 29.21875,-18.50391 9.89062,-5.92578 19.92187,-11.60937 30.09375,-17.04297 10.16797,-5.4375 20.46484,-10.62109 30.89062,-15.55078 10.42579,-4.92969 20.96485,-9.601561 31.61719,-14.015624 10.65235,-4.414062 21.41016,-8.5625 32.26563,-12.445312 10.85937,-3.886719 21.80468,-7.503906 32.83984,-10.851563 11.03516,-3.347656 22.14453,-6.421875 33.33203,-9.222656 11.1875,-2.800781 22.4336,-5.328125 33.7461,-7.578125 11.30859,-2.25 22.66796,-4.21875 34.07421,-5.910156 11.40625,-1.695313 22.84766,-3.105469 34.32422,-4.234375 11.47657,-1.132813 22.97266,-1.980469 34.49219,-2.546875 11.51563,-0.5625 23.03906,-0.847656 34.57031,-0.847656 11.53516,0 23.0586,0.285156 34.57422,0.847656 11.51953,0.566406 23.01563,1.414062 34.49219,2.546875 11.47656,1.128906 22.91797,2.539062 34.32422,4.234375 11.40625,1.691406 22.76562,3.660156 34.07422,5.910156 11.3125,2.25 22.55859,4.777344 33.74609,7.578125 11.18359,2.800781 22.29688,5.875 33.33203,9.222656 11.03516,3.347657 21.98047,6.964844 32.83594,10.851563 10.85937,3.882812 21.6133,8.03125 32.2695,12.445312 10.6524,4.414063 21.1914,9.085934 31.6172,14.015624 10.4258,4.92969 20.7227,10.11328 30.8906,15.55078 10.1719,5.4336 20.1993,11.11719 30.0938,17.04297 9.8906,5.92969 19.6289,12.09766 29.2187,18.50391 9.586,6.40625 19.0118,13.04687 28.2735,19.91406 9.2617,6.87109 18.3515,13.96094 27.2656,21.27734 8.9141,7.31641 17.6445,14.84766 26.1875,22.58985 8.543,7.74609 16.8945,15.69531 25.0469,23.84765 8.1562,8.15235 16.1055,16.50391 23.8476,25.04688 7.7461,8.54687 15.2735,17.27344 22.5899,26.1875 7.3164,8.91406 14.4062,18.0039 21.2773,27.26562 6.8711,9.26172 13.5078,18.6875 19.9141,28.27735 6.4062,9.58593 12.5742,19.32422 18.5039,29.21875 5.9258,9.89062 11.6094,19.91797 17.0469,30.08984 5.4336,10.16797 10.6172,20.46875 15.5468,30.89063 4.9297,10.42578 9.6016,20.96484 14.0157,31.61718 4.414,10.65625 8.5625,21.41016 12.4453,32.26953 3.8867,10.85547 7.5039,21.80079 10.8515,32.83594 3.3477,11.03516 6.4219,22.14844 9.2227,33.33203 2.8008,11.1875 5.3281,22.4336 7.5781,33.7461 2.25,11.30859 4.2188,22.66797 5.9141,34.07422 1.6914,11.40625 3.1016,22.84765 4.2305,34.32421 1.1328,11.47657 1.9804,22.97266 2.5468,34.49219 0.5664,11.51563 0.8477,23.04297 0.8477,34.57422 z m 0,0" fill="#b53620"></path>
  </g>
  <g transform="translate(-17.839843,-17.839844)" id="g7" clip-path="url(#3d0d17b45e)">
    <path id="path7" fill-rule="nonzero" fill-opacity="1" d="M 44.746094,1124.2148 H 1440.4961 v 264 H 44.746094 Z m 0,0" fill="#f1d9a0"></path>
  </g>
  <g transform="translate(-17.839843,-17.839844)" id="g8" clip-path="url(#bb57935df7)">
    <path id="path8" fill-rule="nonzero" fill-opacity="1" d="M 71.726562,1149.7773 H 1413.4766 v 213 H 71.726562 Z m 0,0" fill="#b53620"></path>
  </g>
  <path id="path9" fill-rule="nonzero" fill-opacity="0.996" d="m 798.8086,539.09766 c 23.67578,4.57031 45.69531,14.12109 66.04687,28.66016 1.6836,1.15234 3.27344,2.41796 4.76953,3.79687 1.5,1.37891 2.89063,2.85938 4.17578,4.4375 1.28516,1.57813 2.44922,3.23828 3.49219,4.98438 1.04688,1.74609 1.96094,3.55859 2.7461,5.4375 0.78515,1.8789 1.42968,3.80468 1.9375,5.78125 0.50781,1.97265 0.875,3.97265 1.09765,6.0039 0.22266,2.03125 0.29688,4.06641 0.23047,6.10938 -0.0703,2.04297 -0.28125,4.07422 -0.64062,6.09375 -0.35938,2.01562 -0.85547,4.0039 -1.4961,5.95312 -0.64062,1.94922 -1.41797,3.84766 -2.32422,5.69531 -0.91015,1.84375 -1.94531,3.61719 -3.10547,5.32032 -1.16406,1.70312 -2.4375,3.3164 -3.82421,4.84375 -1.39063,1.52343 -2.87891,2.94531 -4.46875,4.26172 -1.58594,1.32031 -3.25782,2.51953 -5.01563,3.60546 -1.75781,1.08204 -3.58203,2.03907 -5.46875,2.86719 -1.89062,0.82813 -3.82812,1.51953 -5.8125,2.07422 -66.04687,17.86328 -115.89453,2.07813 -149.54297,-47.35547 -59.40234,-86.40234 -115.0664,-178.62109 -166.99219,-276.65625 -13.29296,-24.92578 -5.60937,-38.00781 23.05469,-39.2539 l 24.30078,-1.2461 c 2.94532,-0.0859 5.88282,0.0312 8.8086,0.35156 2.92968,0.32422 5.82031,0.84766 8.67578,1.57032 2.85547,0.72656 5.64453,1.64453 8.37109,2.75781 2.73047,1.10937 5.36719,2.40625 7.91406,3.88672 2.54688,1.47656 4.98047,3.125 7.29688,4.9414 2.32031,1.82032 4.5,3.78907 6.54297,5.91016 2.04687,2.11719 3.93359,4.37109 5.66406,6.75391 1.73438,2.38281 3.28906,4.875 4.67578,7.47265 l 94.08594,177.58594 c 1.66406,3.01953 3.48437,5.94141 5.46484,8.76563 1.98047,2.82421 4.11328,5.53125 6.39063,8.12109 2.28125,2.58984 4.69531,5.05078 7.24609,7.37891 2.55078,2.33203 5.21875,4.51562 8.00781,6.55468 2.79297,2.03907 5.6875,3.92188 8.6836,5.64453 2.99609,1.72657 6.08203,3.28516 9.25,4.67188 3.16797,1.39062 6.40625,2.60547 9.71094,3.64453 3.30078,1.03906 6.65234,1.89844 10.05078,2.57422 z m 0,0" fill="#f1d9a0"></path>
  <path id="path10" fill-rule="nonzero" fill-opacity="0.996" d="m 543.96094,644.40235 c -17.03125,-22.84766 -22.22656,-48.60157 -15.57812,-77.26563 0.34765,-1.55078 0.80468,-3.07031 1.37109,-4.55469 0.56641,-1.48437 1.23828,-2.92187 2.01172,-4.30859 0.77344,-1.38672 1.64453,-2.71484 2.60937,-3.97656 0.96485,-1.26172 2.01563,-2.44922 3.15235,-3.5586 1.13672,-1.10937 2.34765,-2.13281 3.6289,-3.07031 1.28516,-0.9375 2.63282,-1.77344 4.03516,-2.51562 1.40625,-0.74219 2.85937,-1.37891 4.35547,-1.91407 1.5,-0.53125 3.02734,-0.95312 4.58594,-1.26562 1.55859,-0.30859 3.1289,-0.50781 4.71484,-0.59375 1.58984,-0.0859 3.17187,-0.0547 4.75781,0.0898 1.58203,0.14453 3.14453,0.40235 4.69141,0.76953 1.54687,0.3711 3.05469,0.85157 4.53125,1.4375 1.47656,0.58985 2.90234,1.28125 4.28125,2.07422 1.375,0.79297 2.6875,1.6836 3.9375,2.66797 1.24609,0.98438 2.41797,2.05078 3.51172,3.20313 1.09375,1.15234 2.10156,2.3789 3.01953,3.67578 l 67.91797,100.32031 c 12.46093,17.86328 12.04687,35.51563 -1.2461,52.96484 -63.97265,83.91016 -113.82031,174.67579 -149.54687,272.29297 -12.46094,34.89454 -32.81641,40.29294 -61.0625,16.19926 l -13.70703,-11.2149 c -1.14844,-1.0039 -2.25,-2.0508 -3.30469,-3.1484 -1.05469,-1.09768 -2.0625,-2.2383 -3.01953,-3.4258 -0.95703,-1.18359 -1.86328,-2.40625 -2.71094,-3.66797 -0.85156,-1.26172 -1.64453,-2.55469 -2.38281,-3.88672 -0.73828,-1.32812 -1.41797,-2.6875 -2.03906,-4.07422 -0.61719,-1.38672 -1.17579,-2.79687 -1.67188,-4.23047 -0.49609,-1.43359 -0.92969,-2.88671 -1.30078,-4.35546 -0.36719,-1.47266 -0.67188,-2.95704 -0.91406,-4.44922 -0.23828,-1.4961 -0.41407,-3 -0.51953,-4.50782 -0.10938,-1.50781 -0.15235,-3.01953 -0.12891,-4.53125 0.0234,-1.51171 0.11719,-3.01953 0.27344,-4.51953 0.15234,-1.5039 0.375,-2.99218 0.66406,-4.47656 0.28516,-1.48047 0.63672,-2.94531 1.05469,-4.39453 0.41406,-1.44922 0.89453,-2.875 1.43359,-4.28125 0.54297,-1.40625 1.14453,-2.78516 1.80859,-4.13672 0.66407,-1.35547 1.38282,-2.67578 2.16407,-3.96094 L 547.07422,713.56641 c 14.95703,-24.09375 13.91797,-47.14844 -3.11328,-69.16406 z m 0,0" fill="#f1d9a0"></path>
  <path id="path11" fill-rule="nonzero" fill-opacity="0.996" d="m 757.0586,816.375 c -15.36719,31.98828 -40.70703,54.00391 -76.01563,66.05078 -1.15234,0.41797 -2.32422,0.76172 -3.52344,1.02344 -1.19531,0.26172 -2.40625,0.44141 -3.625,0.54297 -1.22265,0.10156 -2.44531,0.11719 -3.66796,0.0547 -1.22266,-0.0625 -2.4375,-0.20703 -3.64063,-0.4336 -1.20703,-0.22656 -2.39062,-0.53125 -3.55078,-0.91796 -1.16406,-0.38282 -2.29688,-0.84375 -3.39844,-1.38282 -1.10156,-0.53515 -2.16015,-1.14453 -3.17969,-1.82422 -1.02343,-0.67968 -1.99218,-1.42187 -2.91015,-2.23046 -0.92188,-0.8086 -1.78516,-1.67579 -2.58594,-2.60157 -0.80469,-0.92578 -1.54297,-1.89843 -2.21875,-2.92187 -0.67187,-1.02344 -1.27344,-2.08985 -1.80469,-3.19141 -0.53125,-1.10547 -0.98437,-2.23828 -1.36328,-3.40625 -0.3789,-1.16406 -0.67578,-2.35156 -0.89844,-3.55469 -0.21875,-1.20703 -0.35546,-2.42187 -0.41406,-3.64453 -0.0547,-1.22265 -0.0312,-2.44531 0.0781,-3.66797 0.10547,-1.21875 0.29297,-2.42578 0.5625,-3.62109 43.61718,-208.11719 300.95703,-152.03906 450.49998,-147.67578 39.0508,1.24609 44.4492,15.37109 16.2031,42.37109 l -28.039,27.41407 c -2.7383,2.64453 -5.6055,5.13281 -8.6094,7.46875 -3.0039,2.33593 -6.1211,4.51171 -9.3555,6.51953 -3.2344,2.00781 -6.5664,3.83984 -9.9961,5.49218 -3.4297,1.65625 -6.9414,3.12891 -10.5273,4.41407 -3.5899,1.28515 -7.2344,2.3789 -10.9414,3.27734 -3.7071,0.90234 -7.4493,1.60547 -11.2305,2.10938 -3.7852,0.50781 -7.582,0.8125 -11.3984,0.91796 -3.8164,0.10547 -7.629,0.008 -11.4375,-0.28906 L 806.28516,787.71485 c -22.84766,-1.66407 -39.25391,7.89062 -49.22656,28.66015 z m 0,0" fill="#f1d9a0"></path>
  <g transform="translate(-17.839843,-17.839844)" id="g14" fill-opacity="1" fill="#f1d9a0">
    <g id="g13" transform="translate(524.76244,1312.7431)">
      <g id="g12">
        <path id="path12" d="m 76.386719,0 c 1.722656,0 2.296875,-0.863281 2.007812,-2.441406 L 54.5625,-112.85547 c -0.289062,-1.43359 -1.148438,-2.00781 -2.441406,-2.00781 H 32.164062 c -1.292968,0 -2.15625,0.57422 -2.441406,2.00781 L 5.886719,-2.441406 C 5.457031,-0.863281 6.175781,0 7.753906,0 h 15.363282 c 1.292968,0 2.007812,-0.71875 2.296874,-2.011719 l 3.875,-20.960937 h 25.558594 l 4.019532,20.960937 C 59.15625,-0.71875 59.875,0 61.164062,0 Z M 51.257812,-39.628906 H 32.878906 l 9.191406,-50.109375 z m 0,0"></path>
      </g>
    </g>
  </g>
  <g transform="translate(-17.839843,-17.839844)" id="g17" fill-opacity="1" fill="#f1d9a0">
    <g id="g16" transform="translate(623.25313,1312.7431)">
      <g id="g15">
        <path id="path14" d="m 64.753906,-94.1875 c 0,-13.5 -7.320312,-20.67578 -20.816406,-20.67578 H 9.476562 c -1.4375,0 -2.296874,0.71484 -2.296874,2.29687 V -2.296875 C 7.179688,-0.863281 8.039062,0 9.476562,0 H 43.9375 C 57.433594,0 64.753906,-7.179688 64.753906,-20.675781 V -47.09375 c 0,-5.3125 -3.875,-9.332031 -9.042968,-10.195312 v -0.285157 c 5.167968,-0.863281 9.042968,-4.882812 9.042968,-10.195312 z m -19.09375,21.679688 c 0,3.589843 -2.011718,5.597656 -5.746094,5.597656 h -13.0625 v -29.003906 h 13.0625 c 3.878907,0 5.746094,2.011718 5.746094,5.746093 z m 0,47.8125 c 0,3.875 -2.011718,5.742187 -5.746094,5.742187 h -13.0625 v -29.003906 h 13.0625 c 3.878907,0 5.746094,2.011719 5.746094,5.742187 z m 0,0"></path>
      </g>
    </g>
  </g>
  <g transform="translate(-17.839843,-17.839844)" id="g20" fill-opacity="1" fill="#f1d9a0">
    <g id="g19" transform="translate(709.54032,1312.7431)">
      <g id="g18">
        <path id="path17" d="m 58.582031,-114.86328 c -1.722656,0 -2.730469,0.71484 -3.304687,2.29687 L 39.199219,-71.359375 23.117188,-112.56641 c -0.574219,-1.58203 -1.578126,-2.29687 -3.304688,-2.29687 H 5.457031 c -2.15625,0 -3.160156,1.28906 -2.296875,3.30078 l 26.273438,63.894531 V -2.871094 C 29.433594,-1.003906 30.4375,0 32.304688,0 h 13.785156 c 1.867187,0 2.871094,-1.003906 2.871094,-2.871094 V -47.667969 L 75.238281,-111.5625 c 0.859375,-2.01172 -0.144531,-3.30078 -2.300781,-3.30078 z m 0,0"></path>
      </g>
    </g>
  </g>
  <g transform="translate(-17.839843,-17.839844)" id="g23" fill-opacity="1" fill="#f1d9a0">
    <g id="g22" transform="translate(802.28817,1312.7431)">
      <g id="g21">
        <path id="path20" d="m 27.855469,-114.86328 c -13.355469,0 -20.675781,7.17578 -20.675781,20.67578 v 33.882812 c 0,2.730469 1.292968,4.453126 3.875,5.3125 l 34.03125,11.199219 v 19.097657 c 0,3.875 -2.011719,5.742187 -5.746094,5.742187 h -6.890625 c -3.589844,0 -5.742188,-1.867187 -5.742188,-5.742187 V -35.75 c 0,-1.582031 -0.71875,-2.300781 -2.296875,-2.300781 H 9.476562 c -1.4375,0 -2.296874,0.71875 -2.296874,2.300781 v 15.074219 C 7.179688,-7.179688 14.5,0 27.855469,0 H 43.9375 C 57.433594,0 64.613281,-7.179688 64.613281,-20.675781 V -53.84375 c 0,-2.726562 -1.292969,-4.308594 -3.734375,-5.3125 L 26.707031,-70.355469 v -19.8125 c 0,-3.734375 2.152344,-5.746093 5.742188,-5.746093 h 6.890625 c 3.878906,0 5.746094,2.011718 5.746094,5.746093 v 11.199219 c 0,1.433594 0.859374,2.296875 2.296874,2.296875 H 62.3125 c 1.582031,0 2.300781,-0.863281 2.300781,-2.296875 V -94.1875 c 0,-13.5 -7.179687,-20.67578 -20.675781,-20.67578 z m 0,0"></path>
      </g>
    </g>
  </g>
  <g transform="translate(-17.839843,-17.839844)" id="g26" fill-opacity="1" fill="#f1d9a0">
    <g id="g25" transform="translate(888.43179,1312.7431)">
      <g id="g24">
        <path id="path23" d="m 27.855469,-114.86328 c -13.355469,0 -20.675781,7.17578 -20.675781,20.67578 v 33.882812 c 0,2.730469 1.292968,4.453126 3.875,5.3125 l 34.03125,11.199219 v 19.097657 c 0,3.875 -2.011719,5.742187 -5.746094,5.742187 h -6.890625 c -3.589844,0 -5.742188,-1.867187 -5.742188,-5.742187 V -35.75 c 0,-1.582031 -0.71875,-2.300781 -2.296875,-2.300781 H 9.476562 c -1.4375,0 -2.296874,0.71875 -2.296874,2.300781 v 15.074219 C 7.179688,-7.179688 14.5,0 27.855469,0 H 43.9375 C 57.433594,0 64.613281,-7.179688 64.613281,-20.675781 V -53.84375 c 0,-2.726562 -1.292969,-4.308594 -3.734375,-5.3125 L 26.707031,-70.355469 v -19.8125 c 0,-3.734375 2.152344,-5.746093 5.742188,-5.746093 h 6.890625 c 3.878906,0 5.746094,2.011718 5.746094,5.746093 v 11.199219 c 0,1.433594 0.859374,2.296875 2.296874,2.296875 H 62.3125 c 1.582031,0 2.300781,-0.863281 2.300781,-2.296875 V -94.1875 c 0,-13.5 -7.179687,-20.67578 -20.675781,-20.67578 z m 0,0"></path>
      </g>
    </g>
  </g>
</svg>
