<svg xmlns="http://www.w3.org/2000/svg" xml:space="preserve" id="svg1" version="1.1" viewBox="0 0 163.43153 163.43317" height="163.43317mm" width="163.43153mm"><defs id="defs1"></defs><g transform="translate(-23.093506,-66.735258)" id="layer1"><g id="g1"><path id="path1" d="m 101.22344,228.16491 c -16.8527,-0.78789 -33.05935,-6.91383 -46.154205,-17.4458 -8.868671,-7.13292 -15.997752,-15.93116 -21.155535,-26.10878 -5.044069,-9.95322 -7.873992,-20.63943 -8.475302,-32.004 -0.109121,-2.06236 -0.05787,-7.57786 0.08733,-9.398 0.388575,-4.87101 1.069129,-9.19293 2.118294,-13.45242 3.127618,-12.69777 9.128407,-24.08533 17.940668,-34.045578 2.204477,-2.491659 6.160427,-6.276161 8.902756,-8.516917 9.302607,-7.601158 20.127864,-12.976683 31.777842,-15.780003 4.570895,-1.099889 8.9815,-1.757375 13.942152,-2.078349 1.71324,-0.110852 7.5684,-0.110384 9.33049,7.47e-4 11.04284,0.696444 21.34972,3.468492 31.01318,8.341031 6.31931,3.18634 11.53067,6.702211 16.97567,11.452722 2.55577,2.229795 6.58227,6.41412 8.89896,9.247769 13.83384,16.920838 20.07503,38.759578 17.2981,60.528288 -1.58206,12.40194 -6.18226,24.44355 -13.30595,34.83002 -5.21469,7.6031 -11.77446,14.28906 -19.31319,19.68471 -14.43996,10.33502 -32.16033,15.57304 -49.88126,14.74456 z m 10.20234,-12.82567 c 2.46879,-0.21815 2.81042,-0.27229 7.78933,-1.23439 4.33162,-0.83701 8.35553,-2.09364 12.65767,-3.95288 14.57232,-6.29766 25.72264,-16.90631 32.93213,-31.33233 3.23706,-6.47728 5.15479,-12.6883 6.13305,-19.86331 0.7056,-5.17515 0.79874,-11.28817 0.25542,-16.764 -0.56782,-5.72283 -1.93933,-11.58909 -3.86986,-16.55233 -1.74995,-4.49898 -4.11826,-9.02845 -6.92815,-13.25033 -2.64931,-3.9806 -5.05015,-6.8946 -8.61934,-10.46161 -4.50688,-4.50413 -8.44427,-7.491224 -14.27292,-10.828108 -1.04031,-0.595578 -4.26249,-2.184586 -5.50333,-2.713959 -6.922,-2.953079 -14.09232,-4.693866 -21.5265,-5.226132 -2.05317,-0.147001 -2.05317,-0.147001 -2.05317,-5.630432 0,-5.483431 0,-5.483431 -3.47133,-5.483431 -3.47134,0 -3.47134,0 -3.47134,5.545667 0,5.2249 -0.009,5.545704 -0.14816,5.546304 -0.0815,3.51e-4 -1.23402,0.09311 -2.561169,0.206127 -1.790073,0.152442 -2.893857,0.295759 -4.275667,0.55516 -5.976908,1.122017 -9.006255,1.922386 -12.403667,3.27711 -17.868503,7.1251 -30.444955,19.317404 -37.972519,36.812634 -2.029993,4.71802 -2.735672,7.20102 -4.222987,14.859 -0.772026,3.97505 -0.932968,5.67043 -0.932339,9.82133 0.0011,7.25811 1.143174,14.26299 3.453991,21.18497 2.420721,7.25119 5.843006,13.8902 10.114519,19.62151 7.152054,9.59628 17.136074,17.06484 28.850564,21.58171 4.660091,1.79684 12.747476,3.85085 16.033438,4.07213 0.721783,0.0486 1.921933,0.13273 2.666996,0.18694 2.01945,0.14693 3.70493,0.20546 6.43467,0.22344 2.03627,0.0134 2.87439,-0.0208 4.91067,-0.20079 z m -7.28134,-5.28928 c -0.23283,-0.0356 -1.14723,-0.10775 -2.032,-0.1603 -2.835491,-0.16843 -3.601058,-0.26234 -5.61526,-0.68887 -7.810904,-1.65401 -12.888759,-3.37117 -18.768736,-6.34697 -5.479181,-2.77296 -9.890881,-5.77517 -14.319014,-9.74426 -1.502991,-1.34719 -3.439463,-3.5626 -5.43093,-6.21323 -4.350441,-5.7904 -7.805482,-12.49948 -10.268186,-19.939 -1.705435,-5.1519 -2.791479,-10.60938 -3.209685,-16.129 -0.0494,-0.65193 -0.106997,-1.39488 -0.128005,-1.651 -0.103663,-1.26381 0.333083,-4.81685 1.014721,-8.255 1.504336,-7.5878 2.126299,-9.72908 4.229911,-14.56266 3.110117,-7.14628 7.217189,-13.6083 12.050803,-18.96059 2.48617,-2.75296 7.14649,-6.40675 11.827051,-9.272678 4.106203,-2.514245 10.060139,-5.315078 14.016857,-6.59377 2.687823,-0.868623 10.226406,-2.522359 12.187477,-2.673561 0.349246,-0.02693 1.835146,-0.148453 3.301996,-0.270056 2.667,-0.221097 2.667,-0.221097 4.52967,-0.07912 10.80694,0.823728 20.3169,3.768193 29.083,9.004649 4.82287,2.880956 9.57898,6.642616 12.45258,9.848886 3.30907,3.69216 6.40195,8.02691 8.83456,12.38185 4.97473,8.90594 7.52548,17.74717 8.17434,28.33332 0.10463,1.7071 -0.0138,3.90181 -0.38587,7.1524 -0.57381,5.01285 -1.86527,10.41076 -3.52463,14.732 -2.96956,7.73319 -7.25266,14.84018 -12.61738,20.93613 -1.12242,1.27542 -1.69639,1.84099 -3.13153,3.08578 -5.85088,5.07483 -12.36757,8.9825 -19.66574,11.79237 -3.90153,1.50213 -6.65839,2.28852 -10.69665,3.05121 -0.86901,0.16412 -2.26581,0.43033 -3.10401,0.59157 -2.69992,0.51936 -7.3522,0.85216 -8.80534,0.6299 z M 92.714444,183.81531 c 4.917763,0.0568 48.847116,0.0572 48.996336,4.5e-4 0.20807,-0.0791 0.20807,-0.0791 0.0188,-0.8276 -0.10408,-0.41167 -0.26895,-0.89942 -0.36636,-1.08389 -0.0974,-0.18448 -0.17712,-0.39895 -0.17712,-0.47661 0,-0.17405 -0.40466,-1.07146 -0.51346,-1.1387 -0.0436,-0.0269 -0.0794,-0.13243 -0.0797,-0.23446 -2.8e-4,-0.10202 -0.0633,-0.2998 -0.13996,-0.4395 -0.0767,-0.1397 -0.20659,-0.37957 -0.28866,-0.53304 -0.0821,-0.15347 -0.18357,-0.32492 -0.22556,-0.381 -0.23872,-0.31883 -0.57789,-1.93281 -0.69447,-3.30471 -0.0468,-0.55078 -0.14831,-1.22674 -0.22558,-1.50212 -0.14637,-0.52166 -0.0885,-0.75613 0.18651,-0.75613 0.17981,0 0.22291,-0.34427 0.12834,-1.02519 -0.15687,-1.12944 -0.21206,-2.41598 -0.10644,-2.48126 0.12292,-0.076 0.12557,-0.44483 0.004,-0.52013 -0.0532,-0.0329 -0.0772,-0.20624 -0.0565,-0.40716 0.0363,-0.35189 -0.1467,-1.17092 -0.43765,-1.95859 -0.22455,-0.60793 -0.43076,-1.55068 -0.42994,-1.96556 5.5e-4,-0.27208 -0.0568,-0.42297 -0.24154,-0.635 -0.30634,-0.35167 -0.51974,-0.76558 -0.51974,-1.00807 0,-0.10342 -0.0533,-0.24819 -0.11841,-0.32171 -0.0651,-0.0735 -0.23113,-0.34354 -0.36891,-0.60007 -0.52812,-0.98325 -1.45872,-2.23597 -2.37259,-3.19384 -1.20854,-1.26673 -1.29857,-1.35786 -2.19723,-2.22409 -0.48675,-0.46918 -0.81581,-0.86701 -0.94542,-1.143 -0.10934,-0.23283 -0.28245,-0.52277 -0.38468,-0.64431 -0.10224,-0.12154 -0.25385,-0.50955 -0.3369,-0.86223 -0.15709,-0.66705 -0.14123,-1.27742 0.12142,-4.67412 0.0396,-0.51224 0.10859,-1.48379 0.15329,-2.159 0.0447,-0.67522 0.12436,-1.53974 0.17702,-1.92116 0.12903,-0.93446 0.1604,-2.59122 0.0782,-4.13251 -0.0372,-0.6985 -0.0922,-1.9558 -0.12206,-2.794 -0.0299,-0.8382 -0.0684,-1.73355 -0.0856,-1.98967 -0.0172,-0.25611 -0.0884,-1.28481 -0.15834,-2.286 -0.0699,-1.00118 -0.12108,-2.29658 -0.11376,-2.87866 0.0287,-2.28301 -0.30671,-4.87793 -0.70775,-5.4748 -0.12005,-0.17868 -0.33696,-0.54608 -0.48202,-0.81644 -0.14506,-0.27036 -0.39721,-0.66636 -0.56034,-0.88001 -0.16313,-0.21364 -0.2966,-0.43426 -0.2966,-0.49027 0,-0.056 -0.12833,-0.23398 -0.28519,-0.39549 -0.15685,-0.1615 -0.33782,-0.44149 -0.40216,-0.62219 -0.0643,-0.1807 -0.36464,-0.60229 -0.66732,-0.93687 -0.49372,-0.54575 -0.79687,-0.96631 -1.18533,-1.64437 -0.21464,-0.37467 -0.61412,-0.86063 -1.0795,-1.31321 -0.24448,-0.23775 -0.4445,-0.47213 -0.4445,-0.52085 0,-0.0487 -0.20955,-0.2836 -0.46567,-0.52198 -0.25612,-0.23837 -0.46567,-0.4988 -0.46567,-0.57872 0,-0.25748 -0.37198,-0.70017 -0.6985,-0.83128 -0.17462,-0.0701 -0.3175,-0.1795 -0.3175,-0.24308 0,-0.0636 -0.18546,-0.302 -0.41214,-0.52985 -0.47826,-0.48071 -0.70132,-0.88629 -0.88633,-1.61157 -0.0919,-0.36005 -0.22492,-0.62044 -0.43268,-0.84666 -0.16502,-0.17968 -0.30022,-0.3853 -0.30044,-0.45691 -2.2e-4,-0.0716 -0.18138,-0.3269 -0.40257,-0.56728 -0.22119,-0.24038 -0.48126,-0.52469 -0.57794,-0.63178 -0.26223,-0.29052 -0.91977,-0.87939 -1.15138,-1.03115 -0.11188,-0.0733 -0.46848,-0.22943 -0.79244,-0.34693 -0.56333,-0.20433 -0.67101,-0.21365 -2.47023,-0.21365 -1.74642,0 -1.88725,0.0113 -1.96538,0.15726 -0.0619,0.11564 -0.21393,0.16917 -0.57448,0.20227 -0.48146,0.0442 -0.84235,0.16584 -1.4965,0.50439 -0.38702,0.20031 -1.26931,0.30608 -1.35787,0.16279 -0.0736,-0.11907 -1.20378,-0.12855 -1.27662,-0.0107 -0.0288,0.0466 -0.23833,0.0847 -0.46566,0.0847 -0.22734,0 -0.43689,0.0381 -0.46567,0.0847 -0.0292,0.0473 -0.42459,0.0847 -0.89514,0.0847 -0.46355,0 -0.90898,0.0344 -0.98984,0.0764 -0.0809,0.042 -0.31847,0.12621 -0.52802,0.18708 -0.42466,0.12335 -1.0363,0.439 -1.70853,0.88171 -0.24563,0.16177 -0.5098,0.29413 -0.58703,0.29413 -0.17786,0 -0.4591,0.14778 -0.8459,0.4445 -0.16694,0.12805 -0.35119,0.23283 -0.40946,0.23283 -0.0583,0 -0.22589,0.0857 -0.3725,0.1905 -0.38438,0.27469 -0.99116,0.5715 -1.16835,0.5715 -0.0838,0 -0.281701,0.0726 -0.439721,0.16137 -0.508409,0.28556 -0.598738,0.33206 -1.086262,0.55921 -0.263681,0.12285 -0.545811,0.29673 -0.626956,0.38639 -0.08114,0.0897 -0.197651,0.16303 -0.258903,0.16303 -0.152069,0 -1.026241,0.40475 -1.087199,0.50338 -0.02703,0.0437 -0.229222,0.10556 -0.449328,0.13741 -0.220107,0.0319 -0.438294,0.0878 -0.48486,0.12433 -0.216523,0.16989 -1.268592,0.67421 -1.406461,0.67421 -0.0851,0 -0.284011,0.0726 -0.442031,0.16137 -0.963409,0.54112 -1.796838,0.85463 -2.271898,0.85463 -0.113342,0 -0.242272,0.0317 -0.28651,0.0704 -0.04424,0.0387 -0.247368,0.11794 -0.451399,0.17606 -0.353079,0.10058 -0.673306,0.38101 -0.917201,0.8032 -0.142461,0.24661 -0.132919,0.80716 0.01869,1.09785 0.06956,0.13339 0.126478,0.33069 0.126478,0.43846 0,0.10776 0.05958,0.25552 0.132398,0.32834 0.206699,0.20669 0.08826,0.27468 -0.51242,0.29412 -0.547391,0.0177 -0.562967,0.012 -1.007278,-0.36755 -0.248209,-0.21205 -0.488165,-0.38554 -0.533236,-0.38554 -0.156796,0 -0.472332,-0.41269 -0.419936,-0.54923 0.02839,-0.074 0.0046,-0.14777 -0.05279,-0.16398 -0.05742,-0.0162 -0.269139,-0.0743 -0.47048,-0.12906 -0.285604,-0.0777 -0.384869,-0.15352 -0.451576,-0.34488 -0.04703,-0.1349 -0.168043,-0.2707 -0.268926,-0.30179 -0.100883,-0.0311 -0.240574,-0.10864 -0.310424,-0.17235 -0.315477,-0.28772 -0.667449,-0.54005 -0.753307,-0.54005 -0.05162,0 -0.159412,-0.1513 -0.239528,-0.33623 -0.09186,-0.21204 -0.233762,-0.37272 -0.384169,-0.43502 -0.131176,-0.0543 -0.284589,-0.18386 -0.340916,-0.28783 -0.257194,-0.47474 -1.007571,-1.14225 -1.284054,-1.14225 -0.07803,0 -0.177476,-0.10894 -0.225679,-0.24721 -0.0474,-0.13597 -0.140667,-0.26812 -0.207263,-0.29368 -0.0666,-0.0256 -0.121084,-0.088 -0.121084,-0.13875 0,-0.19968 -0.538755,-0.75969 -0.730858,-0.75969 -0.107865,0 -0.234888,-0.0754 -0.285142,-0.16934 -0.04984,-0.0931 -0.16359,-0.16933 -0.252771,-0.16933 -0.08918,0 -0.192616,-0.048 -0.229855,-0.10666 -0.111647,-0.17587 -0.773132,-0.57206 -1.046363,-0.62671 -0.140264,-0.028 -0.293112,-0.12217 -0.339663,-0.20915 -0.05203,-0.0972 -0.17694,-0.15815 -0.324242,-0.15815 -0.131782,0 -0.333795,-0.0741 -0.448918,-0.16464 -0.115123,-0.0906 -0.387608,-0.20955 -0.605524,-0.26442 -0.217915,-0.0549 -0.41686,-0.13318 -0.4421,-0.17402 -0.02524,-0.0408 -0.121038,-0.0743 -0.212884,-0.0743 -0.09185,0 -0.191365,-0.0635 -0.221152,-0.14113 -0.09195,-0.23963 -0.560136,-0.61441 -0.879582,-0.70411 -0.16723,-0.047 -0.37316,-0.16174 -0.457623,-0.25507 -0.08446,-0.0933 -0.252437,-0.17054 -0.373278,-0.17157 -0.120841,-0.001 -0.314961,-0.0764 -0.431378,-0.16745 -0.116417,-0.0911 -0.244241,-0.16642 -0.284055,-0.16745 -0.03981,-10e-4 -0.241748,-0.11619 -0.448744,-0.25589 -0.206996,-0.1397 -0.426997,-0.254 -0.48889,-0.254 -0.106471,0 -0.257279,-0.14306 -1.048713,-0.99483 -0.322372,-0.34695 -0.352711,-0.35983 -0.847307,-0.35983 -0.282131,0 -0.536511,-0.0381 -0.565291,-0.0847 -0.02878,-0.0466 -0.176787,-0.0847 -0.328905,-0.0847 -0.332959,0 -0.534575,0.19834 -0.860665,0.84667 -0.128819,0.25612 -0.380589,0.64395 -0.55949,0.86186 -0.1789,0.2179 -0.325274,0.43231 -0.325274,0.47646 0,0.0442 -0.05715,0.12771 -0.127,0.18568 -0.06985,0.058 -0.127,0.16279 -0.127,0.23294 0,0.0701 -0.123825,0.26771 -0.275166,0.43903 -0.151342,0.17132 -0.408517,0.49444 -0.5715,0.71804 -0.162984,0.2236 -0.401174,0.54525 -0.529312,0.71477 -0.128139,0.16952 -0.295002,0.4333 -0.370807,0.58618 -0.07581,0.15288 -0.28529,0.40419 -0.465522,0.55846 -0.180231,0.15427 -0.327693,0.32169 -0.327693,0.37206 0,0.15576 -0.434258,0.44252 -0.670146,0.44252 -0.323002,0 -2.485522,2.15856 -2.938245,2.93287 -0.180735,0.30911 -0.448533,0.65352 -0.595107,0.76535 -0.146573,0.11183 -0.394223,0.41572 -0.550333,0.67532 -0.156109,0.2596 -0.379085,0.59155 -0.495502,0.73767 -0.116417,0.14613 -0.257601,0.34175 -0.313743,0.43473 -0.415368,0.68792 -0.726813,1.30518 -0.86659,1.71753 -0.09015,0.26594 -0.221259,0.59783 -0.291354,0.73753 -0.288109,0.57421 -0.403906,1.54788 -0.417199,3.50802 -0.01333,1.96523 0.07564,2.68971 0.405281,3.30045 0.06497,0.12037 0.240867,0.59238 0.390879,1.04891 0.150012,0.45652 0.340591,0.87756 0.423508,0.93564 0.213191,0.14933 1.154621,0.98301 1.426887,1.26357 0.125565,0.1294 0.435081,0.31355 0.687815,0.40923 0.252734,0.0957 0.516666,0.22281 0.586516,0.28253 0.06985,0.0597 0.22225,0.1314 0.338667,0.15929 0.234268,0.0561 1.00291,0.74149 1.203047,1.07269 0.07035,0.11642 0.272333,0.26384 0.448858,0.3276 0.491949,0.17769 1.321983,0.74563 1.487496,1.01779 0.157946,0.25972 0.668149,0.68661 0.820612,0.68661 0.05043,0 0.16497,0.0932 0.254527,0.20701 0.08956,0.11385 0.311396,0.2741 0.492978,0.35611 0.457254,0.20652 0.795815,0.53209 0.795815,0.76528 0,0.12128 0.129154,0.31273 0.338667,0.50201 0.379143,0.34253 0.409886,0.48673 0.169333,0.79426 -0.09106,0.11642 -0.166415,0.26049 -0.167451,0.32016 -0.001,0.0597 -0.05903,0.13042 -0.128882,0.15722 -0.06985,0.0268 -0.127,0.11324 -0.127,0.19208 0,0.0788 -0.03992,0.18326 -0.08872,0.23206 -0.06185,0.0619 -0.05832,0.15545 0.01166,0.30903 0.0809,0.17756 0.07521,0.27452 -0.02935,0.49971 -0.07135,0.15367 -0.157386,0.41276 -0.191189,0.57574 -0.0338,0.16298 -0.108942,0.39158 -0.166974,0.508 -0.05803,0.11642 -0.124521,0.45969 -0.147753,0.76283 -0.02323,0.30313 -0.123564,0.72967 -0.222958,0.94785 -0.133865,0.29385 -0.181493,0.56801 -0.183715,1.05751 -0.0019,0.41252 -0.04847,0.74034 -0.124,0.87248 -0.07999,0.13993 -0.122017,0.47539 -0.124,0.98983 -0.0016,0.428 -0.0411,0.80172 -0.08767,0.8305 -0.114064,0.0705 -0.107891,1.77562 0.0079,2.1928 0.0661,0.23806 0.06567,0.42696 -0.0015,0.67733 -0.05125,0.19096 -0.09122,0.67105 -0.08882,1.06687 0.0024,0.39582 0.0011,0.98637 -0.0029,1.31233 -0.0088,0.7213 0.135432,1.94231 0.308263,2.60918 0.0702,0.27088 0.117481,0.61378 0.105062,0.762 -0.02198,0.26237 0.07075,1.03092 0.144886,1.20082 0.02032,0.0466 0.112806,0.19897 0.205523,0.33867 0.09272,0.1397 0.228076,0.38735 0.300795,0.55033 0.07272,0.16299 0.200756,0.44874 0.284526,0.635 0.08377,0.18627 0.200241,0.48653 0.258825,0.66724 0.05858,0.18071 0.230212,0.46646 0.381397,0.635 0.151184,0.16854 0.300774,0.3897 0.332422,0.49148 0.0873,0.28074 1.445106,1.52754 1.732219,1.5906 0.135932,0.0299 0.3122,0.12616 0.391707,0.21402 0.07951,0.0879 0.255225,0.18404 0.390484,0.21375 0.135259,0.0297 0.283552,0.12432 0.329541,0.21025 0.04599,0.0859 0.302847,0.23545 0.570796,0.33226 0.267949,0.0968 0.553338,0.21391 0.634197,0.26021 0.08086,0.0463 0.213606,0.0842 0.294992,0.0842 0.08138,0 0.339077,0.0932 0.572649,0.20705 0.675477,0.32933 1.154868,0.51969 1.610008,0.63931 0.232834,0.0612 0.461434,0.13873 0.508,0.17231 0.04657,0.0336 0.370417,0.14518 0.719667,0.24801 0.34925,0.10283 0.701158,0.22185 0.782018,0.26448 0.08086,0.0426 0.25231,0.0789 0.381,0.0805 0.12869,0.002 0.329232,0.0575 0.445649,0.124 0.116416,0.0665 0.298615,0.12235 0.404886,0.124 0.10627,0.002 0.33487,0.0651 0.508,0.14107 0.610008,0.26757 1.928167,0.68538 2.327073,0.73759 0.221994,0.0291 0.515377,0.11062 0.651962,0.18125 0.192499,0.0995 0.562152,0.12842 1.644029,0.12842 0.896141,0 1.481002,0.0363 1.634038,0.10154 0.13109,0.0558 0.714595,0.13349 1.296679,0.17254 1.173763,0.0787 1.068186,0.078 3.429,0.0234 1.527433,-0.0353 1.741062,-0.0228 2.180503,0.128 0.267944,0.0919 0.575141,0.16715 0.68266,0.16715 0.199538,0 0.55406,0.31822 0.724825,0.6506 0.142143,0.27667 0.115209,0.57089 -0.07432,0.81184 -0.09313,0.1184 -0.169333,0.32644 -0.169333,0.46232 0,0.15099 -0.07865,0.32094 -0.202269,0.43708 -0.111249,0.10451 -0.223777,0.29756 -0.250065,0.429 -0.02629,0.13143 -0.21852,0.52774 -0.427185,0.88068 -0.218008,0.36875 -0.403913,0.80524 -0.437039,1.02614 -0.03171,0.21143 -0.09135,0.40525 -0.132545,0.43071 -0.04119,0.0255 -0.0749,0.15999 -0.0749,0.29895 0,0.19549 -0.0979,0.34282 -0.432734,0.65117 -0.381212,0.35106 -0.921933,1.20586 -0.921933,1.45743 0,0.0496 -0.17145,0.44731 -0.381,0.88391 -0.20955,0.43661 -0.381,0.84845 -0.381,0.91521 0,0.0668 -0.07099,0.18563 -0.157761,0.26416 -0.100755,0.0912 -0.17482,0.30804 -0.204968,0.60015 -0.0265,0.25674 -0.122077,0.562 -0.217879,0.69585 -0.120221,0.16797 -0.180801,0.41367 -0.204935,0.83113 -0.02283,0.39495 -0.112069,0.77627 -0.267491,1.143 -0.40707,0.96053 -0.487654,1.21737 -0.518009,1.651 -0.0163,0.23284 -0.05443,0.54461 -0.08474,0.69283 -0.03768,0.18427 -0.01217,0.33079 0.08067,0.46334 0.07468,0.10661 0.135777,0.25395 0.135777,0.32741 0,0.30675 0.174636,0.34694 1.312333,0.30197 0.605367,-0.0239 1.214967,-0.0422 1.354667,-0.0406 z m -1.375833,-24.03625 c -0.523875,-0.0132 -0.9525,-0.0513 -0.9525,-0.0848 0,-0.0334 -0.428625,-0.0641 -0.9525,-0.068 -1.045072,-0.008 -2.145279,-0.1546 -2.334019,-0.31124 -0.07498,-0.0622 -0.557592,-0.11259 -1.274574,-0.13302 -0.634649,-0.0181 -1.218078,-0.0667 -1.296508,-0.10812 -0.07843,-0.0414 -0.38958,-0.0752 -0.691445,-0.0752 -0.319862,0 -0.56164,-0.0384 -0.579516,-0.092 -0.01687,-0.0506 -0.334369,-0.1346 -0.705555,-0.18664 -0.371186,-0.052 -0.693934,-0.11967 -0.717217,-0.15029 -0.04267,-0.0561 -0.350168,-0.12413 -0.973667,-0.21539 -0.186266,-0.0273 -0.374861,-0.0839 -0.4191,-0.12595 -0.04424,-0.042 -0.28107,-0.0764 -0.526294,-0.0764 -0.245223,0 -0.570978,-0.0537 -0.7239,-0.1194 -0.152921,-0.0657 -0.549664,-0.17984 -0.88165,-0.25372 -0.331986,-0.0739 -0.712986,-0.19136 -0.846667,-0.26108 -0.13368,-0.0697 -0.296477,-0.12699 -0.36177,-0.12728 -0.170259,-7.5e-4 -0.781949,-0.46897 -1.38945,-1.06356 -0.28811,-0.28198 -0.64766,-0.56751 -0.799002,-0.6345 -0.317896,-0.14071 -0.312831,-0.10057 -0.277236,-2.19713 0.01512,-0.8908 0.05566,-1.29532 0.147739,-1.47424 0.106056,-0.20609 0.109693,-0.30342 0.02215,-0.59267 -0.118344,-0.39102 -0.118969,-2.52087 -8.06e-4,-2.74641 0.08864,-0.16919 0.316024,-1.67691 0.384977,-2.55268 0.0275,-0.34925 0.08565,-0.9017 0.12923,-1.22766 0.04358,-0.32597 0.07813,-0.72036 0.07677,-0.87643 -0.0014,-0.15608 0.03146,-0.32753 0.07292,-0.381 0.04146,-0.0535 0.141931,-0.38299 0.223277,-0.73224 0.08135,-0.34925 0.19857,-0.7493 0.260497,-0.889 0.06193,-0.1397 0.128317,-0.47732 0.147535,-0.75027 0.03088,-0.43857 0.07029,-0.52961 0.339041,-0.78316 0.167255,-0.1578 0.350357,-0.2869 0.406893,-0.2869 0.18327,0 2.570202,-0.86166 3.125844,-1.1284 0.20955,-0.10059 0.442619,-0.24981 0.517931,-0.33158 0.07531,-0.0818 0.185688,-0.14869 0.24528,-0.14869 0.225723,0 1.854231,-1.51613 2.204727,-2.05259 0.113884,-0.17431 0.235637,-0.31718 0.270562,-0.3175 0.03493,-3.2e-4 0.0635,-0.0417 0.0635,-0.0919 0,-0.0502 0.185224,-0.30742 0.411609,-0.5715 0.226384,-0.26408 0.577553,-0.7659 0.780375,-1.11515 0.202823,-0.34925 0.392372,-0.65405 0.421221,-0.67733 0.02885,-0.0233 0.161626,-0.23283 0.29506,-0.46567 0.133433,-0.23283 0.269304,-0.44238 0.301936,-0.46566 0.03263,-0.0233 0.201957,-0.32809 0.376278,-0.67734 0.174321,-0.34925 0.566544,-1.016 0.871609,-1.48166 0.59565,-0.90924 0.859913,-1.37788 0.859913,-1.52497 0,-0.0507 0.04762,-0.13921 0.105833,-0.1967 0.107888,-0.10656 0.484037,-0.77201 1.036644,-1.83394 0.169514,-0.32575 0.358208,-0.6496 0.419321,-0.71966 0.06111,-0.0701 0.173254,-0.2501 0.249201,-0.40006 0.242636,-0.47909 0.412986,-0.49996 0.905175,-0.11091 0.237434,0.18768 0.475902,0.34193 0.529928,0.34278 0.184578,0.003 0.880452,0.61845 1.583902,1.40109 0.648928,0.72198 0.842662,0.95962 0.842662,1.03363 0,0.0354 0.163193,0.25416 0.362651,0.48619 0.199458,0.23203 0.456633,0.60668 0.5715,0.83255 0.114867,0.22587 0.335488,0.54972 0.490268,0.71967 0.15478,0.16994 0.420059,0.55664 0.589509,0.85933 0.169449,0.30268 0.37575,0.62372 0.458446,0.71342 0.0827,0.0897 0.174977,0.2421 0.20507,0.33867 0.03009,0.0966 0.07815,0.19462 0.106801,0.21791 0.09734,0.0791 0.433082,0.74216 0.434551,0.85819 8.05e-4,0.0635 0.09605,0.2052 0.211667,0.31486 0.115612,0.10966 0.210204,0.2318 0.210204,0.27141 0,0.0794 0.331122,0.58526 0.516989,0.78983 0.06491,0.0714 0.289461,0.38432 0.499011,0.69527 0.384283,0.57025 0.716456,0.95038 1.10229,1.26144 0.115524,0.0931 0.297621,0.34382 0.404659,0.55708 0.121239,0.24155 0.319895,0.46501 0.52689,0.59266 0.182749,0.11271 0.333299,0.23855 0.334549,0.27966 0.001,0.0411 0.0725,0.13635 0.15832,0.21167 0.0858,0.0753 0.20127,0.22228 0.25654,0.3266 0.0553,0.10432 0.30221,0.34197 0.54875,0.52811 0.24654,0.18614 0.50258,0.44334 0.56897,0.57156 0.0664,0.12821 0.22548,0.32257 0.35353,0.43191 0.12806,0.10934 0.23284,0.24765 0.23284,0.30736 0,0.0597 0.12621,0.19504 0.28047,0.30074 0.29933,0.2051 0.42641,0.39215 0.87239,1.28398 0.15548,0.31094 0.31872,0.5876 0.36274,0.61481 0.044,0.0272 0.10504,0.16333 0.13561,0.30249 0.0306,0.13917 0.10562,0.25303 0.16679,0.25303 0.12329,0 0.214,0.18208 0.214,0.42954 0,0.0889 0.0762,0.20928 0.16933,0.26745 0.10111,0.0631 0.16933,0.19744 0.16933,0.33333 0,0.12517 0.0572,0.28474 0.127,0.35459 0.0699,0.0699 0.127,0.16315 0.127,0.20735 0,0.0442 0.0572,0.12777 0.127,0.18574 0.0699,0.058 0.127,0.15692 0.127,0.21988 0,0.063 0.2286,0.3481 0.508,0.63364 0.2794,0.28554 0.508,0.57226 0.508,0.63715 0,0.0649 0.0716,0.18962 0.15915,0.27715 0.0875,0.0875 0.2749,0.459 0.41637,0.8255 0.14147,0.36649 0.34899,0.7616 0.46114,0.87802 0.37085,0.38494 0.58575,0.92072 0.5832,1.45398 -0.002,0.49567 -0.19745,1.06645 -0.40879,1.19606 -0.0607,0.0372 -0.1104,0.13793 -0.1104,0.22377 0,0.0858 -0.0565,0.17775 -0.12553,0.20424 -0.0879,0.0337 -0.11098,0.12089 -0.077,0.29065 0.0401,0.2007 0.007,0.26927 -0.19197,0.39792 -0.26207,0.1694 -0.62012,0.52487 -0.62373,0.61924 -0.004,0.0978 -0.65548,0.7788 -0.74538,0.7788 -0.0459,0 -0.4154,0.32385 -0.82114,0.71967 -0.40574,0.39582 -0.76168,0.71978 -0.79097,0.71991 -0.0293,1.3e-4 -0.12597,0.1088 -0.21486,0.24148 -0.0889,0.13268 -0.37463,0.38356 -0.635,0.55751 -0.26036,0.17395 -0.57968,0.45581 -0.7096,0.62635 -0.12991,0.17055 -0.36501,0.40533 -0.52243,0.52175 -0.15743,0.11642 -0.35418,0.32594 -0.43721,0.4656 -0.083,0.13966 -0.22894,0.33785 -0.32423,0.44042 -0.31594,0.34008 -0.38492,0.44039 -0.38492,0.55971 0,0.065 -0.0877,0.21281 -0.19482,0.32843 -0.1896,0.20458 -0.55551,0.31973 -1.159848,0.36498 -0.162983,0.0122 -0.791633,0.0645 -1.397,0.11625 -1.101287,0.0941 -4.916598,0.15874 -6.709833,0.11367 z" style="display:inline;fill:#b4351f"></path><path id="path3" d="m 100.41911,230.15281 c -0.18627,-0.0164 -0.910166,-0.0704 -1.608666,-0.12008 -14.736465,-1.04783 -29.396737,-6.34804 -41.444334,-14.9836 -3.946077,-2.8285 -6.737954,-5.20438 -10.292351,-8.75878 -2.800479,-2.80048 -4.665447,-4.8984 -6.779706,-7.62657 -13.476475,-17.38956 -19.420264,-39.47686 -16.453026,-61.13994 1.964339,-14.34116 7.599892,-27.76385 16.453026,-39.187625 3.400682,-4.388119 7.845412,-8.985628 12.246057,-12.666992 8.512761,-7.121358 18.791616,-12.578961 29.573726,-15.702299 12.630104,-3.658661 25.912104,-4.219475 38.794604,-1.638049 14.08765,2.822915 27.04608,9.228722 37.93067,18.750465 2.6897,2.352927 6.41835,6.182991 8.85578,9.096659 9.97782,11.927331 16.35981,26.676201 18.31809,42.333331 0.46014,3.67897 0.512,4.68659 0.51207,9.94834 6e-5,4.89923 -0.0264,5.55414 -0.34723,8.59366 -1.934,18.32223 -9.96646,35.41885 -22.80883,48.54722 -13.07517,13.36635 -30.07251,21.78825 -48.54686,24.05418 -3.57516,0.4385 -4.48288,0.48765 -9.40769,0.50935 -2.56116,0.0113 -4.80906,0.007 -4.99533,-0.009 z m 8.763,-1.98365 c 16.72153,-0.92607 32.6894,-7.06287 45.6619,-17.54888 4.24495,-3.4313 8.59618,-7.77885 11.88067,-11.87061 10.12969,-12.61941 16.06573,-27.4242 17.43201,-43.47634 0.37225,-4.37355 0.29906,-10.52111 -0.17792,-14.94366 -2.40856,-22.3322 -13.9459,-42.416406 -32.00642,-55.716802 C 136.48047,73.204106 117.1259,67.776349 97.963777,69.466815 75.778725,71.423961 55.609546,82.430797 41.950117,100.0349 c -8.029642,10.3485 -13.42765,22.70813 -15.564775,35.6381 -0.861877,5.2145 -1.170193,9.94521 -1.015316,15.57867 0.477429,17.36588 6.860145,34.37787 17.979565,47.92133 3.206926,3.90604 7.234395,7.93317 11.095519,11.0946 13.010283,10.65261 29.091055,16.91844 45.93167,17.89714 1.72165,0.10006 7.03035,0.10272 8.80533,0.004 z m -4.445,-12.69382 c -1.8161,-0.0255 -3.34219,-0.0726 -3.39132,-0.10463 -0.0491,-0.0321 -1.09687,-0.11878 -2.328332,-0.1927 -2.814644,-0.16897 -3.127797,-0.21088 -5.710347,-0.76413 -5.04622,-1.08103 -9.205825,-2.2995 -12.775054,-3.74219 -14.066873,-5.68583 -24.965752,-15.06712 -32.244504,-27.75469 -4.765877,-8.30738 -7.849896,-17.66034 -8.863887,-26.88167 -0.361376,-3.28638 -0.385881,-3.75026 -0.386888,-7.32366 -0.0013,-4.51197 0.149614,-6.05448 1.02215,-10.44951 1.243664,-6.26441 1.96935,-9.02516 3.150933,-11.98716 4.988046,-12.50408 12.347877,-22.40901 22.082731,-29.719168 5.130641,-3.852732 10.616678,-6.879906 17.245371,-9.515931 2.845869,-1.131713 6.135237,-1.983895 11.912148,-3.086101 1.505478,-0.287237 2.442949,-0.413761 3.852333,-0.519922 1.024467,-0.07717 2.148416,-0.165933 2.497666,-0.197258 0.635,-0.05696 0.635,-0.05696 0.65678,-5.581455 0.0218,-5.5245 0.0218,-5.5245 3.4925,-5.5245 3.47072,0 3.47072,0 3.47072,5.454908 0,5.454907 0,5.454907 0.4445,5.500916 0.24448,0.02531 0.80645,0.0682 1.24883,0.09532 7.25572,0.444791 15.10655,2.326124 21.80167,5.224441 12.18618,5.275397 22.58441,14.39119 29.82019,26.14242 5.3294,8.65517 8.37715,17.57322 9.37492,27.432 0.29327,2.89776 0.38662,4.71645 0.38617,7.52356 -0.001,8.54978 -1.50588,16.88926 -4.31714,23.9301 -4.67722,11.7142 -12.17118,21.63778 -21.80552,28.87514 -4.93216,3.70505 -10.80111,6.89103 -16.76062,9.09854 -3.61659,1.33966 -6.48212,2.13074 -10.11767,2.79318 -0.72178,0.13152 -2.01718,0.37342 -2.87866,0.53755 -1.45873,0.27792 -6.68206,0.84736 -7.33906,0.8001 -0.13124,-0.009 -1.72451,-0.038 -3.54061,-0.0635 z m 4.56051,-5.50406 c 1.16887,-0.1039 2.56098,-0.29075 3.51367,-0.4716 5.97373,-1.13405 7.538,-1.4905 9.98191,-2.27452 8.18874,-2.62701 15.54287,-6.56522 21.90658,-11.73116 2.75327,-2.23505 4.09285,-3.56535 6.44309,-6.3984 4.97637,-5.99867 9.39065,-13.94844 11.84611,-21.33393 1.70898,-5.14025 2.75174,-10.68476 3.10151,-16.49123 0.18003,-2.98874 -0.11281,-6.67969 -0.90163,-11.36411 -1.7529,-10.40965 -6.53262,-20.78754 -13.70667,-29.76033 -1.15477,-1.4443 -2.7975,-3.32849 -3.61254,-4.14354 -1.49983,-1.49982 -4.46358,-3.95462 -6.7682,-5.60592 -8.98065,-6.434773 -19.05898,-10.281265 -30.56467,-11.665298 -3.08718,-0.37136 -4.80588,-0.423602 -7.28134,-0.221325 -4.268507,0.348795 -4.873154,0.435561 -9.186635,1.318269 -5.721079,1.170758 -9.337828,2.423204 -14.901028,5.160086 -4.137922,2.035699 -7.522873,4.089679 -10.959348,6.650108 -2.408483,1.79449 -5.178343,4.17417 -6.276654,5.39247 -5.106318,5.66418 -8.901476,11.55179 -12.159205,18.86315 -2.157826,4.84283 -2.901717,7.32231 -4.292875,14.30867 -0.752854,3.78081 -0.855382,4.4348 -1.041315,6.64226 -0.123228,1.46299 -0.12848,1.90529 -0.03921,3.302 0.331433,5.18554 1.408182,11.01416 2.902135,15.70974 3.087841,9.70526 7.598784,17.88491 13.704039,24.84941 1.16168,1.32518 1.962072,2.10706 3.522042,3.44061 4.295865,3.67232 8.47842,6.42051 13.709057,9.00767 5.837418,2.88728 10.570726,4.46759 18.252914,6.09408 2.195272,0.46478 2.582594,0.51465 5.326753,0.68581 1.23402,0.077 2.54847,0.16988 2.921,0.20647 0.89798,0.0882 2.21092,0.0394 4.56051,-0.16944 z M 90.249355,183.82857 c -0.05193,-0.0357 -0.123113,-0.16015 -0.158181,-0.27657 -0.03507,-0.11642 -0.120644,-0.2765 -0.190169,-0.35575 -0.10687,-0.12181 -0.110524,-0.2103 -0.02364,-0.57248 0.05652,-0.23562 0.08148,-0.48389 0.05546,-0.5517 -0.04767,-0.12423 0.240332,-1.11347 0.370544,-1.27276 0.164847,-0.20167 0.414487,-1.05972 0.467722,-1.60764 0.03285,-0.33808 0.126192,-0.70607 0.217301,-0.85666 0.08785,-0.1452 0.15972,-0.40068 0.15972,-0.56774 0,-0.18438 0.08318,-0.42633 0.211666,-0.61566 0.116417,-0.17155 0.211667,-0.35983 0.211667,-0.4184 0,-0.0586 0.213008,-0.55807 0.473352,-1.11001 0.260344,-0.55194 0.523509,-1.12355 0.584812,-1.27024 0.0613,-0.14669 0.305495,-0.44984 0.542648,-0.67367 0.303739,-0.28667 0.431188,-0.47208 0.431188,-0.62728 0,-0.12117 0.05594,-0.29427 0.124307,-0.38466 0.06837,-0.0904 0.125579,-0.27865 0.127132,-0.41835 0.0016,-0.1397 0.07632,-0.38735 0.166149,-0.55033 0.08983,-0.16299 0.206721,-0.39152 0.259761,-0.50785 0.05304,-0.11633 0.147391,-0.26873 0.209668,-0.33866 0.06228,-0.0699 0.154714,-0.28303 0.205416,-0.47355 0.0507,-0.19051 0.169124,-0.41601 0.26316,-0.50111 0.09404,-0.0851 0.194201,-0.29999 0.222589,-0.47752 0.02839,-0.17753 0.104011,-0.36627 0.16805,-0.41941 0.188898,-0.15678 0.139915,-0.67937 -0.09625,-1.02693 -0.155383,-0.22866 -0.309364,-0.33893 -0.5715,-0.40924 -0.197346,-0.0529 -0.530261,-0.15568 -0.739811,-0.22834 -0.307139,-0.1065 -0.717478,-0.12755 -2.116667,-0.10861 -2.708855,0.0367 -4.31649,-0.0178 -4.683345,-0.15861 -0.13601,-0.0522 -0.837238,-0.0915 -1.633207,-0.0915 -1.227776,0 -1.43462,-0.0203 -1.726782,-0.16933 -0.182556,-0.0931 -0.457554,-0.16933 -0.611106,-0.16933 -0.327523,0 -1.989771,-0.5177 -2.28649,-0.71212 -0.187352,-0.12276 -0.412302,-0.18528 -1.37807,-0.38302 -0.398769,-0.0816 -1.415891,-0.39866 -1.778,-0.55417 -0.1397,-0.06 -0.464274,-0.17142 -0.721276,-0.24761 -0.257001,-0.0762 -0.591297,-0.21396 -0.74288,-0.30614 -0.151582,-0.0922 -0.338854,-0.16761 -0.416159,-0.16761 -0.07731,0 -0.29546,-0.0707 -0.484787,-0.15719 -0.189328,-0.0865 -0.697729,-0.28528 -1.129781,-0.44183 -0.514815,-0.18654 -0.829171,-0.35122 -0.912119,-0.47781 -0.06961,-0.10624 -0.186484,-0.19317 -0.259714,-0.19317 -0.07323,0 -0.234276,-0.0718 -0.357881,-0.15965 -0.123605,-0.0878 -0.35863,-0.21546 -0.522277,-0.28367 -0.402336,-0.16771 -1.558736,-1.30817 -1.721539,-1.69782 -0.0722,-0.1728 -0.17055,-0.31419 -0.218547,-0.31419 -0.08756,0 -0.429374,-0.599 -0.429374,-0.75245 0,-0.045 -0.13335,-0.37055 -0.296333,-0.72339 -0.162984,-0.35285 -0.296334,-0.65932 -0.296334,-0.68105 0,-0.0217 -0.116192,-0.20434 -0.258205,-0.40581 -0.236692,-0.3358 -0.258741,-0.42595 -0.26464,-1.08198 -0.0039,-0.439 -0.06475,-0.89567 -0.157277,-1.18132 -0.190433,-0.58789 -0.27641,-1.30414 -0.304898,-2.54 -0.03951,-1.71411 -0.02737,-2.1539 0.06599,-2.38994 0.05037,-0.12735 0.06596,-0.37419 0.03476,-0.55033 -0.142275,-0.80315 -0.148441,-1.89421 -0.01304,-2.30816 0.07443,-0.22755 0.135321,-0.68401 0.135321,-1.01437 0,-0.34237 0.05461,-0.73134 0.127,-0.9046 0.07569,-0.18116 0.127,-0.56815 0.127,-0.95794 0,-0.4453 0.04582,-0.74582 0.143587,-0.94181 0.07897,-0.1583 0.170149,-0.57373 0.202616,-0.92317 0.05238,-0.56381 0.373496,-1.6796 0.527768,-1.83388 0.08188,-0.0819 0.07088,-0.43826 -0.01871,-0.6062 -0.05649,-0.10589 0.01979,-0.29026 0.296333,-0.71618 0.204825,-0.31547 0.372409,-0.65387 0.372409,-0.752 0,-0.0981 -0.13335,-0.30419 -0.296333,-0.45791 -0.177379,-0.16729 -0.296333,-0.36037 -0.296333,-0.48099 0,-0.23863 -0.33411,-0.56221 -0.795815,-0.77074 -0.181582,-0.082 -0.403422,-0.24226 -0.492979,-0.35611 -0.08956,-0.11385 -0.219757,-0.20701 -0.289334,-0.20701 -0.207244,0 -0.68276,-0.41107 -0.826909,-0.71484 -0.09184,-0.19353 -0.27504,-0.35602 -0.579146,-0.51365 -0.24465,-0.12682 -0.497824,-0.27376 -0.562609,-0.32654 -0.06479,-0.0528 -0.255286,-0.13521 -0.423334,-0.18318 -0.220955,-0.0631 -0.342779,-0.16583 -0.440053,-0.37122 -0.130805,-0.27619 -1.022808,-1.02323 -1.221786,-1.02323 -0.05452,0 -0.168607,-0.0768 -0.25353,-0.17062 -0.08492,-0.0938 -0.305751,-0.19482 -0.490727,-0.2244 -0.27212,-0.0435 -0.535562,-0.22953 -1.380059,-0.97448 -0.906033,-0.79922 -1.060288,-0.97348 -1.169183,-1.32077 -0.213128,-0.67971 -0.385339,-1.15547 -0.474789,-1.3117 -0.04712,-0.0823 -0.160874,-0.46329 -0.252784,-0.84666 -0.14074,-0.58704 -0.16713,-0.99766 -0.167231,-2.60204 -6.7e-5,-1.04775 0.03313,-2.03835 0.07377,-2.20133 0.04064,-0.16299 0.122252,-0.51349 0.181362,-0.77891 0.05911,-0.26541 0.158997,-0.50234 0.221972,-0.52651 0.06298,-0.0242 0.1145,-0.13683 0.1145,-0.25037 0,-0.34703 0.685711,-1.70962 1.177021,-2.33888 0.127253,-0.16298 0.257655,-0.36684 0.289782,-0.45301 0.07791,-0.20896 0.338745,-0.54817 0.918808,-1.19486 0.264335,-0.2947 0.564945,-0.70171 0.668021,-0.90447 0.103076,-0.20276 0.702792,-0.89026 1.332702,-1.52778 0.991374,-1.00334 1.190617,-1.16677 1.482557,-1.21609 0.185496,-0.0313 0.408457,-0.13839 0.495468,-0.23789 0.545984,-0.62433 0.840546,-0.99906 1.115681,-1.41929 0.171545,-0.26202 0.463714,-0.64887 0.649264,-0.85966 0.185549,-0.2108 0.337363,-0.42494 0.337363,-0.47587 0,-0.0509 0.123825,-0.23558 0.275166,-0.41034 0.302526,-0.34933 0.446243,-0.56211 0.56648,-0.83868 0.04358,-0.10025 0.121236,-0.20823 0.172562,-0.23995 0.139176,-0.086 0.497691,-0.66074 0.991281,-1.58907 0.20863,-0.39239 0.73491,-0.54333 0.957844,-0.27471 0.07152,0.0862 0.263261,0.127 0.596538,0.127 0.555872,0 0.905403,0.21527 1.095775,0.67487 0.109165,0.26355 0.551651,0.59513 0.794181,0.59513 0.076,0 0.138173,0.0375 0.138173,0.0832 0,0.0458 0.200025,0.18334 0.4445,0.30568 0.244475,0.12233 0.526395,0.29747 0.62649,0.38919 0.100094,0.0917 0.253914,0.15457 0.341821,0.13968 0.08791,-0.0149 0.268324,0.0583 0.400928,0.16257 0.132603,0.1043 0.321684,0.19067 0.420179,0.19193 0.189975,0.002 0.751408,0.47427 0.840461,0.70633 0.02914,0.0759 0.121891,0.13805 0.206125,0.13805 0.08423,0 0.228304,0.0517 0.320157,0.11495 0.09185,0.0632 0.319406,0.1639 0.505672,0.22372 0.186267,0.0598 0.413819,0.16049 0.505673,0.22371 0.09185,0.0632 0.248639,0.11495 0.348415,0.11495 0.09977,0 0.272273,0.071 0.383328,0.15769 0.111055,0.0867 0.297168,0.18698 0.413584,0.22277 0.116417,0.0358 0.312799,0.13629 0.436404,0.22332 0.123605,0.087 0.265139,0.15822 0.314521,0.15822 0.04938,0 0.130565,0.0762 0.180409,0.16934 0.04984,0.0931 0.175369,0.16933 0.278946,0.16933 0.103576,0 0.235909,0.0762 0.294072,0.16933 0.05816,0.0931 0.164106,0.16934 0.23543,0.16934 0.151776,0 0.797617,0.66927 0.799163,0.82815 5.8e-4,0.0597 0.06112,0.13154 0.134541,0.15972 0.07342,0.0282 0.168425,0.14312 0.211128,0.25543 0.0427,0.11232 0.205687,0.25772 0.362185,0.32311 0.277047,0.11576 1.071201,0.8471 1.071201,0.98647 0,0.0383 0.148262,0.16325 0.329471,0.27764 0.181209,0.1144 0.381234,0.32626 0.4445,0.47081 0.06689,0.15283 0.292182,0.37531 0.538363,0.53165 0.232833,0.14786 0.473119,0.33653 0.533967,0.41926 0.06085,0.0827 0.159241,0.15042 0.218649,0.15042 0.05941,0 0.200265,0.14288 0.313018,0.3175 0.167502,0.25942 0.2669,0.32525 0.543352,0.35984 0.28259,0.0354 0.343107,0.0772 0.367233,0.254 0.03007,0.22033 0.238833,0.508 0.368665,0.508 0.09158,0 0.53819,0.30606 0.843032,0.57772 0.194239,0.17311 0.294359,0.19622 0.741005,0.17105 0.294182,-0.0166 0.530324,0.007 0.548726,0.0556 0.01777,0.0466 0.06265,0.0108 0.09973,-0.0796 0.04297,-0.10468 0.03119,-0.17633 -0.03248,-0.19756 -0.05495,-0.0183 -0.0999,-0.15499 -0.0999,-0.30373 0,-0.14875 -0.054,-0.34754 -0.120004,-0.44177 -0.182088,-0.25997 -0.246693,-0.75254 -0.140789,-1.07344 0.125029,-0.37884 0.569868,-0.79224 0.935347,-0.86925 0.161455,-0.034 0.351955,-0.0918 0.423334,-0.12828 0.07138,-0.0365 0.358379,-0.1141 0.637779,-0.17236 0.2794,-0.0583 0.933017,-0.30927 1.452483,-0.55781 0.519465,-0.24853 1.001583,-0.45188 1.071372,-0.45188 0.06979,0 0.451924,-0.17145 0.84919,-0.381 0.397267,-0.20955 0.837164,-0.381 0.977551,-0.381 0.14353,0 0.419974,-0.11117 0.631605,-0.254 0.206996,-0.1397 0.431652,-0.254 0.499236,-0.254 0.165191,0 0.656896,-0.24944 0.656896,-0.33324 0,-0.0713 1.022974,-0.59809 1.161434,-0.59809 0.04528,0 0.151282,-0.0762 0.235566,-0.16933 0.08428,-0.0931 0.221291,-0.16934 0.304459,-0.16934 0.08317,0 0.174758,-0.0381 0.203538,-0.0847 0.0288,-0.0466 0.1268,-0.0847 0.21782,-0.0847 0.091,0 0.23164,-0.0337 0.3125,-0.0748 0.0809,-0.0411 0.26132,-0.12598 0.40102,-0.18855 0.1397,-0.0626 0.62721,-0.35277 1.08336,-0.64488 0.45615,-0.29211 0.88751,-0.53111 0.95859,-0.53111 0.0711,0 0.30743,-0.10478 0.52524,-0.23284 0.2178,-0.12806 0.51034,-0.30037 0.65007,-0.38292 0.91858,-0.54262 1.54704,-0.73562 2.7094,-0.83205 1.33045,-0.11037 1.77179,-0.17053 1.85844,-0.25333 0.10934,-0.10449 1.03956,-0.0979 1.1049,0.008 0.0955,0.15447 1.09872,0.10112 1.32208,-0.0703 0.27453,-0.2107 0.94586,-0.43773 1.54036,-0.52092 0.27662,-0.0387 0.56751,-0.13743 0.66487,-0.22563 0.15493,-0.14037 0.36294,-0.15966 1.98333,-0.18399 1.68752,-0.0253 1.8462,-0.0145 2.3408,0.15919 0.29181,0.10251 0.62844,0.23597 0.74807,0.2966 0.22402,0.11352 0.9934,0.77596 1.30171,1.12078 0.0958,0.10709 0.35509,0.3914 0.57628,0.63178 0.22119,0.24038 0.40235,0.49566 0.40257,0.56728 2.2e-4,0.0716 0.13502,0.27679 0.29955,0.45594 0.19826,0.21587 0.34052,0.48713 0.42184,0.80433 0.19406,0.75705 0.38122,1.12697 0.78349,1.5486 0.20604,0.21596 0.41837,0.47949 0.47183,0.58561 0.0535,0.10612 0.24144,0.27345 0.41771,0.37184 0.33007,0.18423 0.65267,0.58492 0.65126,0.80889 -4.5e-4,0.0698 0.18839,0.3175 0.41964,0.55034 0.85073,0.85657 1.95294,2.15934 1.95294,2.30829 0,0.0431 0.0759,0.14711 0.16858,0.23102 0.0927,0.0839 0.27032,0.32794 0.39467,0.54229 0.12434,0.21435 0.42246,0.60339 0.66247,0.86453 0.24002,0.26114 0.53437,0.68024 0.65412,0.93133 0.11975,0.2511 0.31727,0.5489 0.43894,0.66179 0.12167,0.1129 0.22122,0.25235 0.22122,0.3099 0,0.0576 0.15374,0.29914 0.34165,0.53685 0.1879,0.23772 0.47646,0.68882 0.64124,1.00244 0.16477,0.31362 0.3857,0.72293 0.49095,0.90956 0.1404,0.24898 0.239,0.68863 0.37029,1.651 0.21574,1.58143 0.26969,2.41773 0.31677,4.91 0.0198,1.04775 0.0582,2.1336 0.0854,2.413 0.13162,1.35269 0.19623,2.32526 0.24467,3.683 0.0291,0.81491 0.0877,2.05316 0.13024,2.75166 0.0442,0.72545 0.046,1.43337 0.004,1.651 -0.0403,0.20955 -0.0535,0.5334 -0.0292,0.71967 0.0242,0.18627 -0.002,0.77682 -0.0594,1.31233 -0.0569,0.53552 -0.13454,1.46897 -0.17259,2.07434 -0.14036,2.2334 -0.22675,3.3052 -0.27637,3.429 -0.028,0.0699 -0.0869,0.6985 -0.1308,1.397 -0.0983,1.56292 0.0335,2.36724 0.50826,3.10054 0.16217,0.2505 0.33982,0.56031 0.39477,0.68847 0.12011,0.28009 1.30416,1.52783 1.78751,1.88365 0.18977,0.1397 0.36582,0.31115 0.39124,0.381 0.0254,0.0699 0.48631,0.5842 1.02423,1.143 0.53792,0.5588 1.03799,1.1303 1.11127,1.27 0.0733,0.1397 0.27449,0.44527 0.44714,0.67904 0.17265,0.23377 0.43984,0.65287 0.59376,0.93133 0.15393,0.27847 0.32582,0.56345 0.38199,0.6333 0.0562,0.0699 0.12878,0.27545 0.16135,0.45688 0.0644,0.35849 0.20617,0.6184 0.57234,1.0489 0.1777,0.20892 0.2365,0.36691 0.23633,0.635 -2.4e-4,0.40068 0.19104,1.30711 0.42373,2.00789 0.42559,1.28174 0.45322,1.50208 0.40875,3.25966 -0.006,0.23284 0.047,0.95674 0.11753,1.60867 0.0705,0.65193 0.11106,1.23073 0.0901,1.28622 -0.021,0.0555 -0.12068,0.11263 -0.22151,0.127 -0.15472,0.022 -0.18211,0.079 -0.17546,0.36478 0.004,0.18627 0.0539,0.52917 0.11004,0.762 0.0562,0.23283 0.13901,0.84243 0.18405,1.35467 0.045,0.51223 0.11744,1.10278 0.16089,1.31233 0.0435,0.20955 0.11864,0.56608 0.16706,0.79228 0.0484,0.2262 0.2742,0.77865 0.50175,1.22767 0.22754,0.44901 0.44041,0.93977 0.47303,1.09058 0.0326,0.15081 0.0944,0.29586 0.1372,0.32233 0.10647,0.0658 0.50176,0.9421 0.50176,1.11231 0,0.0756 0.0954,0.33918 0.21203,0.58569 0.26632,0.56294 0.48744,1.56692 0.37108,1.68481 -0.0633,0.0642 -32.34611,0.10806 -44.101777,0.06 -0.256117,-0.001 -1.380067,-0.007 -2.497667,-0.0126 -2.522472,-0.0132 -2.569306,-0.0128 -3.81,0.0396 -0.5588,0.0236 -1.05849,0.0137 -1.110422,-0.022 z m 7.799089,-24.1074 c 0.232833,-0.0163 0.837273,-0.0728 1.343199,-0.12544 1.003417,-0.10449 1.246737,-0.2142 1.418087,-0.6394 0.0563,-0.1397 0.22004,-0.42041 0.36387,-0.62381 0.30574,-0.43235 1.97783,-2.12785 2.09848,-2.12785 0.0453,0 0.36532,-0.28575 0.71118,-0.635 0.34587,-0.34925 0.64754,-0.635 0.67037,-0.635 0.0613,0 0.63381,-0.61843 0.63381,-0.6847 0,-0.0312 0.1103,-0.10245 0.24511,-0.15829 0.2644,-0.10951 0.46186,-0.28199 0.72856,-0.63635 0.38529,-0.51194 0.74601,-0.89133 0.84746,-0.89133 0.14505,0 0.20282,-0.17331 0.14995,-0.44987 -0.0262,-0.13699 -0.006,-0.22746 0.051,-0.22746 0.052,0 0.0945,-0.0762 0.0945,-0.16934 0,-0.0931 0.0373,-0.16933 0.0829,-0.16933 0.0456,0 0.16659,-0.16192 0.26883,-0.35983 0.24234,-0.46913 0.26924,-1.36063 0.0504,-1.66984 -0.0815,-0.11514 -0.14817,-0.26868 -0.14817,-0.34121 0,-0.0725 -0.12484,-0.24961 -0.27741,-0.39352 -0.17861,-0.16847 -0.33259,-0.43897 -0.43233,-0.75947 -0.0852,-0.27379 -0.23736,-0.6121 -0.33813,-0.7518 -0.10078,-0.1397 -0.23334,-0.35283 -0.29458,-0.47362 -0.14701,-0.28994 -0.69297,-0.87775 -0.88005,-0.94749 -0.0815,-0.0304 -0.14817,-0.11434 -0.14817,-0.18658 0,-0.0722 -0.0964,-0.28408 -0.21427,-0.47077 -0.11785,-0.18668 -0.23652,-0.45068 -0.26372,-0.58665 -0.0272,-0.13598 -0.12127,-0.31223 -0.20906,-0.39168 -0.0878,-0.0795 -0.15961,-0.23246 -0.15961,-0.34002 0,-0.10756 -0.0731,-0.23469 -0.16245,-0.2825 -0.0893,-0.0478 -0.18819,-0.20414 -0.21965,-0.34737 -0.0315,-0.14323 -0.11076,-0.28098 -0.17622,-0.3061 -0.0655,-0.0251 -0.11902,-0.0961 -0.11902,-0.15783 0,-0.24691 -0.57391,-1.18999 -0.9525,-1.56519 -0.22119,-0.21921 -0.40216,-0.44062 -0.40216,-0.49202 0,-0.0514 -0.1143,-0.17795 -0.254,-0.28123 -0.1397,-0.10329 -0.254,-0.23188 -0.254,-0.28576 0,-0.0539 -0.25718,-0.34458 -0.5715,-0.64601 -0.31433,-0.30143 -0.7239,-0.71722 -0.91017,-0.92399 -0.18627,-0.20676 -0.480339,-0.4887 -0.653494,-0.62652 -0.173156,-0.13783 -0.337556,-0.35407 -0.365334,-0.48055 -0.02962,-0.13484 -0.23832,-0.3904 -0.504614,-0.6179 -0.249759,-0.21338 -0.540597,-0.53022 -0.646307,-0.70409 -0.203242,-0.33429 -0.584028,-0.85276 -0.885097,-1.20513 -0.09947,-0.11641 -0.252346,-0.34501 -0.339727,-0.508 -0.08738,-0.16298 -0.240265,-0.39158 -0.339744,-0.508 -0.09948,-0.11641 -0.204929,-0.31395 -0.234334,-0.43896 -0.05129,-0.21806 -0.219903,-0.51966 -0.619525,-1.10818 -0.10203,-0.15025 -0.308264,-0.49395 -0.458297,-0.76378 -0.150033,-0.26982 -0.412436,-0.65082 -0.583118,-0.84666 -0.170682,-0.19585 -0.421648,-0.56378 -0.557703,-0.81763 -0.136055,-0.25386 -0.333055,-0.55465 -0.437779,-0.66843 -0.104723,-0.11379 -0.324591,-0.40904 -0.488594,-0.65612 -0.537903,-0.81039 -1.776613,-2.06926 -2.366391,-2.4049 -0.20456,-0.11642 -0.527768,-0.32219 -0.718241,-0.45727 -0.293741,-0.20832 -0.377058,-0.23159 -0.54883,-0.15333 -0.111384,0.0508 -0.22925,0.18032 -0.261925,0.28794 -0.03267,0.10761 -0.12775,0.27186 -0.21128,0.36499 -0.08353,0.0931 -0.275527,0.41698 -0.426661,0.71967 -0.151133,0.30268 -0.3393,0.64558 -0.418149,0.762 -0.07885,0.11641 -0.343342,0.59266 -0.587762,1.05833 -0.24442,0.46567 -0.678856,1.21598 -0.965413,1.66737 -0.478227,0.75331 -0.655553,1.05836 -1.22868,2.11365 -0.109816,0.20221 -0.397943,0.67245 -0.640281,1.04498 -0.242339,0.37253 -0.545544,0.85989 -0.673791,1.08301 -0.128246,0.22311 -0.39257,0.59257 -0.587385,0.821 -0.194816,0.22844 -0.46851,0.57412 -0.60821,0.76818 -0.610782,0.84846 -2.122305,2.28081 -2.406878,2.28081 -0.03853,0 -0.117853,0.0576 -0.176274,0.12799 -0.218578,0.26337 -3.103708,1.39601 -3.556002,1.39601 -0.08145,0 -0.30169,0.14906 -0.489417,0.33124 -0.314461,0.30518 -0.344266,0.37348 -0.378718,0.86784 -0.02057,0.29512 -0.0982,0.70804 -0.172511,0.91759 -0.25037,0.70599 -0.474825,1.56356 -0.520759,1.98966 -0.0251,0.23284 -0.0695,0.65194 -0.09867,0.93134 -0.02917,0.2794 -0.0844,0.54747 -0.12274,0.59572 -0.03834,0.0483 -0.07026,0.43221 -0.07093,0.85326 -6.7e-4,0.42104 -0.04087,0.86982 -0.08933,0.99729 -0.04846,0.12746 -0.08932,0.39119 -0.0908,0.58607 -0.0015,0.19488 -0.0532,0.42085 -0.114924,0.50216 -0.170303,0.22432 -0.184996,2.32359 -0.01904,2.72077 0.107603,0.25753 0.109168,0.33607 0.0107,0.53686 -0.07797,0.159 -0.129028,0.71521 -0.157586,1.71687 -0.05235,1.83613 -0.02929,2.00562 0.282141,2.07402 0.129126,0.0284 0.445651,0.26863 0.703389,0.53394 0.565264,0.58186 1.252826,1.09579 1.566018,1.17056 0.126316,0.0302 0.267766,0.084 0.314333,0.11954 0.04657,0.0356 0.256116,0.10813 0.465666,0.16119 0.20955,0.0531 0.4572,0.13039 0.550334,0.17184 0.22347,0.0995 0.647199,0.17587 1.27,0.22903 0.2794,0.0238 0.5461,0.0729 0.592666,0.10891 0.04657,0.036 0.237067,0.0922 0.423334,0.12482 0.186266,0.0326 0.491066,0.10909 0.677333,0.16998 0.186267,0.0609 0.56586,0.1382 0.84354,0.17179 0.277681,0.0336 0.688666,0.13351 0.913301,0.22206 0.224636,0.0885 0.614319,0.16098 0.865963,0.16098 0.251645,0 0.481083,0.0381 0.509863,0.0847 0.03078,0.0498 0.531457,0.0847 1.21573,0.0847 0.639872,0 1.199743,0.0363 1.244159,0.0807 0.119318,0.11932 1.193787,0.26177 2.51279,0.33314 0.639474,0.0346 1.186234,0.0865 1.215023,0.11525 0.05119,0.0512 6.437543,-0.002 7.274298,-0.0606 z" style="display:inline;fill:#efd79e"></path></g></g></svg>
