<svg xmlns="http://www.w3.org/2000/svg" id="svg39" version="1.0" preserveAspectRatio="xMidYMid" height="1932.0001" viewBox="0 0 1449 1449" zoomAndPan="magnify" width="1932">
  
  <defs id="defs4">
    <clipPath id="b63fed0bcd">
      <path id="path1" clip-rule="nonzero" d="M 17.839844,17.839844 H 1466.8398 V 1466.8398 H 17.839844 Z m 0,0"></path>
    </clipPath>
    <clipPath id="93a5468090">
      <path id="path2" clip-rule="nonzero" d="M 37.878906,39.867188 H 1447.1289 V 1449.1172 H 37.878906 Z m 0,0"></path>
    </clipPath>
    <clipPath id="092db21c6b">
      <path id="path3" clip-rule="nonzero" d="M 44.746094,1124.2148 H 1440.4961 v 264 H 44.746094 Z m 0,0"></path>
    </clipPath>
    <clipPath id="100cb934b2">
      <path id="path4" clip-rule="nonzero" d="M 71.726562,1149.7773 H 1413.4766 v 213 H 71.726562 Z m 0,0"></path>
    </clipPath>
  </defs>
  <g transform="translate(-17.839843,-17.839844)" id="g5" clip-path="url(#b63fed0bcd)">
    <path id="path5" fill-rule="nonzero" fill-opacity="1" d="m 1467.1563,742.5 c 0,11.85937 -0.2891,23.71094 -0.8711,35.55469 -0.5821,11.84765 -1.4571,23.67187 -2.6172,35.47265 -1.1641,11.80078 -2.6133,23.57032 -4.3555,35.30078 -1.7383,11.73047 -3.7656,23.41407 -6.082,35.04297 -2.3125,11.63282 -4.9102,23.19922 -7.793,34.70313 -2.8789,11.5039 -6.043,22.93359 -9.4844,34.28125 -3.4453,11.34765 -7.164,22.60547 -11.1562,33.77344 -3.9961,11.16406 -8.2656,22.22659 -12.8008,33.18359 -4.5391,10.957 -9.3438,21.7969 -14.4141,32.5156 -5.0703,10.7227 -10.4023,21.3125 -15.9922,31.7696 -5.5898,10.4609 -11.4335,20.7773 -17.5312,30.9492 -6.0977,10.1719 -12.4414,20.1875 -19.0313,30.0508 -6.5859,9.8593 -13.414,19.5546 -20.4804,29.0781 -7.0625,9.5273 -14.3555,18.875 -21.8789,28.039 -7.5235,9.168 -15.2696,18.1485 -23.2344,26.9336 -7.9648,8.7891 -16.1406,17.375 -24.5234,25.7618 -8.3868,8.3828 -16.9727,16.5586 -25.7618,24.5234 -8.7851,7.9648 -17.7656,15.7109 -26.9336,23.2344 -9.1679,7.5234 -18.5117,14.8164 -28.039,21.8789 -9.5235,7.0664 -19.2188,13.8945 -29.0781,20.4804 -9.8633,6.5899 -19.8789,12.9336 -30.0508,19.0313 -10.1719,6.0977 -20.4883,11.9414 -30.9492,17.5312 -10.4571,5.5899 -21.0469,10.9219 -31.7696,15.9922 -10.7187,5.0703 -21.5586,9.875 -32.5156,14.4141 -10.957,4.5391 -22.01953,8.8047 -33.18359,12.8008 -11.16797,3.9922 -22.42579,7.7148 -33.77344,11.1562 -11.34766,3.4414 -22.77735,6.6055 -34.28125,9.4844 -11.50391,2.8828 -23.07031,5.4805 -34.70313,7.793 -11.63281,2.3164 -23.3125,4.3437 -35.04297,6.082 -11.73046,1.7422 -23.5,3.1914 -35.30078,4.3555 -11.80468,1.1601 -23.625,2.0351 -35.47265,2.6172 -11.84375,0.582 -23.69532,0.8711 -35.55469,0.8711 -11.86328,0 -23.71484,-0.2891 -35.55859,-0.8711 -11.84766,-0.5821 -23.66797,-1.4571 -35.47266,-2.6172 -11.80078,-1.1641 -23.57031,-2.6133 -35.30078,-4.3555 -11.73047,-1.7383 -23.41016,-3.7656 -35.04297,-6.082 -11.63281,-2.3125 -23.19922,-4.9102 -34.70313,-7.793 -11.5039,-2.8789 -22.93359,-6.043 -34.28125,-9.4844 -11.34765,-3.4414 -22.60546,-7.164 -33.77343,-11.1562 -11.16407,-3.9961 -22.22657,-8.2617 -33.1836,-12.8008 -10.95703,-4.5391 -21.79687,-9.3438 -32.51562,-14.4141 -10.72266,-5.0703 -21.3125,-10.4023 -31.76953,-15.9922 -10.46094,-5.5898 -20.77735,-11.4335 -30.94922,-17.5312 -10.17188,-6.0977 -20.1875,-12.4414 -30.05078,-19.0313 -9.85938,-6.5859 -19.55469,-13.414 -29.07813,-20.4804 -9.52734,-7.0625 -18.87109,-14.3555 -28.03906,-21.8789 -9.16797,-7.5235 -18.14453,-15.2696 -26.93359,-23.2344 -8.78907,-7.9648 -17.375,-16.1406 -25.76172,-24.5234 -8.38282,-8.3868 -16.5586,-16.9727 -24.52344,-25.7618 -7.96484,-8.7851 -15.71094,-17.7656 -23.23438,-26.9336 -7.52343,-9.1679 -14.8164,-18.5117 -21.8789,-28.039 -7.06641,-9.5235 -13.89453,-19.2188 -20.48047,-29.0781 -6.58984,-9.8633 -12.93359,-19.8789 -19.03125,-30.0508 -6.09766,-10.1719 -11.94141,-20.4883 -17.53125,-30.9492 -5.589844,-10.4571 -10.921875,-21.0469 -15.992188,-31.7696 -5.070312,-10.7187 -9.875,-21.5586 -14.414062,-32.5156 -4.539062,-10.957 -8.804688,-22.01953 -12.800781,-33.18359 -3.992188,-11.16797 -7.714844,-22.42579 -11.15625,-33.77344 -3.441407,-11.34766 -6.605469,-22.77735 -9.484375,-34.28125 -2.882813,-11.50391 -5.480469,-23.07031 -7.792969,-34.70313 -2.316406,-11.63281 -4.34375,-23.3125 -6.082031,-35.04297 -1.742188,-11.73046 -3.191406,-23.5 -4.355469,-35.30078 -1.160156,-11.80078 -2.035156,-23.625 -2.613281,-35.47265 -0.582032,-11.84375 -0.875,-23.69532 -0.875,-35.55469 0,-11.86328 0.292968,-23.71484 0.875,-35.55859 0.578125,-11.84766 1.453125,-23.66797 2.613281,-35.47266 1.164063,-11.80078 2.613281,-23.57031 4.355469,-35.30078 1.738281,-11.73047 3.765625,-23.41016 6.082031,-35.04297 2.3125,-11.63281 4.910156,-23.19922 7.792969,-34.70313 2.878906,-11.5039 6.042968,-22.93359 9.484375,-34.28125 3.441406,-11.34765 7.164062,-22.60546 11.15625,-33.77343 3.996093,-11.16407 8.261719,-22.22657 12.800781,-33.1836 4.539062,-10.95703 9.34375,-21.79687 14.414062,-32.51562 5.070313,-10.72266 10.402344,-21.3125 15.992188,-31.76953 5.58984,-10.46094 11.43359,-20.77735 17.53125,-30.94922 6.09766,-10.17188 12.44141,-20.1875 19.03125,-30.05078 6.58594,-9.85938 13.41406,-19.55469 20.48047,-29.07813 7.0625,-9.52734 14.35547,-18.87109 21.8789,-28.03906 7.52344,-9.16797 15.26954,-18.14453 23.23438,-26.93359 7.96484,-8.78907 16.14062,-17.375 24.52344,-25.76172 8.38672,-8.38282 16.97265,-16.5586 25.76172,-24.52344 8.78906,-7.96484 17.76562,-15.70703 26.93359,-23.23438 9.16797,-7.52343 18.51172,-14.8164 28.03906,-21.8789 9.52344,-7.06641 19.21875,-13.89453 29.07813,-20.48047 9.86328,-6.58984 19.8789,-12.93359 30.05078,-19.03125 10.17187,-6.09766 20.48828,-11.94141 30.94922,-17.53125 10.45703,-5.589844 21.04687,-10.921875 31.76953,-15.992188 10.71875,-5.070312 21.55859,-9.875 32.51562,-14.414062 10.95703,-4.535156 22.01953,-8.804688 33.1836,-12.800781 11.16797,-3.992188 22.42578,-7.714844 33.77343,-11.15625 11.34766,-3.441407 22.77735,-6.605469 34.28125,-9.484375 11.50391,-2.882813 23.07032,-5.480469 34.70313,-7.792969 11.63281,-2.316406 23.3125,-4.34375 35.04297,-6.082031 11.73047,-1.742188 23.5,-3.191406 35.30078,-4.355469 11.80469,-1.160156 23.625,-2.03125 35.47266,-2.613281 11.84375,-0.582032 23.69531,-0.875 35.55859,-0.875 11.85937,0 23.71094,0.292968 35.55469,0.875 11.84765,0.582031 23.66797,1.453125 35.47265,2.613281 11.80078,1.164063 23.57032,2.613281 35.30078,4.355469 11.73047,1.738281 23.41016,3.765625 35.04297,6.082031 11.63282,2.3125 23.19922,4.910156 34.70313,7.792969 11.5039,2.878906 22.93359,6.042968 34.28125,9.484375 11.34765,3.441406 22.60547,7.164062 33.77344,11.15625 11.16406,3.996093 22.22659,8.265625 33.18359,12.800781 10.957,4.539062 21.7969,9.34375 32.5156,14.414062 10.7227,5.070313 21.3125,10.402344 31.7735,15.992188 10.457,5.58984 20.7734,11.43359 30.9453,17.53125 10.1719,6.09766 20.1875,12.44141 30.0508,19.03125 9.8593,6.58594 19.5546,13.41406 29.0781,20.48047 9.5273,7.0625 18.8711,14.35547 28.039,21.8789 9.168,7.52735 18.1485,15.26954 26.9336,23.23438 8.7891,7.96484 17.375,16.14062 25.7618,24.52344 8.3828,8.38672 16.5586,16.97265 24.5234,25.76172 7.9648,8.78906 15.7109,17.76562 23.2344,26.93359 7.5234,9.16797 14.8164,18.51172 21.8828,28.03906 7.0625,9.52344 13.8906,19.21875 20.4765,29.07813 6.5899,9.86328 12.9336,19.8789 19.0313,30.05078 6.0977,10.17187 11.9414,20.48828 17.5312,30.94922 5.5899,10.45703 10.9219,21.04687 15.9922,31.76953 5.0703,10.71875 9.875,21.55859 14.4141,32.51562 4.5352,10.95703 8.8047,22.01953 12.8008,33.1836 3.9922,11.16797 7.7148,22.42578 11.1562,33.77343 3.4414,11.34766 6.6055,22.77735 9.4844,34.28125 2.8828,11.50391 5.4805,23.07032 7.793,34.70313 2.3164,11.63281 4.3437,23.3125 6.082,35.04297 1.7422,11.73047 3.1914,23.5 4.3555,35.30078 1.1601,11.80469 2.0351,23.625 2.6172,35.47266 0.582,11.84375 0.8711,23.69531 0.8711,35.55859 z m 0,0" fill="#f1d9a0"></path>
  </g>
  <g transform="translate(-17.839843,-17.839844)" id="g6" clip-path="url(#93a5468090)">
    <path id="path6" fill-rule="nonzero" fill-opacity="1" d="m 1447.1172,744.48828 c 0,11.53125 -0.2813,23.05469 -0.8477,34.57422 -0.5664,11.51562 -1.414,23.01172 -2.5468,34.48828 -1.1289,11.47656 -2.5391,22.91797 -4.2305,34.32422 -1.6953,11.40625 -3.6641,22.76562 -5.9141,34.07812 -2.25,11.3086 -4.7773,22.55469 -7.5781,33.74219 -2.8008,11.1875 -5.875,22.29688 -9.2227,33.33203 -3.3476,11.03516 -6.9648,21.98047 -10.8515,32.83985 -3.8828,10.85547 -8.0313,21.61331 -12.4453,32.26561 -4.4141,10.6524 -9.086,21.1914 -14.0157,31.6172 -4.9296,10.4258 -10.1132,20.7227 -15.5468,30.8906 -5.4375,10.1719 -11.1211,20.2032 -17.0469,30.0938 -5.9297,9.8906 -12.0977,19.6289 -18.5039,29.2187 -6.4063,9.586 -13.043,19.0117 -19.9141,28.2735 -6.8711,9.2656 -13.9609,18.3515 -21.2773,27.2656 -7.3164,8.9141 -14.8438,17.6445 -22.5899,26.1875 -7.7421,8.543 -15.6914,16.8945 -23.8476,25.0469 -8.1524,8.1562 -16.5039,16.1054 -25.0469,23.8476 -8.543,7.7461 -17.2734,15.2735 -26.1875,22.5899 -8.9141,7.3164 -18.0039,14.4101 -27.2656,21.2773 -9.2617,6.8711 -18.6875,13.5078 -28.2735,19.9141 -9.5898,6.4062 -19.3281,12.5742 -29.2187,18.5039 -9.8945,5.9258 -19.9219,11.6094 -30.0938,17.0469 -10.1679,5.4335 -20.4648,10.6171 -30.8906,15.5468 -10.4258,4.9336 -20.9648,9.6055 -31.6172,14.0157 -10.6562,4.414 -21.41013,8.5625 -32.2695,12.4492 -10.85547,3.8828 -21.80078,7.5 -32.83594,10.8476 -11.03515,3.3477 -22.14844,6.4219 -33.33203,9.2227 -11.1875,2.8047 -22.43359,5.3281 -33.74609,7.5781 -11.3086,2.25 -22.66797,4.2227 -34.07422,5.9141 -11.40625,1.6914 -22.84766,3.1015 -34.32422,4.2343 -11.47656,1.129 -22.97266,1.9766 -34.49219,2.543 -11.51562,0.5664 -23.03906,0.8477 -34.57422,0.8477 -11.53125,0 -23.05468,-0.2813 -34.57031,-0.8477 -11.51953,-0.5664 -23.01562,-1.414 -34.49219,-2.543 -11.47656,-1.1328 -22.91797,-2.5429 -34.32422,-4.2343 -11.40625,-1.6914 -22.76562,-3.6641 -34.07421,-5.9141 -11.3125,-2.25 -22.5586,-4.7734 -33.7461,-7.5781 -11.1875,-2.8008 -22.29687,-5.875 -33.33203,-9.2227 -11.03516,-3.3476 -21.98047,-6.9648 -32.83984,-10.8476 -10.85547,-3.8867 -21.61328,-8.0352 -32.26563,-12.4492 -10.65234,-4.4102 -21.1914,-9.0821 -31.61719,-14.0157 -10.42578,-4.9297 -20.72265,-10.1133 -30.89062,-15.5468 -10.17188,-5.4375 -20.20313,-11.1172 -30.09375,-17.0469 -9.89063,-5.9297 -19.62891,-12.0977 -29.21875,-18.5039 -9.58594,-6.4063 -19.01172,-13.043 -28.27344,-19.9141 -9.26172,-6.8672 -18.35156,-13.9609 -27.26562,-21.2773 -8.91407,-7.3164 -17.64453,-14.8438 -26.1875,-22.5899 -8.54297,-7.7422 -16.89453,-15.6914 -25.04688,-23.8476 -8.15625,-8.1524 -16.10547,-16.5039 -23.84765,-25.0469 -7.7461,-8.543 -15.27344,-17.2734 -22.58985,-26.1875 -7.3164,-8.9141 -14.41015,-18.0039 -21.27734,-27.2656 -6.8711,-9.2618 -13.50781,-18.6875 -19.91406,-28.2735 -6.40625,-9.5898 -12.57422,-19.3281 -18.50391,-29.2187 -5.92578,-9.8906 -11.60937,-19.9219 -17.04687,-30.0938 -5.4336,-10.1679 -10.61719,-20.4648 -15.54688,-30.8906 -4.93359,-10.4258 -9.605469,-20.9648 -14.015625,-31.6172 -4.414063,-10.6523 -8.5625,-21.41014 -12.449219,-32.26561 -3.882812,-10.85938 -7.5,-21.80469 -10.847656,-32.83985 -3.347656,-11.03515 -6.421875,-22.14453 -9.222656,-33.33203 -2.804688,-11.1875 -5.328125,-22.43359 -7.578125,-33.74609 -2.25,-11.3086 -4.222657,-22.66797 -5.914063,-34.07422 -1.691406,-11.40625 -3.101562,-22.84766 -4.230468,-34.32422 -1.132813,-11.47656 -1.980469,-22.97266 -2.546876,-34.48828 -0.566406,-11.51953 -0.847656,-23.04297 -0.847656,-34.57422 0,-11.53125 0.28125,-23.05859 0.847656,-34.57422 0.566407,-11.51953 1.414063,-23.01562 2.546876,-34.49219 1.128906,-11.47656 2.539062,-22.91796 4.230468,-34.32421 1.691406,-11.40625 3.664063,-22.76563 5.914063,-34.07422 2.25,-11.3125 4.777343,-22.5586 7.578125,-33.7461 2.800781,-11.18359 5.875,-22.29687 9.222656,-33.33203 3.347656,-11.03515 6.964844,-21.98047 10.847656,-32.83594 3.886719,-10.85937 8.035156,-21.61328 12.449219,-32.26953 4.410156,-10.65234 9.082035,-21.1914 14.015625,-31.61718 4.92969,-10.42188 10.11328,-20.72266 15.54688,-30.89063 5.4375,-10.17187 11.12109,-20.19922 17.04687,-30.08984 5.92969,-9.89453 12.09766,-19.63282 18.50391,-29.21875 6.40625,-9.58985 13.04296,-19.01563 19.91406,-28.27735 6.86719,-9.26172 13.96094,-18.35156 21.27734,-27.26562 7.31641,-8.91406 14.84375,-17.64063 22.58985,-26.1875 7.74218,-8.54297 15.6914,-16.89453 23.84765,-25.04688 8.15235,-8.15234 16.50391,-16.10156 25.04688,-23.84765 8.54297,-7.74219 17.27343,-15.27344 26.1875,-22.58985 8.91406,-7.3164 18.0039,-14.40625 27.26562,-21.27734 9.26172,-6.86719 18.6875,-13.50781 28.27344,-19.91406 9.58984,-6.40625 19.32812,-12.57422 29.21875,-18.50391 9.89062,-5.92578 19.92187,-11.60937 30.09375,-17.04297 10.16797,-5.4375 20.46484,-10.62109 30.89062,-15.55078 10.42579,-4.92969 20.96485,-9.601561 31.61719,-14.015624 10.65235,-4.414062 21.41016,-8.5625 32.26563,-12.445312 10.85937,-3.886719 21.80468,-7.503906 32.83984,-10.851563 11.03516,-3.347656 22.14453,-6.421875 33.33203,-9.222656 11.1875,-2.800781 22.4336,-5.328125 33.7461,-7.578125 11.30859,-2.25 22.66796,-4.21875 34.07421,-5.910156 11.40625,-1.695313 22.84766,-3.105469 34.32422,-4.234375 11.47657,-1.132813 22.97266,-1.980469 34.49219,-2.546875 11.51563,-0.5625 23.03906,-0.847656 34.57031,-0.847656 11.53516,0 23.0586,0.285156 34.57422,0.847656 11.51953,0.566406 23.01563,1.414062 34.49219,2.546875 11.47656,1.128906 22.91797,2.539062 34.32422,4.234375 11.40625,1.691406 22.76562,3.660156 34.07422,5.910156 11.3125,2.25 22.55859,4.777344 33.74609,7.578125 11.18359,2.800781 22.29688,5.875 33.33203,9.222656 11.03516,3.347657 21.98047,6.964844 32.83594,10.851563 10.85937,3.882812 21.6133,8.03125 32.2695,12.445312 10.6524,4.414063 21.1914,9.085934 31.6172,14.015624 10.4258,4.92969 20.7227,10.11328 30.8906,15.55078 10.1719,5.4336 20.1993,11.11719 30.0938,17.04297 9.8906,5.92969 19.6289,12.09766 29.2187,18.50391 9.586,6.40625 19.0118,13.04687 28.2735,19.91406 9.2617,6.87109 18.3515,13.96094 27.2656,21.27734 8.9141,7.31641 17.6445,14.84766 26.1875,22.58985 8.543,7.74609 16.8945,15.69531 25.0469,23.84765 8.1562,8.15235 16.1055,16.50391 23.8476,25.04688 7.7461,8.54687 15.2735,17.27344 22.5899,26.1875 7.3164,8.91406 14.4062,18.0039 21.2773,27.26562 6.8711,9.26172 13.5078,18.6875 19.9141,28.27735 6.4062,9.58593 12.5742,19.32422 18.5039,29.21875 5.9258,9.89062 11.6094,19.91797 17.0469,30.08984 5.4336,10.16797 10.6172,20.46875 15.5468,30.89063 4.9297,10.42578 9.6016,20.96484 14.0157,31.61718 4.414,10.65625 8.5625,21.41016 12.4453,32.26953 3.8867,10.85547 7.5039,21.80079 10.8515,32.83594 3.3477,11.03516 6.4219,22.14844 9.2227,33.33203 2.8008,11.1875 5.3281,22.4336 7.5781,33.7461 2.25,11.30859 4.2188,22.66797 5.9141,34.07422 1.6914,11.40625 3.1016,22.84765 4.2305,34.32421 1.1328,11.47657 1.9804,22.97266 2.5468,34.49219 0.5664,11.51563 0.8477,23.04297 0.8477,34.57422 z m 0,0" fill="#b53620"></path>
  </g>
  <path id="path7" fill-rule="nonzero" fill-opacity="1" d="m 823.45703,390.86719 c -18.51562,0 -39.73437,4.04297 -63.01953,12.17188 -55.03125,19.21484 -114.35156,58.8125 -167.03515,111.49609 -52.6836,52.6875 -92.27735,112.01172 -111.49219,167.04297 -18.66016,53.45312 -15.78906,96.04687 8.09375,119.92969 23.88672,23.88281 66.47656,26.76171 119.92969,8.09765 35.40234,-12.36328 72.58203,-33.17187 108.6289,-60.46484 -38.55078,-28.05078 -82.30468,-40.07813 -130.1914,-35.73438 -37.7461,3.42578 -64.04297,16.3086 -64.30469,16.4375 -3.21484,1.59766 -7.10547,0.28516 -8.70313,-2.91797 -1.59375,-3.20703 -0.29687,-7.10156 2.91016,-8.69921 1.13672,-0.57032 28.35938,-13.97266 68.39844,-17.70313 36.32031,-3.38281 90.22656,1.00391 142.52734,40.34766 16.3086,-13.01172 32.32813,-27.32032 47.76953,-42.76172 16.40625,-16.40625 31.54297,-33.45703 45.19141,-50.82422 -60.33594,-42.86328 -72.51563,-91.28125 -71.91016,-124.75781 0.66797,-37.27735 16.65625,-63.85547 17.33594,-64.96875 1.86719,-3.0586 5.86328,-4.02344 8.92578,-2.15625 3.05469,1.86718 4.02344,5.85937 2.15625,8.91797 -0.25,0.41796 -14.99609,25.22656 -15.44531,59.0039 -0.58203,43.69922 21.89453,81.91797 66.82812,113.66016 26.28907,-35.19531 46.35938,-71.40235 58.41016,-105.91797 C 907.125,477.61328 904.25,435.01953 880.36719,411.13672 866.88282,397.65625 847.44141,390.86719 823.45703,390.86719 Z m 0,0" fill="#f1d9a0"></path>
  <path id="path8" fill-rule="nonzero" fill-opacity="1" d="m 1014.2305,333.64844 c -28.46094,-28.46484 -68.8594,-42.95703 -117.57034,-42.95703 -26.58203,0 -55.63672,4.3125 -86.58594,13.03125 -88.96875,25.06641 -182.47656,83.375 -263.29297,164.19531 -165.89062,165.89453 -226.12109,375.59766 -134.26172,467.46094 43.98829,43.98828 116.48438,54.61715 204.15235,29.92187 88.97265,-25.0625 182.47656,-83.375 263.29297,-164.1914 C 1045.8555,635.21094 1106.086,425.50782 1014.2305,333.64844 Z M 982.47266,539.12891 C 959.6836,613.85157 909.26563,692.875 840.5,761.64063 771.73438,830.41016 692.71094,880.83203 617.99219,903.6211 c -28.42969,8.67187 -55.00781,12.96875 -79.13672,12.96875 -40.47265,0 -74.03515,-12.09375 -97.84765,-35.90625 C 403,842.67578 394.85547,779.82032 418.07032,703.69141 c 22.78906,-74.72266 73.21093,-153.74219 141.97656,-222.51172 68.76172,-68.76562 147.78515,-119.1875 222.5039,-141.97656 76.125,-23.21485 138.97657,-15.07031 176.98438,22.9375 38.0078,38.00781 46.15234,100.86328 22.9375,176.98828 z m 0,0" fill="#f1d9a0"></path>
  <path id="path9" fill-rule="nonzero" fill-opacity="1" d="m 950.35547,371.32032 c -21.30469,-21.30469 -51.71094,-32.11329 -88.68359,-32.11329 -22.8125,0 -48.11719,4.11329 -75.33203,12.41407 -72.72266,22.17968 -149.82422,71.44922 -217.11328,138.73828 -67.28516,67.29297 -116.55469,144.39844 -138.73047,217.12109 -21.75,71.31641 -14.75782,129.56641 19.69531,164.01953 34.45312,34.45313 92.70703,41.44922 164.01562,19.69922 C 686.92969,869.01953 764.03125,819.75 831.32032,752.46094 898.60547,685.17188 947.875,608.0625 970.05469,535.33985 991.80076,464.02735 984.80856,405.77344 950.35547,371.32032 Z M 900.71875,535.34766 C 880.8711,592.1875 840.1836,653.25 786.14453,707.28907 c -54.03515,54.03906 -115.09375,94.72656 -171.93359,114.57421 -24.60547,8.58985 -47.25391,12.85938 -67.28906,12.85938 -27.53125,0 -50.125,-8.05469 -66.10156,-24.03125 -27.59766,-27.60156 -31.56641,-74.97656 -11.17188,-133.39063 19.84375,-56.83984 60.53516,-117.90234 114.57031,-171.94531 54.03907,-54.03515 115.09766,-94.72656 171.9375,-114.57031 58.41797,-20.39844 105.78907,-16.42969 133.38672,11.17187 27.60156,27.60157 31.57031,74.97266 11.17578,133.39063 z m 0,0" fill="#f1d9a0"></path>
  <path id="path10" fill-rule="nonzero" fill-opacity="1" d="m 1065.6055,304.91407 c -36.4922,-36.49219 -87.96878,-55.19141 -149.41018,-55.19141 -28.52344,0 -59.19922,4.03125 -91.51563,12.17969 C 721.57032,287.90625 614.41016,352.60157 522.9375,444.07422 334.96094,632.0586 272.53907,875.50391 383.78516,986.75786 c 53.4375,53.43754 139,68.71094 240.92578,43.00784 103.10938,-26 210.26953,-90.69538 301.73828,-182.16804 C 1114.4297,659.61328 1176.8555,416.16407 1065.6055,304.91407 Z m -176.46097,505.375 c -82.35937,82.36328 -177.875,141.85156 -268.94921,167.50781 -32.09766,9.04298 -62.34375,13.51948 -90.13282,13.51948 -52.20312,0 -95.7539,-15.78511 -126.72265,-46.75776 -47.46094,-47.46094 -59.26563,-124.47657 -33.24219,-216.86328 25.65625,-91.07813 85.14453,-186.59766 167.50391,-268.96094 82.35937,-82.36328 177.875,-141.85156 268.95312,-167.50781 92.38281,-26.02344 169.39844,-14.21875 216.85551,33.24218 47.457,47.45703 59.2617,124.47657 33.2383,216.86328 -25.6563,91.07813 -85.14459,186.59375 -167.50397,268.95704 z m 0,0" fill="#f1d9a0"></path>
  <g transform="translate(-17.839843,-17.839844)" id="g11" clip-path="url(#092db21c6b)">
    <path id="path11" fill-rule="nonzero" fill-opacity="1" d="M 44.746094,1124.2148 H 1440.4961 v 264 H 44.746094 Z m 0,0" fill="#f1d9a0"></path>
  </g>
  <g transform="translate(-17.839843,-17.839844)" id="g12" clip-path="url(#100cb934b2)">
    <path id="path12" fill-rule="nonzero" fill-opacity="1" d="M 71.726562,1149.7773 H 1413.4766 v 213 H 71.726562 Z m 0,0" fill="#b53620"></path>
  </g>
  <g transform="translate(-17.839843,-17.839844)" id="g15" fill-opacity="1" fill="#f1d9a0">
    <g id="g14" transform="translate(331.07623,1312.7429)">
      <g id="g13">
        <path id="path13" d="m 85.71875,-114.86328 c -1.722656,0 -2.871094,1.0039 -3.015625,2.72656 l -5.886719,67.195314 h -0.71875 L 62.027344,-112.28125 c -0.429688,-1.72266 -1.4375,-2.58203 -3.160156,-2.58203 h -8.613282 c -1.722656,0 -2.726562,0.85937 -3.160156,2.58203 L 32.878906,-44.941406 H 32.164062 L 26.5625,-112.13672 c -0.144531,-1.72266 -1.292969,-2.72656 -3.015625,-2.72656 H 9.90625 c -1.867188,0 -2.871094,1.14844 -2.726562,3.01172 L 18.953125,-2.726562 C 19.097656,-0.863281 20.101562,0 21.96875,0 h 14.355469 c 1.726562,0 2.730469,-0.863281 3.160156,-2.441406 L 54.5625,-67.484375 69.492188,-2.585938 C 69.925781,-0.863281 70.929688,0 72.652344,0 h 14.070312 c 1.867188,0 2.871094,-0.863281 3.015625,-2.726562 L 102.08594,-111.85156 c 0.14453,-1.86328 -0.85938,-3.01172 -2.726565,-3.01172 z m 0,0"></path>
      </g>
    </g>
  </g>
  <g transform="translate(-17.839843,-17.839844)" id="g18" fill-opacity="1" fill="#f1d9a0">
    <g id="g17" transform="translate(454.69176,1312.7429)">
      <g id="g16">
        <path id="path15" d="M 7.179688,-20.675781 C 7.179688,-7.179688 14.359375,0 27.855469,0 H 43.9375 C 57.433594,0 64.613281,-7.179688 64.613281,-20.675781 V -94.1875 c 0,-13.5 -7.179687,-20.67578 -20.675781,-20.67578 H 27.855469 c -13.496094,0 -20.675781,7.17578 -20.675781,20.67578 z m 24.839843,2.152343 c -3.734375,0 -5.742187,-1.863281 -5.742187,-5.742187 v -66.335937 c 0,-3.730469 2.007812,-5.742188 5.742187,-5.742188 h 8.328125 c 3.730469,0 5.742188,2.011719 5.742188,5.742188 v 66.335937 c 0,3.878906 -2.011719,5.742187 -5.742188,5.742187 z m 0,0"></path>
      </g>
    </g>
  </g>
  <g transform="translate(-17.839843,-17.839844)" id="g21" fill-opacity="1" fill="#f1d9a0">
    <g id="g20" transform="translate(540.83538,1312.7429)">
      <g id="g19">
        <path id="path18" d="m 66.191406,-94.1875 c 0,-13.5 -7.179687,-20.67578 -20.675781,-20.67578 H 9.476562 c -1.4375,0 -2.296874,0.85937 -2.296874,2.29687 V -2.296875 C 7.179688,-0.863281 8.039062,0 9.476562,0 h 14.933594 c 1.433594,0 2.296875,-0.863281 2.296875,-2.296875 v -36.183594 h 9.90625 l 9.621094,36.46875 C 46.519531,-0.71875 47.238281,0 48.675781,0 h 14.929688 c 1.582031,0 2.441406,-0.863281 2.011719,-2.585938 l -9.90625,-37.617187 c 6.890624,-3.015625 10.480468,-9.332031 10.480468,-18.953125 z m -39.484375,36.753906 v -38.480468 h 14.214844 c 3.730469,0 5.742187,2.011718 5.742187,5.746093 v 26.992188 c 0,3.734375 -2.011718,5.742187 -5.742187,5.742187 z m 0,0"></path>
      </g>
    </g>
  </g>
  <g transform="translate(-17.839843,-17.839844)" id="g24" fill-opacity="1" fill="#f1d9a0">
    <g id="g23" transform="translate(628.55827,1312.7429)">
      <g id="g22">
        <path id="path21" d="m 67.195312,-114.86328 c -1.722656,0 -2.726562,0.85937 -3.15625,2.58203 l -15.9375,71.503906 -15.9375,-71.503906 c -0.433593,-1.72266 -1.4375,-2.58203 -3.160156,-2.58203 H 10.050781 c -1.867187,0 -2.871093,1.0039 -2.871093,2.87109 V -2.871094 C 7.179688,-1.003906 8.183594,0 10.050781,0 h 13.210938 c 1.863281,0 2.871093,-1.003906 2.871093,-2.871094 v -64.613281 h 1.003907 L 41.351562,-2.585938 C 41.78125,-0.863281 42.789062,0 44.511719,0 h 7.035156 c 1.722656,0 2.726563,-0.863281 3.15625,-2.585938 l 14.214844,-64.898437 h 1.007812 V -2.871094 C 69.925781,-1.003906 70.929688,0 72.796875,0 h 13.351563 c 1.867187,0 2.871093,-1.003906 2.871093,-2.871094 V -111.99219 c 0,-1.86719 -1.003906,-2.87109 -2.871093,-2.87109 z m 0,0"></path>
      </g>
    </g>
  </g>
  <g transform="translate(-17.839843,-17.839844)" id="g27" fill-opacity="1" fill="#f1d9a0">
    <g id="g26" transform="translate(739.10889,1312.7429)">
      <g id="g25">
        <path id="path24" d="M 45.085938,-66.910156 H 26.707031 v -45.656254 c 0,-1.4375 -0.863281,-2.29687 -2.296875,-2.29687 H 9.621094 c -1.722656,0 -2.441406,0.85937 -2.441406,2.29687 V -2.296875 C 7.179688,-0.863281 7.898438,0 9.621094,0 h 14.789062 c 1.433594,0 2.296875,-0.863281 2.296875,-2.296875 V -47.957031 H 45.085938 V -2.296875 C 45.085938,-0.863281 45.945312,0 47.382812,0 h 14.789063 c 1.722656,0 2.441406,-0.863281 2.441406,-2.296875 V -112.56641 c 0,-1.4375 -0.71875,-2.29687 -2.441406,-2.29687 H 47.382812 c -1.4375,0 -2.296874,0.85937 -2.296874,2.29687 z m 0,0"></path>
      </g>
    </g>
  </g>
  <g transform="translate(-17.839843,-17.839844)" id="g30" fill-opacity="1" fill="#f1d9a0">
    <g id="g29" transform="translate(825.25251,1312.7429)">
      <g id="g28">
        <path id="path27" d="M 7.179688,-20.675781 C 7.179688,-7.179688 14.359375,0 27.855469,0 H 43.9375 C 57.433594,0 64.613281,-7.179688 64.613281,-20.675781 V -94.1875 c 0,-13.5 -7.179687,-20.67578 -20.675781,-20.67578 H 27.855469 c -13.496094,0 -20.675781,7.17578 -20.675781,20.67578 z m 24.839843,2.152343 c -3.734375,0 -5.742187,-1.863281 -5.742187,-5.742187 v -66.335937 c 0,-3.730469 2.007812,-5.742188 5.742187,-5.742188 h 8.328125 c 3.730469,0 5.742188,2.011719 5.742188,5.742188 v 66.335937 c 0,3.878906 -2.011719,5.742187 -5.742188,5.742187 z m 0,0"></path>
      </g>
    </g>
  </g>
  <g transform="translate(-17.839843,-17.839844)" id="g33" fill-opacity="1" fill="#f1d9a0">
    <g id="g32" transform="translate(911.39613,1312.7429)">
      <g id="g31">
        <path id="path30" d="m 26.707031,-18.953125 h 34.171875 c 1.578125,0 2.296875,0.863281 2.296875,2.296875 V -2.296875 C 63.175781,-0.71875 62.457031,0 60.878906,0 H 9.476562 C 8.039062,0 7.179688,-0.71875 7.179688,-2.296875 V -112.56641 c 0,-1.4375 0.859374,-2.29687 2.296874,-2.29687 h 14.933594 c 1.578125,0 2.296875,0.85937 2.296875,2.29687 z m 0,0"></path>
      </g>
    </g>
  </g>
  <g transform="translate(-17.839843,-17.839844)" id="g36" fill-opacity="1" fill="#f1d9a0">
    <g id="g35" transform="translate(996.10403,1312.7429)">
      <g id="g34">
        <path id="path33" d="m 64.46875,-112.56641 c 0,-1.4375 -0.574219,-2.29687 -2.296875,-2.29687 H 9.332031 c -1.292969,0 -2.152343,0.85937 -2.152343,2.29687 V -2.296875 C 7.179688,-0.863281 8.039062,0 9.332031,0 h 52.839844 c 1.722656,0 2.296875,-0.863281 2.296875,-2.296875 V -16.65625 c 0,-1.578125 -0.574219,-2.296875 -2.296875,-2.296875 H 26.277344 v -29.003906 h 27.421875 c 1.4375,0 2.296875,-0.859375 2.296875,-2.441407 v -14.214843 c 0,-1.578125 -0.859375,-2.4375 -2.296875,-2.4375 H 26.277344 v -28.71875 h 35.894531 c 1.722656,0 2.296875,-1.003907 2.296875,-2.441407 z m 0,0"></path>
      </g>
    </g>
  </g>
  <g transform="translate(-17.839843,-17.839844)" id="g39" fill-opacity="1" fill="#f1d9a0">
    <g id="g38" transform="translate(1082.104,1312.7429)">
      <g id="g37">
        <path id="path36" d="m 27.855469,-114.86328 c -13.355469,0 -20.675781,7.17578 -20.675781,20.67578 v 33.882812 c 0,2.730469 1.292968,4.453126 3.875,5.3125 l 34.03125,11.199219 v 19.097657 c 0,3.875 -2.011719,5.742187 -5.746094,5.742187 h -6.890625 c -3.589844,0 -5.742188,-1.867187 -5.742188,-5.742187 V -35.75 c 0,-1.582031 -0.71875,-2.300781 -2.296875,-2.300781 H 9.476562 c -1.4375,0 -2.296874,0.71875 -2.296874,2.300781 v 15.074219 C 7.179688,-7.179688 14.5,0 27.855469,0 H 43.9375 C 57.433594,0 64.613281,-7.179688 64.613281,-20.675781 V -53.84375 c 0,-2.726562 -1.292969,-4.308594 -3.734375,-5.3125 L 26.707031,-70.355469 v -19.8125 c 0,-3.734375 2.152344,-5.746093 5.742188,-5.746093 h 6.890625 c 3.878906,0 5.746094,2.011718 5.746094,5.746093 v 11.199219 c 0,1.433594 0.859374,2.296875 2.296874,2.296875 H 62.3125 c 1.582031,0 2.300781,-0.863281 2.300781,-2.296875 V -94.1875 c 0,-13.5 -7.179687,-20.67578 -20.675781,-20.67578 z m 0,0"></path>
      </g>
    </g>
  </g>
</svg>
